<?xml version="1.0" standalone="no"?>
<!DOCTYPE svg PUBLIC "-//W3C//DTD SVG 1.1//EN" "http://www.w3.org/Graphics/SVG/1.1/DTD/svg11.dtd">
<svg xmlns="http://www.w3.org/2000/svg">
<metadata>Generated by Fontastic.me</metadata>
<defs>
<font id="clubfont" horiz-adv-x="512">
<font-face font-family="clubfont" units-per-em="512" ascent="480" descent="-32"/>
<missing-glyph horiz-adv-x="512" />

<glyph glyph-name="job-search" unicode="&#97;" d="M280 424c-24 25-57 38-92 38-35 0-68-13-93-38-25-25-38-58-38-93 0-34 13-67 38-92 25-25 58-38 93-38 35 0 68 13 92 38 25 25 39 58 39 92 0 35-14 68-39 93z m-10-175c-22-22-51-34-82-34-31 0-60 12-82 34-22 22-34 51-34 82 0 31 12 61 34 83 22 21 51 34 82 34 31 0 60-13 82-34 22-22 34-52 34-83 0-31-12-60-34-82z m-148 158l9-11c24 20 56 27 85 17l5 13c-34 12-72 5-99-19z m118 10l-8-12c4-3 8-5 12-8l9 11c-4 3-8 7-13 9z m-34-170c-17-3-34-2-50 5l-6-14c12-5 25-7 38-7 7 0 14 1 21 2z m260-127l0 392-388 0 0-37c-1-1-3-3-5-4l-22 0 0-21c-28-33-44-75-44-119 0-43 16-85 44-118l0-213 372 0 0 24 12-12 70 70z m-14 377l0-362-29 28 0 308-120 0c-13 11-28 20-44 26z m-115-267c20 29 31 65 31 101 0 47-17 91-49 125l90 0 0-279-34 35-11-11z m16-40l-26-26-26 27c5 4 10 8 14 13 5 4 9 9 13 14z m-260 307l23 0c-8-3-15-7-23-12z m-22-48c31 31 72 48 117 48 44 0 86-17 117-48 65-65 65-170 0-235-65-64-170-64-234 0-65 65-65 170 0 235z m338-434l-343 0 0 183c34-31 78-47 122-47 35 0 71 10 101 31l27-29-11-11 104-103z m26 18l-109 109 49 49 109-109z m-60 136l-22-21 11-11 11 11 41-41 10 10z m54-75l10 10 11-11-10-10z m-216 252c8 7 13 17 13 28 0 21-16 38-37 38-20 0-37-17-37-38 0-11 5-21 13-28-18-9-30-27-30-48l0-39 109 0 0 39c0 21-13 39-31 48z m-24 51c12 0 23-10 23-23 0-12-11-22-23-22-12 0-22 10-22 22 0 13 10 23 22 23z m40-124l-79 0 0 25c0 22 17 39 39 39 22 0 40-17 40-39z m-116-153l0-15 165 0 0 15z m0-48l0-15 165 0 0 15z"/>
<glyph glyph-name="salary" unicode="&#98;" d="M388 86l120 120-5 5c-5 5-11 9-18 11l10 10-5 5c-11 11-25 15-39 15-8 7-17 11-27 13l0 0c-16 16-43 14-60-3l-23-23c1 4 1 7 1 10l0 7-188 0-74-74-12 12-64-64 130-130 64 64-12 11 10 11z m44 161c-5-3-9-6-14-10l-56-56-32 0 0-15 39 0 60 61c12 12 31 13 45 4l-6-5c0 0-1 0-1 0-13 0-26-6-36-15l-56-56-75 0c-15 0-28 6-39 16l-20 20 45 0c1 0 2 0 2 1l55 0 49 48c11 11 27 13 40 7z m-99-33l3 0 38 37c7 7 15 10 23 10-6-2-11-6-16-11l-44-44-13 0c0 1 1 2 2 2 2 2 3 4 5 6 1 0 2 0 2 0z m-199-193l-109 109 43 43 1-1 0 0 107-107 0 0 1-1z m42 65l-86 86 70 69 167 0c-2-8-6-16-12-22-7-8-17-12-27-13l-50 0 0 0-33 0 46-46c13-13 30-20 49-20l81 0 61 60c7 7 15 11 25 11 7 0 14-2 19-6l-104-105-192 0z m128 95l13 0 0-15-13 0z m-225-36c-3 4-9 6-14 6-5 0-11-2-14-6-4-4-6-9-6-14 0-6 2-11 6-15 3-4 9-6 14-6 5 0 11 2 14 6 8 8 8 21 0 29z m-10-18c-1-1-3-2-4-2-2 0-3 1-4 2-1 1-2 2-2 4 0 1 1 3 2 4 1 1 2 1 4 1 1 0 3 0 4-1 2-3 2-6 0-8z m215 320c-37 0-67-30-67-67 0-37 30-67 67-67 36 0 66 30 66 67 0 37-30 67-66 67z m0-119c-29 0-52 23-52 52 0 29 23 52 52 52 28 0 52-23 52-52 0-29-24-52-52-52z m14 55c-3 2-5 2-8 3-2 1-5 1-7 2-3 0-4 1-6 2-1 1-2 2-2 4 0 2 1 3 2 4 2 1 3 1 6 1 7 0 13-2 18-7l0 13c-2 2-6 3-13 4l0 13c0 0 0 0-1 0l-9 0c-1 0-1 0-1 0l0-13c-2-1-5-2-7-4-2-1-4-3-5-5-1-2-1-4-1-7 0-3 0-6 2-8 3-3 7-6 13-7l8-2c2 0 4-1 5-2 2-1 3-2 3-3 0-3-2-5-6-6-1-1-3-1-6-1-5 0-8 1-12 3-3 2-6 5-8 8l0-15c5-2 10-4 15-6l0-11c0 0 0-1 0-1l10 0c0 0 0 1 0 1l0 10c6 2 11 5 14 9 2 3 4 6 4 9 0 6-3 10-8 12z m128 81l0 25-29 0 0 23-337 0 0-168 29 0 0-23 26 0 0-25 337 0 0 168z m-337-105l-14 0 0 138 307 0 0-8-293 0z m26-23l-11 0 0 138 307 0 0-10-296 0z m322-25l-307 0 0 138 307 0z m-348-37l15 0 0-16-15 0z m187-215l15 0 0-17-15 0z m175 54l14 0 0-16-14 0z m-24-79l15 0 0-16-15 0z m-403 391l14 0 0-16-14 0z m-12-125l14 0 0-17-14 0z"/>
<glyph glyph-name="contract" unicode="&#99;" d="M276 461l0-15 38 0 0-25 15 0 0 40z m38-58l15 0 0-13-15 0z m0-267l0-28-56 0 0-15 71 0 0 43z m-95-28l18 0 0-15-18 0z m-172 245l263 0 0-14-263 0z m0-46l263 0 0-14-263 0z m455 52l-18-17-8 8 4 5c13 13 13 34 0 47l-1 1c-7 7-15 10-24 10-9 0-17-3-24-10l-34-34 0 75-43 0 0 42-256 0-98-98 0-320 43 0 0-42 354 0 0 245 69 69 8-9-76-75 11-10 103 103z m-148 71l28 0 0-76-28-27z m-261 31l0-68-68 0z m-78-379l0 296 93 0 0 93 232 0 0-159-51-51-242 0 0-15 227 0-16-16c-3-3-7-8-13-15l-198 0 0-15 187 0c-4-5-8-11-11-17-8-11-14-21-17-29-2-5-5-12-4-18l-7-7 11-10 6 6c1 0 2 0 3 0 5 0 11 2 16 4 7 4 17 9 29 17 20 13 41 29 47 35l33 33 0-132z m277 161l28-28-24-24c-5-4-22-18-40-30-22-15-34-20-39-21 1 5 6 17 20 39 13 18 26 36 31 40z m90-202l-325 0 0 27 297 0 0 161 28 27 0-215z m-51 185l-28 28 124 124 28-28z m139 139l-4-4-14 14-15 14 5 4c3 4 8 6 13 6 5 0 10-2 13-6l2-1c7-8 7-20 0-27z m-291-241c-2-2-5-2-9-2-5 2-9 7-13 13-2 3-4 5-6 8-11 13-27 15-42 6-3-2-6-4-8-6-7-5-13-10-20-9-7 0-13 4-16 10-2 5-1 11 4 19l-12 7c-3-4-11-18-5-32 4-11 16-19 28-19 12-1 22 6 30 12 2 2 4 4 7 5 6 4 15 7 23-3 2-2 3-4 5-6 5-7 11-16 22-19 2 0 4-1 7-1 5 0 9 2 13 4z m15 292c-3 1-5 2-8 2-2 1-5 1-7 2-2 0-4 1-6 2-1 1-2 2-2 4 0 2 1 4 2 4 2 1 3 1 6 1 7 0 13-2 18-7l0 13c-2 2-6 4-13 5l0 13c0 0 0 0-1 0l-9 0c-1 0-1 0-1-1l0-12c-2-1-5-2-7-4-2-2-4-4-5-6-1-2-1-4-1-7 0-3 0-5 2-8 3-3 7-6 13-7l8-2c2 0 4-1 5-2 2-1 3-2 3-3 0-3-2-5-6-6-1-1-3-1-6-1-5 0-8 1-12 3-3 2-6 5-8 9l0-16c5-2 10-4 15-6l0-11c0-1 0-1 0-1l10 0c0 0 0 0 0 1l0 10c7 2 11 5 14 9 3 3 4 6 4 9 0 6-3 10-8 13z"/>
<glyph glyph-name="intelligence" unicode="&#100;" d="M265 112l-1-15c5 0 10 0 15 0l0 14c-5 0-9 1-14 1z m173 217l0 0c-13 32-34 59-62 78-28 20-62 31-97 31 0 0 0 0 0 0-2 0-4 0-6 0l14 14-37 37-21-21c-11 6-22 11-34 14l0 30-53 0 0-30c-12-3-24-8-34-14l-21 21-38-37 22-21c-7-11-12-22-14-34l-31 0 0-53 31 0c2-12 7-24 14-34l-22-21 38-38 21 22c0 0 0 0 0 0 0-2 0-4 0-6 0-38 13-76 37-106 11-13 23-25 36-34l0-127 196 0 0 97c32 4 58 31 58 65l0 30 51 0z m-332-37l-19-20-17 17 20 19-4 5c-8 12-14 25-16 40l-1 6-28 0 0 23 28 0 1 6c2 14 8 27 16 39l4 5-20 20 17 16 19-19 5 3c12 9 25 14 40 17l6 1 0 27 23 0 0-27 6-1c14-3 27-8 39-17l5-3 20 19 16-16-19-20 3-5c8-12 14-25 17-39l1-6 27 0 0-23-27 0-1-6c-3-15-9-28-17-40l-3-5 19-19-16-17-20 20-5-4c-12-8-25-14-39-16l-6-1 0-28-23 0 0 28-6 1c-15 2-28 8-40 16z m329-85l0 17-15 0 0-62c0-28-23-51-50-51l-31 0 0-14 23 0 0-82-166 0 0 103c14-8 28-13 43-17l4 15c-70 16-119 77-120 149 6-3 12-5 19-6l0-31 53 0 0 31c12 2 23 7 34 14l21-22 37 38-21 21c6 10 11 22 14 34l30 0 0 53-30 0c-2 9-6 18-10 26 3 0 6 0 9 0 0 0 0 0 0 0 64 0 121-39 145-99l41-117z m-267 235c-40 0-72-32-72-72 0-39 32-72 72-72 40 0 72 33 72 72 0 40-32 72-72 72z m0-129c-31 0-57 26-57 57 0 32 26 58 57 58 32 0 57-26 57-58 0-31-25-57-57-57z m0 85c-15 0-28-12-28-28 0-15 13-28 28-28 16 0 28 13 28 28 0 16-12 28-28 28z m0-41c-7 0-13 6-13 13 0 7 6 13 13 13 7 0 13-6 13-13 0-7-6-13-13-13z m187-18l15 0 0-16-15 0z m34-43l15 0 0-16-15 0z m68 103l14 0 0-16-14 0z m0 88l14 0 0-17-14 0z m-94 2l15 0 0-16-15 0z m-158-288l15 0 0-16-15 0z m-159 0l14 0 0-16-14 0z m203-40l15 0 0-17-15 0z m-118-73l15 0 0-16-15 0z m-105-19l15 0 0-16-15 0z m305 199c-32 0-57-26-57-57 0-32 25-58 57-58 32 0 58 26 58 58 0 31-26 57-58 57z m0-100c-23 0-43 19-43 43 0 23 20 42 43 42 24 0 43-19 43-42 0-24-19-43-43-43z"/>
<glyph glyph-name="placeholder" unicode="&#101;" d="M355 306c15 32 26 61 26 81 0 69-56 125-125 125-69 0-125-56-125-125 0-20 11-49 26-81l-157 0 0-306 512 0 0 306z m-299-291l-41 0 0 77 41 0z m0 92l-41 0 0 92 41 0z m0 107l-41 0 0 78 41 0z m144-199l-129 0 0 77 129 0z m0 92l-129 0 0 92 129 0z m0 107l-129 0 0 78 93 0c11-22 24-45 36-65z m97-199l-82 0 0 77 82 0z m0 92l-82 0 0 92 2 0c18-28 31-47 33-50l6-8 6 8c2 3 15 22 33 50l2 0z m-41 60c-24 35-110 167-110 220 0 61 49 110 110 110 61 0 110-49 110-110 0-53-86-185-110-220z m241-152l-185 0 0 77 185 0z m0 92l-185 0 0 92 185 0z m0 107l-185 0 0 13c12 21 25 43 36 65l149 0z m-223 271l-2-15c40-7 69-42 69-83 0-5-2-20-18-55l13-6c16 34 19 52 19 61 0 48-34 89-81 98z m36-180c-3-5-6-11-9-17l13-7c3 6 6 12 9 17z m-54 148c-36 0-65-30-65-66 0-36 29-65 65-65 36 0 65 29 65 65 0 36-29 66-65 66z m0-116c-28 0-50 22-50 50 0 28 22 51 50 51 28 0 50-23 50-51 0-28-22-50-50-50z m148-160c-14 0-26-11-26-25 0-14 12-26 26-26 14 0 26 12 26 26 0 14-12 25-26 25z m0-36c-6 0-11 5-11 11 0 6 5 11 11 11 6 0 11-5 11-11 0-6-5-11-11-11z m-270-63c-14 0-25-11-25-25 0-14 11-26 25-26 14 0 26 12 26 26 0 14-12 25-26 25z m0-36c-6 0-11 5-11 11 0 6 5 11 11 11 6 0 11-5 11-11 0-6-5-11-11-11z m273 308l15 0 0-16-15 0z m75 35l15 0 0-17-15 0z m-58 60l15 0 0-16-15 0z m52 53l15 0 0-17-15 0z m-110 4l15 0 0-17-15 0z m-278-152l15 0 0-16-15 0z m-74 35l14 0 0-17-14 0z m58 60l14 0 0-16-14 0z m-53 53l15 0 0-17-15 0z m111 4l14 0 0-17-14 0z"/>
<glyph glyph-name="motivation" unicode="&#102;" d="M338 377l0 21-53 0 0 10-74 0 0-10-56 0 0-51-29 0 0-125c0-33 23-61 54-69l0-153 152 0 0 156c25 11 43 37 43 66l0 34 11 0 0 121z m-53 6l39 0 0-112-39 0z m-59 11l45 0 0-123-45 0 0 12 37 0 0 64-37 0z m-56-11l41 0 0-36-41 0z m190-161c0-31-26-57-57-57l0-15c5 0 9 1 14 2l0-137-122 0 0 135c1 0 3 0 4 0l9 0 0 15-9 0c-32 0-58 26-58 57l0 111 107 0 0-35-59 0 0-42c-3 0-5 0-7 0l0-15c4 0 9 0 15-1 10-1 22-4 33-8 20-9 30-22 30-41l15 0c0 12-3 22-8 30 15 5 32 7 42 7l-1 15c-11 0-33-2-52-10-15 13-36 18-52 21l0 29 7 0 0-27 149 0 0-34z m11 49l-33 0 0 91 33 0z m-96-106l15 0 0-15-15 0z m-120 91l15 0 0-15-15 0z m93-143l15 0 0-66-15 0z m1 399l14 0 0-59-14 0z m202-245l61 0 0-14-61 0z m-451 0l59 0 0-14-59 0z m388 135l41 41 10-10-41-41z m-316-315l42 41 10-10-41-42z m315 32l10 10 42-42-10-11z m-314 314l10 10 40-40-10-10z m276 61c-3-8-7-17-11-25-4-9-9-19-12-29l13-5c4 9 8 19 13 28 3 8 7 17 11 26z m115-316c-10 5-20 9-30 13l-6-13c10-5 20-9 30-13 8-4 18-8 27-12l5 14c-9 4-18 8-26 11z m-410 177c-9 4-18 8-26 12l-7-14c9-4 18-8 27-11 9-4 19-8 27-12l7 13c-10 4-19 8-28 12z m434 5c-7-3-14-5-20-8-12-5-24-10-36-14l5-14c13 5 25 10 36 14 7 3 13 5 20 8z m-415-165c-9-3-17-6-25-10-9-4-19-8-29-11l5-14c11 3 20 8 30 12 8 3 16 6 24 9z m97 302l-14-5c6-17 12-34 22-55l13 6c-9 21-15 37-21 54z"/>
<glyph glyph-name="settings" unicode="&#103;" d="M156 443c-48 0-86-38-86-86 0-47 38-85 86-85 47 0 86 38 86 85 0 48-39 86-86 86z m0-157c-39 0-71 32-71 71 0 40 32 71 71 71 39 0 71-31 71-71 0-39-32-71-71-71z m154 43l0 57-33 0c-3 13-8 26-15 38l23 23-40 40-23-24c-12 8-25 13-38 16l0 33-56 0 0-33c-14-3-27-8-38-16l-24 24-39-40 23-23c-8-12-13-25-16-38l-33 0 0-57 33 0c3-13 8-26 16-38l-23-23 39-40 24 24c11-8 24-13 38-16l0-33 56 0 0 33c13 3 26 8 38 16l23-24 40 40-23 23c7 12 12 25 15 38z m-46 9c-3-16-9-30-18-43l-3-5 21-22-19-19-21 22-5-4c-13-9-28-15-44-18l-6-1 0-30-27 0 0 30-6 1c-15 3-30 9-43 18l-5 4-22-22-18 19 21 22-4 5c-9 13-15 27-18 43l-1 6-30 0 0 27 30 0 1 6c3 16 9 30 18 43l4 5-21 22 18 19 22-22 5 4c13 9 28 15 43 18l6 1 0 30 27 0 0-30 6-1c16-3 31-9 44-18l5-4 21 22 19-19-21-22 3-5c9-13 15-27 18-43l1-6 31 0 0-27-31 0z m145-12c-25 0-45-20-45-45 0-25 20-45 45-45 25 0 45 20 45 45 0 25-20 45-45 45z m0-75c-17 0-31 13-31 30 0 17 14 30 31 30 16 0 30-13 30-30 0-17-14-30-30-30z m80 51c-2 7-5 14-9 21l16 16-30 29-15-15c-7 4-14 6-22 8l0 22-41 0 0-22c-8-2-15-4-22-8l-15 15-29-29 15-16c-4-7-7-14-9-21l-21 0 0-42 21 0c2-7 5-14 9-21l-15-16 29-29 15 16c7-4 14-7 22-9l0-22 41 0 0 22c8 2 15 5 22 9l15-16 30 29-16 16c4 7 7 14 9 21l22 0 0 42z m7-27l-19 0-1-6c-2-10-6-19-11-27l-4-5 14-14-9-8-13 14-5-4c-9-6-18-9-27-11l-6-1 0-19-12 0 0 19-6 1c-10 2-19 5-27 11l-5 4-14-14-8 8 13 14-3 5c-6 8-10 17-12 27l-1 6-19 0 0 12 19 0 1 6c2 10 6 19 12 27l3 5-13 14 8 8 14-13 5 3c8 6 17 9 27 11l6 1 0 19 12 0 0-19 6-1c9-2 18-5 27-11l5-3 13 13 9-8-14-14 4-5c5-8 9-17 11-27l1-6 19 0 0-12z m-270-119c-29 0-51-23-51-51 0-28 22-51 51-51 28 0 50 23 50 51 0 28-22 51-50 51z m0-88c-20 0-37 17-37 37 0 20 17 36 37 36 19 0 36-16 36-36 0-20-17-37-36-37z m104 16l0 42-22 0c-2 8-5 15-9 22l15 16-29 29-16-15c-7 4-15 7-22 9l0 22-43 0 0-22c-7-2-15-5-22-9l-16 15-29-29 15-16c-4-7-7-14-9-22l-22 0 0-42 22 0c2-8 5-16 9-23l-15-15 29-30 16 15c7-4 15-7 22-9l0-22 43 0 0 22c7 2 15 5 22 9l16-15 29 30-15 15c4 7 7 15 9 23z m-34 14l-1-6c-2-10-6-19-12-28l-3-5 14-13-9-9-14 13-5-3c-9-6-18-10-28-12l-6-1 0-19-13 0 0 19-6 1c-10 2-19 6-28 12l-5 3-14-13-8 9 13 13-3 5c-6 9-10 18-12 28l-1 6-19 0 0 13 19 0 1 6c2 10 6 19 12 28l3 5-13 14 8 9 14-14 5 3c9 6 18 10 28 12l6 1 0 19 13 0 0-19 6-1c10-2 19-6 28-12l5-3 14 14 9-9-14-14 3-5c6-9 10-18 12-28l1-6 19 0 0-13z m19 393l14 0 0-16-14 0z m118 14l15 0 0-16-15 0z m-84-87l15 0 0-16-15 0z m51 42l15 0 0-16-15 0z m87-8l14 0 0-16-14 0z m-34-289l15 0 0-17-15 0z m18-125l14 0 0-16-14 0z m-109 16l15 0 0-16-15 0z m16 83l15 0 0-16-15 0z m60-44l15 0 0-16-15 0z m-422-68l15 0 0-17-15 0z m28 56l14 0 0-17-14 0z m-11 90l14 0 0-16-14 0z m63-109l15 0 0-16-15 0z m-8 117l15 0 0-16-15 0z"/>
<glyph glyph-name="stopwatch" unicode="&#104;" d="M259 208l0 63-15 0 0-63c-11-3-19-14-19-26 0-15 12-27 27-27 15 0 27 12 27 27 0 12-9 23-20 26z m-7-38c-7 0-12 5-12 12 0 4 1 7 4 9l0-9 15 0 0 10c3-3 5-6 5-10 0-7-6-12-12-12z m155 151l13-14 29 29-63 62-28-28 13-13-22-23c-19 12-40 21-63 26l0 16c23 12 38 36 38 64 0 39-32 72-72 72-40 0-73-33-73-72 0-28 16-52 38-64l0-16c-24-4-47-13-66-26l-23 23 13 13-28 28-63-62 28-29 14 14 20-21c-27-32-44-73-44-118 0-100 82-182 182-182 100 0 182 82 182 182 0 45-17 87-45 119z m-21 57l42-42-8-8-42 42z m-5-32l15-15-19-20-15 15z m-95 47l0 11 11 0c-3-4-7-8-11-11z m-92 47c0 31 26 57 58 57 32 0 57-26 57-57 0-13-4-24-10-34l0 38-95 0 0-37c-6 9-10 20-10 33z m141-186l8 9c17-20 28-46 30-74l-11 0 0-14 11 0c-2-29-13-54-30-74l-8 8-11-10 9-9c-20-18-46-29-74-31l0 13-15 0 0-13c-28 1-55 12-75 30l10 10-10 10-10-10c-19 20-30 47-32 76l15 0 0 14-15 0c2 29 14 55 32 75l10-10 10 11-10 10c21 17 47 28 75 30l0-13 15 0 0 13c28-3 54-14 74-32l-9-8z m-94 67l0 30 21 0 0-30z m30 45l-39 0 0 38 39 0z m-52 53l0 10 65 0 0-10z m-13-15l11 0 0-10c-4 2-7 6-11 10z m-128-76l-7 8 42 42 7-8z m24 3l15 15 20-20-15-15z m315-149c0-92-75-167-167-167-92 0-167 75-167 167 0 84 62 153 143 165l0-29c-65-12-114-68-114-136 0-76 62-138 138-138 76 0 138 62 138 138 0 67-48 122-111 135l0 29c32-5 60-19 83-39l15-15c26-29 42-68 42-110z m-44 296l15 0 0-17-15 0z m76-59l14 0 0-16-14 0z m4 67l15 0 0-16-15 0z m-329-8l15 0 0-17-15 0z m-75-59l14 0 0-16-14 0z m-5 67l15 0 0-16-15 0z"/>
<glyph glyph-name="diploma" unicode="&#105;" d="M224 487l19 0 0-15-19 0z m-116 0l-7 0c-11 0-20-9-20-21 0-10 8-19 19-20l1 15c-3 0-5 3-5 5 0 3 2 6 5 6l7 0 85 0 0 15z m268-321l0-56-40 0 0-14 54 0 0 70z m0 31l14 0 0-14-14 0z m-231 163l220 0 0-15-220 0z m0 36l106 0 0-15-106 0z m158 0l59 0 0-15-59 0z m-158-72l220 0 0-15-220 0z m0-36l220 0 0-14-220 0z m271 224l0 0-308 0-7 0c-25 0-45-20-45-46 0-20 13-37 31-43l0-353 118 0 0-70 46 18 46-18 0 70 119 0 0 52 39 0 0 335c1 3 1 6 1 9 0 24-17 43-40 46z m-346-46c0 17 14 31 31 31l7 0 269 0c-7-8-12-19-12-31 0-11 5-22 12-30l-276 0c-17 0-31 13-31 30z m137-338c-2 2-3 5-3 8 0 4 1 7 3 9 1 0 1 1 2 1 4-7 10-12 17-17-1 0-1-1-2-1-2-2-5-4-8-4-3 0-6 2-9 4z m44 78c19 0 34-16 34-34 0-19-15-35-34-35-19 0-34 16-34 35 0 18 15 34 34 34z m-12 15c0 7 5 12 12 12 7 0 12-5 12-12 0-1 0-1 0-2-4 1-8 2-12 2-4 0-8-1-12-2 0 1 0 1 0 2z m37-7c1 0 1 1 1 1 3 2 6 4 9 4 3 0 6-2 9-4 2-2 3-5 3-8 0-4-1-7-3-9-1 0-1-1-2-1-4 7-10 12-17 17z m-13-92c0-7-5-12-12-12-7 0-12 5-12 12 0 0 0 1 0 2 4-1 8-2 12-2 4 0 8 1 12 2 0-1 0-2 0-2z m-54 75c-1 0-1 1-2 1-2 2-3 5-3 9 0 3 1 6 3 8 3 2 6 4 9 4 3 0 6-2 8-4 1 0 1-1 2-1-7-5-13-10-17-17z m73-175l-24 9 0 27-14 0 0-27-24-9 0 88c2 0 4 1 6 2 4-10 14-17 25-17 11 0 21 7 25 17 2-1 4-2 6-2z m13 106c-3-2-6-4-9-4-3 0-6 2-9 4 0 0 0 1-1 1 7 5 13 10 17 17 1 0 1-1 2-1 2-2 3-5 3-9 0-3-1-6-3-8z m106-43l-104 0 0 27c3 1 6 3 8 5 5 5 8 12 8 19 0 4-1 7-2 11 10 4 16 13 16 24 0 12-6 21-16 25 1 3 2 7 2 11 0 7-3 13-8 19-8 7-20 9-29 5-4 10-14 17-25 17-11 0-21-7-25-17-10 4-21 2-29-5-5-6-8-12-8-19 0-4 1-8 2-11-10-4-17-13-17-25 0-11 7-20 17-24-1-4-2-7-2-11 0-7 3-14 8-19 2-2 5-4 8-5l0-27-103 0 0 336 299 0z m-102 98c0 0 1 1 2 1 6 0 12-6 12-13 0-6-6-12-12-12-1 0-2 0-2 1 1 3 1 7 1 12 0 4 0 8-1 11z m-96-23c0-1-1-1-2-1-6 0-12 6-12 12 0 7 6 13 12 13 1 0 2-1 2-1-1-3-1-7-1-11 0-5 0-9 1-12z m238-23l-25 0 0 284c9 1 18 5 25 11z m-30 299c-17 0-31 13-31 30 0 17 14 31 31 31 17 0 31-14 31-31 0-17-14-30-31-30z"/>
<glyph glyph-name="clipboard" unicode="&#106;" d="M323 74l0-34-98 0 0-15 113 0 0 49z m-139-34l18 0 0-15-18 0z m47 409l0-15 31 0 0-9 15 0 0 24z m-29 35c-10 0-18-8-18-17 0-10 8-18 18-18 9 0 17 8 17 18 0 9-8 17-17 17z m0-20c-2 0-3 1-3 3 0 1 1 2 3 2 1 0 2-1 2-2 0-2-1-3-2-3z m-133-120l0-70 69 0 0 70z m54-55l-40 0 0 40 40 0z m-54-43l0-69 69 0 0 69z m54-55l-40 0 0 40 40 0z m-54-42l0-70 69 0 0 70z m54-55l-40 0 0 40 40 0z m47 222l139 0 0-15-139 0z m243 33l-10-10 9-9-31-31 11-10 41 41z m-51-69l10 10 10-11-9-10z m112 113l-6 5c-15 16-41 16-57 0l-48-47 0 84-61 0 0 39-56 0c-1 9-5 18-12 25-9 8-20 13-32 13-13 0-24-5-33-13-6-7-11-16-12-25l-65 0 0-39-66 0 0-435 337 0 0 224 111 111c16 16 16 42 0 58z m-367 66l64 0 0 8c0 8 3 15 9 21 6 6 13 9 22 9 8 0 15-3 21-9 6-6 9-13 9-21l0-8 56 0 0-69-181 0z m242-444l-308 0 0 405 51 0 0-45 210 0 0 45 47 0 0-84-118-117-61 0 0-15 46 0-5-5-23-78-18 0 0-14 139 0 0 14-82 0 48 15 74 74z m-128 166l36-35-50-15z m50-28l-43 42 177 177 43-42z m193 193l-6-6-42 42 5 6c10 10 27 10 37 0l6-6c10-10 10-26 0-36z"/>
<glyph glyph-name="target" unicode="&#107;" d="M199 469c-22-6-43-16-61-29l8-12c18 12 37 21 57 27z m-83-47c-5-5-9-9-13-14l11-10c4 5 8 9 12 13z m301-210c-8-21-21-40-36-56l11-10c16 17 30 38 39 60z m11 38c0-5-1-10-3-15l15-3c1 5 2 10 3 16z m55 206l-10 10-11-10-26 0 9 8-11 11-8-9 0 26 9 10-10 10-49-48c-37 25-80 39-125 39-59 0-115-23-157-65-42-42-65-98-65-157 0-60 23-115 65-157 27-27 60-46 95-57l0-67 123 0 0 67c36 11 69 30 96 57 42 42 65 97 65 157 0 45-14 88-39 125z m-95-1l23 23 0-26-10-11 10-10 11 10 26 0-23-23-37 0z m-130 33c42-1 82-15 116-40l0-34-38-38c-21 19-48 31-78 33z m0-124l0 30c25-2 49-12 67-28l-62-62c-3 2-8 3-12 3-15 0-26-12-26-26 0-15 11-26 26-26 14 0 26 11 26 26 0 4-1 9-3 12l62 62c15-17 26-40 28-65l-33 0 0-15 33 0c-3-57-49-104-106-107l0 34-15 0 0-34c-57 4-102 50-105 107l31 0 0 15-31 0c5 55 49 100 105 104l0-30z m-2-88l6 6c0-1 0-1 0-1 0-6-5-12-11-12-6 0-12 6-12 12 0 6 6 11 12 11 0 0 0 0 1 0l-6-6z m-13 212l0-80c-64-4-115-54-120-118l-79 0c4 107 91 194 199 198z m-199-213l79 0c3-65 55-118 120-122l0-79c-109 4-196 92-199 201z m253-230l-46 0 0-15 46 0 0-15-93 0 0 49c15-4 31-5 47-5 16 0 31 1 46 5z m-39 29l0 79c65 3 118 56 121 122l79 0c-3-109-91-198-200-201z m200 216l-80 0c-2 29-13 55-32 76l38 38 34 0c24-34 38-73 40-114z"/>
<glyph glyph-name="handshake" unicode="&#108;" d="M378 309l-20-20c-17 17-38 29-61 35 33 16 57 50 57 89 0 54-44 99-99 99-54 0-98-45-98-99 0-39 24-73 57-89-22-6-43-18-61-34l-21 20-132-133 43-43 19 19 16-16 20 19 39-39-18-18 36-36 0 0 25-25 0 0 24-24 6 6 19-20 23 23 21-21 22 21 8-8 31 31 59 59-16 15 36 36 20-20 16 17 19-19 43 43z m-68-5c14-6 27-15 38-25l-21-21-57 0z m-55-41l-40 46c13 4 27 6 40 6 14 0 28-2 40-6z m0 234c46 0 84-38 84-84 0 0 0 0 0-1-55 2-88 20-101 30 6 7 9 12 9 13l-13 6c-1 0-15-29-62-46 1 45 38 82 83 82z m-82-97c25 8 43 20 54 31 14-10 49-31 110-33-7-39-41-68-82-68-41 0-75 30-82 70z m28-96l40-46-56 0-22 21c11 10 24 19 38 25z m-123-146l-6 5 63 63-11 10-81-81-22 22 111 112 39-38z m77-74l-15 15 32 31 14-14z m24-24l-14 14 32 31 14-14z m25-24l-13 13 31 31 13-13z m25-15l-9 9 21 20 8-9z m44 2l-11 11 8 7-19 20 3 3 7-7 0 0 23-23z m94 108l-82 82-58-57-31 31 36 37-10 10-47-47 52-52 58 57 87-87-16-16-38 39-11-11 39-38-17-17-38 39-10-11 38-38-16-16-39 38-8-8-84 85-24-24-40 40 76 76 143 0 76-76z m101 24l-14 13-67 68-11-11 63-62-6-6-93 93 38 38 112-111z m-110 88l11 11 9-9-11-10z m-225 2l9 9 10-10-8-9z m364 187l15 0 0-16-15 0z m-54-30l15 0 0-16-15 0z m-42 64l15 0 0-16-15 0z m42 31l15 0 0-16-15 0z m-74-118l15 0 0-16-15 0z m73-50l15 0 0-16-15 0z m-441 103l15 0 0-16-15 0z m54-30l15 0 0-16-15 0z m42 64l15 0 0-16-15 0z m-42 31l15 0 0-16-15 0z m74-118l15 0 0-16-15 0z m-73-50l15 0 0-16-15 0z"/>
<glyph glyph-name="meeting-1" unicode="&#109;" d="M449 250c-10 25-34 42-62 42-11 0-20-3-29-7l0 23c0 32-17 62-43 79 0 0-10 15-11 15 0 0 4 3 4 4 12 12 19 29 21 45 0 5 0 10-1 15 0 3-1 6-2 8-4 7-9 10-12 11-8 11-16 17-26 22-27 10-55 3-73-19-11-14-28-22-28-22l-16-7 16-7c5-2 10-4 15-5 0-18 8-34 21-45l-10-15c-27-17-43-47-43-79l0-34c-12 11-28 18-45 18-28 0-52-17-62-42-38-12-63-29-63-51l0-37c0-15 13-29 37-41-8-14-13-31-13-49l0-72 464 0 0 72c0 18-5 35-13 49 24 12 37 26 37 41l0 37c0 22-25 39-63 51z m4-17c32-12 44-25 44-34 0-10-16-26-60-39-5 3-11 5-17 7 20 12 34 33 34 58 0 3-1 5-1 8z m-66 44c29 0 52-23 52-52 0-29-23-52-52-52-29 0-52 23-52 52 0 29 23 52 52 52z m-74 93c18-15 30-38 30-62l0-33c-1-1-3-3-4-4-7 1-13 1-20 2l0 32-14 0 0-31c-9 0-18 1-27 1l7 7 0 56z m-49 6l-11 12c4-1 7-1 11-1 3 0 7 0 10 1z m6-42l0-46-6-6-6 6 0 46c0 0 0 0 1 0 2 0 6 0 11 0z m-15 30l-6-10-23 26 6 10z m40 26l7-10-23-26-6 10z m-68 89c13 17 35 22 55 14 8-3 15-9 21-18l2-3 3 0c0 0 3-1 5-5 1-2 2-7 1-15-2 6-5 11-8 14l-5 5-5-4c0 0-11-6-29-10-19-4-40-3-60 3 6 5 14 11 20 19z m-10-36c39-8 68 2 81 9 3-7 6-17 8-25-9-15-25-25-42-25-24 0-44 18-47 41z m-33-135c0 24 12 47 31 62l28-32 0-56 7-7c-9 0-18 0-27-1l0 31-15 0 0-31c-8-1-16-1-24-2z m72-48c25 0 49-1 73-3-6-9-9-20-9-32 0-25 14-46 33-58-15-5-30-15-41-27-18-1-37-2-56-2-19 0-38 1-56 2-11 12-26 22-41 27 19 12 33 33 33 58 0 12-3 23-9 32 24 2 48 3 73 3z m-131 17c29 0 52-23 52-52 0-29-23-52-52-52-29 0-52 23-52 52 0 29 23 52 52 52z m-66-44c0-3-1-5-1-8 0-25 14-46 34-58-6-2-12-4-17-7-44 13-60 29-60 39 0 9 12 22 44 34z m-44-71l0 10c10-8 26-16 45-23-6-4-11-10-15-15-22 10-30 20-30 28z m196-147l-26 0 0 54-15 0 0-54-90 0 0 54-14 0 0-54-27 0 0 57c0 48 39 86 86 86 48 0 86-38 86-86z m75 57l0-57-60 0 0 57c0 5 0 10-1 14 10 0 21 0 31 0 10 0 21 0 31 0-1-4-1-9-1-14z m4 29c-11 0-22 0-34 0-12 0-23 0-34 0-3 9-6 16-11 24 15-1 30-2 45-2 15 0 30 1 45 2-5-8-8-15-11-24z m156-86l0 54-14 0 0-54-90 0 0 54-15 0 0-54-26 0 0 57c0 48 38 86 86 86 48 0 86-38 86-86l0-57z m51 147c0-8-8-18-30-28-4 5-9 11-15 15 19 7 35 15 45 23z m-57 186l14 0 0-16-14 0z m-22 82l15 0 0-17-15 0z m49 50l15 0 0-16-15 0z m-112-81l14 0 0-16-14 0z m10 105l15 0 0-17-15 0z m-308-156l15 0 0-16-15 0z m22 82l15 0 0-17-15 0z m-49 50l15 0 0-16-15 0z m112-81l15 0 0-16-15 0z m-10 105l15 0 0-17-15 0z"/>
<glyph glyph-name="networking" unicode="&#110;" d="M256 101c-28 0-50-23-50-51 0-27 22-50 50-50 28 0 50 23 50 50 0 28-22 51-50 51z m0-86c-20 0-36 16-36 35 0 20 16 36 36 36 20 0 36-16 36-36 0-19-16-35-36-35z m206 291c-28 0-51-22-51-50 0-28 23-50 51-50 27 0 50 22 50 50 0 28-23 50-50 50z m0-86c-20 0-36 16-36 36 0 20 16 36 36 36 19 0 35-16 35-36 0-20-16-36-35-36z m-412 86c-27 0-50-22-50-50 0-28 23-50 50-50 28 0 51 22 51 50 0 28-23 50-51 50z m0-86c-19 0-35 16-35 36 0 20 16 36 35 36 20 0 36-16 36-36 0-20-16-36-36-36z m387 217c-20 20-52 20-71 0-20-20-20-52 0-71 10-10 22-15 35-15 13 0 26 5 36 15 20 19 20 51 0 71z m-10-61c-14-14-37-14-51 0-14 14-14 37 0 51 7 7 16 10 25 10 9 0 19-3 26-10 13-14 13-37 0-51z m-281 61c-19 20-51 20-71 0-20-20-20-52 0-71 10-10 23-15 36-15 13 0 25 5 35 15 20 19 20 51 0 71z m-10-61c-14-14-37-14-51 0-13 14-13 37 0 51 14 13 37 13 51 0 14-14 14-37 0-51z m142-42l-4-14c23-7 41-26 47-50l14 3c-6 29-28 53-57 61z m59-77l-15 0c0 0 0-1 0-1 0-4 0-8-1-11l15-3c0 5 1 9 1 14 0 0 0 1 0 1z m-142-27l-13-6c7-17 20-31 36-39l7 13c-13 7-24 18-30 32z m242-84c-15 15-37 19-55 11-4-1-7-3-11-6l-35 35c9 10 15 22 20 34 4 11 6 23 6 36 0 42-25 79-61 96-11 5-24 9-38 10l0 50c5 0 9 1 12 3 19 8 31 26 31 47 0 27-22 50-50 50-28 0-50-23-50-50 0-26 18-47 43-50l0-50c-55-4-99-50-99-106 0-27 10-51 26-70l-35-35c-20 15-48 13-66-5-20-19-20-51 0-71 10-10 23-15 36-15 13 0 25 5 35 15 18 18 20 46 5 66l35 35c19-16 43-26 70-26 27 0 51 10 70 26l35-35c-15-20-13-48 5-66 10-10 22-15 35-15 13 0 26 5 36 15 20 20 20 52 0 71z m-301-61c-14-13-37-13-51 0-13 14-13 37 0 51 7 7 17 10 26 10 9 0 18-3 25-10 14-14 14-37 0-51z m84 377c0 19 16 35 36 35 20 0 36-16 36-35 0-20-16-36-36-36-20 0-36 16-36 36z m36-297c-50 0-91 41-91 91 0 50 41 91 91 91 50 0 91-41 91-91 0-50-41-91-91-91z m171-80c-14-13-37-13-51 0-14 14-14 37 0 51 14 14 37 14 51 0 13-14 13-37 0-51z m-178 385l14 0 0-17-14 0z m0-411l14 0 0-17-14 0z m-146 350l15 0 0-16-15 0z m0-290l15 0 0-16-15 0z m-60 145l15 0 0-16-15 0z m351 145l15 0 0-16-15 0z m0-290l15 0 0-16-15 0z m60 145l15 0 0-16-15 0z"/>
<glyph glyph-name="book" unicode="&#111;" d="M256 401l0-15 99 0 0-70 15 0 0 85z m-37 0l18 0 0-15-18 0z m-128-217l14 0 0-97-14 0z m-12 272l17 0 0-15-17 0z m50-116l0-69 210 0 0 69z m196-55l-181 0 0 40 181 0z m71-28l0 169-6 0c-19 0-35 16-35 36 0 19 16 35 35 35l0 15-317 0c-28 0-51-23-51-50l0-412c0-25 19-46 43-49l0-1 298 0 0 0c70 2 127 60 127 131 0 60-40 110-94 126z m-331-241c-16 3-28 17-28 34l0 376c8-8 17-13 28-14z m-28 446c0 19 16 35 36 35l282 0c-5-4-8-9-11-15l-265 0 0-15 261 0c0-2 0-4 0-5 0-2 0-4 0-6l-221 0 0-15 225 0c3-6 6-11 11-15l-282 0c-20 0-36 16-36 36z m43-447l0 396 301 0 0-150c-7 1-15 2-23 2-20 0-38-5-55-13l-173 0 0-14 148 0c-10-8-19-18-27-28l-121 0 0-15 112 0c-4-9-8-18-11-28l-101 0 0-15 98 0c-1-6-1-12-1-19 0-50 29-94 71-116z m278 0c-64 0-116 52-116 116 0 65 52 117 116 117 65 0 117-52 117-117 0-64-52-116-117-116z m80 187l-11-10c14-17 23-38 23-61 0-7-1-14-3-20l15-4c1 8 2 16 2 24 0 26-9 51-26 71z m1-113c-2-5-5-9-9-13l12-9c4 4 7 9 10 15z m-172 42c0 7 1 14 2 21l-14 3c-2-8-3-16-3-24 0-19 6-38 15-54l13 8c-8 14-13 30-13 46z m90 95l-18-19 18-18 19 18z m-13-52l26 0 0-125-26 0z"/>
<glyph glyph-name="desk" unicode="&#112;" d="M503 299l0 32-37 0 0 119c0 19-16 35-35 35l-19 0c-16 0-30-12-33-28l-18 0-16-60 80 0-15 60-16 0c3 8 10 13 18 13l19 0c11 0 20-9 20-20l0-119-42 0 0-32-20 0 0 0c0 16-13 29-29 29l-1 0c-17 0-30-13-30-29l0 0-51 0c-3 14-10 27-19 38l63 0 0 175-266 0 0-175 63 0c-9-11-16-24-19-38l-100 0 0-50 23 0 0-249 49 0 0 249 26 0 0-249 49 0 0 140 84 0 0-140 49 0 0 249 25 0 0-249 207 0 0 299z m-105 144l8-32-42 0 8 32z m-340-428l-20 0 0 234 20 0z m40 265l0-16-83 0 0 20 83 0c0-1 0-3 0-4z m-27 72l0 145 236 0 0-145-64 0c-7 5-14 9-22 12l70 0 0 121-205 0 0-121 71 0c-8-3-15-7-22-12z m30 27l0 92 176 0 0-92z m31-364l-19 0 0 125 19 0z m-19 140l0 19 152 0 0-19z m152-140l-19 0 0 125 19 0z m0 174l-152 0 0 91c0 41 33 74 73 74l5 0c41 0 74-33 74-74z m159 127l64 0 0-17-64 0z m-72-5l0-5 15 0 0 5c4-2 8-7 8-12l-31 0 0 0c0 5 3 10 8 12z m145-296l-177 0 0 68 177 0z m0 83l-177 0 0 68 177 0z m0 83l-177 0 0 68 177 0z m0 83l-217 0 0 16c0 1 0 3 0 4l109 0 108 0z m-46-26l0-14 21 0 0-21 15 0 0 35z m21-93l15 0 0-32-15 0z m0-88l0-17-23 0 0-14 38 0 0 31z m-283 286c-2 0-4 0-6 0l1-15c2 1 3 1 5 1 28 0 51-23 51-51l0-9 15 0 0 9c0 36-30 65-66 65z m51-103l15 0 0-14-15 0z m-76 165l36 44 12-10-36-44z m41 0l36 44 11-10-36-44z m-83 0l36 44 12-10-36-44z m287-170c-12 0-21-9-21-21 0-11 9-21 21-21 11 0 21 10 21 21 0 12-10 21-21 21z m0-27c-4 0-6 3-6 6 0 4 2 6 6 6 3 0 6-2 6-6 0-3-3-6-6-6z m0-55c-12 0-21-10-21-21 0-12 9-21 21-21 11 0 21 9 21 21 0 11-10 21-21 21z m0-27c-4 0-6 2-6 6 0 3 2 6 6 6 3 0 6-3 6-6 0-4-3-6-6-6z m0-56c-12 0-21-9-21-20 0-12 9-21 21-21 11 0 21 9 21 21 0 11-10 20-21 20z m0-27c-4 0-6 3-6 7 0 3 2 6 6 6 3 0 6-3 6-6 0-4-3-7-6-7z"/>
<glyph glyph-name="analysis" unicode="&#113;" d="M290 416c-25 25-58 38-92 38-35 0-67-13-92-38-50-50-50-133 0-183 25-25 57-38 92-38 34 0 67 13 92 38 24 24 38 57 38 91 0 35-14 68-38 92z m-173-10c21 21 50 33 81 33 31 0 59-12 81-33 17-17 28-39 32-62l-40-40c-4 2-8 4-13 4-9 0-17-5-22-12l-59 18c0 1 0 1 0 1 0 15-12 26-26 26-15 0-27-11-27-26 0-5 2-9 4-13l-31-32c-24 43-17 99 20 136z m153-125c0-6-6-11-12-11-6 0-12 5-12 11 0 7 6 12 12 12 6 0 12-5 12-12z m-108 34c0-6-5-12-11-12-7 0-12 6-12 12 0 6 5 12 12 12 6 0 11-6 11-12z m117-72c-22-21-50-33-81-33-31 0-60 12-81 33-5 5-9 9-12 14l33 35c4-2 8-3 13-3 9 0 17 4 22 11l59-18c0 0 0-1 0-1 0-14 12-26 26-26 15 0 26 12 26 26 0 5-1 9-3 13l32 30c0-30-12-59-34-81z m-147 157l10-11c23 20 55 26 84 16l5 14c-34 11-72 4-99-19z m118 10l-8-13c4-2 8-5 11-8l10 11c-4 4-9 7-13 10z m-35-169c-16-3-33-2-49 5l-5-14c12-5 24-7 37-7 7 0 14 0 21 2z m168-35l-11-11-26 29c31 46 39 103 22 155l21 20c4-2 8-3 13-3 14 0 26 12 26 27 0 4-1 8-3 12l46 44 0-23 14 0 0 48-47 0 0-15 22 0-45-44c-4 3-8 4-13 4-15 0-27-12-27-26 0-5 2-9 4-13l-16-16c-9 21-22 40-39 57-69 70-183 70-253 0-62-62-69-159-20-229l-12-13c-4 2-8 3-13 3-14 0-26-11-26-26 0-14 12-26 26-26 15 0 27 12 27 26 0 5-2 9-4 13l11 11c4-4 7-8 11-12 35-35 81-52 127-52 35 0 70 10 100 31l27-29-11-11 129-129 69 69z m19 228c6 0 11-5 11-11 0-7-5-12-11-12-7 0-12 5-12 12 0 6 5 11 12 11z m-376-259c-6 0-11 5-11 11 0 6 5 12 11 12 7 0 12-6 12-12 0-6-5-11-12-11z m56 33c-64 64-64 169 0 233 32 32 74 48 116 48 42 0 84-16 116-48 64-64 64-169 0-233-64-64-168-64-232 0z m228-23c5 4 10 9 14 13 5 4 9 9 13 14l25-27-27-27z m133-156l-108 108 48 48 108-108z m-60 135l-21-22 10-10 11 11 41-41 10 10z m53-75l11 11 11-11-11-11z m-356 49l15 0 0-16-15 0z m0-90l15 0 0-16-15 0z m122 59l14 0 0-16-14 0z m211 133l15 0 0-16-15 0z m17 128l15 0 0-16-15 0z m49-68l15 0 0-16-15 0z"/>
<glyph glyph-name="businessman-1" unicode="&#114;" d="M397 229c-12 16-28 30-46 42l-24 36c9 7 17 15 24 25 10 15 17 33 22 51 3 14 6 29 4 43-1 6-3 12-6 17-6 12-16 17-20 19-16 20-31 33-50 41-48 20-101 6-133-34-22-29-58-46-58-46l-16-7 16-6c11-5 22-9 33-12 0 0 0 0 0 0 0-37 17-70 44-91l-24-36c-50-32-82-88-82-149l0-122 352 0 0 122c0 39-12 76-36 107z m-57 33l-55-63-19 33 53 61z m-69-68c-10 0-20 0-28 0l14 24z m-54 97c12-5 26-8 40-8 14 0 28 3 40 8l-40-47z m30-112c7 0 16 0 29 0l0-99-19-18-19 18 0 99c2 0 5 0 9 0z m-117 239c14 8 34 22 50 42 28 35 73 47 116 29 16-7 30-18 44-38l2-2 2-1c1 0 9-2 14-12 5-10 8-27-2-59-5 17-13 39-22 49l-5 5-5-4c0 0-22-14-58-21-31-7-79-9-136 12z m28-24c46-11 85-8 112-3 28 6 47 16 56 21 10-15 17-45 20-59-16-33-51-55-89-55-54 0-98 43-99 96z m37-101l53-61-19-33-55 63z m164-278l0 101-15 0 0-101-174 0 0 101-14 0 0-101-61 0 0 107c0 53 26 101 68 131l60-69 0-110 34-33 34 33 0 110 61 69c41-30 67-79 67-131l0-107-60 0z m17 197l-11-9c11-15 19-32 24-50l14 3c-5 21-14 40-27 56z m-333 123l15 0 0-17-15 0z m-39-115l15 0 0-17-15 0z m39-83l15 0 0-17-15 0z m-32-97l14 0 0-17-14 0z m65 369l15 0 0-17-15 0z m-65 57l14 0 0-17-14 0z m85 41l15 0 0-17-15 0z m360-172l15 0 0-17-15 0z m37-115l15 0 0-17-15 0z m-37-83l15 0 0-17-15 0z m33-97l14 0 0-17-14 0z m-66 369l15 0 0-17-15 0z m66 57l14 0 0-17-14 0z m-86 41l15 0 0-17-15 0z m-99-340l46 0 0-14-46 0z m-141 0l47 0 0-14-47 0z"/>
<glyph glyph-name="meeting" unicode="&#115;" d="M256 410c-83 0-151-68-151-151 0-83 68-151 151-151 83 0 151 68 151 151 0 83-68 151-151 151z m0-287c-75 0-136 61-136 136 0 75 61 136 136 136 75 0 136-61 136-136 0-75-61-136-136-136z m2 261l0-15c31 0 61-14 82-38l11 10c-24 27-57 43-93 43z m106-62l-12-8c2-4 4-8 6-12l13 6c-2 5-4 9-7 14z m-92-173c-5 0-11-1-16-1-22 0-42 6-60 18l-9-12c21-14 45-21 69-21 6 0 12 1 19 2z m-104 42l-11-9c3-4 6-8 10-12l11 11c-4 3-7 7-10 10z m147 321l-118 0 0-43 30 0c-5-6-7-14-7-22 0-20 16-36 36-36 20 0 36 16 36 36 0 8-2 16-7 22l30 0z m-59-86c-12 0-21 10-21 21 0 12 9 22 21 22 12 0 21-10 21-22 0-11-9-21-21-21z m44 57l-88 0 0 14 88 0z m-15-440c5 6 7 14 7 22 0 20-16 36-36 36-20 0-36-16-36-36 0-8 2-16 7-22l-30 0 0-43 118 0 0 43z m-29 43c12 0 21-10 21-21 0-12-9-22-21-22-12 0-21 10-21 22 0 11 9 21 21 21z m44-71l-88 0 0 14 88 0z m169 300l0-30c-6 5-14 7-22 7-20 0-36-16-36-36 0-20 16-36 36-36 8 0 16 2 22 7l0-30 43 0 0 118z m-22-80c-11 0-21 9-21 21 0 12 10 21 21 21 12 0 22-9 22-21 0-12-10-21-22-21z m50-23l-14 0 0 88 14 0z m-432 80c-8 0-16-2-22-7l0 30-43 0 0-118 43 0 0 30c6-5 14-7 22-7 20 0 36 16 36 36 0 20-16 36-36 36z m-36-80l-14 0 0 88 14 0z m36 23c-12 0-22 9-22 21 0 12 10 21 22 21 11 0 21-9 21-21 0-12-10-21-21-21z m331 244l-31-31 21-21c-8-1-15-5-20-10-14-14-14-37 0-51 7-7 16-11 25-11 10 0 19 4 26 11l0 0c5 5 9 12 10 20l21-21 31 31z m10-103c-8-8-21-8-30 0-8 9-8 22 0 30 4 5 10 7 15 7 6 0 11-2 15-7l0 0c9-8 9-21 0-30z m11 41c0 0 0 0 0 0 0 0 0 0 0 0l-31 31 10 10 62-62-10-10z m-271-322c14 14 14 37 0 51-7 7-16 11-25 11-10 0-19-4-26-11-5-5-9-12-10-20l-21 21-31-31 84-83 30 31-21 21c8 1 15 5 20 10z m-40 41c8 8 21 8 30 0 8-9 8-22 0-30-9-9-22-9-30 0l0 0c-9 8-9 21 0 30z m20-72l-9-10-63 62 10 10 31-31c0 0 0 0 0 0 0 0 0 0 0 0z m322 83l-21-21c-1 8-5 15-10 20-14 14-37 14-51 0-14-14-14-37 0-51 5-5 12-9 20-10l-21-21 31-31 83 83z m-72-41c-8 8-8 21 0 30 9 8 22 8 30 0 9-9 9-22 0-30l0 0c-8-9-21-9-30 0z m10-42l31 31c0 0 0 0 0 0 0 0 0 0 0 0l31 31 10-10-62-62z m-240 353c-5 5-12 9-20 10l21 21-31 31-83-84 31-30 21 21c1-8 5-15 10-20 7-7 16-11 26-11 9 0 18 4 25 11 14 14 14 37 0 51z m-82-31l-10 9 62 63 10-10z m72-10c-9-8-22-8-30 0-9 9-9 22 0 30 4 5 9 7 15 7 5 0 11-2 15-7 8-8 8-21 0-30z m12-112l15 0 0-16-15 0z m50 0l15 0 0-16-15 0z m51 0l14 0 0-16-14 0z m50 0l15 0 0-16-15 0z m50 0l15 0 0-16-15 0z"/>
<glyph glyph-name="worker" unicode="&#116;" d="M300 279c36 16 61 50 65 91 7 3 12 11 12 19l0 6c0 10-7 19-17 21-13 36-43 63-81 71 0 1 0 1 0 2 0 13-10 23-23 23-13 0-23-10-23-23 0-1 0-1 0-2-37-8-68-35-80-71-10-2-18-11-18-21l0-6c0-8 5-16 12-19 4-41 30-75 66-91-72-19-126-85-126-163l0-116 338 0 0 116c0 78-53 144-125 163z m21-23c9-4 18-9 26-15l0-99-26 0z m-65 241c5 0 8-3 8-8 0-5-3-8-8-8-4 0-8 3-8 8 0 5 4 8 8 8z m-17-24c5-4 10-7 17-7 7 0 13 3 17 7 32-6 58-28 71-57l-175 0c12 29 38 51 70 57z m-89-84l0 6c0 3 3 6 6 6l200 0c4 0 7-3 7-6l0-6c0-3-3-6-7-6l-200 0c-3 0-6 3-6 6z m12-21l188 0c-6-47-46-83-94-83-48 0-88 36-94 83z m94-98c16 0 31-2 46-6-13-11-29-17-46-17-17 0-33 6-45 17 14 4 29 6 45 6z m-50-21c14-11 32-16 50-16 18 0 36 5 51 16l0-107-101 0z m-41-8c8 6 17 11 26 15l0-114-26 0z m-36-226l-27 0 0 101c0 45 19 84 49 112l0-86-22 0z m15 1l0 111 224 0 0-111z m266-1l-27 0 0 127-22 0 0 86c30-28 49-67 49-112z m-367 305l15 0 0-16-15 0z m-43-109l15 0 0-17-15 0z m43-80l15 0 0-16-15 0z m-31-93l15 0 0-16-15 0z m62 352l15 0 0-16-15 0z m-62 55l15 0 0-16-15 0z m82 44l14 0 0-16-14 0z m360-169l15 0 0-16-15 0z m43-109l15 0 0-17-15 0z m-43-80l15 0 0-16-15 0z m31-93l15 0 0-16-15 0z m-62 352l15 0 0-16-15 0z m62 55l15 0 0-16-15 0z m-81 44l15 0 0-16-15 0z m-152-373l16 0 0-14-16 0z m35 0l0-14 56 0 0-26 15 0 0 40z"/>
<glyph glyph-name="user" unicode="&#117;" d="M301 292c41 18 69 58 69 106 0 63-51 114-114 114-63 0-114-51-114-114 0-48 29-88 70-106-76-20-132-89-132-170l0-122 353 0 0 122c0 81-57 150-132 170z m-145 106c0 55 45 99 100 99 55 0 100-44 100-99 0-55-45-100-100-100-55 0-100 45-100 100z m100-115c17 0 34-2 49-7l-49-57-49 57c15 5 32 7 49 7z m7-115l0 37 12 13 0-138-19-18-19 18 0 138 12-13 0-37z m155-153l-60 0 0 101-15 0 0-101-174 0 0 101-14 0 0-101-61 0 0 107c0 66 41 123 98 148l30-35 0-161 34-33 34 33 0 161 30 35c58-25 98-82 98-148z m-57 214l-10-11c18-18 31-40 37-65l14 3c-7 28-21 53-41 73z m-319 106l15 0 0-17-15 0z m-30-115l15 0 0-17-15 0z m30-83l15 0 0-17-15 0z m-32-97l14 0 0-17-14 0z m65 369l15 0 0-17-15 0z m-65 57l14 0 0-17-14 0z m85 25l15 0 0-17-15 0z m360-156l15 0 0-17-15 0z m31-115l15 0 0-17-15 0z m-31-83l15 0 0-17-15 0z m33-97l14 0 0-17-14 0z m-66 369l15 0 0-17-15 0z m66 57l14 0 0-17-14 0z m-86 25l15 0 0-17-15 0z m-139-86l0 57-14 0 0-57-58 0 0-15 58 0 0-57 14 0 0 57 58 0 0 15z"/>
<glyph glyph-name="megaphone-1" unicode="&#118;" d="M357 347c-15 31-41 54-73 66l-5-13c28-11 51-32 65-59 14-28 17-59 8-89l14-4c10 33 7 68-9 99z m35 18c-21 43-56 77-99 97l-6-13c40-19 72-51 92-91 21-40 26-85 17-130l15-3c10 48 3 96-19 140z m37 18c-28 55-71 100-126 129l-7-13c52-28 93-70 120-123 26-53 35-111 26-169l15-3c9 61 0 123-28 179z m-203-198l30 3 12-25 48 23-28 57c11 8 20 19 25 33 5 15 4 32-4 47-14 29-47 41-77 31l-28 57-48-24 12-24-112-118-41-21 39-76 45 22 15 2 144-172 68 34z m70 131c6-11 7-24 2-36-3-9-9-18-17-23l-42 83c22 7 46-2 57-24z m-99 75l99-198-21-11-99 198z m-137-224l-25 51 26 13 26-50z m41 18l-28 56 102 108 2-5 72-142z m152-156l21 10-6 13-24-12-9 10 20 10-6 13-23-11-9 10 21 10-7 13-23-12-9 10 21 11-7 13-24-12-57 69 78 9 94-143-42-22z m-148 231l12 12 10-11-11-12z m68 70l-43-45 10-10 29 30 7-15 14 6z m44 121l15 0 0-17-15 0z m140-252l15 0 0-16-15 0z m-23-44l15 0 0-17-15 0z m98 18l15 0 0-17-15 0z m50 191l15 0 0-17-15 0z m-71 104l15 0 0-17-15 0z m55-26l15 0 0-16-15 0z m16 63l15 0 0-16-15 0z m-85-373l14 0 0-17-14 0z m64-57l15 0 0-16-15 0z m-83-36l15 0 0-16-15 0z m-147 461l14 0 0-16-14 0z m-133-83l15 0 0-16-15 0z m54 59l14 0 0-17-14 0z m-110 16l15 0 0-16-15 0z"/>
<glyph glyph-name="video-call" unicode="&#119;" d="M249 307l14 0 0-10-14 0z m260 205l-506 0 0-283 43 0c-7-10-12-22-12-36 0-20 11-39 27-49-33-13-57-45-57-82l0-62 504 0 0 62c0 37-24 69-57 82 16 10 27 29 27 49 0 14-4 26-12 36l43 0z m-460-319c0 24 19 44 43 44 24 0 44-20 44-44 0-24-20-43-44-43-24 0-43 19-43 43z m89 36l70 0 0-2c-6-10-10-21-10-34 0-8 1-16 5-23l-52 0 0-43c-8 7-17 13-28 17 17 10 28 29 28 49 0 14-5 26-13 36z m251-85c-11-4-20-10-28-17l0 43-52 0c4 7 5 15 5 23 0 13-4 24-10 34l0 2 70 0c-8-10-13-22-13-36 0-20 11-39 28-49z m-43 11l0-17-46 0c-4 2-8 4-13 6 5 3 9 7 13 11z m-90-5c-24 0-44 19-44 43 0 24 20 44 44 44 24 0 44-20 44-44 0-24-20-43-44-43z m-31-6c-5-2-9-4-13-6l-46 0 0 17 46 0c4-4 8-8 13-11z m-59-129l-22 0 0 44-14 0 0-44-75 0 0 44-15 0 0-44-21 0 0 47c0 40 33 73 73 73 41 0 74-33 74-73z m8 79c-4 11-11 21-19 29l38 0c-8-8-15-18-19-29z m155-79l-21 0 0 44-14 0 0-44-76 0 0 44-14 0 0-44-21 0 0 47c0 40 33 73 73 73 40 0 73-33 73-73z m9 79c-4 11-11 21-19 29l38 0c-8-8-15-18-19-29z m155-32l0-47-21 0 0 44-15 0 0-44-75 0 0 44-14 0 0-44-22 0 0 47c0 40 33 73 74 73 40 0 73-33 73-73z m-73 88c-24 0-44 19-44 43 0 24 20 44 44 44 24 0 43-20 43-44 0-24-19-43-43-43z m75 94l-46 0c-8 5-18 8-29 8-11 0-21-3-30-8l-105 0c-8 5-18 8-29 8-11 0-21-3-29-8l-105 0c-9 5-19 8-30 8-11 0-21-3-29-8l-46 0 0 253 478 0z m-453 235l0-217 428 0 0 217z m266-199l-12 0 0 30-14 0 0-30-52 0 0 30-14 0 0-30-12 0 0 32c0 20 12 38 28 46l17-18 0-25 14 0 0 25 17 18c16-8 28-26 28-46z m-59 151l0-10-6-5-16 0c3 13 15 22 29 22 14 0 26-9 29-22l-17 0-5 5 0 10z m0-30l7 7 6-7 23 0c-3-13-15-23-29-23-14 0-26 10-29 23z m16-38l-9-10-9 10c3 1 6 1 9 1 3 0 6 0 9-1z m191-86l-134 0 0 35c0 27-16 50-39 61 11 8 18 21 18 35 0 25-20 45-45 45-25 0-45-20-45-45 0-14 7-27 18-35-23-11-39-34-39-61l0-35-134 0 0 187 400 0z m-367 140l14 0 0-16-14 0z m8-76l14 0 0-16-14 0z m48 22l15 0 0-16-15 0z m15 74l14 0 0-16-14 0z m247-20l14 0 0-16-14 0z m-8-76l14 0 0-16-14 0z m-49 22l15 0 0-16-15 0z m-14 74l14 0 0-16-14 0z"/>
<glyph glyph-name="teamwork-1" unicode="&#120;" d="M74 98l15 0 0-12-15 0z m403 73l32 0-24 56c-1 29-25 53-54 53-3 0-5 0-8-1-15 64-67 113-130 125 12 10 21 26 21 43 0 30-25 54-55 54-30 0-54-24-54-54 0-17 8-33 21-43-27-5-53-17-74-35-28-23-49-55-57-91-4 1-9 2-14 2-29 0-54-24-54-54 0-19 10-36 25-45-31-12-52-42-52-76l0-57 163 0 0 52c28-20 62-31 96-31 33 0 63 9 90 26l0-47 163 0 0 57c0 27-14 52-35 66z m3 31l7-16-19 0c5 5 9 10 12 16z m-49-16c-20 0-36 14-39 32l77 0c-3-18-19-32-38-32z m14-16l-14-16-15 16c5 1 10 1 15 1 4 0 9 0 14-1z m-52 16l-17 0 6 15c3-5 7-10 11-15z m38 79c19 0 35-14 38-32l-16 0 0 13-15 0 0-13-46 0c3 18 19 32 39 32z m-172 221c20 0 36-13 39-32l-24 0-7 8 0 13-15 0 0-12-8-9-23 0c3 19 19 32 38 32z m-38-46l29 0 9 9 8-9 31 0c-3-19-19-32-39-32-19 0-35 13-38 32z m52-49l-14-16-14 16c5 1 9 2 14 2 5 0 10-1 14-2z m-43-5l22-25 0-32 15 0 0 32 21 25c23-11 38-34 38-60l0-42-18 0 0 40-15 0 0-40-67 0 0 40-15 0 0-40-18 0 0 42c0 26 15 49 37 60z m-149-121c21 0 38-16 40-36-22 1-36 8-44 12 2 3 3 4 3 5l-13 6c0-1-6-12-24-20 3 19 19 33 38 33z m-38-49c11 4 19 9 24 14 8-5 25-14 52-16-5-16-20-28-38-28-18 0-34 13-38 30z m53-46l-15-16-14 16c5 1 10 1 14 1 5 0 10 0 15-1z m52-108l-18 0 0 41-15 0 0-41-67 0 0 41-15 0 0-41-18 0 0 43c0 26 15 49 37 60l22-25 0-32 15 0 0 32 22 25c22-11 37-34 37-60z m111 22c-35 0-70 13-98 35-4 28-24 51-50 62 15 9 25 26 25 45 0 20-11 37-27 46 11 50 45 89 90 108-13-14-21-33-21-54l0-57 163 0 0 57c0 21-8 40-21 54 44-18 77-57 89-105-19-8-32-26-33-48l-21-56 29 0c-19-13-32-34-34-58-27-19-58-29-91-29z m220-22l0 41-15 0 0-41-67 0 0 41-15 0 0-41-18 0 0 43c0 26 15 49 37 60l22-25 0-32 15 0 0 32 22 25c22-11 37-34 37-60l0-43z m-56 36l15 0 0-12-15 0z m-171 221l15 0 0-12-15 0z m-98 104l14 0 0-17-14 0z m322-71l15 0 0-17-15 0z m-200-304l15 0 0-17-15 0z m-161-31l15 0 0-17-15 0z m256 13l15 0 0-17-15 0z m3 424l15 0 0-16-15 0z m77 58l14 0 0-17-14 0z m-404-22l14 0 0-16-14 0z m-3-124l15 0 0-17-15 0z"/>
<glyph glyph-name="presentation-1" unicode="&#121;" d="M372 253c-8 48-43 87-88 101 27 14 46 42 46 74 0 46-38 84-84 84-46 0-84-38-84-84 0-32 19-60 46-74-45-14-80-53-88-101l-60 0 0-85 48 0 0-168 275 0 0 168 48 0 0 85z m-36 47c10-14 17-29 21-47l-55 0 12 13 0 12c11 3 19 11 22 22z m-29 23c8 0 15-7 15-16 0-8-7-15-15-15-9 0-16 7-16 15 0 9 7 16 16 16z m-8-45l0-6-18-19-28 0 0 37 26 29c-2-3-3-7-3-12 0-14 10-26 23-29z m-53 26l-32 36c10 3 21 5 32 5 11 0 21-2 31-5z m0 193c38 0 68-30 69-68-44 1-71 16-82 23 4 6 6 10 7 11l-14 6c0 0-12-24-49-37 2 36 32 65 69 65z m-68-81c20 7 35 17 44 25 12-8 42-25 91-27-6-31-34-55-67-55-34 0-62 25-68 57z m39-109c0 4-1 7-2 10l23-27 0-37-26 0-18 19 0 6c13 3 23 15 23 29z m-31 16c9 0 16-7 16-16 0-8-7-15-16-15-8 0-15 7-15 15 0 9 7 16 15 16z m-29-22c2-11 11-20 22-23l0-12 12-13-56 0c3 18 11 34 22 48z m-34-286l0 151 246 0 0-151z m293 167l-341 0 0 57 341 0z m-315 26l0 10-15 0 0-25 38 0 0 15z m230 20l17 0 0-15-17 0z m35 0l0-15 25 0 0-13 15 0 0 28z m-98-72l18 0 0-15-18 0z m33 0l0-15 42 0 0-51 15 0 0 66z m-153-116l0 25-14 0 0-40 29 0 0 15z m-86 276l14 0 0-17-14 0z m-42 79l15 0 0-16-15 0z m107-23l15 0 0-16-15 0z m-59 109l14 0 0-16-14 0z m368-165l14 0 0-17-14 0z m41 79l15 0 0-16-15 0z m-107-23l15 0 0-16-15 0z m60 109l14 0 0-16-14 0z"/>
<glyph glyph-name="businessman" unicode="&#122;" d="M147 158l15 0 0-23-15 0z m325-92l0-26-44 0 0-15 58 0 0 41z m-82-26l21 0 0-15-21 0z m97 215l-57 0c-1 15-8 28-17 39-8 19-26 32-48 32l-158 0c29 18 48 50 48 86 0 55-45 100-100 100 0 0 0 0 0 0 0 0 0 0-1 0-55 0-100-45-100-100 0-16 4-31 10-44 10-21 28-38 49-47-65-19-113-78-113-149l0-106 214 0 0-66 298 0 0 231c0 13-11 24-25 24z m-124 46c27 0 49-20 53-46l-17 0c-4 17-19 30-36 30-18 0-33-13-36-30l-17 0c3 26 26 46 52 46z m20-46l-41 0c3 9 11 15 21 15 9 0 17-6 20-15z m-229 242c48 0 86-38 86-85 0-1 0-1 0-1-57 1-91 20-104 30 6 7 9 13 9 13l-13 7c0 0-15-31-63-48 1 47 39 84 85 84z m-84-99c26 9 44 21 56 32 13-10 50-32 113-34-8-40-43-70-85-70-42 0-77 31-84 72z m131-86l-47-54-41 47c13 4 27 7 41 7z m13-81l0-151-134 0 0 88-15 0 0-88-50 0 0 92c0 57 35 106 84 128l48-56 0-66 15 0 0 66 59 68 118 0c-24-9-41-31-44-57l-57 0c-13 0-24-11-24-24z m283-216l-269 0 0 111c7-6 15-9 24-9l82 0 0-40 57 0 0 40 82 0c9 0 17 3 24 9z m-148 77l0 66 27 0 0-66z m148 64c0-13-11-24-24-24l-82 0 0 40-57 0 0-40-82 0c-13 0-24 11-24 24l0 75c0 5 5 9 10 9l249 0c5 0 10-4 10-9l0-75z m-108 74l0-15 20 0 0 15z m37 0l0-15 46 0 0-47 14 0 0 62z m-132 182l15 0 0-17-15 0z m57 70l14 0 0-17-14 0z m111 8l15 0 0-16-15 0z m-27-116l15 0 0-17-15 0z"/>
<glyph glyph-name="curriculum" unicode="&#65;" d="M429 465l0 47-285 0-109-109 0-356 48 0 0-47 394 0 0 465z m-289 22l0-79-79 0z m-90-426l0 332 104 0 0 104 260 0 0-436z m412-46l-364 0 0 32 331 0 0 404 33 0z m-119 469l0-15 43 0 0-28 15 0 0 43z m43-64l15 0 0-15-15 0z m0-298l0-32-64 0 0-15 79 0 0 47z m-107-32l20 0 0-15-20 0z m10 207l74 0 0-15-74 0z m-183 0l150 0 0-15-150 0z m0-51l257 0 0-15-257 0z m0-52l257 0 0-14-257 0z m0-51l257 0 0-15-257 0z m152 260c8 7 13 17 13 28 0 20-17 36-37 36-20 0-37-16-37-36 0-11 5-21 13-28-18-9-30-27-30-48l0-39 108 0 0 39c0 21-12 39-30 48z m-24 50c11 0 19-8 22-18-18 1-32 5-40 8 4 6 11 10 18 10z m20-32c-4-7-11-12-20-12-12 0-21 9-22 20 9-3 23-7 42-8z m19-90l-78 0 0 24c0 19 14 35 32 38l0-36 14 0 0 36c19-3 32-19 32-38z"/>
<glyph glyph-name="presentation" unicode="&#66;" d="M387 444l0-15 43 0 0-81 14 0 0 96z m43-116l14 0 0-16-14 0z m60 127l0 57-424 0 0-57 20 0 0-34c-13-15-20-34-20-55 0-20 7-39 20-54l0-30c-38-22-64-63-64-111l0-88 187 0-37-83 61 0 46 103 45-103 61 0-50 114 155 0 0 57-20 0 0 284z m-341-20c37 0 68-31 68-68-44 1-70 16-81 23 4 6 6 10 7 11l-14 6c0 0-12-24-48-37 1 36 31 65 68 65z m171-137l-124 0c21 15 36 40 36 68 0 46-38 83-83 83-18 0-35-5-48-15l0 21 354 0 0-284-232 0 0 42 97 0c24 0 43 19 43 42 0 24-19 43-43 43z m-238 56c20 7 34 17 43 25 12-8 41-25 90-27-6-31-34-54-66-54-34 0-62 25-67 56z m102-71l-35-40-31 36c9 3 20 4 31 4z m-73 10c-3-2-7-3-10-4l0 10c3-3 6-5 10-6z m97-57l0-138-118 0 0 70-15 0 0-70-38 0 0 73c0 46 27 85 66 103l38-45 0-53 15 0 0 53 47 54 117 0c16 0 28-12 28-28 0-15-12-28-28-28l-97 0 0 9z m16-221l-29 0 44 99 28 0z m139 0l-29 0-44 99 29 0z m112 142l0-28-252 0 0 28z m-389 312l-5 0 0 28 394 0 0-28z m55-309l15 0 0-19-15 0z m231 252c-15 0-27-12-27-27 0-2 0-4 1-6l-41-23c-5 4-11 7-19 7-14 0-26-12-26-26 0-15 12-27 26-27 15 0 27 12 27 27 0 2 0 4-1 6l41 23c5-4 11-7 19-7 14 0 26 12 26 26 0 15-12 27-26 27z m-86-87c-6 0-11 5-11 12 0 6 5 11 11 11 7 0 12-5 12-11 0-7-5-12-12-12z m86 49c-7 0-12 5-12 11 0 7 5 12 12 12 6 0 11-5 11-12 0-6-5-11-11-11z m34-93c-15 0-27-12-27-26 0-15 12-27 27-27 15 0 26 12 26 27 0 14-11 26-26 26z m0-38c-7 0-12 5-12 12 0 6 5 12 12 12 6 0 12-6 12-12 0-7-6-12-12-12z"/>
<glyph glyph-name="engineer" unicode="&#67;" d="M300 279c35 16 61 49 65 89l5 0c12 0 22 9 22 21l0 6c0 12-10 21-22 21l-11 0c-11 32-37 58-70 68-2 16-16 28-33 28-17 0-30-12-33-28-33-10-59-36-70-68l-11 0c-12 0-21-9-21-21l0-6c0-12 9-21 21-21l5 0c5-40 30-73 66-89-72-19-126-85-126-163l0-116 338 0 0 116c0 78-53 144-125 163z m-78 189l0-20 15 0 0 30c0 11 9 19 19 19 11 0 19-8 19-19l0-30 15 0 0 20c24-9 44-28 54-52l-175 0c10 24 29 43 53 52z m-80-85c-4 0-7 3-7 6l0 6c0 3 3 6 7 6l228 0c4 0 7-3 7-6l0-6c0-3-3-6-7-6z m20-15l188 0c-6-47-46-83-94-83-48 0-88 36-94 83z m94-98c16 0 32-2 47-7l-47-53-46 53c14 5 30 7 46 7z m154-255l-57 0 0 96-14 0 0-96-165 0 0 96-15 0 0-96-57 0 0 101c0 64 38 118 93 142l54-62 0-73 14 0 0 73 54 62c55-24 93-78 93-142z m-53 204l-11-11c18-17 30-38 35-62l15 4c-7 26-20 50-39 69z m-108-118l14 0 0-26-14 0z m-197 219l14 0 0-16-14 0z m-43-109l14 0 0-17-14 0z m43-80l14 0 0-16-14 0z m-31-93l14 0 0-16-14 0z m62 352l15 0 0-16-15 0z m-62 55l14 0 0-16-14 0z m81 44l15 0 0-16-15 0z m344-169l14 0 0-16-14 0z m43-109l14 0 0-17-14 0z m-43-80l14 0 0-16-14 0z m31-93l14 0 0-16-14 0z m-63 352l15 0 0-16-15 0z m63 55l14 0 0-16-14 0z m-82 44l15 0 0-16-15 0z"/>
<glyph glyph-name="conversation" unicode="&#68;" d="M138 171c21 12 35 35 35 60 0 38-31 69-69 69-38 0-68-31-68-69 0-25 14-48 34-60-41-14-70-53-70-98l0-73 209 0 0 73c0 45-30 84-71 98z m-34 114c29 0 53-23 54-52-32 1-53 12-62 18 3 4 4 7 5 7l-14 7c0-1-9-18-36-29 2 27 25 49 53 49z m-53-65c16 6 27 13 34 20 11-7 34-20 72-22-6-23-27-41-53-41-26 0-48 19-53 43z m76-60l-23-27-22 27c7 1 14 2 22 2 8 0 16-1 23-2z m67-145l-28 0 0 55-15 0 0-55-93 0 0 55-15 0 0-55-28 0 0 58c0 36 21 67 52 81l30-35 0-42 15 0 0 42 30 35c31-14 52-45 52-81l0-58z m-97 49l15 0 0-16-15 0z m364 98l46 0-31 71c0 37-31 67-68 67-38 0-68-30-69-67l-27-71 42 0c-30-18-51-51-51-89l0-73 209 0 0 73c0 38-20 71-51 89z m24 15l-35 0c10 8 17 18 22 29z m-77 108c27 0 50-20 53-46l-26 0 0 18-15 0 0-18-66 0c4 26 26 46 54 46z m53-61c-3-27-26-47-53-47-28 0-50 20-54 47z m-31-64l-22-27-23 27c7 1 15 2 23 2 8 0 15-1 22-2z m-97 17l11 28c5-11 12-21 21-28z m164-162l-28 0 0 55-15 0 0-55-93 0 0 55-15 0 0-55-28 0 0 58c0 36 21 67 52 81l30-35 0-42 15 0 0 42 30 35c31-14 52-45 52-81l0-58z m-97 49l15 0 0-16-15 0z m41 363c0 47-38 85-85 85-23 0-44-9-59-24l0 24-212 0 0-170 31 0-21-40 69 40 133 0 0 24c15-15 36-24 59-24 3 0 5 0 8 0l69-40-29 54c23 16 37 43 37 71z m-159 42c-7-13-11-27-11-42 0-15 4-29 11-42l0-28-122 0-27-16 8 16-42 0 0 140 183 0z m85-112l-3 0c-2 0-5 0-8 0-38 0-70 31-70 70 0 39 32 70 70 70 39 0 71-31 71-70 0-26-14-49-37-61l-6-4 11-21z m-57 77l15 0 0-16-15 0z m41 0l14 0 0-16-14 0z m40 0l15 0 0-16-15 0z m-245 32l15 0 0-16-15 0z m41 0l14 0 0-16-14 0z m40 0l15 0 0-16-15 0z m-81-55l15 0 0-16-15 0z m41 0l14 0 0-16-14 0z m40 0l15 0 0-16-15 0z"/>
<glyph glyph-name="teamwork" unicode="&#69;" d="M107 69l15 0 0-17-15 0z m327 119c23 13 39 37 39 66 0 25-12 47-31 61-14 26-38 47-66 56 23 13 39 38 39 66 0 41-34 75-75 75-41 0-75-34-75-75 0-9 2-17 4-24-4 0-8 1-13 1-5 0-9-1-13-1 2 7 4 15 4 24 0 41-34 75-75 75-41 0-75-34-75-75 0-28 16-53 39-66-28-9-52-30-66-56-19-14-31-36-31-61 0-19 7-36 19-49l0-1 1 0c5-7 12-12 19-16-45-15-78-58-78-108l0-80 228 0 0 45 56 0 0-45 228 0 0 80c0 50-33 93-78 108z m-36 6c-14 0-27 5-37 13-5 6-10 12-16 18-3 6-5 11-6 18 17 6 30 14 38 21 11-7 37-22 80-23-7-27-31-47-59-47z m26-19l-26-30-19 21c0 4-2 7-3 11 7 1 14 2 22 2 9 0 18-1 26-4z m34 80c-37 2-60 14-71 20 4 5 6 9 6 9l-13 6c0 0-10-20-42-32 2 31 28 56 60 56 33 0 59-26 60-59z m-125 107c3 0 5 0 7 0 9 0 18-1 26-4l-26-30-1 1c0 0 1 1 1 1 0 11-3 22-7 32z m48-9c14-6 26-15 35-26-6 1-12 2-18 2-20 0-37-7-50-20l0 5z m-41 24c-6 0-11 1-17 2-9 13-21 22-35 28-3 6-6 12-7 19 17 6 30 14 38 22 11-8 37-23 80-24-6-27-30-47-59-47z m-16-135c-9 6-20 10-30 14 17 8 31 23 39 41l0-6c-7-11-10-24-10-37 0-4 0-8 1-12z m-68 19c-34 0-62 25-68 57 21 7 35 16 45 25 11-9 41-25 90-27-6-31-34-55-67-55z m31-19l-31-36-31 36c10 3 20 5 31 5 11 0 21-2 31-5z m-108 49l0 6c8-18 22-33 39-41-10-4-21-8-30-14 1 4 1 8 1 12 0 13-3 26-10 37z m161 206c33 0 60-26 60-59-37 2-60 14-70 20 3 5 5 9 5 9l-13 7c0-1-10-21-42-33 2 31 28 56 60 56z m-84-98c38 0 68-31 69-68-44 1-71 15-82 23 5 6 7 10 7 10l-13 7c-1 0-12-24-50-38 2 37 32 66 69 66z m-84 98c33 0 59-26 60-59-37 2-60 14-71 20 4 5 6 9 6 9l-13 7c-1-1-11-21-42-33 2 31 28 56 60 56z m-59-71c17 6 30 14 38 22 11-8 37-23 80-24-2-6-4-12-7-17-14-6-26-15-35-28-6-1-11-2-17-2-29 0-54 21-59 49z m60-97l-1-1-26 30c8 3 17 4 26 4 2 0 4 0 7 0-4-10-7-21-7-32 0 0 1-1 1-1z m-42 24l33-39 0-5c-13 13-30 20-50 20-6 0-12-1-18-2 9 11 21 20 35 26z m-17-39c33 0 60-26 60-59-37 2-60 14-70 20 4 5 5 9 5 9l-13 6c0 0-10-20-42-32 2 31 28 56 60 56z m-59-71c17 6 30 14 38 21 11-7 37-22 80-23-1-6-3-11-6-16-6-6-11-12-16-18-10-8-23-13-37-13-29 0-54 21-59 49z m81-66c-1-4-3-7-3-11l-19-21-26 30c8 3 17 4 26 4 8 0 15-1 22-2z m30-162l-104 0 0 61-15 0 0-61-32 0 0 65c0 40 24 74 58 90l34-39 0-47 15 0 0 47 6 8c0-2 0-4 0-5l0-89 38 0z m48 0l-33 0 0 30 33 0z m-18 45l0 70-14 0 0-70-39 0 0 74c0 45 28 85 67 103l39-45 0-54 14 0 0 54 39 45c39-18 67-58 67-103l0-74-39 0 0 70-14 0 0-70z m102-45l0 30 33 0 0-30z m199 0l-32 0 0 61-15 0 0-61-104 0 0 30 38 0 0 89c0 1 0 3 0 5l6-8 0-47 15 0 0 47 34 39c34-16 58-50 58-90z m-107 54l15 0 0-17-15 0z m-141 53l14 0 0-19-14 0z m225 232l15 0 0-17-15 0z m-34 56l14 0 0-17-14 0z m57 60l15 0 0-16-15 0z m-57 32l14 0 0-16-14 0z m-417-148l15 0 0-17-15 0z m35 56l14 0 0-17-14 0z m-58 60l15 0 0-16-15 0z m58 32l14 0 0-16-14 0z"/>
<glyph glyph-name="planning" unicode="&#70;" d="M105 468l0-14 9 0 0-11 15 0 0 25z m-18-70l13 0 0-14-13 0z m-28 0l0 30-15 0 0-44 30 0 0 14z m42-321l-13-7 6-11-20 0 0-14 44 0z m399 65l-10 11-56-56-55 56-11-11 56-55-56-55 11-11 55 56 56-56 10 11-55 55z m-66 352c-31 0-58-22-65-51-34 21-73 32-113 32-16 0-32-2-47-5l13 37-14 5-21-62 61-21 5 14-37 13c13 3 27 4 40 4 39 0 77-11 110-33 0 0 0-1 0-1 0-37 31-68 68-68 38 0 68 31 68 68 0 38-30 68-68 68z m0-121c-29 0-53 24-53 53 0 29 24 53 53 53 30 0 54-24 54-53 0-29-24-53-54-53z m5 95l-2-15c6 0 11-2 16-6l9 11c-6 6-15 9-23 10z m3-68c-2-1-5-2-8-2-14 0-26 12-27 26l-15-1c2-22 20-39 42-39 4 0 8 0 12 1z m-288-42l0 136-136 0 0-136 45 0c-16-31-25-66-25-101 0-8 0-15 1-22l-30 24-9-12 51-40 41 51-12 9-26-33c-1 7-1 15-1 23 0 35 9 70 27 101l74 0z m-105-131l0 1 0 0z m-16 146l0 106 107 0 0-106z m479-92l-51 40-41-51 12-9 24 31c2-12 3-24 3-35 0-31-6-60-19-87l13-7c14 29 21 61 21 94 0 12-1 25-3 38l32-26z m-255-189l-9-12 32-25c-8-1-16-2-24-2-54 0-105 21-144 60l-26 51-72-145 145 0-30 60c37-26 81-41 127-41 8 0 16 1 24 2l-24-31 11-9 41 51z m-122-58l-97 0 48 97z m121 292c-38 0-70-31-70-69 0-38 32-69 70-69 38 0 69 31 69 69 0 38-31 69-69 69z m0-124c-30 0-55 25-55 55 0 30 25 55 55 55 30 0 54-25 54-55 0-30-24-55-54-55z"/>
<glyph glyph-name="relation" unicode="&#71;" d="M113 272c15 10 25 27 25 46 0 30-25 55-55 55-31 0-55-25-55-55 0-19 10-36 25-46-31-12-53-42-53-77l0-59 166 0 0 59c0 35-22 65-53 77z m-70 52c3 19 20 34 40 34 21 0 38-16 40-37-22 1-37 8-45 12 2 3 3 5 3 5l-13 7c0-1-6-13-25-21z m1-16c10 4 18 10 24 15 9-6 26-15 53-17-5-16-20-29-38-29-19 0-35 14-39 31z m53-47l-14-17-15 17c5 1 10 2 15 2 5 0 10-1 14-2z m54-110l-19 0 0 41-15 0 0-41-69 0 0 41-15 0 0-41-18 0 0 44c0 27 15 50 38 61l22-26 0-32 15 0 0 32 22 26c23-11 39-34 39-61z m-76 36l15 0 0-11-15 0z m401 76l33 0-25 56c-1 30-25 54-55 54-30 0-54-24-55-54l-22-56 30 0c-21-15-35-40-35-68l0-59 165 0 0 59c0 28-14 53-36 68z m11 14l-20 0c5 5 9 11 12 17z m-58 81c20 0 36-14 40-33l-17 0 0 13-15 0 0-13-47 0c3 19 20 33 39 33z m40-48c-4-18-20-33-40-33-19 0-36 15-39 33z m-25-49l-15-17-14 17c4 1 9 2 14 2 5 0 10-1 15-2z m-70 16l6 16c3-6 7-11 12-16z m123-126l-18 0 0 41-15 0 0-41-69 0 0 41-15 0 0-41-19 0 0 44c0 27 16 50 39 61l22-26 0-32 15 0 0 32 22 26c23-11 38-34 38-61z m-75 36l15 0 0-11-15 0z m-166 262c-50 0-98-19-134-54l10-11c34 32 78 50 124 50 48 0 94-19 127-53l11 10c-37 37-86 58-138 58z m116-331c-32-27-73-43-116-43-46 0-89 18-122 49l-11-11c36-34 84-52 133-52 46 0 91 16 126 46z m-116 197c-33 0-60-27-60-60 0-34 27-60 60-60 33 0 60 26 60 60 0 33-27 60-60 60z m0-106c-25 0-45 21-45 46 0 25 20 45 45 45 25 0 45-20 45-45 0-25-20-46-45-46z m-218 217l15 0 0-16-15 0z m85 41l15 0 0-16-15 0z m-63 36l15 0 0-16-15 0z m33-401l14 0 0-16-14 0z m-86-41l15 0 0-16-15 0z m64-36l14 0 0-16-14 0z m389 401l14 0 0-16-14 0z m-86 41l15 0 0-16-15 0z m63 36l15 0 0-16-15 0z m-32-401l15 0 0-16-15 0z m85-41l15 0 0-16-15 0z m-63-36l15 0 0-16-15 0z"/>
<glyph glyph-name="add-user" unicode="&#72;" d="M251 156l15 0 0-24-15 0z m190-25l0 62-29 0c-9 61-54 110-112 126 35 16 59 51 59 92 0 56-45 101-101 101-55 0-100-45-100-101 0-41 24-76 59-92-66-18-114-78-114-149l0-107 207 0 0-1 62 0 0-62 69 0 0 62 62 0 0 69z m-183 366c48 0 87-38 87-86 0 0 0-1 0-1-58 1-92 21-105 30 6 8 9 13 9 14l-13 6c0 0-15-30-64-47 1 46 39 84 86 84z m-85-100c27 9 45 21 57 32 13-10 50-32 113-34-7-40-42-70-85-70-42 0-78 31-85 72z m127-93l-42-48-41 48c13 4 27 6 41 6 15 0 29-2 42-6z m-116-227l0 88-15 0 0-88-51 0 0 93c0 57 35 107 84 128l49-56 0-66 15 0 0 66 49 56c42-18 74-58 82-105l-25 0 0-62-24 0 0 34-15 0 0-34-23 0 0-54-126 0z m304 0l-62 0 0-62-39 0 0 62-63 0 0 39 63 0 0 63 39 0 0-63 62 0z m-419 239l15 0 0-16-15 0z m-69-108l15 0 0-16-15 0z m60-80l15 0 0-16-15 0z m48 261l15 0 0-16-15 0z m-71 59l15 0 0-16-15 0z m66 41l15 0 0-16-15 0z m334-173l15 0 0-16-15 0z m60-108l15 0 0-16-15 0z m-99 181l15 0 0-16-15 0z m71 59l15 0 0-16-15 0z m-66 41l15 0 0-16-15 0z"/>
<glyph glyph-name="administrator" unicode="&#73;" d="M249 95l14 0 0-24-14 0z m173 221l0 60-35 0c-3 14-9 28-17 41l25 25-43 42-25-25c-12 9-26 14-41 18l0 35-60 0 0-35c-15-4-29-9-41-18l-25 25-43-42 25-25c-8-13-13-27-17-41l-35 0 0-60 35 0c4-15 9-29 17-42l-25-25 27-26c-29-29-47-69-47-113l0-110 318 0 0 110c0 44-18 84-47 113l27 26-25 25c8 13 14 27 17 42z m-22-206l0-95-52 0 0 90-15 0 0-90-154 0 0 90-15 0 0-90-52 0 0 95c0 40 16 76 43 102l5-5 25 25c11-7 23-12 36-16l5-6 0-30 23 0 0-64 14 0 0 64 23 0 0 30 5 6c13 4 25 9 36 16l25-25 5 5c27-26 43-62 43-102z m-26 215c-3-17-10-33-20-47l-4-5 24-24-22-21-23 23-5-3c-14-10-30-17-47-20l-6-1 0-33-30 0 0 33-6 1c-17 3-33 10-47 20l-5 3-23-23-22 21 24 24-4 5c-10 14-17 30-20 47l-1 6-32 0 0 30 32 0 1 6c3 17 10 33 20 47l4 5-24 23 22 21 23-23 5 4c14 10 30 16 47 19l6 1 0 33 30 0 0-33 6-1c17-3 33-9 47-19l5-4 23 23 22-21-24-23 4-5c10-14 17-30 20-47l1-6 32 0 0-30-32 0z m-118 105c-46 0-84-38-84-84 0-46 38-84 84-84 46 0 84 38 84 84 0 46-38 84-84 84z m0-153c-38 0-69 31-69 69 0 38 31 69 69 69 38 0 69-31 69-69 0-38-31-69-69-69z m0 100c-17 0-32-14-32-31 0-18 15-32 32-32 17 0 32 14 32 32 0 17-15 31-32 31z m0-48c-9 0-17 8-17 17 0 9 8 17 17 17 9 0 17-8 17-17 0-9-8-17-17-17z m173-112l15 0 0-16-15 0z m43-113l15 0 0-17-15 0z m0 181l15 0 0-17-15 0z m25 85l15 0 0-16-15 0z m-60 57l15 0 0-17-15 0z m35 56l15 0 0-16-15 0z m-404-266l15 0 0-16-15 0z m-43-113l15 0 0-17-15 0z m0 181l15 0 0-17-15 0z m-25 85l15 0 0-16-15 0z m59 57l15 0 0-17-15 0z m-34 56l15 0 0-16-15 0z"/>
<glyph glyph-name="balance" unicode="&#74;" d="M512 309l0 50-212 0c-8 13-21 23-37 25l0 59c16 4 28 18 28 34 0 19-16 35-35 35-19 0-35-16-35-35 0-16 12-30 28-34l0-59c-16-2-29-12-37-25l-212 0 0-50 87 0 0-101-43-66-27 0 0-7c0-42 35-77 77-77 43 0 77 35 77 77l0 7-24 0-45 70 0 97 110 0c8-13 21-22 37-25l0-235-84 0 0-49 182 0 0 49-84 0 0 235c16 3 29 12 37 25l110 0 0-101-42-66-27 0 0-7c0-42 34-77 77-77 42 0 77 35 77 77l0 7-25 0-45 70 0 97z m-356-181c-4-31-30-55-62-55-19 0-37 9-48 23l51 0 0 15-60 0c-2 5-4 11-5 17z m-27 14l-67 0 33 52z m78 182l-192 0 0 20 192 0c-1-3-1-6-1-10 0-3 0-7 1-10z m29 153c0 11 9 20 20 20 11 0 20-9 20-20 0-11-9-20-20-20-11 0-20 9-20 20z m96-442l0-20-152 0 0 20z m-76 263c-20 0-36 16-36 36 0 20 16 36 36 36 20 0 36-16 36-36 0-20-16-36-36-36z m224-170c-4-31-30-55-62-55-20 0-37 9-49 23l51 0 0 15-60 0c-2 5-3 11-4 17z m-27 14l-68 0 34 52z m-148 182c1 3 1 7 1 10 0 4 0 7-1 10l192 0 0-20z m-205 81c-3-5-5-11-7-17l14-5c2 6 4 11 6 16z m80 83c-28-14-53-36-70-63l13-8c15 25 38 45 64 58z m160-4l-7-13c4-3 9-6 13-9l9 13c-5 3-10 6-15 9z m34-26l-10-10c20-19 35-43 42-69l15 4c-9 28-25 54-47 75z m104-251l14 0 0-16-14 0z m-313-25l15 0 0-16-15 0z m-30 64l15 0 0-16-15 0z m-118-52l15 0 0-16-15 0z m290-12l15 0 0-16-15 0z m61 62l14 0 0-17-14 0z"/>
<glyph glyph-name="calendar" unicode="&#75;" d="M321 326l0-39 72 0 0 39z m57-24l-42 0 0 9 42 0z m27 24l0-39 72 0 0 39z m57-24l-42 0 0 9 42 0z m-225-23l0-39 72 0 0 39z m57-24l-43 0 0 9 43 0z m27 24l0-39 72 0 0 39z m57-24l-42 0 0 9 42 0z m27 24l0-39 72 0 0 39z m57-24l-42 0 0 9 42 0z m-225-23l0-39 72 0 0 39z m57-24l-43 0 0 9 43 0z m27 24l0-39 72 0 0 39z m57-24l-42 0 0 9 42 0z m27 24l0-39 72 0 0 39z m57-24l-42 0 0 9 42 0z m-225-23l0-39 72 0 0 39z m57-25l-43 0 0 10 43 0z m27 25l0-39 72 0 0 39z m57-25l-42 0 0 10 42 0z m-327-16c-5-20-11-36-19-49l12-8c9 14 16 32 21 53z m147 73l0 1c0 0 0 1 0 2 0 38-32 69-70 69-1 0-2 0-3 0l1-14c1 0 1 0 2 0 30 0 55-25 55-55 0-1 0-1 0-2l0 0c0-5 0-12 0-20l15 0c0 9 0 15 0 19z m2-38l-15-2c0-4 1-9 2-14l14 3c0 4-1 8-1 13z m312 294l-32 0c-2 22-14 38-29 38-15 0-27-16-29-38l-11 0c-2 22-14 38-29 38-14 0-26-16-29-38l-10 0c-2 22-14 38-29 38-15 0-27-16-29-38l-10 0c-2 22-14 38-29 38-15 0-27-16-29-38l-11 0c-2 22-14 38-29 38-14 0-26-16-29-38l-31 0 0-104c-15-4-26-18-26-34 0-9 4-18 10-24-39-12-68-48-68-91 0-1 0-2 0-3 1-13 0-80-26-113-4-6-7-14-7-21 0-19 15-35 34-35l45 0c1-26 22-47 48-47 26 0 47 21 48 47l47 0c19 0 34 16 34 35 0 7-2 15-7 21-3 3-5 7-8 12l271 0z m-61 23c6 0 12-10 14-23l-28 0c1 13 8 23 14 23z m-69 0c6 0 13-10 15-23l-29 0c2 13 9 23 14 23z m-68 0c6 0 12-10 14-23l-28 0c2 13 8 23 14 23z m-68 0c6 0 12-10 14-23l-28 0c1 13 8 23 14 23z m-69 0c6 0 13-10 15-23l-29 0c2 13 9 23 14 23z m-50-140c11 0 20-9 20-21 0-11-9-20-20-20-12 0-21 9-21 20 0 12 9 21 21 21z m0-340c-18 0-33 14-33 32l66 0c-1-18-15-32-33-32z m115 67c0-11-9-20-20-20l-188 0c-10 0-19 9-19 20 0 4 1 8 4 12 28 36 29 103 29 122l0 1c0 0 0 1 0 2 0 44 36 80 80 80 44 0 80-36 80-80 0-1 0-2 0-2l0-1c0-19 2-86 29-122 3-4 5-8 5-12z m255 48l-262 0c-12 34-12 76-12 86 0 1 0 2 0 3 0 44-30 80-70 91 6 7 9 15 9 24 0 8-2 15-6 21l341 0z m0 240l-365 0 0 11 365 0z m0 26l-365 0 0 61 60 0c-2-12-8-21-13-23-3 7-10 11-17 11-10 0-19-9-19-19 0-10 9-19 19-19 8 0 15 5 17 13 14 1 25 17 27 37l54 0c-2-11-6-20-11-22-4 6-10 10-17 10-10 0-19-9-19-19 0-10 9-19 19-19 8 0 15 6 18 13 13 3 23 18 25 37l53 0c-1-12-7-21-12-22-3 6-10 10-17 10-10 0-19-9-19-19 0-10 9-19 19-19 8 0 15 6 18 13 13 2 24 17 26 37l54 0c-2-12-7-20-12-22-3 6-10 10-17 10-10 0-19-9-19-19 0-10 9-19 19-19 8 0 15 6 18 13 13 2 23 17 25 37l54 0c-2-11-6-20-12-22-3 6-9 10-16 10-10 0-19-9-19-19 0-10 9-19 19-19 8 0 15 6 18 13 13 2 23 17 25 37l17 0z m-332 28c-1-1-2-2-3-2-2 0-4 2-4 4 0 1 0 2 1 3 2-2 4-4 6-5z m69-1c0-1-1-1-2-1-2 0-4 2-4 4 0 1 0 1 1 2 1-2 3-4 5-5z m68 0c-1 0-2-1-3-1-2 0-4 2-4 4 0 1 1 2 1 3 2-2 4-4 6-6z m69 0c-1-1-2-1-3-1-2 0-4 2-4 4 0 1 0 2 1 2 2-2 4-4 6-5z m68 0c0-1-1-1-2-1-2 0-4 2-4 4 0 1 0 1 0 2 2-2 4-4 6-5z"/>
<glyph glyph-name="hierarchical-structure-1" unicode="&#76;" d="M469 92l0 66-38 0 0 53c22 3 38 22 38 45 0 23-16 42-38 45l0 71-168 0 0 48c22 4 39 23 39 46 0 25-21 46-46 46-25 0-46-21-46-46 0-23 17-42 39-46l0-48-168 0 0-71c-22-3-38-22-38-45 0-23 16-42 38-45l0-53-38 0 0-66c-22-4-39-23-39-46 0-25 21-46 46-46 25 0 46 21 46 46 0 23-17 42-39 46l0 52 123 0 0-52c-22-4-39-23-39-46 0-25 21-46 46-46 26 0 46 21 46 46 0 23-16 42-38 46l0 50 122 0 0-50c-22-4-38-23-38-46 0-25 20-46 46-46 25 0 46 21 46 46 0 23-17 42-39 46l0 52 123 0 0-52c-22-4-39-23-39-46 0-25 21-46 46-46 25 0 46 21 46 46 0 23-17 42-39 46z m-419-77c-14 0-26 9-30 23 8 3 14 6 18 10 7-4 21-11 41-13-4-12-15-20-29-20z m31 35c-16 1-26 6-32 9 1 2 1 3 1 3l-13 6c0 0-5-8-17-14 3 13 15 23 30 23 16 0 29-12 31-27z m373 210c-16 1-26 6-32 9 1 2 1 3 1 3l-13 6c0 0-4-8-17-14 3 13 16 23 30 23 16 0 29-12 31-27z m-198 237c16 0 29-12 31-27-16 1-27 6-32 9 1 2 1 3 1 3l-13 6c0 0-5-8-17-15 3 14 15 24 30 24z m-30-40c8 4 14 7 18 11 7-5 21-11 41-13-4-12-15-20-29-20-14 0-26 9-30 22z m30-170c16 0 29-12 31-27-16 1-27 6-32 9 1 2 1 3 1 3l-13 6c0 0-5-8-17-14 3 13 15 23 30 23z m-167 0c16 0 29-12 31-27-16 1-27 6-33 9 1 2 2 3 2 3l-13 6c0 0-5-8-18-14 4 13 16 23 31 23z m0-62c-15 0-27 9-30 23 7 3 14 6 18 10 7-4 21-11 41-13-4-12-16-20-29-20z m98-210c-14 0-26 9-30 23 8 3 14 6 19 10 7-4 20-11 41-13-5-12-16-20-30-20z m31 35c-16 1-26 6-32 9 1 2 1 3 1 3l-13 6c0 0-4-8-17-14 3 13 16 23 30 23 16 0 29-12 31-27z m31 108l-153 0 0 53c22 3 39 22 39 45 0 23-17 42-39 45l0 56 153 0 0-56c-22-3-39-22-39-45 0-23 17-42 39-45z m7 67c-14 0-26 9-30 23 8 3 14 6 18 10 7-4 21-11 41-13-4-12-15-20-29-20z m69-210c-15 0-27 9-30 23 7 3 13 6 18 10 7-4 21-11 41-13-4-12-16-20-29-20z m31 35c-16 1-27 6-33 9 1 2 2 3 2 3l-13 6c-1 0-5-8-18-14 4 13 16 23 31 23 16 0 29-12 31-27z m60 108l-153 0 0 53c22 3 39 22 39 45 0 23-17 42-39 45l0 56 153 0 0-56c-22-3-39-22-39-45 0-23 17-42 39-45z m7 67c-14 0-26 9-30 23 8 3 14 6 19 10 7-4 20-11 41-13-5-12-16-20-30-20z m39-210c-14 0-26 9-30 23 8 3 14 6 18 10 7-4 21-11 41-13-4-12-16-20-29-20z m-2 44c2 2 2 3 2 3l-13 6c0 0-5-8-17-14 3 13 15 23 30 23 16 0 29-12 31-27-16 1-27 6-33 9z"/>
<glyph glyph-name="note" unicode="&#77;" d="M390 481l-73 0 0-15 73 0c5 0 10-4 10-10 0-2-1-3-1-4l13-7c2 3 3 7 3 11 0 14-12 25-25 25z m-113 0l18 0 0-15-18 0z m-185-132l261 0 0-15-261 0z m0-269l261 0 0-15-261 0z m347 264l-10-10 9-10-30-30 10-10 41 40z m-50-69l10 10 10-11-10-9z m111 112l-5 6c-16 16-42 16-58 0l-5-6-11-10-27-27 0 56c26 2 46 24 46 50 0 28-23 50-50 50l-340 0c-28 0-50-22-50-50l0-399 43 0 0-51 351 0 0 218 90 90 8 8 3 2 5 6c8 7 12 18 12 29 0 10-4 21-12 28z m-414 104l304 0c19 0 35-15 35-35 0-19-16-35-35-35l-304 0c9 9 14 21 14 35 0 14-5 26-14 35z m-43-70l0-349-28 0 0 384c0 20 16 35 35 35 20 0 36-15 36-35 0-19-16-35-36-35z m336-401l-321 0 0 386 321 0 0-71-32-32-255 0 0-15 241 0-31-31-210 0 0-14 195 0-31-31-164 0 0-15 149 0-2-3-9-28-138 0 0-15 134 0-9-31-125 0 0-14 261 0 0 14-88 0 37 11 20 20 31 0 0 15-17 0 43 43z m-130 157l35-35-50-15z m49-29l-42 43 176 176 42-43z m192 192l-6-5-42 42 5 5c11 10 27 10 37 0l6-5c5-5 7-11 7-18 0-7-2-14-7-19z"/>
<glyph glyph-name="database" unicode="&#78;" d="M0 484l0-113 395 0 0 113z m380-98l-365 0 0 83 365 0z m-314 68c-14 0-25-12-25-26 0-14 11-25 25-25 14 0 26 11 26 25 0 14-12 26-26 26z m0-36c-6 0-11 4-11 10 0 6 5 11 11 11 6 0 11-5 11-11 0-6-5-10-11-10z m74 36c-14 0-26-12-26-26 0-14 12-25 26-25 14 0 25 11 25 25 0 14-11 26-25 26z m0-36c-6 0-11 4-11 10 0 6 5 11 11 11 6 0 10-5 10-11 0-6-4-10-10-10z m-74-96c-14 0-25-11-25-25 0-14 11-26 25-26 14 0 26 12 26 26 0 14-12 25-26 25z m0-36c-6 0-11 5-11 11 0 6 5 10 11 10 6 0 11-4 11-10 0-6-5-11-11-11z m74 36c-14 0-26-11-26-25 0-14 12-26 26-26 14 0 25 12 25 26 0 14-11 25-25 25z m0-36c-6 0-11 5-11 11 0 6 5 10 11 10 6 0 10-4 10-10 0-6-4-11-10-11z m-74-95c-14 0-25-12-25-26 0-14 11-25 25-25 14 0 26 11 26 25 0 14-12 26-26 26z m0-37c-6 0-11 5-11 11 0 6 5 11 11 11 6 0 11-5 11-11 0-6-5-11-11-11z m74 37c-14 0-26-12-26-26 0-14 12-25 26-25 14 0 25 11 25 25 0 14-11 26-25 26z m0-37c-6 0-11 5-11 11 0 6 5 11 11 11 6 0 10-5 10-11 0-6-4-11-10-11z m255 191l0 8-395 0 0-113 308 0-14-18-294 0 0-113 324 0 0-81 135 0 0 156 53 0z m-380-90l0 83 365 0 0-3-61-80z m309-131l-309 0 0 83 267 0-18-23 60 0z m120 75l0-156-105 0 0 156-45 0 97 126 92-126z m-27-88l0-33-19 0 0-15 34 0 0 48z m-52-33l16 0 0-15-16 0z"/>
<glyph glyph-name="hierarchical-structure" unicode="&#79;" d="M469 111c11 9 19 22 19 37 0 23-17 42-39 46l0 68-186 0 0 55 61 0 0 49c0 28-16 52-41 63 12 8 19 22 19 37 0 25-21 46-46 46-25 0-46-21-46-46 0-15 7-29 19-37-25-11-41-35-41-63l0-49 61 0 0-55-186 0 0-68c-22-4-39-23-39-46 0-15 8-28 19-37-24-10-41-34-41-62l0-49 137 0 0 49c0 28-17 52-41 62 11 9 18 22 18 37 0 23-16 42-38 46l0 54 171 0 0-54c-22-4-39-23-39-46 0-15 7-28 19-37-25-10-41-34-41-62l0-49 136 0 0 49c0 28-16 52-41 62 12 9 19 22 19 37 0 23-17 42-39 46l0 54 171 0 0-54c-22-4-38-23-38-46 0-15 7-28 18-37-24-10-41-34-41-62l0-49 137 0 0 49c0 28-17 52-41 62z m-345-62l0-34-12 0 0 32-15 0 0-32-53 0 0 32-15 0 0-32-12 0 0 34c0 21 12 39 29 48l17-20 0-26 15 0 0 26 17 20c17-9 29-27 29-48z m-63 53c3 0 6 0 9 0 4 0 7 0 10 0l-10-11z m9 15c-14 0-26 10-30 23 8 3 14 7 19 11 7-5 20-12 41-13-4-12-16-21-30-21z m31 36c-16 1-26 5-32 9 1 1 1 2 2 2l-14 7c0-1-4-9-17-15 3 14 16 24 30 24 16 0 29-12 31-27z m155 344c16 0 29-12 31-27-16 1-27 6-32 9 1 2 1 3 1 3l-13 6c0 0-5-8-17-15 3 14 15 24 30 24z m-30-40c8 4 14 7 18 11 7-5 21-11 41-13-4-12-15-20-29-20-14 0-26 9-30 22z m39-38l-9-11-9 11c3 1 6 1 9 1 3 0 6 0 9-1z m45-370l0-34-13 0 0 32-14 0 0-32-54 0 0 32-14 0 0-32-13 0 0 34c0 21 12 39 30 48l17-20 0-26 14 0 0 26 17 20c18-9 30-27 30-48z m-63 53c3 0 6 0 9 0 3 0 6 0 9 0l-9-11z m9 15c-14 0-26 10-30 23 8 3 14 7 18 11 7-5 21-12 41-13-4-12-15-21-29-21z m31 36c-16 1-27 5-32 9 1 1 1 2 1 2l-13 7c0-1-5-9-17-15 3 14 15 24 30 24 16 0 29-12 31-27z m-58 179l0 32-14 0 0-32-13 0 0 34c0 21 12 39 30 48l17-20 0-25 14 0 0 25 17 20c18-9 30-27 30-48l0-34-13 0 0 32-14 0 0-32z m213-152c15 0 29-12 31-27-16 1-27 5-33 9 1 1 2 2 2 2l-14 7c0-1-4-9-17-15 4 14 16 24 31 24z m-31-40c8 3 14 7 19 11 7-5 20-12 41-13-4-12-16-21-29-21-15 0-27 10-31 23z m40-38l-9-11-10 11c3 0 6 0 10 0 3 0 6 0 9 0z m44-87l-12 0 0 32-15 0 0-32-53 0 0 32-15 0 0-32-12 0 0 34c0 21 12 39 29 48l17-20 0-26 15 0 0 26 17 20c17-9 29-27 29-48l0-34z"/>
<glyph glyph-name="id-card" unicode="&#80;" d="M305 428l10 84-118 0 10-84-108 0 0-428 314 0 0 428z m-6 69l-16-131-54 0-16 131z m-185-482l0 100 284 0 0-100z m128 298c0-1-6-12-23-19 3 17 18 31 37 31 20 0 36-15 38-35-21 2-34 8-41 12 1 2 2 4 2 4z m0-22c8-5 25-14 50-15-5-16-19-27-36-27-18 0-33 12-37 29 10 4 18 8 23 13z m27-58l-13-15-13 15c4 1 8 1 13 1 5 0 9 0 13-1z m-20-29l0-31 14 0 0 31 21 24c21-11 36-32 36-58l0-41-17 0 0 39-15 0 0-39-64 0 0 39-15 0 0-39-17 0 0 41c0 26 15 47 36 58z m149-75l-63 0 0 41c0 33-21 62-50 73 14 10 24 26 24 44 0 29-24 53-53 53-29 0-53-24-53-53 0-18 10-34 24-44-29-11-50-40-50-73l0-41-63 0 0 285 95 0 7-62 80 0 7 62 95 0 0-285z m-77 274l0-15 52 0 0-80 15 0 0 95z m52-114l15 0 0-17-15 0z m-249-30l15 0 0-84-15 0z m0 31l15 0 0-14-15 0z m126 197l0-15 20 0-3-23 15-1 5 39z m14-66l1 13 15-2-1-13z m-123-332l230 0 0-15-230 0z m0-37l230 0 0-14-230 0z"/>
<glyph glyph-name="email" unicode="&#81;" d="M364 484l0-15 42 0 0-27 14 0 0 42z m42-62l14 0 0-14-14 0z m-292-55l287 0 0-15-287 0z m0-50l287 0 0-15-287 0z m0-50l287 0 0-15-287 0z m51-51l185 0 0-14-185 0z m68-176l117 0 0-15-117 0z m143 0l17 0 0-15-17 0z m132 241c0 0-26 16-60 38l0 193-279 0-106-106 0-87-63-41 0-278 512 0 0 278z m-60 21c17-11 31-20 41-26-10-6-24-16-41-27z m-283 185l0-77-77 0z m-87-92l102 0 0 102 253 0 0-257c-43-28-98-64-136-89l-41 27-41-27-137 89z m-15-93l0-52-40 26z m-48-39l186-121-186-121z m18-248l223 145 223-145z m464 6l-187 121c59 39 154 100 187 121z"/>
<glyph glyph-name="briefcase" unicode="&#82;" d="M457 82l0-42-78 0 0-15 93 0 0 57z m-109-42l17 0 0-15-17 0z m-308 92l15 0 0-59-15 0z m0 30l15 0 0-14-15 0z m324 250c-3 55-49 100-105 100l-6 0c-56 0-102-45-105-100l-133 0 0-412 482 0 0 412z m-111 85l6 0c48 0 88-38 90-85l-24 0c-3 34-32 61-67 61l-4 0c-35 0-64-27-67-61l-24 0c2 47 42 85 90 85z m57-85l-108 0c3 26 25 46 52 46l4 0c27 0 49-20 52-46z m-281-15l454 0 0-117c0-39-33-72-72-72l-113 0 0 67-84 0 0-67-113 0c-39 0-72 33-72 72z m254-137l0-118-54 0 0 118z m200-245l-454 0 0 217c16-23 42-38 72-38l113 0 0-67 84 0 0 67 113 0c30 0 56 15 72 38z m-424 247l-13-6c9-20 28-34 50-37l2 15c-17 2-32 13-39 28z m297 125l21 0 0-15-21 0z m48 0l0-15 53 0 0-28 15 0 0 43z m-148-194c-13 0-23-10-23-23 0-12 10-23 23-23 13 0 23 11 23 23 0 13-10 23-23 23z m0-31c-4 0-8 4-8 8 0 5 4 8 8 8 4 0 8-3 8-8 0-4-4-8-8-8z"/>
<glyph glyph-name="strategy" unicode="&#83;" d="M414 358c-2 0-4 0-5 0l0 0c-35-2-66-21-82-52l13-7c15 27 43 44 74 44 46 0 83-37 83-83 0-46-37-84-83-84-29 0-56 15-71 40l-13-8c18-28 47-45 79-46 0 0 0 0 0 0 1 0 3 0 5 0 54 0 98 44 98 98 0 54-44 98-98 98z m-266 32l-5 5-5 5-32-32-32 32-11-10 32-33-32-32 5-5 6-5 32 32 32-32 5 5 0 0 5 5-32 32z m148 0l-10 10-28-27-5-5-32 32-10-10 32-33-32-32 10-10 32 32 33-32 10 10-32 32z m-148-186l-5 6-5 5-28-28-4-5-32 33-11-11 32-32-32-32 5-5 6-6 32 33 32-33 5 5 0 1 5 5-32 32z m148 0l-10 11-33-33-32 33-10-11 32-32-32-32 5-5 5-6 32 33 33-33 4 5 6 6-32 32z m154 297l-6 6-5 5-32-32-32 32-11-11 33-32-33-32 6-5 5-5 32 32 32-32 5 5 6 5-33 32z m0-426l-6 5-5 5-32-32-32 32-11-10 33-32-33-32 6-6 5-5 32 32 32-32 5 5 0 0 6 6-33 32z m-47 245l-11-11 42-42-415 0 0-168c-11-3-19-13-19-25 0-14 12-26 26-26 15 0 27 12 27 26 0 12-8 22-19 25l0 153 398 0-40-40 11-10 59 59z m-365-246c0-6-5-11-12-11-6 0-11 5-11 11 0 6 5 12 11 12 7 0 12-6 12-12z m238 393l15 0 0-16-15 0z m32-366l15 0 0-16-15 0z m-103-56l15 0 0-16-15 0z m-69 43l15 0 0-16-15 0z m50 405l15 0 0-16-15 0z m-84-22l15 0 0-16-15 0z"/>
<glyph glyph-name="management" unicode="&#84;" d="M221 196c-37 0-67-30-67-66 0-37 30-67 67-67 37 0 67 30 67 67 0 36-30 66-67 66z m0-120c-29 0-53 24-53 54 0 29 24 53 53 53 30 0 54-24 54-53 0-30-24-54-54-54z m170 275c-24 0-45-21-45-45 0-25 21-45 45-45 25 0 45 20 45 45 0 24-20 45-45 45z m0-76c-16 0-30 14-30 31 0 16 14 30 30 30 17 0 31-14 31-30 0-17-14-31-31-31z m55-82c-7-28-21-54-41-76l11-10c21 23 37 52 45 82z m-61-94c-4-4-9-7-14-10l8-13c6 4 11 7 16 11z m77-67l15 0 0-17-15 0z m-94 8l15 0 0-17-15 0z m109 69l15 0 0-16-15 0z m-131 350l15 0 0-16-15 0z m-326-151l15 0 0-16-15 0z m31-201l15 0 0-17-15 0z m-31-75l15 0 0-17-15 0z m91 336l15 0 0-17-15 0z m-74 58l14 0 0-16-14 0z m55 59l15 0 0-16-15 0z m330 13l14 0 0-17-14 0z m40-49l15 0 0-16-15 0z m30-164l0 41-21 0c-2 8-5 15-9 21l15 15-29 29-15-15c-7 4-14 7-21 9l0 21-41 0 0-21c-7-2-14-5-21-9l-15 15-29-29 15-15c-4-6-7-13-9-21l-6 0c-13 12-29 21-47 26 28 14 47 43 47 76 0 46-38 84-85 84-46 0-84-38-84-84 0-33 19-62 47-76-53-16-92-65-92-123l0-124 28 0c2-11 6-21 12-30l-19-20 34-34 20 19c9-6 19-10 30-12l0-28 49 0 0 28c11 2 21 6 30 12l20-19 34 34-19 20c6 9 10 19 12 30l28 0 0 124c0 2-1 4-1 6 7-4 14-7 21-8l0-22 41 0 0 22c7 1 14 4 21 8l15-15 29 29-15 15c4 7 7 14 9 21l21 0z m-224 48c8-3 16-8 23-13l0-35 21 0c2-7 5-14 9-21l-15-15 29-29 1 1 0-67-13 0c-2 11-6 21-12 30l19 20-34 34-20-19c-9 6-19 10-30 12l0 28-17 0 0 29z m-47-31l-31 37c10 3 20 4 31 4 12 0 22-1 32-4z m0 195c39 0 70-31 70-69-44 1-72 16-83 24 5 6 7 10 7 10l-13 7c-1-1-13-24-50-38 2 37 32 66 69 66z m-68-82c21 7 35 17 45 26 12-9 42-26 92-28-7-31-35-55-69-55-34 0-62 25-68 57z m22-82l39-45 0-29-17 0 0-28c-11-2-21-6-30-12l-20 19-34-34 19-20c-6-9-10-19-12-30l-13 0 0 75c0 46 28 86 68 104z m161-213l-25 0-1-7c-2-12-7-24-15-35l-3-5 17-18-13-14-18 18-5-3c-11-8-23-13-36-15l-6-1 0-25-19 0 0 25-6 1c-13 2-25 7-36 15l-5 3-18-18-13 14 17 18-3 5c-8 11-13 23-15 35l-1 7-25 0 0 19 25 0 1 6c2 13 7 25 15 36l3 5-17 18 13 13 18-17 5 3c11 8 23 13 36 15l6 1 0 25 19 0 0-25 6-1c13-2 25-7 36-15l5-3 18 17 13-14-17-17 3-5c8-11 13-23 15-36l1-6 25 0z m122 180l-1-6c-1-10-5-19-11-27l-3-5 13-13-8-8-13 13-5-3c-8-6-17-10-27-11l-6-1 0-19-11 0 0 19-6 1c-10 1-19 5-27 11l-5 3-13-13-8 8 13 13-4 5c-5 8-9 17-10 27l-2 6-18 0 0 11 18 0 2 6c1 10 5 19 10 27l4 5-13 13 8 8 13-13 5 4c8 5 17 9 27 11l6 1 0 18 11 0 0-18 6-1c10-2 19-6 27-11l5-4 13 13 8-8-13-13 3-5c6-8 10-17 11-27l1-6 19 0 0-11z"/>
<glyph glyph-name="profits-1" unicode="&#85;" d="M253 394l11 10 9-9-10-10z m169-1l0-17-15 0-136 136-171 0 0-8c0-7 2-14 5-20l-14 0 0-7c0-15 7-29 17-38 0-11 4-21 10-29l0 0c0-22 20-41 45-41l32 0c-3-1-5-4-7-6l-5-5 133-134 106 0 0-17 90 0 0 186z m-297 36c5-2 11-3 17-3l79 0 23-23 11 11-28 27-85 0c-18 0-32 12-35 28l7 0c10-9 23-15 37-15l80 0 53-54c11-10 16-24 16-39l0-29-32 32c0 1-1 1-2 2l-39 39-68 0c-16 0-29 10-34 24z m38-45c-10 0-18 4-24 10 6-3 13-4 20-4l62 0 10-10c-1 0-2 1-3 0-3 0-6 0-8 0-1 1-1 1-1 1l-3 3z m259-145l-100 0-118 119c7 5 15 8 24 8 10 0 20-4 28-11l59-59 0 65c0 19-7 36-20 50l-58 58-86 0c-17 0-32 12-35 28l149 0 136-136 21 0z m75-17l-61 0 0 2 0 0 0 152 0 0 0 2 61 0z m-28 49c-12 0-21-9-21-21 0-11 9-20 21-20 11 0 20 9 20 20 0 12-9 21-20 21z m0-26c-4 0-6 2-6 5 0 3 2 6 6 6 3 0 5-3 5-6 0-3-2-5-5-5z m-354-111c-37 0-67-30-67-67 0-37 30-67 67-67 37 0 67 30 67 67 0 37-30 67-67 67z m0-119c-29 0-52 23-52 52 0 29 23 53 52 53 29 0 53-24 53-53 0-29-24-52-53-52z m14 56c-2 1-5 2-7 2-3 1-5 1-8 2-2 0-4 1-5 2-2 1-3 2-3 4 0 2 1 4 3 4 1 1 3 1 5 1 7 0 14-2 18-7l0 13c-1 2-6 4-13 4l0 13c0 1 0 1 0 1l-10 0c0 0 0-1 0-1l0-12c-3-1-5-3-7-4-3-2-4-4-5-6-1-2-2-4-2-7 0-3 1-5 2-8 3-3 8-6 14-7l7-2c2 0 4-1 6-2 1-1 2-2 2-3 0-3-2-5-5-6-2-1-4-1-7-1-4 0-8 1-11 3-4 2-6 5-8 9l0-15c4-3 9-5 14-7l0-11c0 0 0-1 1-1l9 0c1 0 1 1 1 1l0 10c6 2 11 5 14 9 2 3 3 6 3 9 0 6-2 10-8 13z m-62 288c-37 0-67-31-67-68 0-37 30-67 67-67 37 0 67 30 67 67 0 37-30 68-67 68z m0-120c-29 0-52 24-52 52 0 29 23 53 52 53 29 0 52-24 52-53 0-28-23-52-52-52z m14 56c-2 1-5 2-7 2-3 1-6 1-8 2-2 1-4 1-6 2-1 1-2 3-2 4 0 2 1 4 2 4 2 1 4 1 6 1 7 0 13-2 18-7l0 13c-2 2-6 4-13 5l0 13c0 0 0 0 0 0l-10 0c0 0-1 0-1-1l0-12c-2-1-4-2-6-4-3-2-5-3-6-5-1-2-1-5-1-8 0-3 1-5 2-7 3-4 7-7 14-8l7-2c2 0 4-1 6-2 1 0 2-2 2-3 0-3-2-5-5-6-2 0-4-1-7-1-4 0-8 1-12 3-3 2-6 5-7 9l0-15c4-3 9-5 14-7l0-11c0 0 0 0 0 0l10 0c0 0 1 0 1 0l0 11c6 2 11 5 13 8 3 3 4 6 4 9 0 6-3 10-8 13z m137-24c-37 0-67-30-67-67 0-37 30-67 67-67 37 0 68 30 68 67 0 37-31 67-68 67z m0-120c-28 0-52 24-52 53 0 29 24 52 52 52 29 0 53-23 53-52 0-29-24-53-53-53z m14 56c-2 1-4 2-7 3-3 0-5 1-7 1-3 1-5 2-6 3-2 0-2 2-2 4 0 2 0 3 2 4 1 0 3 1 5 1 8 0 14-3 19-7l0 13c-2 2-7 3-14 4l0 13c0 0 0 0 0 0l-10 0c0 0 0 0 0 0l0-13c-2-1-5-2-7-4-2-1-4-3-5-5-1-2-2-5-2-8 0-2 1-5 3-7 2-4 7-6 13-8l7-1c3-1 5-1 6-2 2-1 2-2 2-4 0-3-1-5-5-6-1 0-4 0-7 0-4 0-8 1-11 3-4 2-6 5-8 8l0-15c5-3 9-5 14-6l0-12c0 0 1 0 1 0l9 0c1 0 1 0 1 0l0 11c6 2 11 5 14 9 2 3 3 6 3 9 0 5-2 10-8 12z m115-33l15 0 0-16-15 0z m-91-134l15 0 0-16-15 0z m5 75l15 0 0-16-15 0z m-222 59l15 0 0-16-15 0z m57 30l15 0 0-16-15 0z m72 112l14 0 0-16-14 0z m-125 109l15 0 0-17-15 0z m323-326l15 0 0-16-15 0z"/>
<glyph glyph-name="megaphone" unicode="&#86;" d="M376 374l0 100-93 0 0-33-199-45 0-42-33 0c-28 0-51-23-51-51l0-3c0-26 20-48 46-50l40-245 112 0 0 80 31 0 0 62-31 0 0 35 85-20 0-32 93 0 0 99c30 11 52 39 52 73 0 33-22 62-52 72z m-178-242l17 0 0-32-17 0z m-183 168l0 3c0 20 16 36 36 36l33 0 0-75-33 0c-20 0-36 17-36 36z m168-280l-85 0-37 230 23 0 0-42 99-23z m99 157l-183 42 0 165 183 42z m79-33l-63 0 0 315 63 0z m15 101l0 113c21-9 37-31 37-56 0-26-16-47-37-57z m-60 203l0-14 19 0 0-71 15 0 0 85z m19-103l15 0 0-14-15 0z m-183 40l17 4 3-14-17-4z m37 9l3-15 64 15 0-27 15 0 0 46z m-137-66c-10 0-20-6-24-15l13-6c2 4 6 6 11 6l7 0 0-10 15 0 0 25z m106-216l0-67-21 0 0-15 35 0 0 82z m0 36l14 0 0-16-14 0z m266 247l-10-11c25-21 39-51 39-83 0-32-14-63-39-84l10-11c28 24 43 58 43 95 0 36-15 70-43 94z m58 2c-19 28-45 49-77 61l-5-13c59-24 97-81 97-144 0-64-38-121-97-144l5-14c32 12 58 34 77 61 20 29 30 62 30 97 0 34-10 68-30 96z m-36-276l15 0 0-17-15 0z m36 353l15 0 0-16-15 0z m-69 33l15 0 0-16-15 0z m19-471l15 0 0-16-15 0z m-96 47l15 0 0-16-15 0z"/>
<glyph glyph-name="profits" unicode="&#87;" d="M290 284c-5 3-11 5-17 6-6 1-12 2-18 4-5 1-10 3-14 5-3 2-5 5-5 10 0 5 2 8 5 9 4 2 8 3 14 3 17 0 32-6 43-17l0 31c-4 5-15 8-31 10l0 31c0 0-1 1-1 1l-23 0c-1 0-1-1-1-2l0-30c-6-2-11-5-17-8-6-4-10-9-12-13-2-5-4-11-4-18 0-7 2-13 6-18 6-9 17-15 31-18l18-4c6-1 10-3 14-5 3-1 5-4 5-8 0-7-4-11-12-14-4-1-9-1-16-1-10 0-20 2-28 7-8 5-14 11-18 20l0-36c11-7 22-12 34-15l0-27c0-1 0-1 1-1l23 0c1 0 1 0 1 1l0 25c15 5 26 12 33 21 6 7 9 14 9 21 0 14-7 24-20 30z m111-48l-39-51 0 65 82 0-186 262-197-262 92 0 0-64-36 50-117-153 55 0 0-83 408 0 0 83 49 0z m-237-221l-94 0 0 83-40 0 87 113 82-113-35 0 0-83z m175 0l-160 0 0 68 49 0-60 83 0 99-78 0 167 222 158-222-68 0 0-99-63-83 55 0z m109 83l0-83-94 0 0 83-40 0 87 113 82-113z m-25-29l0-30-16 0 0-14 31 0 0 44z m-46-30l14 0 0-14-14 0z m113 219l15 0 0-16-15 0z m-30 155l15 0 0-16-15 0z m15 78l15 0 0-16-15 0z m-53-134l15 0 0-16-15 0z m-49 92l14 0 0-16-14 0z m-365-191l14 0 0-16-14 0z m31 155l15 0 0-16-15 0z m-15 78l15 0 0-16-15 0z m53-134l15 0 0-16-15 0z m50 92l15 0 0-16-15 0z m11-380l0-30-16 0 0-14 31 0 0 44z m-46-30l14 0 0-14-14 0z"/>
<glyph glyph-name="team" unicode="&#88;" d="M107 70l15 0 0-17-15 0z m327 118c23 13 39 38 39 66 0 31-20 59-48 70 1 5 1 9 1 14 0 2 0 5 0 7l-15-1c0-2 0-4 0-6 0-2 0-5 0-8l-1-2c-4 0-8 1-12 1-24 0-46-12-60-30-6 37-37 66-74 69l0 8-16 0 0-8c-37-3-68-32-74-69-14 18-36 30-60 30-3 0-6 0-9-1 0 2 0 4 0 4 0 4 0 8 1 12l-16 1c0-7 0-13 1-20-30-10-52-38-52-71 0-28 16-53 39-66-45-15-78-58-78-108l0-80 512 0 0 80c0 50-33 93-78 108z m-36 6c-29 0-54 21-59 48 17 6 30 15 38 22 11-8 37-22 79-24-6-26-30-46-58-46z m26-19l-26-29-26 29c8 3 17 4 26 4 9 0 17-1 26-4z m-26 139c32 0 59-26 60-59-37 2-60 13-70 20 3 5 5 8 5 9l-13 6c0 0-10-20-42-32 2 31 28 56 60 56z m-36-126c-6-2-12-4-17-7-15 13-32 24-51 30 12 6 23 15 31 26 4-21 18-39 37-49z m-106 28c-34 0-62 25-67 57 20 7 34 16 44 25 12-9 41-26 90-27-7-31-34-55-67-55z m31-19l-31-35-31 35c10 3 20 4 31 4 11 0 21-1 31-4z m-31 156c37 0 68-30 68-67-43 1-70 15-81 23 5 6 7 10 7 10l-14 7c0-1-12-24-48-38 2 37 31 65 68 65z m-38-142c-19-6-36-17-51-30-5 3-11 5-17 7 19 10 33 28 37 49 8-11 19-20 31-26z m-104 103c33 0 59-26 60-59-37 2-60 13-70 20 4 5 5 8 6 9l-14 6c0 0-10-20-42-32 3 31 29 56 60 56z m-59-72c18 6 30 15 38 22 11-8 37-22 80-24-7-26-30-46-59-46-29 0-53 21-59 48z m85-67l-26-29-26 29c9 3 17 4 26 4 9 0 18-1 26-4z m-12-160l-66 0 0 61-15 0 0-61-32 0 0 65c0 40 24 74 58 90l34-39 0-47 15 0 0 47 33 39c1-1 1-1 2-1-18-22-29-50-29-80l0-74z m240 0l-38 0 0 70-15 0 0-70-118 0 0 70-15 0 0-70-38 0 0 74c0 45 27 85 66 102l38-44 0-54 16 0 0 54 38 44c39-17 66-57 66-102z m129 0l-32 0 0 61-15 0 0-61-66 0 0 74c0 30-11 58-29 80 1 0 1 0 2 1l33-39 0-47 15 0 0 47 34 39c34-16 58-50 58-90z m-107 55l15 0 0-17-15 0z m-142 7l16 0 0-19-16 0z m184 408l16 0 0-17-16 0z m43-78l15 0 0-17-15 0z m-406 70l15 0 0-17-15 0z m-56-82l15 0 0-17-15 0z m82-19c-1-5-2-10-3-15l15-2c1 4 2 9 3 14z m9 30c-2-4-4-9-5-15l14-4c2 5 3 9 5 14z m58 75c-4-4-8-7-12-10l10-12c3 3 7 6 11 9z m-24-21c-3-4-7-8-10-12l12-10c3 4 6 8 9 11z m-19-25c-3-5-6-9-8-14l13-7c2 4 5 8 7 13z m71 61c-5-2-10-4-14-7l7-13c4 2 9 5 13 7z m30 11c-5-1-11-3-16-5l5-14c5 2 10 3 14 4z m194-100l-14-5c2-5 3-9 5-14l14 4c-1 5-3 10-5 15z m-15 28l-13-8c3-4 6-8 8-12l13 7c-2 4-5 9-8 13z m-104 73l-3-15c5-1 9-2 14-4l5 14c-5 2-10 4-16 5z m128-132l-15-3c1-4 1-9 2-14l15 1c-1 6-1 11-2 16z m-97 122l-6-14c4-2 8-4 13-6l7 13c-4 2-9 5-14 7z m39-24c-4 3-7 6-11 9l-9-13c4-2 7-5 10-7 1-1 1-1 2-2l10 12c-1 0-2 1-2 1z m14-13l-11-11c3-3 6-7 9-11l12 10c-3 4-7 8-10 12z m-131 5l16 0 0-15-16 0z m0-30l16 0 0-15-16 0z m0-30l16 0 0-15-16 0z m-14 104l2-15c1 0 2 0 2 0 2 0 7 1 10 1l0-15 16 0 0 16c0 0 1 0 2 0l0-1c4 0 6 0 10 0 0 0 1 0 1 0l2 15c-20 2-35 1-45-1z"/>
</font>
</defs>
</svg>
