<?xml version="1.0" standalone="no"?>
<!DOCTYPE svg PUBLIC "-//W3C//DTD SVG 1.1//EN" "http://www.w3.org/Graphics/SVG/1.1/DTD/svg11.dtd">
<svg xmlns="http://www.w3.org/2000/svg">
<metadata>Generated by Fontastic.me</metadata>
<defs>
<font id="sporticons" horiz-adv-x="512">
<font-face font-family="sporticons" units-per-em="512" ascent="480" descent="-32"/>
<missing-glyph horiz-adv-x="512" />

<glyph glyph-name="award" unicode="&#97;" d="M330 246c-1 3-3 5-6 6l-42 6-19 38c-1 2-4 4-7 4-3 0-6-2-7-4l-19-38-42-6c-3-1-5-3-6-6-1-3-1-6 2-8l30-30-7-41c-1-3 0-7 3-8 3-2 6-2 9-1l37 20 37-20c1-1 3-1 4-1 2 0 4 1 5 2 3 1 4 5 3 8l-7 41 30 30c3 2 3 5 2 8z m-46-29c-2-2-3-5-3-7l5-30-26 14c-3 2-5 2-8 0l-26-14 5 30c0 2-1 5-2 7l-22 21 30 4c2 0 5 2 6 5l13 26 13-26c1-3 4-5 6-5l30-4z m-167 77c34 0 65 21 77 55 2 4 0 9-5 10-20 7-42 6-62-3 5 6 11 13 16 19 4 3 4 8 0 11-3 4-8 4-11 0-4-4-8-8-12-13-1 25-13 49-35 64-3 3-8 2-11-2-13-18-18-39-14-61 3-20 14-38 29-50-2-6-5-13-7-19-2 3-3 7-6 10-11 19-29 31-51 36-2 1-4 0-6-1-2-1-3-3-4-5-9-42 16-85 58-97 0-8 0-17 1-26-2 2-4 4-6 5-18 13-39 18-61 15-4-1-8-5-7-9 3-22 15-41 33-54 14-10 31-16 48-16 3 0 5 0 8 1 4-8 7-16 12-23-26 8-55 3-77-15-4-3-4-8-1-12 14-17 33-27 55-29 3-1 5-1 8-1 17 0 33 6 47 15 10-9 20-17 30-24 2-1 3-2 5-2 3 0 5 2 7 4 2 4 1 9-2 12-11 7-21 15-30 23-19 20-34 44-43 69 39 15 61 58 49 99-1 4-6 7-10 6-21-7-38-21-49-40 0 0 0-1-1-2 0 18 3 36 8 53 7-2 13-3 20-3z m-45-28c-27 10-44 38-42 67 13-5 25-14 32-27 8-12 12-26 10-40z m-30-74c-11 9-20 21-24 34 1 0 1 0 1 0 29 0 55-19 63-46-14-1-28 4-40 12z m38-91c-15 2-28 8-38 17 25 16 57 12 78-7-12-8-26-11-40-10z m25 137c7 13 17 23 30 29 5-29-11-58-38-70-2 14 1 29 8 41z m29 103c13 6 27 8 41 5-13-26-42-40-71-34 6 13 17 23 30 29z m-58 36c-2 14 0 28 7 41 21-20 26-52 13-78-11 10-17 22-20 37z m355-214c17 0 34 6 48 16 18 13 30 32 33 54 1 4-3 8-7 9-25 4-49-4-67-20 1 9 1 18 1 26 20 6 36 18 47 35 12 19 15 41 11 62-1 4-6 7-10 6-22-5-40-17-51-36-3-3-4-7-6-10-2 6-5 13-7 19 33 27 40 76 15 111-1 2-3 3-5 3-2 1-5 0-6-1-18-13-30-32-34-53 0-4-1-7-1-11-4 5-8 9-12 13-3 4-8 4-11 0-4-3-4-8 0-11 5-6 11-13 16-19-20 9-42 10-62 3-5-1-7-6-5-10 12-34 43-55 77-55 7 0 13 1 20 3 5-17 8-35 8-53-10 20-28 35-50 42-4 1-9-2-10-6-6-21-4-43 6-62 10-18 25-30 43-37-9-25-24-49-43-69-9-8-19-16-30-23-3-3-4-8-2-12 2-2 4-4 7-4 2 0 3 1 5 2 10 7 20 15 30 24 14-10 30-15 47-15 24 0 47 11 63 30 2 2 2 4 2 6 0 3-1 5-3 6-17 14-38 20-60 18-6 0-11-2-17-3 5 7 8 15 12 23 3-1 5-1 8-1z m51 170c1-15-2-29-10-41-8-12-19-21-32-26-3 29 15 56 42 67z m12-107c-9-28-35-47-64-46 8 28 34 47 64 46z m-157 120c14 3 28 1 41-5 13-6 24-16 30-29-29-6-58 8-71 34z m79-6c-6 13-9 27-6 41 2 14 9 27 19 37 14-26 8-58-13-78z m14-212c14 1 28-2 40-10-21-20-53-23-78-7 10 9 23 15 38 17z m-15 69c-13 6-24 16-31 29-7 12-9 27-7 41 26-12 42-41 38-70z"/>
<glyph glyph-name="down-arrow" unicode="&#98;" d="M481 375c-6 6-16 6-23 0l-202-203-203 203c-6 6-16 6-23 0-6-7-6-17 0-23l214-214c3-3 7-5 12-5 4 0 8 2 11 5l214 214c7 6 7 16 0 23z"/>
<glyph glyph-name="left-arrow" unicode="&#99;" d="M352 31c3-4 7-5 11-5 5 0 8 1 12 5 6 6 6 16 0 23l-203 202 203 202c6 7 6 17 0 23-7 7-17 7-23 0l-215-213c-6-7-6-17 0-24z"/>
<glyph glyph-name="like" unicode="&#100;" d="M476 159c-3 1-7-1-8-4-8-20-27-33-49-33l-201 0c-1 0-3 0-4-2l-97-93 0 89c0 3-3 6-6 6l-46 0c-29 0-52 23-52 52l0 217c0 28 23 52 52 52l217 0c4 0 7 3 7 6 0 4-3 6-7 6l-217 0c-36 0-65-29-65-64l0-217c0-35 29-64 65-64l39 0 0-98c0-2 2-4 4-5 1-1 2-1 2-1 2 0 4 1 5 2l106 102 198 0c27 0 51 16 61 41 1 3-1 6-4 8z m33 213c-7 16-23 27-41 27l-74 0 0 54c0 21-6 36-18 45-19 14-45 6-46 5-3-1-5-3-5-6l0-58c0-19-9-36-27-49-15-10-29-14-29-14-1 0-2-1-2-1-1 5-5 9-11 9l-62 0c-6 0-10-5-10-11l0-165c0-6 4-10 10-10l62 0c5 0 8 2 10 6 8-9 20-15 33-15l141 0c30 0 50 16 53 43l19 117c1 8 0 16-3 23z m-255-162l-58 0 0 161 58 0z m245 141l-18-117c0 0 0 0 0 0-4-27-24-32-41-32l-142 0c-17 0-31 14-31 31l0 131c1-1 3-1 5 0 1 0 17 4 33 16 21 15 33 36 33 59l0 53c7 2 21 3 31-5 8-6 13-18 13-34l0-60c0-4 3-7 6-7l80 0c13 0 24-7 29-19 2-5 3-11 2-16z"/>
<glyph glyph-name="mail-send" unicode="&#101;" d="M503 126c0 0 0 1 1 1 0 0 0 0 0 0 0 0 0 0 1 0 0 0 0 0 0 0 0 0 0 0 1 0 0 0 0 0 0 1 0 0 0 0 1 0 0 0 0 0 0 0 0 0 0 0 1 0 0 1 0 1 0 1 0 0 0 0 1 0 0 0 0 0 0 0 0 1 0 1 0 1 0 0 0 0 0 0 1 0 1 1 1 1 0 0 0 0 0 0 0 0 0 0 0 1 1 0 1 0 1 0 0 0 0 0 0 1 0 0 0 0 0 0 0 0 0 0 0 1 0 0 0 0 1 0 0 0 0 0 0 1 0 0 0 0 0 0 0 0 0 1 0 1 0 0 0 0 0 0 0 1 0 1 0 1l0 238c0 6-5 11-11 11l-350 0c0 0 0 0 0 0 0 0-1 0-1 0 0 0 0 0 0 0 0 0-1 0-1 0 0 0 0 0 0-1-1 0-1 0-1 0 0 0 0 0 0 0-1 0-1 0-1 0 0 0 0 0 0 0-1 0-1 0-1 0 0-1 0-1 0-1-1 0-1 0-1 0 0 0 0 0 0 0 0 0-1-1-1-1 0 0 0 0 0 0 0 0 0 0-1 0 0 0 0-1 0-1 0 0 0 0 0 0 0 0 0 0 0 0 0 0-1 0-1-1 0 0 0 0 0 0 0 0 0 0 0 0 0-1 0-1-1-1 0 0 0 0 0 0 0-1 0-1 0-1 0 0 0 0 0 0 0-1 0-1 0-1 0 0-1 0-1 0 0-1 0-1 0-1 0 0 0 0 0 0 0-1 0-1 0-1 0 0 0 0 0-1 0 0 0 0 0 0 0 0 0 0 0 0l0-69c0-6 5-11 11-11 6 0 11 5 11 11l0 44 99-87c-1-1-1-1-2-2l-97-97 0 73c0 6-5 11-11 11-6 0-11-5-11-11l0-13-57 0c-6 0-11-5-11-12 0-6 5-11 11-11l57 0 0-64c0-6 5-11 11-11l350 0c0 0 1 0 1 0 0 0 0 0 0 0 1 0 1 0 1 0z m-13 38l-97 97c-1 0-1 0-1 1l73 62c5 4 6 11 2 15-4 5-11 5-16 2l-125-106-146 129 310 0z m-215 82c1 0 2 1 2 2l42-36c2-2 4-3 7-3 3 0 5 1 7 2l43 36c0 0 0-1 1-1l97-98-296 0z m-264 13l188 0c6 0 11 5 11 11 0 7-5 12-11 12l-188 0c-6 0-11-5-11-12 0-6 5-11 11-11z m20 62l84 0c6 0 11 4 11 11 0 6-5 11-11 11l-84 0c-7 0-12-5-12-11 0-7 5-11 12-11z m62-144l-82 0c-6 0-11-5-11-11 0-7 5-12 11-12l82 0c6 0 11 5 11 12 0 6-5 11-11 11z"/>
<glyph glyph-name="map" unicode="&#102;" d="M485 399l-13 2c0 1 0 2 0 3 0 49-39 88-88 88-46 0-85-37-87-83l-130-29-132 13c-9 1-18-2-25-8-6-6-10-14-10-23l0-297c0-16 12-29 28-31l139-14c0 0 1 0 1 0 0 0 0 0 1 0 0 0 0 0 0 0 0 0 0 0 0 0 0 0 0 0 0 0l175 40 132-20c1 0 3 0 4 0 8 0 15 3 21 8 7 6 11 14 11 24l0 296c0 15-11 28-27 31z m-101 78c40 0 73-33 73-73 0-3 0-6-1-9 0 0 0 0 0 0 0 0 0 0 0 0-5-54-57-98-72-110-16 13-72 60-72 119 0 40 32 73 72 73z m-369-412l0 297c0 4 2 9 5 12 4 3 9 5 13 4l127-13 0-329-130 13c-9 1-15 8-15 16z m160-28l0 329 122 28c3-28 16-57 40-84l0-236z m322 35c0-5-2-10-6-13-3-3-8-5-13-4l-126 19 0 220c15-15 27-24 28-24 1-1 3-1 4-1 2 0 3 0 5 1 0 0 21 15 41 38 22 26 36 52 40 78l13-2c8-1 14-8 14-16z m-49 83c-13 0-23-10-23-23 0-13 10-24 23-24 13 0 24 11 24 24 0 13-11 23-24 23z m0-32c-4 0-8 4-8 9 0 4 4 8 8 8 5 0 9-4 9-8 0-5-4-9-9-9z m-224 217c-13 0-24-11-24-24 0-13 11-23 24-23 13 0 23 10 23 23 0 13-10 24-23 24z m0-32c-5 0-9 3-9 8 0 5 4 9 9 9 5 0 8-4 8-9 0-5-3-8-8-8z m-152-161c-13 0-24-10-24-23 0-13 11-24 24-24 13 0 23 11 23 24 0 13-10 23-23 23z m0-32c-5 0-9 4-9 9 0 4 4 8 9 8 4 0 8-4 8-8 0-5-4-9-8-9z m334 142c-3 3-8 3-11 0l-11-10-10 10c-3 3-8 3-11 0-3-3-3-7 0-10l11-11-11-11c-3-3-3-7 0-10 1-2 3-3 5-3 2 0 4 1 6 3l10 10 11-10c1-2 3-3 5-3 2 0 4 1 6 3 3 3 3 7 0 10l-11 11 11 11c3 3 3 7 0 10z m26 147c0 7-1 13-4 19-2 4-6 6-10 4-4-1-6-6-4-10 2-4 3-8 3-13 0-18-15-32-33-32-18 0-32 14-32 32 0 18 14 33 32 33 5 0 9-1 13-3 4-2 9 0 10 4 2 4 0 8-4 10-6 3-12 4-19 4-26 0-47-21-47-48 0-26 21-47 47-47 26 0 48 21 48 47z"/>
<glyph glyph-name="map-1" unicode="&#103;" d="M380 321c-3-2-8-1-11 3-2 3-1 8 3 11l128 80c4 2 8 1 11-3 1-1 1-3 1-4l0 0 0-304c0-3-2-6-4-7l-144-96c-2-1-5-1-7 0l0 0-204 94-141-94c-3-2-8-1-11 2-1 2-1 4-1 6l0 301c0 3 2 5 4 7l0 0 112 66c4 2 9 1 11-3 2-4 1-9-3-11l-108-64 0-282 132 88 0 0c2 1 5 1 7 0l204-94 137 91 0 286z m-124 191c31 0 59-13 79-33l0 0 0 0c20-20 33-48 33-79 0-31-17-69-40-104-21-34-48-66-66-89-3-3-8-4-11-1-1 1-1 1-2 2-18 22-44 54-65 88-23 35-40 73-40 104 0 31 13 59 33 79 20 20 48 33 79 33z m68-44c-17 17-41 28-68 28-26 0-51-11-68-28-17-18-28-42-28-68 0-28 16-62 37-95 19-30 42-59 59-80 17 22 40 50 59 80 21 33 37 67 37 95 0 26-11 51-28 68z m-68-20c13 0 25-5 34-14l0 0c9-9 14-21 14-34 0-13-5-25-14-34l0 0c-9-9-21-14-34-14-13 0-25 5-34 14-9 9-14 21-14 34 0 13 5 25 14 34l0 0c9 9 21 14 34 14z m23-25l0 0c-6 5-14 9-23 9-9 0-17-4-23-9l0 0c-5-6-9-14-9-23 0-9 4-17 9-23 6-5 14-9 23-9 9 0 17 4 23 9l0 0c5 6 9 14 9 23 0 9-4 17-9 23z m89-415c0-4-4-8-8-8-4 0-8 4-8 8l0 288c0 4 4 8 8 8 4 0 8-4 8-8z m-208 99c0-4-4-8-8-8-4 0-8 4-8 8l0 189c0 4 4 8 8 8 4 0 8-4 8-8z"/>
<glyph glyph-name="menu" unicode="&#104;" d="M256 512c-141 0-256-115-256-256 0-141 115-256 256-256 141 0 256 115 256 256 0 141-115 256-256 256z m0-494c-131 0-238 107-238 238 0 131 107 238 238 238 131 0 238-107 238-238 0-131-107-238-238-238z m-119 339l238 0c5 0 9 4 9 9 0 5-4 9-9 9l-238 0c-5 0-9-4-9-9 0-5 4-9 9-9z m274-128l-310 0c-5 0-10-5-10-10 0-5 5-9 10-9l310 0c5 0 10 4 10 9 0 5-5 10-10 10z m0 73l-310 0c-5 0-10-4-10-9 0-5 5-10 10-10l310 0c5 0 10 5 10 10 0 5-5 9-10 9z m-36-147l-238 0c-5 0-9-4-9-9 0-5 4-9 9-9l238 0c5 0 9 4 9 9 0 5-4 9-9 9z"/>
<glyph glyph-name="newspaper" unicode="&#105;" d="M171 345l24 18 23-18c3-2 7-2 10 0l24 18 24-18c1-1 3-1 5-1 2 0 4 1 6 3 3 4 2 9-2 11l-28 22c-3 2-7 2-10 0l-24-18-23 18c-3 2-7 2-10 0l-29-22c-3-2-4-8-1-11 2-4 7-4 11-2z m333 93l-67 0c-5 0-8-3-8-8 0-4 3-8 8-8l59 0 0-351c0-14-11-25-25-25l-430 0c-14 0-25 11-25 25l0 395 323 0 0-84c0-4 3-8 8-8l83 0 0-303c0-5 4-8 8-8l33 0c5 0 8 3 8 8 0 4-3 8-8 8l-24 0 0 303c0 1 0 1 0 1 0 0 0 1 0 1-1 0-1 0-1 0 0 0 0 0 0 1 0 0 0 0 0 0 0 0 0 0 0 0 0 0 0 0 0 0 0 1 0 1 0 1 0 0 0 0 0 0 0 0-1 1-1 1 0 0 0 0 0 0 0 0 0 0 0 0 0 0 0 0 0 1 0 0 0 0-1 0 0 0 0 0 0 0l-91 92c0 0 0 0 0 0-1 0-1 0-1 0 0 0 0 0 0 0 0 0 0 1 0 1-1 0-1 0-1 0 0 0 0 0 0 0 0 0 0 0 0 0 0 0-1 0-1 0 0 0 0 0 0 0 0 1 0 1-1 1 0 0 0 0 0 0 0 0 0 0 0 0 0 0-1 0-1 0 0 0 0 0 0 0 0 0-1 0-1 0l-339 0c-4 0-8-4-8-8l0-403c0-23 18-41 41-41l430 0c23 0 41 18 41 41l0 359c0 5-4 8-8 8z m-149 16l64-63-64 0z m-164-339l-117 0c-5 0-9-4-9-8 0-5 4-8 9-8l117 0c4 0 8 3 8 8 0 4-4 8-8 8z m182 0l-117 0c-5 0-8-4-8-8 0-5 3-8 8-8l117 0c5 0 8 3 8 8 0 4-3 8-8 8z m0 49l-117 0c-5 0-8-4-8-8 0-5 3-8 8-8l117 0c5 0 8 3 8 8 0 4-3 8-8 8z m0 49l-117 0c-5 0-8-4-8-8 0-5 3-8 8-8l117 0c5 0 8 3 8 8 0 4-3 8-8 8z m-182 11c4 0 8 4 8 8l0 22c0 4-4 8-8 8l-117 0c-5 0-9-4-9-8l0-98c0-5 4-8 9-8l117 0c4 0 8 3 8 8l0 43c0 5-4 9-8 9-5 0-9-4-9-9l0-35-100 0 0 82 100 0 0-14c0-4 4-8 9-8z m182 38l-117 0c-5 0-8-4-8-8 0-5 3-8 8-8l117 0c5 0 8 3 8 8 0 4-3 8-8 8z m0 49l-299 0c-5 0-9-4-9-8 0-5 4-8 9-8l299 0c5 0 8 3 8 8 0 4-3 8-8 8z"/>
<glyph glyph-name="podium" unicode="&#106;" d="M3 343l26-21-11-29c-2-3-1-7 2-9 1-2 4-2 6-2 1 0 2 0 4 1l30 16 30-16c3-2 7-2 9 1 3 2 4 6 3 9l-10 29 24 21c3 3 4 6 3 10-1 3-4 5-8 5l-30 0-13 30c-2 3-5 5-8 5l0 0c-4 0-7-2-8-6l-13-29-30 0c-4 0-7-2-9-5-1-4 0-8 3-10z m41-2c4 0 7 2 8 5l8 17 7-17c2-3 5-5 8-5l13 0-12-10c-3-2-4-6-2-9l4-14-13 8c-2 1-3 1-5 1-1 0-2 0-4-1l-14-8 5 14c2 4 1 7-2 10l-12 9 11 0z m24-170c-4 0-8-4-8-9l0-34c0-5 4-9 8-9 5 0 9 4 9 9l0 34c0 5-4 9-9 9z m117 263c2-2 19-15 28-21l-11-36c-2-7 0-11 2-14 4-6 13-6 20-1 3 2 23 16 32 23 9-7 29-21 32-23 3-3 7-4 10-4 4 0 8 2 10 5 2 2 4 7 2 13-2 7-7 27-9 37l26 20c5 4 7 11 5 16-2 6-6 10-12 10-4 0-25 2-35 3l-16 40c-2 6-7 10-13 10-6 0-11-4-13-10-2-4-11-29-15-40l-37-3c-5-1-10-4-11-10-2-5 0-12 5-15z m50 11c4 1 7 3 8 6 0 0 8 24 13 38l15-38c2-3 4-5 8-6 0 0 20-1 32-2l-25-20c-3-2-4-5-3-9 0 0 5-20 8-34-11 8-30 22-30 22-2 1-3 2-5 2-2 0-4-1-5-2 0 0-18-13-30-21l10 33c1 3 0 7-3 9 0 0-17 12-27 20z m161-170l26-21-12-29c-1-3 0-7 2-9 2-2 4-3 6-3 1 0 3 1 4 1l31 16 29-16c3-1 7-1 10 1 3 3 4 6 2 10l-10 29 25 21c3 2 4 6 2 10-1 3-4 5-8 5l-30 0-13 29c-1 3-4 5-8 5l0 0c-3 0-6-2-8-5l-13-29-30 0c-4 0-7-2-8-6-1-3 0-7 3-9z m41-2c3 0 6 2 8 5l7 17 8-17c1-3 4-5 8-5l12 0-11-10c-3-2-4-6-3-9l5-14-14 8c-1 0-3 1-4 1-1 0-3-1-4-1l-14-8 5 14c1 3 0 7-3 10l-12 9z m66-119l-119 0c-5 0-9-4-9-9 0-5 4-8 9-8l111 0 0-128c0-5 4-9 8-9 5 0 9 4 9 9l0 136c0 5-4 9-9 9z m-110-52c-5 0-9-3-9-8l0-34c0-5 4-9 9-9 4 0 8 4 8 9l0 34c0 5-4 8-8 8z m34 0c-5 0-9-3-9-8l0-34c0-5 4-9 9-9 4 0 8 4 8 9l0 34c0 5-4 8-8 8z m34 0c-5 0-9-3-9-8l0-34c0-5 4-9 9-9 5 0 8 4 8 9l0 34c0 5-3 8-8 8z m-359 69c-4 0-8-4-8-9l0-34c0-5 4-9 8-9 5 0 9 4 9 9l0 34c0 5-4 9-9 9z m248 136l-188 0c-5 0-8-4-8-8l0-290c0-5 3-9 8-9 5 0 9 4 9 9l0 281 170 0 0-281c0-5 4-9 9-9 5 0 8 4 8 9l0 290c0 4-3 8-8 8z m-222-85l-119 0c-5 0-9-4-9-9l0-204c0-5 4-9 9-9 4 0 8 4 8 9l0 196 111 0c5 0 9 4 9 8 0 5-4 9-9 9z m128 34c-5 0-9-4-9-9l0-34c0-4 4-8 9-8 5 0 9 4 9 8l0 34c0 5-4 9-9 9z"/>
<glyph glyph-name="right-arrow" unicode="&#107;" d="M160 31c-3-4-7-5-11-5-5 0-8 1-12 5-6 6-6 16 0 23l203 202-203 202c-6 7-6 17 0 23 7 7 17 7 23 0l214-213c7-7 7-17 0-24z"/>
<glyph glyph-name="runner" unicode="&#108;" d="M196 102l-153 0c-5 0-9-3-9-8 0-5 4-9 9-9l153 0c5 0 9 4 9 9 0 5-4 8-9 8z m-170 86l68 0c5 0 8 4 8 8 0 5-3 9-8 9l-68 0c-5 0-9-4-9-9 0-4 4-8 9-8z m128-43c0 5-4 9-9 9l-136 0c-5 0-9-4-9-9 0-5 4-8 9-8l136 0c5 0 9 3 9 8z m281-8l-51 0c-5 0-9-4-9-9 0-5 4-9 9-9l51 0c31 0 55-21 59-51l-141 0-273 273 129 129c7-22 23-66 50-92 29-29 79-35 99-36l0-69-20 0c-3 5-8 9-14 9-10 0-18-8-18-17 0-10 8-18 18-18 6 0 11 4 14 9l20 0 0-51-20 0c-3 5-8 8-14 8-10 0-18-7-18-17 0-9 8-17 18-17 6 0 11 4 14 9l20 0 0-9c0-2 1-4 3-6l17-17c3-3 9-3 12 0 3 3 3 9 0 12l-15 15 0 167c0 5-3 8-8 8-1 0-65 1-96 32-32 32-49 98-49 98-1 3-3 6-6 7-3 0-7 0-9-3l-145-145c0 0 0 0 0 0 0 0 0 0 0 0l-11-11c-11-11-11-30 0-41l267-267c1-1 12-11 28-11l140 0c15 0 26 11 26 26l0 17c0 43-34 77-77 77z m60-94c0-5-4-9-9-9l-140 0c-9 0-16 6-16 6l-267 267c-4 5-4 13 0 17l5 5 276-275c1-2 4-3 6-3l145 0z m-222 239l0-103c0-5 4-8 9-8 4 0 8 3 8 8l0 103c0 4-4 8-8 8-5 0-9-4-9-8z m60 27c4 0 8 3 8 7 1 5-2 9-7 10-57 8-106 44-130 97-2 4-7 6-12 4-4-2-6-7-4-12 27-57 81-97 143-106 1 0 1 0 2 0z"/>
<glyph glyph-name="smartphone" unicode="&#109;" d="M171 94c-19 0-34-15-34-34 0-19 15-34 34-34 18 0 34 15 34 34 0 19-16 34-34 34z m0-51c-10 0-17 7-17 17 0 9 7 17 17 17 9 0 17-8 17-17 0-10-8-17-17-17z m-26 426l34 0c5 0 9 4 9 9 0 5-4 8-9 8l-34 0c-5 0-8-3-8-8 0-5 3-9 8-9z m60 0l8 0c5 0 9 4 9 9 0 5-4 8-9 8l-8 0c-5 0-9-3-9-8 0-5 4-9 9-9z m273-59l-154 0 0 64c0 21-17 38-37 38l-215 0c-21 0-38-17-38-38l0-436c0-21 17-38 38-38l215 0c20 0 37 17 37 38l0 192 154 0z m-406 85l215 0c11 0 20-9 20-21l0-13-256 0 0 13c0 12 9 21 21 21z m215-478l-215 0c-12 0-21 9-21 21l0 64 256 0 0-64c0-12-9-21-20-21z m20 102l-256 0 0 325 256 0 0-34-153 0 0-180 34 0 0-59 79 59 40 0z m154 128l-199 0-57-42 0 42-34 0 0 146 290 0z m-248 86l86 0c4 0 8 4 8 8 0 5-4 9-8 9l-86 0c-4 0-8-4-8-9 0-4 4-8 8-8z m-8-34c0-5 4-9 8-9l205 0c5 0 9 4 9 9 0 4-4 8-9 8l-205 0c-4 0-8-4-8-8z"/>
<glyph glyph-name="star" unicode="&#110;" d="M511 315c-1 3-4 6-7 7l-156 36-83 137c-2 3-5 5-9 5-4 0-7-2-10-5l-82-136-156-37c-4-1-6-4-7-7-2-4-1-7 2-10l104-122-13-159c0-4 2-8 5-10 3-2 7-3 10-1l147 62 147-62c1 0 3-1 4-1 2 0 5 1 7 2 3 2 5 6 4 10l-12 159 104 122c2 2 3 6 1 10z m-125-121c-2-3-3-5-3-9l12-145-135 56c-1 1-3 1-4 1-2 0-3 0-5-1l-134-56 11 145c0 3 0 6-3 9l-94 111 142 33c3 1 6 3 7 5l76 125 77-125c1-3 3-4 6-5l142-33z m-257 69l-11 13c-4 4-11 5-15 2-4-4-5-11-2-16l11-13c2-3 6-4 8-4 3 0 5 1 8 3 4 3 5 10 1 15z m20-23c-3 4-11 5-15 1-4-4-5-11-1-15l3-4c13-15 19-33 17-52l-3-35c0-6 4-11 10-12 1 0 1 0 1 0 6 0 11 5 11 10l3 34c2 25-6 49-22 69z"/>
<glyph glyph-name="stopwatch" unicode="&#111;" d="M400 375l26 25c0 1 0 2 1 2l16-16c2-2 4-2 6-2 2 0 4 0 6 2 3 3 3 8 0 11l-44 44c-3 3-8 3-11 0-3-3-3-8 0-11l16-17c0 0-1-1-2-1l-26-26c-28 21-60 36-96 42l0 27 23 0c4 0 8 3 8 8l0 41c0 4-4 8-8 8l-113 0c-5 0-8-4-8-8l0-41c0-5 3-8 8-8l22 0 0-26c-103-16-183-105-183-214 0-118 96-215 215-215 119 0 215 97 215 215 0 64-27 121-71 160z m-190 121l97 0 0-25-97 0z m30-41l36 0 0-25c-7 1-13 1-20 1-5 0-10 0-16-1z m16-439c-110 0-199 89-199 199 0 103 77 187 176 199l46 0c99-12 176-96 176-199 0-110-89-199-199-199z m8 222l0 130c0 4-4 8-8 8-4 0-8-4-8-8l0-130c-9-3-16-12-16-23 0-13 11-24 24-24 13 0 24 11 24 24 0 11-7 20-16 23z"/>
<glyph glyph-name="target" unicode="&#112;" d="M389 333c-5-2-8-8-6-13 9-22 13-45 13-69 0-103-84-188-187-188-104 0-188 85-188 188 0 103 84 187 188 187 52 0 100-21 136-58 4-5 11-5 15-1 4 4 5 11 1 15-20 21-42 37-68 48-27 12-55 18-84 18-115 0-209-94-209-209 0-115 94-209 209-209 56 0 108 22 147 61 40 40 62 92 62 148 0 26-5 52-15 76-2 6-8 9-14 6z m-78 10c4 4 4 11 0 15-28 26-64 40-102 40-82 0-148-66-148-147 0-81 66-148 148-148 81 0 147 67 147 148 0 15-2 30-6 44-2 6-8 9-14 7-5-1-9-7-7-13 4-12 6-25 6-38 0-70-57-126-126-126-70 0-126 56-126 126 0 70 56 126 126 126 32 0 63-12 87-35 4-4 11-4 15 1z m-102-23c13 0 25-4 36-11 2-1 3-2 5-3 5-4 11-3 15 2 3 5 3 11-2 15-2 1-4 3-7 4-14 9-30 14-47 14-50 0-90-40-90-90 0-50 40-90 90-90 49 0 90 40 90 90 0 4 0 8-1 12-1 6-6 10-12 9-6-1-10-6-9-12 0-3 1-6 1-9 0-38-31-69-69-69-38 0-69 31-69 69 0 38 31 69 69 69z m298 64l-44 26-5 50c0 4-3 7-6 9-3 1-7 1-10-1l-42-27c-3-2-5-5-5-9l-1-55-169-103c-5 4-11 6-17 6-16 0-30-13-30-30 0-16 14-29 30-29 16 0 29 13 29 29 0 2 0 5 0 6l169 104 49-22c1 0 3 0 4 0 2 0 4 0 6 1l42 27c3 2 5 6 5 9 0 4-2 7-5 9z m-49-24l-43 19 1 47 23 15 4-38c0-3 2-6 5-8l33-20z"/>
<glyph glyph-name="trophy" unicode="&#113;" d="M119 171c0 4-3 8-8 8-5 0-9-4-9-8-4 0-8-4-8-9 0-5 4-8 8-8 0-5 4-9 9-9 5 0 8 4 8 9 5 0 9 3 9 8 0 5-4 9-9 9z m-76 34l-9 0 0 8c0 5-4 9-8 9-5 0-9-4-9-9l0-8-8 0c-5 0-9-4-9-9 0-4 4-8 9-8l8 0 0-9c0-5 4-8 9-8 4 0 8 3 8 8l0 9 9 0c4 0 8 4 8 8 0 5-4 9-8 9z m375 119c1 0 2 0 2 1 37 9 58 33 58 68l0 59c0 14-12 26-26 26l-17 0c-5 0-8-4-8-9 0-4 3-8 8-8l17 0c5 0 9-4 9-9l0-59c0-27-15-44-45-52-5-1-7-6-6-10 1-4 4-7 8-7z m-120-273l-85 0c-4 0-8-4-8-8 0-5 4-9 8-9l85 0c5 0 9 4 9 9 0 4-4 8-9 8z m-196 280c1 4-1 9-6 10-30 7-45 25-45 52l0 59c0 5 4 9 9 9l17 0c5 0 8 4 8 8 0 5-3 9-8 9l-17 0c-14 0-26-12-26-26l0-59c0-35 21-59 58-68 0-1 1-1 2-1 4 0 7 3 8 7z m256-252c-1 4-4 6-8 6l-189 0c-4 0-7-2-8-6l-17-68c-1-3 0-6 1-8 2-2 4-3 7-3l223 0c3 0 5 1 7 3 1 2 2 5 1 8z m-203-62l13 51 175 0 13-51z m297 102l-8 0 0 9c0 5-4 9-9 9-5 0-8-4-8-9l0-9-9 0c-5 0-8-3-8-8 0-5 3-9 8-9l9 0 0-8c0-5 3-9 8-9 5 0 9 4 9 9l0 8 8 0c5 0 9 4 9 9 0 5-4 8-9 8z m51 171l-17 0 0 17c0 5-3 9-8 9-5 0-9-4-9-9l0-17-17 0c-4 0-8-4-8-8 0-5 4-9 8-9l17 0 0-17c0-5 4-9 9-9 5 0 8 4 8 9l0 17 17 0c5 0 9 4 9 9 0 4-4 8-9 8z m-93 213c0 5-4 9-9 9l-290 0c-5 0-9-4-9-9l0-34c0-103 18-139 18-140 10-22 24-38 38-53 24-26 47-51 47-114 0 0 0-23-16-46-2-4-1-10 3-12 3-3 9-2 11 2 19 28 19 55 19 56 0 69-26 98-51 126-14 14-27 28-35 49-1 0-17 34-17 132l0 26 274 0 0-26c0-98-16-132-17-133-8-20-21-34-35-48-25-28-51-57-51-126 0-1 0-28 19-56 1-2 4-4 7-4 1 0 3 1 4 2 4 2 5 8 3 12-15 23-16 46-16 46 0 63 23 88 47 114 14 15 28 31 38 53 0 1 18 37 18 140z m-194-168c2-1 4-2 6-2 1 0 3 0 4 1l31 16 29-16c3-2 7-1 10 1 2 2 3 6 2 9l-10 29 25 22c2 2 3 6 2 9-1 3-4 6-8 6l-30 0-13 29c-2 3-5 5-8 5l0 0c-3 0-6-2-8-5l-13-29-30 0c-4 0-7-3-8-6-1-4 0-7 2-10l26-20-11-30c-1-3 0-7 2-9z m25 58c3 0 6 2 8 5l7 16 8-16c1-4 4-5 7-5l13 0-12-10c-2-3-3-6-2-10l5-14-14 8c-1 1-3 1-4 1-2 0-3 0-4-1l-15-7 6 13c1 4 0 8-3 10l-12 10 12 0z"/>
<glyph glyph-name="zoom-in" unicode="&#114;" d="M507 30l-153 153c29 35 47 79 47 128 0 109-91 200-201 200-109 0-200-91-200-200 0-110 91-201 200-201 48 0 92 17 126 46l151-151c4-4 8-4 15-4 7 0 11 0 15 4 7 7 7 18 0 25z m-307 117c-91 0-164 73-164 164 0 91 73 164 164 164 92 0 164-73 164-164 0-91-72-164-164-164z m55 182l-36 0 0 36c0 11-8 19-19 19-11 0-18-8-18-19l0-36-36 0c-11 0-18-7-18-18 0-11 7-19 18-19l36 0 0-36c0-11 7-18 18-18 11 0 19 7 19 18l0 36 36 0c11 0 18 8 18 19 0 11-7 18-18 18z"/>
<glyph glyph-name="zoom-out" unicode="&#115;" d="M56 401l42 0c5 0 9 3 9 9 0 5-4 8-9 8l-24 0 58 64 0-21c0-5 4-9 9-9 5 0 8 4 8 9l0 42c0 5-2 8-6 9-1 0-3 0-4 0l-41 0c-5 0-8-4-8-9 0-5 3-8 8-8l23 0-57-63 0 20c0 5-3 9-8 9-6 0-9-4-9-9l0-41c0-1 0-2 0-3 1-4 4-7 9-7z m366-68c-9 0-18-4-25-9l0 9c0 24-19 42-43 42-9 0-19-3-25-8l0 102c0 24-19 43-43 43-24 0-43-19-43-43-7 5-16 9-25 9-24 0-43-19-43-43l0-159c-19 32-62 48-96 36-4-1-7-3-11-6-13-8-12-19-12-23-1-5 0-6 12-19 14-17 46-53 65-89 2-2 25-39 51-68l0-22c0-47 38-85 85-85l85 0c37 0 75 31 84 67 2 10 5 17 8 21 9 10 19 34 19 66l0 136c0 24-19 43-43 43z m-67-316l-85 0c-38 0-69 31-69 68l0 8c2-1 4-2 6-3 5-5 9-7 14-12 3-3 10 0 11 2 4 4 3 9-1 12-5 5-10 9-15 12-6 4-12 9-18 14-25 26-49 65-49 65-21 37-53 74-69 92-2 3-6 7-7 9 0 3 0 4 6 8 3 1 6 3 8 4 22 8 59-3 75-31l13-19c1-1 1-1 1-2l8-17c2-3 11-5 11-3 4 1 6 6 4 11l-6 12c0 0 0 0 0 0l0 188c0 15 11 26 26 26 14 0 25-11 25-26l0-102c0-1 0-1 0-2 0 0 0 0 0-1l0-100c0-5 4-8 9-8 5 0 8 3 8 8l0 100c0 1 0 1 0 1 0 1 0 1 0 2l0 136c0 15 11 26 26 26 14 0 25-11 25-26l0-230c0-5 4-9 9-9 5 0 8 4 8 9l0 94c0 14 12 25 26 25 15 0 26-11 26-25l0-103c0-5 3-8 8-8 5 0 9 3 9 8l0 60c0 15 11 26 25 26 15 0 26-11 26-26l0-136c0-20-5-36-10-45 0 0-1-1-1-2-4-5-12-8-29-12l-6-2c-4-1-7-6-6-10 2-4 5-6 8-6 1 0 2 0 3 0l4 1c4 1 8 2 12 3-1-3-2-7-2-10-6-29-38-54-67-54z"/>
<glyph glyph-name="vk" unicode="&#116;" d="M511 356c4-11-9-37-40-78-4-6-10-13-17-23-14-18-22-29-24-35-3-7-2-14 4-21 3-4 10-11 21-22l0 0 1 0 0-1 1 0c25-24 42-43 50-59 1-1 2-2 2-4 1-1 1-3 2-7 1-3 1-6 0-9-1-2-3-5-7-7-3-2-9-3-15-3l-69-1c-4-1-9-1-15 1-5 2-10 4-14 6l-5 3c-5 4-11 9-19 17-7 8-13 15-18 21-5 6-10 11-16 15-6 4-11 6-15 4-1 0-1 0-2-1-1 0-3-1-5-3-2-3-4-5-6-8-1-3-3-8-4-14-1-6-2-13-2-21 0-3 0-5-1-7 0-2-1-4-2-5l-1-1c-3-4-8-6-14-6l-31 0c-12-1-25 0-39 4-13 4-25 8-35 14-10 6-19 12-27 18-8 6-15 11-19 15l-7 7c-1 1-4 4-7 8-3 3-9 11-19 24-10 12-19 26-28 40-9 14-20 33-33 56-12 24-24 48-35 73-1 3-1 5-1 7 0 2 0 3 1 4l1 2c2 3 7 5 15 5l73 1c2-1 4-1 6-2 2-1 3-2 4-2l2-1c2-2 5-5 6-9 4-9 8-18 12-27 5-10 9-17 11-22l4-8c6-11 11-20 15-28 5-7 10-14 13-18 4-4 8-8 11-10 4-3 7-4 9-4 3 0 5 1 8 1 0 1 0 1 1 2 1 1 2 2 3 6 2 3 3 7 4 12 1 5 1 13 2 22 1 9 1 20 0 33 0 7-1 14-2 20-1 5-3 10-4 12l-1 3c-5 6-12 10-23 12-2 0-2 2 1 6 3 3 7 6 10 8 10 5 31 7 64 6 15 0 27-1 36-3 4-1 7-2 9-4 2-1 4-3 6-6 1-3 2-6 2-9 1-3 1-7 1-12 0-5 0-10 0-14 0-5 0-11-1-19 0-8 0-16 0-22 0-2 0-6 0-11-1-6-1-10 0-13 0-3 0-7 0-11 1-4 2-8 4-10 1-3 3-5 6-7 1 0 2-1 4-1 2 0 4 1 7 3 3 2 6 5 10 9 4 4 8 10 14 18 6 8 12 18 18 29 11 18 20 38 29 60 0 1 1 3 2 4 1 2 2 3 3 3l1 1 2 1c0 0 1 0 3 0 2 1 4 1 5 0l77 1c7 1 13 1 17-1 5-1 8-2 9-4z"/>
<glyph glyph-name="youtube-play" unicode="&#117;" d="M366 256c0 7-3 12-9 15l-146 92c-6 4-12 4-19 0-6-3-9-8-9-16l0-182c0-8 3-13 9-16 3-2 6-3 9-3 4 0 7 1 10 3l146 92c6 3 9 8 9 15z m146 0c0-18 0-33 0-43 0-10-1-23-3-39-1-16-3-30-6-42-3-14-10-26-20-35-10-10-22-15-35-17-43-4-106-7-192-7-86 0-149 3-192 7-13 2-25 7-35 17-10 9-17 21-20 35-3 12-5 26-6 42-2 16-3 29-3 39 0 10 0 25 0 43 0 18 0 33 0 43 0 10 1 23 3 39 1 16 3 30 6 42 3 14 10 26 20 35 10 10 22 15 35 17 43 4 106 7 192 7 86 0 149-3 192-7 13-2 25-7 35-17 10-9 17-21 20-35 3-12 5-26 6-42 2-16 3-29 3-39 0-10 0-25 0-43z"/>
<glyph glyph-name="instagram" unicode="&#118;" d="M426 105l0 185-39 0c4-12 6-25 6-38 0-24-6-46-18-66-13-20-29-36-50-48-21-12-44-18-69-18-37 0-69 13-96 39-27 26-40 57-40 93 0 13 2 26 6 38l-41 0 0-185c0-5 2-10 5-13 4-3 8-5 13-5l305 0c5 0 9 2 13 5 3 3 5 8 5 13z m-81 152c0 23-9 44-26 60-18 17-38 25-63 25-24 0-45-8-62-25-17-16-26-37-26-60 0-24 9-44 26-61 17-16 38-25 62-25 25 0 45 9 63 25 17 17 26 37 26 61z m81 103l0 47c0 5-2 10-6 14-4 4-8 6-14 6l-50 0c-5 0-10-2-14-6-4-4-5-9-5-14l0-47c0-6 1-10 5-14 4-4 9-6 14-6l50 0c6 0 10 2 14 6 4 4 6 8 6 14z m49 59l0-326c0-16-5-29-16-40-11-11-24-16-40-16l-326 0c-16 0-29 5-40 16-11 11-16 24-16 40l0 326c0 16 5 29 16 40 11 11 24 16 40 16l326 0c16 0 29-5 40-16 11-11 16-24 16-40z"/>
<glyph glyph-name="facebook" unicode="&#119;" d="M292 353l74 0-9-81-65 0 0-235-97 0 0 235-49 0 0 81 49 0 0 49c0 35 8 61 24 79 17 18 44 26 81 26l65 0 0-81-40 0c-8 0-14 0-18-2-5-1-8-3-10-6-2-4-3-7-4-10 0-3-1-8-1-14z"/>
<glyph glyph-name="twitter" unicode="&#120;" d="M481 395c-13-18-28-34-46-47 0-3 0-7 0-12 0-25-3-50-11-74-7-25-18-49-33-71-14-23-32-43-52-61-21-17-45-31-74-41-29-11-60-16-92-16-52 0-99 14-142 42 7-1 14-2 22-2 43 0 81 14 115 40-20 0-38 6-54 18-16 12-27 27-33 46 7-1 13-2 18-2 8 0 16 1 24 4-21 4-39 15-53 31-14 17-21 37-21 59l0 1c13-7 27-11 42-11-13 8-23 19-30 32-8 14-11 29-11 44 0 17 4 33 12 47 23-28 51-51 84-68 33-17 69-27 107-29-2 8-3 15-3 22 0 25 9 47 27 65 18 18 40 27 66 27 26 0 49-10 67-29 21 4 40 11 59 22-7-22-21-39-41-51 18 2 35 7 53 14z"/>
<glyph glyph-name="google-plus" unicode="&#121;" d="M269 93c0 4-1 8-2 12-1 4-1 7-2 10-1 3-3 7-5 10-3 4-5 6-6 9-2 2-5 5-8 8-3 4-6 6-8 8-2 1-5 4-9 7-4 3-7 5-9 6-1 2-5 4-9 7-5 3-8 5-9 6-3 0-8 1-14 1-11 0-21-1-31-2-9-2-20-4-30-8-11-3-20-7-28-13-8-5-15-12-20-21-5-9-8-19-8-31 0-13 4-24 10-34 7-11 16-19 27-24 11-6 22-11 34-13 12-3 24-5 37-5 11 0 22 1 32 4 10 2 19 6 28 11 9 5 16 12 22 21 5 9 8 19 8 31z m-35 247c0 11-1 23-4 36-4 13-8 25-14 37-6 12-14 22-24 30-10 8-21 12-34 12-18 0-31-7-41-20-10-13-15-29-15-47 0-9 1-18 4-28 2-10 5-20 10-30 4-10 10-19 16-27 6-8 13-14 22-19 9-5 18-7 28-7 18 0 32 5 40 17 8 11 12 27 12 46z m-37 135l125 0-39-22-38 0c13-9 24-21 31-36 7-16 11-32 11-48 0-15-2-27-6-38-5-11-10-20-16-26-7-7-13-13-19-19-7-5-12-11-16-17-5-6-7-13-7-20 0-5 2-9 5-14 3-5 7-9 12-14 5-4 11-9 17-14 6-4 12-10 18-15 6-6 12-13 17-19 5-7 9-15 12-25 3-9 5-19 5-30 0-30-13-57-40-81-29-25-69-37-120-37-11 0-23 1-34 3-12 2-23 5-35 9-12 5-22 10-31 17-9 7-16 15-22 25-6 11-9 22-9 35 0 12 4 25 11 39 6 12 15 22 27 31 12 9 26 16 42 21 15 4 30 8 44 10 14 2 28 3 43 4-12 16-18 30-18 42 0 3 0 5 0 7 1 2 1 4 2 6 0 1 1 3 2 6 1 2 1 4 2 6-8-1-14-2-20-2-29 0-53 10-73 28-20 19-31 43-31 71 0 26 9 50 28 71 18 21 40 35 66 41 18 4 36 5 54 5z m297-73l0-36-73 0 0-73-37 0 0 73-73 0 0 36 73 0 0 73 37 0 0-73z"/>
<glyph glyph-name="bars" unicode="&#122;" d="M475 128l0-37c0-5-1-9-5-12-4-4-8-6-13-6l-402 0c-5 0-9 2-13 6-4 3-5 7-5 12l0 37c0 5 1 9 5 13 4 3 8 5 13 5l402 0c5 0 9-2 13-5 4-4 5-8 5-13z m0 146l0-36c0-5-1-10-5-13-4-4-8-6-13-6l-402 0c-5 0-9 2-13 6-4 3-5 8-5 13l0 36c0 5 1 10 5 13 4 4 8 6 13 6l402 0c5 0 9-2 13-6 4-3 5-8 5-13z m0 147l0-37c0-5-1-9-5-13-4-3-8-5-13-5l-402 0c-5 0-9 2-13 5-4 4-5 8-5 13l0 37c0 5 1 9 5 12 4 4 8 6 13 6l402 0c5 0 9-2 13-6 4-3 5-7 5-12z"/>
<glyph glyph-name="unlock" unicode="&#65;" d="M393 293c8 0 14-3 20-8 5-6 8-12 8-20l0-164c0-8-3-15-8-20-6-5-12-8-20-8l-274 0c-8 0-14 3-20 8-5 5-8 12-8 20l0 164c0 8 3 14 8 20 6 5 12 8 20 8l9 0 0 91c0 35 13 65 38 90 25 25 55 38 90 38 35 0 65-13 90-38 25-25 38-55 38-90 0-5-2-9-5-13-4-3-8-5-13-5l-19 0c-5 0-9 2-12 5-4 4-6 8-6 13 0 20-7 37-21 52-15 14-32 21-52 21-20 0-37-7-52-21-14-15-21-32-21-52l0-91z"/>
<glyph glyph-name="calendar" unicode="&#66;" d="M128 427c14 0 26 11 26 25l0 34c0 15-12 26-26 26-14 0-26-11-26-26l0-34c0-14 12-25 26-25z m-9 59c0 5 4 9 9 9 5 0 9-4 9-9l0-34c0-4-4-8-9-8-5 0-9 4-9 8z m-110-59c4 0 8 3 8 8l0 17c0 13 13 26 26 26l34 0c5 0 8 4 8 8 0 5-3 9-8 9l-34 0c-22 0-43-21-43-43l0-17c0-5 4-8 9-8z m315-410l-281 0c-13 0-26 13-26 26l0 350 452 0c5 0 9 3 9 8 0 5-4 9-9 9l-460 0c-5 0-9-4-9-9l0-358c0-22 21-43 43-43l281 0c5 0 9 4 9 9 0 4-4 8-9 8z m145 179c5 0 9 4 9 9l0 162c0 5-4 8-9 8l-426 0c-5 0-9-3-9-8l0-299c0-19 15-34 34-34l239 0c5 0 9 4 9 9 0 4-4 8-9 8l-239 0c-9 0-17 8-17 17l0 290 410 0 0-153c0-5 4-9 8-9z m0 299l-34 0c-5 0-8-4-8-9 0-4 3-8 8-8l34 0c13 0 26-13 26-26l0-264c0-5 4-9 8-9 5 0 9 4 9 9l0 264c0 22-21 43-43 43z m-170-68c14 0 25 11 25 25l0 34c0 15-11 26-25 26-14 0-26-11-26-26l0-34c0-14 12-25 26-25z m-9 59c0 5 4 9 9 9 4 0 8-4 8-9l0-34c0-4-4-8-8-8-5 0-9 4-9 8z m-51-170c0 4-4 8-9 8l-34 0c-4 0-8-4-8-8l0-34c0-5 4-9 8-9l34 0c5 0 9 4 9 9z m-17-26l-17 0 0 17 17 0z m162 137c14 0 26 11 26 25l0 34c0 15-12 26-26 26-14 0-26-11-26-26l0-34c0-14 12-25 26-25z m-9 59c0 5 4 9 9 9 5 0 9-4 9-9l0-34c0-4-4-8-9-8-5 0-9 4-9 8z m-162-59c14 0 26 11 26 25l0 34c0 15-12 26-26 26-14 0-25-11-25-26l0-34c0-14 11-25 25-25z m-8 59c0 5 4 9 8 9 5 0 9-4 9-9l0-34c0-4-4-8-9-8-4 0-8 4-8 8z m213-298c-52 0-94-42-94-94 0-52 42-94 94-94 52 0 94 42 94 94 0 52-42 94-94 94z m0-171c-42 0-77 35-77 77 0 42 35 77 77 77 42 0 77-35 77-77 0-42-35-77-77-77z m-94 299c0 4-4 8-8 8l-34 0c-5 0-9-4-9-8l0-34c0-5 4-9 9-9l34 0c4 0 8 4 8 9z m-17-26l-17 0 0 17 17 0z m-68-60c0 5-4 9-9 9l-34 0c-4 0-8-4-8-9l0-34c0-4 4-8 8-8l34 0c5 0 9 4 9 8z m-17-25l-17 0 0 17 17 0z m-77-51l-34 0c-5 0-9-4-9-9l0-34c0-5 4-9 9-9l34 0c5 0 9 4 9 9l0 34c0 5-4 9-9 9z m-8-35l-18 0 0 18 18 0z m93 35l-34 0c-4 0-8-4-8-9l0-34c0-5 4-9 8-9l34 0c5 0 9 4 9 9l0 34c0 5-4 9-9 9z m-8-35l-17 0 0 18 17 0z m-68 111c0 5-4 9-9 9l-34 0c-5 0-9-4-9-9l0-34c0-4 4-8 9-8l34 0c5 0 9 4 9 8z m-17-25l-18 0 0 17 18 0z m290-103l0 26c0 5-4 9-9 9-5 0-8-4-8-9l0-34c0-5 3-9 8-9l51 0c5 0 9 4 9 9 0 5-4 8-9 8z m-17 214c0 4-4 8-9 8l-34 0c-5 0-9-4-9-8l0-34c0-5 4-9 9-9l34 0c5 0 9 4 9 9z m-17-26l-18 0 0 17 18 0z m8-85c5 0 9 4 9 8l0 17c0 5-4 9-9 9l-34 0c-5 0-9-4-9-9l0-17c0-4 4-8 9-8 5 0 8 4 8 8l0 9 18 0 0-9c0-4 3-8 8-8z m-102-68c4 0 8 3 8 8 0 5-4 9-8 9l-17 0c-5 0-9-4-9-9l0-34c0-5 4-9 9-9l17 0c4 0 8 4 8 9 0 5-4 8-8 8l-9 0 0 18z m-145 179c0 4-4 8-9 8l-34 0c-5 0-9-4-9-8l0-34c0-5 4-9 9-9l34 0c5 0 9 4 9 9z m-17-26l-18 0 0 17 18 0z m187-94l0 34c0 5-4 9-8 9l-34 0c-5 0-9-4-9-9l0-34c0-4 4-8 9-8l34 0c4 0 8 4 8 8z m-17 9l-17 0 0 17 17 0z"/>
<glyph glyph-name="calendar-15" unicode="&#67;" d="M383 418c0-5-3-8-8-8-4 0-8 3-8 8l0 86c0 4 4 8 8 8 5 0 8-4 8-8z m-239 0c0-5-3-8-8-8-4 0-8 3-8 8l0 86c0 4 4 8 8 8 5 0 8-4 8-8z m-73-109c-5 0-8 3-8 7 0 5 3 8 8 8l370 0c4 0 8-3 8-8 0-4-4-7-8-7z m131-229c0-4-4-8-8-8-4 0-8 4-8 8l0 145-27-27c-3-3-9-3-12 0-3 3-3 8 0 11l41 41c2 2 4 2 6 2 5 0 8-3 8-8z m54-8c-5 0-8 4-8 8 0 4 3 8 8 8l41 0c9 0 17 4 23 10l0 0c6 6 10 14 10 23 0 9-4 18-10 24l0 0c-6 6-14 9-23 9l-41 0c-5 0-8 4-8 8l0 82c0 5 3 8 8 8l82 0c4 0 8-3 8-8 0-4-4-7-8-7l-74 0 0-67 33 0c13 0 26-5 35-14l0 0c9-9 14-21 14-35 0-13-6-26-14-35l0 0c-9-8-22-14-35-14l-41 0z m-255 265c0 4 4 8 8 8 4 0 8-4 8-8l0-288c0-9 4-17 10-23 6-6 14-10 23-10l411 0c10 0 18 4 24 10 6 6 10 14 10 23l0 288c0 4 3 8 8 8 4 0 8-4 8-8l0-288c0-13-6-26-15-35-9-8-21-14-35-14l-411 0c-13 0-26 6-35 14-8 9-14 22-14 35z m135 135c5 0 8-4 8-8 0-5-3-8-8-8l-86 0c-9 0-17-4-23-10l-1 0c-5-6-9-14-9-23l0-37 478 0 0 37c0 9-4 17-10 23l-1 0c-6 6-14 10-23 10l-54 0c-4 0-8 3-8 8 0 4 4 8 8 8l54 0c14 0 26-6 35-14l0-1c9-9 15-21 15-34l0-45c0-4-4-8-8-8l-494 0c-4 0-8 4-8 8l0 45c0 13 5 25 14 34l1 0c8 9 21 15 34 15l86 0z m239 0l-207 0c-4 0-8-4-8-8 0-5 4-8 8-8l207 0c5 0 8 3 8 8 0 4-3 8-8 8z"/>
<glyph glyph-name="more-horizontal" unicode="&#68;" d="M68 324c-37 0-68-30-68-68 0-38 31-68 68-68 38 0 69 30 69 68 0 38-31 68-69 68z m0-119c-28 0-51 23-51 51 0 28 23 51 51 51 29 0 51-23 51-51 0-28-22-51-51-51z m376 119c-38 0-69-30-69-68 0-38 31-68 69-68 37 0 68 30 68 68 0 38-31 68-68 68z m0-119c-29 0-51 23-51 51 0 28 22 51 51 51 28 0 51-23 51-51 0-28-23-51-51-51z m-188 119c-38 0-68-30-68-68 0-38 30-68 68-68 38 0 68 30 68 68 0 38-30 68-68 68z m0-119c-28 0-51 23-51 51 0 28 23 51 51 51 28 0 51-23 51-51 0-28-23-51-51-51z"/>
<glyph glyph-name="referee" unicode="&#69;" d="M196 341l9 0c0-4 4-8 8-8 5 0 9 4 9 8l8 0c5 0 9 4 9 9 0 5-4 8-9 8l-34 0c-4 0-8-3-8-8 0-5 4-9 8-9z m316-331l-9 51c-9 48-89 74-142 75l-33 17c-3 1-7 1-10-2l-62-62-62 62c-3 3-7 3-10 2l-33-17c-44 0-133-27-142-75l-9-51c-1-5 2-9 7-10 1 0 1 0 2 0 4 0 7 3 8 7l8 51c7 35 84 60 125 61l40-40c4-3 9-3 12 0 4 4 4 9 0 12l-34 35 18 9 64-64c2-2 4-3 6-3 2 0 4 1 6 3l64 64 18-9-34-35c-4-3-4-8 0-12 3-3 8-3 12 0l39 40c48-1 118-24 126-61l8-51c1-4 4-7 8-7 1 0 1 0 2 0 5 1 8 5 7 10z m-390 281c6-16 27-69 42-91l1-2c11-17 29-44 91-44 62 0 80 27 91 44l1 2c15 22 36 75 42 91 11 3 20 13 20 25l0 34c0 11-8 20-17 24l0 19c0 75-50 119-137 119-87 0-137-44-137-119l0-19c-9-4-17-13-17-24l0-34c0-12 9-22 20-25z m-3 59c0 5 5 8 9 8 5 0 9 4 9 9l0 26c0 38 15 102 119 102 104 0 119-64 119-102l0-26c0-5 4-9 9-9 5 0 9-3 9-8l0-34c0-5-4-9-9-9-4 0-7-2-8-5 0-1-25-68-42-92l-1-3c-10-15-24-36-77-36-53 0-67 21-77 36l-1 3c-17 24-42 91-42 92-1 3-4 5-8 5-5 0-9 4-9 9z m316-260c-5 0-8-4-8-9l0-72c0-5 3-9 8-9 5 0 9 4 9 9l0 72c0 5-4 9-9 9z m-153 251l8 0c0-4 4-8 9-8 4 0 8 4 8 8l9 0c4 0 8 4 8 9 0 5-4 8-8 8l-34 0c-5 0-9-3-9-8 0-5 4-9 9-9z m-60-111c0-4 4-8 8-8l52 0c4 0 8 4 8 8 0 5-4 9-8 9l-52 0c-4 0-8-4-8-9z m-145-140c-5 0-9-4-9-9l0-72c0-5 4-9 9-9 5 0 8 4 8 9l0 72c0 5-3 9-8 9z m205-30c-5 0-9-4-9-9l0-42c0-5 4-9 9-9 4 0 8 4 8 9l0 42c0 5-4 9-8 9z m102 8l-51 0c-5 0-9-4-9-8l0-51c0-5 4-9 9-9 5 0 8 4 8 9l0 42 34 0 0-42c0-5 4-9 9-9 5 0 9 4 9 9l0 51c0 4-4 8-9 8z m-256 31c-5 0-9-3-9-8l0-82c0-5 4-9 9-9 5 0 9 4 9 9l0 82c0 5-4 8-9 8z m51-31c-5 0-8-4-8-8l0-51c0-5 3-9 8-9 5 0 9 4 9 9l0 51c0 4-4 8-9 8z m51-8c-4 0-8-4-8-9l0-42c0-5 4-9 8-9 5 0 9 4 9 9l0 42c0 5-4 9-9 9z"/>
<glyph glyph-name="referee-1" unicode="&#70;" d="M262 419c1-1 2-1 3-1 3 0 6 2 8 5l23 55c2 5 0 10-5 11-4 2-9 0-11-4l-23-55c-2-4 0-9 5-11z m-44 6c1-3 4-5 7-5 2 0 3 0 4 1 4 2 6 7 4 12l-29 57c-2 4-7 6-12 4-4-2-5-7-3-11z m-75 7l53-38c1-1 3-1 5-1 2 0 5 1 7 3 2 4 1 9-2 12l-53 38c-4 2-9 1-12-2-2-4-2-10 2-12z m369-38l-18 51c-1 4-6 7-10 5l-216-65c-2-1-4-3-5-5-1-2-2-4-1-7l11-29c2-4-1-9-5-11-5-1-10 1-11 5l-11 31c-2 4-6 6-11 5l-128-42c-41-15-73-45-92-84-18-40-20-84-5-124 24-66 86-107 152-107 19 0 37 3 56 10 40 15 73 44 91 84 18 38 20 81 7 120 0 1-1 2-1 3-6 17-15 33-26 47-3 4-9 4-12 1-4-3-5-8-2-12 10-12 18-25 23-39 0-1 0-1 1-2 13-37 11-76-5-111-17-35-46-62-82-75-75-27-159 11-186 87-13 36-12 75 5 111 16 35 45 61 81 74l121 40 8-22c5-14 19-21 33-16 13 5 20 20 15 33l-8 21 200 60 12-36-147-80c-18-10-30-29-30-50 0-5 4-9 9-9 4 0 8 4 8 9 0 15 8 28 21 35l154 83c3 2 5 7 4 11z m-349-123c-52 0-94-42-94-93 0-52 42-94 94-94 51 0 93 42 93 94 0 51-42 93-93 93z m0-170c-43 0-77 34-77 77 0 42 34 76 77 76 42 0 76-34 76-76 0-43-34-77-76-77z"/>
<glyph glyph-name="stopwatch-1" unicode="&#71;" d="M292 437c-5 1-9-2-11-6l-2-9c-1-4 2-9 6-10 1 0 2 0 3 0 3 0 7 2 8 6l2 8c1 5-1 10-6 11z m-99-371c-5 1-10-2-11-6l-2-8c-1-5 1-10 6-11 1 0 1 0 2 0 4 0 7 2 8 6l3 8c1 5-2 10-6 11z m46 207c-19 0-34-15-34-34 0-6 2-12 5-17l-116-116c-3-3-3-9 0-12 2-2 4-3 6-3 2 0 5 1 6 3l116 116c5-3 11-5 17-5 19 0 34 15 34 34 0 19-15 34-34 34z m0-51c-9 0-17 8-17 17 0 9 8 17 17 17 9 0 17-8 17-17 0-9-8-17-17-17z m57-162c-2 4-6 7-11 6-4-1-7-6-6-11l2-8c1-4 5-6 9-6 0 0 1 0 2 0 4 1 7 6 6 11z m-57 25c-5 0-9-3-9-8l0-34c0-5 4-9 9-9 5 0 8 4 8 9l0 34c0 5-3 8-8 8z m-26 410l52 0c4 0 8 4 8 8 0 5-4 9-8 9l-52 0c-4 0-8-4-8-9 0-4 4-8 8-8z m-193-100c1-2 3-2 6-2 2 0 4 0 6 2l51 51c3 4 3 9 0 12l-17 17c-4 4-9 4-12 0l-51-51c-4-3-4-9 0-12z m40 62l5-5-39-39-5 5z m179-64c5 0 8 3 8 8l0 34c0 5-3 9-8 9-5 0-9-4-9-9l0-34c0-5 4-8 9-8z m-162-146l-34 0c-5 0-9-3-9-8 0-5 4-9 9-9l34 0c5 0 8 4 8 9 0 5-3 8-8 8z m72-163c-4 2-9 1-11-3l-5-8c-2-4-1-9 3-11 2-1 3-2 5-2 3 0 6 2 7 5l4 7c3 4 1 9-3 12z m191-3c-2 4-7 5-12 3-4-3-5-8-3-12l5-7c1-3 4-5 7-5 1 0 3 1 4 2 4 2 6 7 3 11z m54 248c2-3 5-5 8-5 1 0 2 1 4 1l7 5c4 2 6 7 3 11-2 4-7 6-11 3l-8-4c-4-2-5-7-3-11z m-155 149c-132 0-239-107-239-239 0-132 107-239 239-239 132 0 239 107 239 239 0 132-107 239-239 239z m0-461c-122 0-222 100-222 222 0 122 100 222 222 222 122 0 222-100 222-222 0-122-100-222-222-222z m173 268c1-4 4-6 8-6 1 0 2 0 2 0l9 2c4 2 7 6 6 11-1 4-6 7-11 6l-8-2c-5-1-7-6-6-11z m17 132l38 38c3 3 3 8 0 12-4 3-9 3-12 0l-38-38c-4-3-4-9 0-12 1-2 4-3 6-3 2 0 4 1 6 3z m32 95c-28 0-51-23-51-51 0-5 3-9 8-9 5 0 9 4 9 9 0 19 15 34 34 34 19 0 34-15 34-34 0-19-15-34-34-34-5 0-9-4-9-9 0-5 4-8 9-8 28 0 51 23 51 51 0 28-23 51-51 51z m-83-400c-4 4-9 4-12 0-4-3-4-9 0-12l6-6c1-2 3-2 6-2 2 0 4 0 6 2 3 3 3 9 0 12z m-37 304c-4 3-9 1-11-3l-5-7c-2-4-1-10 4-12 1-1 2-1 4-1 3 0 6 1 7 4l4 8c3 4 1 9-3 11z m31-32l-6-6c-4-4-4-9 0-12 1-2 3-3 6-3 2 0 4 1 6 3l6 6c3 3 3 8 0 12-4 3-9 3-12 0z m41-236l-7 4c-4 3-10 1-12-3-2-4-1-9 3-11l8-5c1 0 2-1 4-1 3 0 6 2 7 5 3 4 1 9-3 11z m18 48l-9 3c-4 1-9-2-10-6-1-5 1-10 6-11l8-2c1 0 2 0 2 0 4 0 8 2 9 6 1 4-2 9-6 10z m-30 51c-5 0-8-3-8-8 0-5 3-9 8-9l34 0c5 0 9 4 9 9 0 5-4 8-9 8z"/>
<glyph glyph-name="search" unicode="&#72;" d="M500 16l-144 150c37 36 60 87 60 143 0 112-92 203-203 203-112 0-203-91-203-203 0-112 91-203 203-203 49 0 94 18 129 47l144-150c2-2 4-3 7-3 2 0 5 1 7 3 3 3 3 10 0 13z m-287 109c-102 0-184 83-184 184 0 101 82 184 184 184 101 0 183-83 183-184 0-101-82-184-183-184z"/>
</font>
</defs>
</svg>
