<?xml version="1.0" encoding="utf-8"?>
<!-- Generator: Adobe Illustrator 19.0.1, SVG Export Plug-In . SVG Version: 6.00 Build 0)  -->
<svg version="1.1" id="Слой_1" xmlns="http://www.w3.org/2000/svg" xmlns:xlink="http://www.w3.org/1999/xlink" x="0px" y="0px"
	 viewBox="0 0 512 512" style="enable-background:new 0 0 512 512;" xml:space="preserve">
<style type="text/css">
	.st0{fill:#F2784B;}
	.st1{fill:#19B5FE;}
	.st2{fill:#2ECC71;}
	.st3{fill:#FFFFFF;}
	.st4{fill:#5B3864;}
</style>
<rect x="0.1" y="0.3" class="st0" width="170.7" height="512"/>
<rect x="170.8" y="0.3" class="st1" width="170.7" height="512"/>
<rect x="341.5" y="0.3" class="st2" width="170.7" height="512"/>
<g>
	<path class="st3" d="M76.4,366.4l-0.7-0.4c-2.3-1.4-3-4.3-1.6-6.6l5.3-8.8c1.4-2.3,4.3-3,6.6-1.6l0.7,0.4c2.3,1.4,3,4.3,1.6,6.6
		l-5.3,8.8C81.6,367,78.7,367.8,76.4,366.4z"/>
	<path class="st3" d="M52.3,343.3c1.1-3.4,3-6.6,5.7-9c1.3-1.2,2.8-2.2,4.4-3c1.6-0.8,3.3-1.4,5-1.7c1.7-0.4,3.4-0.6,5.1-0.6
		c0.8,0,1.7,0,2.5,0.1c0.4,0,0.8,0.1,1.2,0.1l1.2,0.1c3.2,0.4,6.4,1,9.5,2c3.1,0.9,6.1,2.1,9,3.6c2.9,1.5,5.6,3.2,8.1,5.3
		c2.5,2,4.8,4.3,6.8,6.7c1,1.2,2,2.5,2.8,3.8c0.9,1.3,1.7,2.7,2.3,4.1l-0.2,0.1c-1.7-2.6-3.7-5-5.9-7.1c-2.2-2.2-4.6-4.1-7.2-5.8
		c-5.1-3.4-10.8-5.7-16.7-7.1c-2.9-0.7-5.9-1.1-8.9-1.3l-1.1-0.1c-0.4,0-0.7,0-1.1,0c-0.7,0-1.4,0-2.2,0.1c-1.4,0.1-2.8,0.3-4.2,0.7
		c-1.3,0.4-2.6,0.9-3.8,1.5c-1.2,0.7-2.2,1.5-3.2,2.4c-1.9,1.8-3.2,4.2-4,6.8c-0.8,2.6-1,5.4-0.6,8.1c0.3,2.7,1.2,5.4,2.5,7.7
		c1.3,2.3,3.2,4.3,5.4,5.6c1.1,0.7,2.3,1.2,3.5,1.5c0.6,0.2,1.3,0.3,1.9,0.4c0.2,0,0.3,0,0.5,0.1l0.5,0.1l1.2,0.1
		c3.2,0.3,6.4,0.8,9.5,1.5c0.8,0.2,1.6,0.4,2.4,0.6c0.8,0.2,1.6,0.4,2.3,0.7c1.6,0.4,3.1,1,4.6,1.6c3,1.2,6,2.6,8.7,4.4
		c1.4,0.9,2.7,1.9,3.8,3c0.6,0.6,1.2,1.2,1.7,1.8c0.5,0.6,1,1.3,1.4,2l-0.2,0.2c-0.6-0.5-1.3-0.9-1.9-1.3c-0.7-0.4-1.3-0.8-2-1.1
		c-1.4-0.7-2.8-1.3-4.2-1.8c-2.8-1.1-5.7-1.9-8.7-2.6c-4.7-1.1-9.5-1.8-14.4-2.4l-6.1,5.6l-5.6-3l3.8-3.6c-0.3-0.1-0.5-0.1-0.8-0.2
		c-1.8-0.5-3.5-1.2-5.1-2.2c-1.6-1-3-2.1-4.2-3.5c-1.2-1.3-2.3-2.8-3.2-4.4c-1.7-3.1-2.8-6.6-3.1-10
		C50.9,350.3,51.2,346.7,52.3,343.3z"/>
	<path class="st3" d="M24.8,380.3c1.4-0.6,2.7-1.1,4.1-1.6c1.4-0.5,2.8-0.9,4.2-1.3c2.8-0.7,5.7-1.3,8.6-1.5c2.9-0.3,5.8-0.3,8.6,0
		c2.8,0.3,5.7,0.9,8.4,1.7c2.8,0.8,5.5,1.8,8,3c0.6,0.3,1.3,0.6,1.9,0.9l0.5,0.3c0.2,0.1,0.4,0.2,0.5,0.3c0.3,0.2,0.7,0.3,1,0.5
		c1.4,0.6,2.8,1.2,4.2,1.7c5.7,2.1,11.7,3.4,17.9,3.5c3.1,0,6.2-0.3,9.1-0.9c3-0.6,5.9-1.5,8.8-2.5c1.4-0.5,2.8-1.1,4.2-1.8
		c0.3-0.2,0.7-0.3,1-0.5l0.5-0.3l0.5-0.3c0.6-0.3,1.3-0.6,1.9-0.9c1.3-0.6,2.6-1.1,4-1.6c1.3-0.5,2.7-1,4.1-1.3
		c2.8-0.8,5.6-1.4,8.4-1.7c2.8-0.3,5.7-0.3,8.6,0c2.9,0.2,5.7,0.8,8.6,1.5c1.4,0.4,2.8,0.8,4.2,1.3c1.4,0.5,2.8,1,4.1,1.6
		c-2.5-1.6-5.2-2.8-8-3.8c-2.8-1-5.7-1.8-8.6-2.4c-1.5-0.3-3-0.4-4.5-0.5c-1.5-0.1-3-0.1-4.5-0.1c-3,0.1-6,0.6-9,1.3
		c-2.9,0.7-5.8,1.6-8.6,2.8c-0.7,0.3-1.4,0.6-2.1,0.9c-0.4,0.2-0.6,0.3-1,0.5c-0.3,0.1-0.6,0.3-1,0.4c-1.3,0.6-2.6,1.1-4,1.6
		c-2.7,0.9-5.5,1.7-8.3,2.2c-2.8,0.5-5.6,0.8-8.4,0.8c-2.8,0-5.6-0.3-8.4-0.8c-2.8-0.5-5.6-1.3-8.3-2.2c-1.4-0.5-2.7-1-4-1.5
		c-0.3-0.1-0.6-0.3-1-0.4l-0.5-0.2l-0.5-0.2c-0.7-0.3-1.4-0.7-2.1-0.9c-2.8-1.2-5.7-2.1-8.6-2.8c-2.9-0.7-6-1.2-9-1.3
		c-3-0.1-6.1,0.1-9,0.6c-3,0.5-5.9,1.3-8.6,2.4C30,377.5,27.3,378.7,24.8,380.3z"/>
	<path class="st3" d="M103,389.3c-3.7,1.4-7.5,2.5-11.3,3.2c-3.8,0.7-7.7,1.1-11.5,0.9c-3.8-0.2-7.6-0.8-11.2-1.9
		c-1.8-0.5-3.6-1.1-5.4-1.8c-0.9-0.3-1.8-0.7-2.6-1.1c-0.4-0.2-0.9-0.4-1.3-0.6l-0.6-0.3c-0.2-0.1-0.5-0.3-0.7-0.4
		c-1.9-0.9-3.7-1.7-5.7-2.3c-1.9-0.7-3.9-1.2-5.8-1.7c-2-0.5-4-0.8-6-1c-1-0.1-2-0.2-3.1-0.2c-1,0-2,0-3.1,0
		c-4.1,0.2-8.1,0.9-11.9,2.2c-1.9,0.6-3.8,1.3-5.6,2.2c-0.9,0.4-1.8,0.9-2.7,1.3c-0.9,0.5-1.7,1-2.6,1.5c3.7-1.4,7.5-2.5,11.3-3.2
		c3.8-0.7,7.7-1.1,11.5-1c3.8,0.1,7.6,0.8,11.3,1.8c1.8,0.5,3.7,1.1,5.5,1.7c1.8,0.7,3.6,1.4,5.2,2.2c0.2,0.1,0.4,0.2,0.6,0.3
		c0.2,0.1,0.5,0.2,0.7,0.3c0.5,0.2,0.9,0.4,1.4,0.6c0.9,0.4,1.9,0.8,2.8,1.2c1.9,0.7,3.9,1.3,5.8,1.8c4,1,8,1.5,12.1,1.4
		c4.1-0.1,8.1-0.9,11.9-2.1c1.9-0.6,3.8-1.3,5.6-2.2c0.9-0.4,1.8-0.9,2.7-1.3C101.4,390.3,102.2,389.9,103,389.3z"/>
</g>
<g>
	<path class="st3" d="M364.5,381.4l0.2,0.1c-0.1,0.7-0.2,1.5-0.1,2.2c0,0.7,0.2,1.5,0.3,2.1c0.4,1.4,1.1,2.6,2,3.6
		c0.9,1,2,1.8,3.2,2.5c0.6,0.3,1.3,0.6,1.9,0.8c0.6,0.2,1.3,0.4,1.9,0.6c2.7,0.6,5.5,0.5,8.2,0c1.4-0.2,2.8-0.6,4.1-0.9
		c1.4-0.4,2.7-0.9,4-1.4c5.3-2.2,10.3-5.2,15-8.7c1.2-0.9,2.3-1.8,3.4-2.7c0.6-0.5,1.1-1,1.7-1.4l0.8-0.7l0.9-0.8
		c0.4-0.3,0.7-0.6,1.1-1l28.5-45.3c-1.5-1.3-3.1-2.5-4.6-3.8c-3.2-2.5-6.5-4.9-10-6.8c-1.7-1-3.5-1.8-5.4-2.6l-0.7-0.3l-0.3-0.1
		l-0.4-0.1c-0.5-0.2-0.9-0.3-1.4-0.5c-0.9-0.3-1.9-0.6-2.9-0.8c-3.9-0.9-7.9-1.2-12-1c-2,0.1-4.1,0.4-6.1,0.8c-2,0.4-4,0.9-6,1.7
		l-0.1-0.2c0.9-0.6,1.8-1.1,2.8-1.6c0.9-0.5,1.9-0.9,2.9-1.3c2-0.8,4.1-1.4,6.2-1.9c4.2-0.9,8.7-1.1,13.1-0.5
		c1.1,0.2,2.2,0.3,3.3,0.6c0.5,0.1,1.1,0.3,1.6,0.4l0.4,0.1l0.4,0.1l0.8,0.2c2.1,0.7,4.2,1.5,6.1,2.4c4,1.9,7.6,4.3,11.1,6.9
		c1.7,1.3,3.4,2.6,5,4c1.6,1.4,3.2,2.7,4.8,4.1l2.3,2.1l2.3,2.1c0.8,0.7,1.5,1.4,2.3,2c0.8,0.7,1.6,1.3,2.3,1.9
		c0.4,0.3,0.8,0.6,1.2,0.9c0.4,0.3,0.8,0.6,1.2,0.9l0.3,0.2l0.3,0.2c0.2,0.1,0.4,0.3,0.6,0.4c0.4,0.2,0.8,0.5,1.2,0.7
		c1.6,0.8,3.3,1.3,5,1.2c0.9,0,1.7-0.3,2.6-0.6c0.9-0.3,1.7-0.8,2.5-1.4c1.6-1.1,3.1-2.6,4.3-4.3l0.2,0.1c-0.3,1-0.8,2-1.3,3
		c-0.5,1-1.2,1.9-1.9,2.7c-0.8,0.8-1.6,1.6-2.6,2.2c-1,0.6-2.1,1.1-3.3,1.4c-1.2,0.3-2.5,0.4-3.7,0.3c-1.2-0.1-2.4-0.4-3.5-0.8
		c-0.6-0.2-1.1-0.4-1.6-0.7c-0.3-0.1-0.5-0.3-0.8-0.4l-0.4-0.2l-0.4-0.2c-0.5-0.3-1-0.5-1.4-0.8c-0.5-0.3-0.9-0.6-1.4-0.9
		c-3.5-2.3-6.6-4.9-9.7-7.5l-22.8,33.7c1.5-0.7,3.1-1.3,4.6-1.8c3.1-1,6.3-1.7,9.5-2c3.2-0.3,6.5-0.3,9.8,0.2
		c0.8,0.1,1.6,0.3,2.5,0.5c0.8,0.2,1.7,0.5,2.5,0.8c0.4,0.2,0.9,0.4,1.3,0.6c0.2,0.1,0.5,0.3,0.7,0.5c0.1,0.1,0.2,0.2,0.4,0.3
		l0.1,0.1l0.1,0.1l0.1,0.1l0.1,0.1c0.4,0.4,0.8,0.9,1.1,1.4c0.3,0.5,0.5,1.1,0.6,1.6c0.3,1.1,0.3,2.1,0.1,3.1
		c-0.1,0.9-0.3,1.8-0.6,2.6c-0.5,1.6-1.2,3.1-2,4.5c-0.7,1.4-1.5,2.8-2.4,4.1c-0.4,0.7-0.8,1.3-1.3,1.9l-0.6,1
		c-0.2,0.3-0.5,0.7-0.7,1c-1.9,2.6-4.3,4.8-6.8,6.6c-1.3,0.9-2.6,1.8-3.9,2.5c-1.4,0.7-2.7,1.4-4.2,2l-0.1-0.2
		c1.3-0.8,2.5-1.7,3.7-2.6c1.2-0.9,2.3-1.9,3.4-3c2.1-2.1,4-4.4,5.4-6.9c0.2-0.3,0.3-0.6,0.5-1l0.5-1l1-2c0.7-1.3,1.3-2.7,1.8-4
		c0.6-1.3,1-2.7,1.3-4c0.1-0.6,0.2-1.3,0.3-1.9c0-0.6,0-1.1-0.2-1.4c-0.1-0.4-0.3-0.6-0.6-0.8l0,0c0,0,0,0,0,0l0,0l-0.1,0l0,0
		c0,0,0,0-0.1,0c-0.1,0-0.2-0.1-0.3-0.1c-0.2-0.1-0.5-0.2-0.8-0.3c-0.6-0.2-1.2-0.3-1.9-0.5c-0.7-0.1-1.3-0.2-2-0.3
		c-2.8-0.2-5.6-0.1-8.4,0.3c-5.6,0.8-11,2.8-15.9,5.8c-1.2,0.7-2.4,1.5-3.5,2.4c-1.1,0.8-2.2,1.7-3.3,2.7l-0.8,0.8l-0.9,0.8
		c-0.6,0.5-1.2,1-1.8,1.5c-1.2,1-2.5,2-3.7,2.9c-5.1,3.7-10.8,6.9-16.9,8.8c-1.5,0.5-3.1,0.9-4.7,1.2c-1.6,0.3-3.2,0.5-4.9,0.6
		c-1.6,0.1-3.3,0.1-5-0.1c-1.7-0.2-3.3-0.6-4.9-1.2c-0.8-0.3-1.6-0.6-2.3-1.1c-0.7-0.4-1.4-0.9-2.1-1.4c-1.3-1-2.5-2.3-3.4-3.7
		c-0.9-1.5-1.4-3.1-1.4-4.8C363.5,384.4,363.8,382.8,364.5,381.4z"/>
	<path class="st3" d="M456.3,324c-0.9,2.3-3.5,3.3-5.8,2.4l-0.7-0.3c-2.3-0.9-3.3-3.5-2.4-5.8l3.6-8.7c0.9-2.3,3.5-3.3,5.8-2.4
		l0.7,0.3c2.3,0.9,3.3,3.5,2.4,5.8L456.3,324z"/>
</g>
<g>
	<path class="st3" d="M283.2,319.6c-1.8,1.9-1.7,4.9,0.2,6.7l0.6,0.5c1.9,1.8,4.9,1.7,6.7-0.2l6.9-7.4c1.8-1.9,1.7-4.9-0.2-6.7
		l-0.6-0.5c-1.9-1.8-4.9-1.7-6.7,0.2L283.2,319.6z"/>
	<path class="st3" d="M309.2,342.6l-10.5,3c-1.8,0.5-3.5,1-5.3,1.4c-0.9,0.2-1.8,0.4-2.8,0.5c-1,0.1-2,0.3-3.3-0.1
		c-0.6-0.2-1.3-0.6-1.8-1.2c-0.2-0.2-0.5-0.6-0.6-0.8l-0.4-0.6c-0.5-0.8-1-1.6-1.4-2.4c-0.9-1.6-1.8-3.3-2.6-5
		c-0.8-1.7-1.5-3.4-2.3-5.1c-0.4-0.8-0.7-1.6-1.1-2.4c-0.2-0.4-0.4-0.7-0.5-1c-0.1-0.3-0.4-0.4,0-0.1l0.6,0.2
		c-0.3,0-0.9-0.1-1.5-0.1c-0.6,0-1.2,0-1.8,0c-1.2,0-2.5,0.1-3.7,0.1c-2.5,0.1-5,0.3-7.6,0.6c-5,0.5-10.1,1.1-15,1.9
		c-2.5,0.4-4.9,0.8-7.3,1.3c-1.2,0.3-2.3,0.5-3.3,0.9c-0.5,0.2-1,0.3-1.2,0.5c-0.1,0.1-0.2,0.1-0.2,0.1c0-0.1,0.4-0.3,0.6-1.2
		c0.1-0.2,0-0.5,0-0.7l0,0.1l0,0.1l0-0.1c0-0.1,0-0.2,0-0.2l0,0c0,0.1,0.1,0.2,0.2,0.4c0.2,0.4,0.5,0.9,0.7,1.3c0.6,1,1.3,2,2,3
		l4.6,6.2c3.1,4.2,6.2,8.5,8.4,13.6c0.6,1.3,1,2.7,1.3,4.2c0.3,1.5,0.4,3.3-0.2,5.1l-0.1,0.3l-0.1,0.2L253,367l-0.2,0.5
		c-0.3,0.5-0.5,0.9-0.8,1.2c-0.6,0.7-1.2,1.2-1.8,1.7c-1.3,0.9-2.6,1.6-3.9,2.1c-2.6,1.1-5.2,1.7-7.8,2.1c-2.6,0.5-5.2,0.8-7.8,1
		c-5.2,0.4-10.4,0.5-15.5,0.2l0-0.3c5.1-0.7,10.2-1.5,15.1-2.6c4.9-1.1,9.9-2.4,14.1-4.5c2.1-1,3.9-2.6,4-3.8
		c0.3-1.3-0.3-3.5-1.3-5.6c-2.1-4.2-5.3-8.1-8.4-12.1l-4.9-6c-0.8-1-1.6-2.1-2.4-3.3c-0.4-0.6-0.8-1.2-1.2-2
		c-0.2-0.4-0.4-0.8-0.6-1.3l-0.1-0.4c0-0.1-0.1-0.5-0.1-0.7l0-0.4c0-0.4,0-0.8,0-1.2c0.3-1.6,1.2-2.3,1.7-2.8c0.6-0.5,1-0.7,1.4-1
		c0.8-0.5,1.6-0.7,2.3-1c1.4-0.5,2.8-0.9,4.1-1.1c2.7-0.6,5.3-1,7.9-1.3c5.2-0.6,10.4-0.8,15.6-0.9c2.6,0,5.2,0,7.8,0
		c1.3,0,2.6,0.1,4,0.2c0.7,0,1.3,0.1,2,0.2c0.7,0.1,1.4,0.2,2.3,0.4l0.4,0.1l0.2,0.1c1.1,0.7,1.4,1.4,1.7,1.9c0.3,0.5,0.5,1,0.7,1.5
		c0.4,0.9,0.7,1.8,1,2.7c0.6,1.7,1.2,3.4,1.8,5.1c0.6,1.7,1.3,3.3,2,5c0.4,0.8,0.7,1.6,1.1,2.4c0.5,1,0.5,1.1,0.9,1.4
		c0.4,0.2,1.3,0.3,2.1,0.3c0.8,0,1.7-0.1,2.6-0.2c1.8-0.2,3.6-0.5,5.4-0.8c3.6-0.5,7.2-1.1,10.9-1.6L309.2,342.6z"/>
	<path class="st3" d="M290.6,358.6c-3.6,4.2-6.7,8.9-8.5,14c-0.9,2.5-1.6,5.1-1.7,7.8c-0.2,2.6,0.1,5.2,1,7.4
		c0.5,1.1,1.1,2.1,1.9,2.9c0.2,0.2,0.4,0.4,0.6,0.6l0.2,0.1c0,0,0.1,0.1,0,0l0.1,0.1l0.4,0.3c0.3,0.2,0.5,0.3,0.7,0.5
		c0.2,0.1,0.5,0.3,0.8,0.4c2.1,1,4.5,1.2,7,0.8c4.9-0.7,9.7-3.3,13.7-6.6c2-1.7,3.9-3.5,5.6-5.6c1.7-2,3.2-4.2,4.4-6.5
		c2.5-4.6,4.1-9.8,3.6-14.8c-0.3-2.5-1.2-4.8-2.9-6.5c-1.7-1.7-4.1-2.7-6.6-3c-2.6-0.3-5.3,0.1-7.9,0.9c-2.6,0.8-5.1,1.9-7.6,3.3
		c4.3-3.5,9.6-6.3,15.6-6.4c3,0,6.1,1,8.5,3c2.4,2.1,3.8,5.1,4.4,8.1c0.6,3,0.3,6.1-0.3,9c-0.6,2.9-1.7,5.7-3,8.3
		c-1.3,2.6-3,5-4.8,7.3c-1.8,2.2-3.9,4.4-6.1,6.2c-4.5,3.6-9.9,6.6-16,7.4c-3,0.3-6.3,0-9.3-1.5c-0.4-0.2-0.7-0.4-1.1-0.6
		c-0.3-0.2-0.8-0.5-1-0.7l-0.4-0.3l-0.1-0.1l-0.2-0.2l-0.2-0.2c-0.3-0.3-0.6-0.6-0.8-0.9c-1.1-1.2-1.8-2.7-2.4-4.2
		c-1-3-1.1-6.1-0.7-9c0.5-2.9,1.4-5.7,2.6-8.3C282.6,366.6,286.2,362.1,290.6,358.6z"/>
	<path class="st3" d="M235.6,370.1c0.6-2.7,0.9-5.4,0.6-8.1c-0.2-2.6-1-5.2-2.6-7.2c-3.1-4.1-8.7-4.6-13.5-3.1
		c-4.9,1.5-9.4,4.4-13.1,8c-3.8,3.6-6.9,7.9-9,12.6c-2.1,4.6-3.3,9.9-2.1,14.5c0.6,2.3,1.8,4.2,3.7,5.5c1.8,1.2,4.2,1.8,6.7,1.8
		c2.5,0,5-0.7,7.4-1.6c2.4-0.9,4.8-2.2,7-3.7c4.4-3,8.3-6.9,11.5-11.4c-2.4,5-5.9,9.5-10.2,13.1c-4.3,3.6-9.5,6.5-15.6,7
		c-3,0.2-6.2-0.2-9-2c-1.4-0.9-2.6-2-3.5-3.3c-1-1.3-1.7-2.8-2.1-4.3c-0.9-3-0.9-6.1-0.5-9.1c0.4-2.9,1.3-5.8,2.5-8.4
		c2.5-5.3,6-10,10.2-13.8c4.3-3.8,9.4-7,15.1-8.2c2.9-0.6,5.9-0.8,8.9,0c1.5,0.4,2.9,1,4.2,2c1.2,0.9,2.3,2,3.1,3.3
		c1.6,2.6,2.1,5.6,2,8.4C237.4,364.8,236.6,367.5,235.6,370.1z"/>
</g>
<rect x="0.1" y="128.4" class="st3" width="512" height="151"/>
<g>
	<path class="st4" d="M132.1,167.3H97.3v91.5H75.1v-91.5H40.3v-19.4h91.8V167.3z"/>
	<path class="st4" d="M221,258.8h-75.2v-111h73.9l-11.4,19.4h-40.1v25.2h36.4V212h-36.4v27.4h41.7L221,258.8z"/>
	<path class="st4" d="M360.8,258.8h-23.5l-11.4-62.1L296.6,261h-6.7l-29.7-64.3l-12.7,62.1h-21.6l23.9-111.9h9.3l34.6,72.6l34-72.6
		h9.4L360.8,258.8z"/>
	<path class="st4" d="M472,258.8h-22.2v-91.5h-52.1v91.5h-22.3v-111H472V258.8z"/>
</g>
</svg>
