<?xml version="1.0" encoding="utf-8"?>
<!-- Generator: Adobe Illustrator 19.0.1, SVG Export Plug-In . SVG Version: 6.00 Build 0)  -->
<svg version="1.1" id="Слой_1" xmlns="http://www.w3.org/2000/svg" xmlns:xlink="http://www.w3.org/1999/xlink" x="0px" y="0px"
	 viewBox="0 0 256 170.7" style="enable-background:new 0 0 256 170.7;" xml:space="preserve">
<style type="text/css">
	.st0{fill:#F2784B;}
	.st1{fill:#19B5FE;}
	.st2{fill:#2ECC71;}
	.st3{fill:#FFFFFF;}
	.st4{fill:#5B3864;}
</style>
<rect class="st0" width="85.3" height="170.7"/>
<rect x="85.3" class="st1" width="85.3" height="170.7"/>
<rect x="170.7" class="st2" width="85.3" height="170.7"/>
<g>
	<path class="st3" d="M38.2,140.5l-0.3-0.2c-1.1-0.7-1.5-2.1-0.8-3.3l2.6-4.4c0.7-1.1,2.1-1.5,3.3-0.8l0.3,0.2
		c1.1,0.7,1.5,2.1,0.8,3.3l-2.6,4.4C40.8,140.8,39.3,141.2,38.2,140.5z"/>
	<path class="st3" d="M26.1,128.9c0.6-1.7,1.5-3.3,2.9-4.5c0.7-0.6,1.4-1.1,2.2-1.5c0.8-0.4,1.6-0.7,2.5-0.9
		c0.9-0.2,1.7-0.3,2.6-0.3c0.4,0,0.8,0,1.3,0c0.2,0,0.4,0,0.6,0.1l0.6,0.1c1.6,0.2,3.2,0.5,4.8,1c1.6,0.5,3.1,1.1,4.5,1.8
		c1.4,0.7,2.8,1.6,4,2.6c1.3,1,2.4,2.1,3.4,3.4c0.5,0.6,1,1.2,1.4,1.9c0.4,0.7,0.8,1.3,1.2,2.1l-0.1,0.1c-0.8-1.3-1.9-2.5-3-3.6
		c-1.1-1.1-2.3-2-3.6-2.9c-2.5-1.7-5.4-2.9-8.3-3.5c-1.5-0.3-3-0.5-4.5-0.6l-0.6,0c-0.2,0-0.4,0-0.5,0c-0.4,0-0.7,0-1.1,0
		c-0.7,0.1-1.4,0.2-2.1,0.3c-0.7,0.2-1.3,0.4-1.9,0.8c-0.6,0.3-1.1,0.7-1.6,1.2c-0.9,0.9-1.6,2.1-2,3.4c-0.4,1.3-0.5,2.7-0.3,4.1
		c0.2,1.4,0.6,2.7,1.3,3.8c0.7,1.2,1.6,2.1,2.7,2.8c0.5,0.3,1.1,0.6,1.8,0.8c0.3,0.1,0.6,0.2,0.9,0.2c0.1,0,0.2,0,0.2,0l0.3,0
		l0.6,0.1c1.6,0.2,3.2,0.4,4.8,0.8c0.4,0.1,0.8,0.2,1.2,0.3c0.4,0.1,0.8,0.2,1.2,0.3c0.8,0.2,1.5,0.5,2.3,0.8c1.5,0.6,3,1.3,4.3,2.2
		c0.7,0.5,1.3,1,1.9,1.5c0.3,0.3,0.6,0.6,0.8,0.9c0.3,0.3,0.5,0.6,0.7,1l-0.1,0.1c-0.3-0.2-0.6-0.5-1-0.7c-0.3-0.2-0.7-0.4-1-0.6
		c-0.7-0.3-1.4-0.6-2.1-0.9c-1.4-0.5-2.9-0.9-4.3-1.3c-2.4-0.6-4.8-0.9-7.2-1.2l-3.1,2.8l-2.8-1.5l1.9-1.8c-0.1,0-0.3-0.1-0.4-0.1
		c-0.9-0.2-1.7-0.6-2.5-1.1c-0.8-0.5-1.5-1.1-2.1-1.7c-0.6-0.7-1.2-1.4-1.6-2.2c-0.9-1.6-1.4-3.3-1.6-5
		C25.4,132.4,25.5,130.6,26.1,128.9z"/>
	<path class="st3" d="M12.3,147.4c0.7-0.3,1.4-0.6,2.1-0.8c0.7-0.2,1.4-0.4,2.1-0.6c1.4-0.4,2.8-0.6,4.3-0.8c1.4-0.1,2.9-0.1,4.3,0
		c1.4,0.2,2.8,0.4,4.2,0.8c1.4,0.4,2.7,0.9,4,1.5c0.3,0.2,0.6,0.3,0.9,0.5l0.2,0.1c0.1,0,0.2,0.1,0.3,0.1c0.2,0.1,0.3,0.2,0.5,0.2
		c0.7,0.3,1.4,0.6,2.1,0.9c2.8,1,5.9,1.7,8.9,1.7c1.5,0,3.1-0.2,4.6-0.5c1.5-0.3,3-0.7,4.4-1.3c0.7-0.3,1.4-0.6,2.1-0.9
		c0.2-0.1,0.3-0.2,0.5-0.3l0.3-0.1l0.2-0.1c0.3-0.2,0.6-0.3,0.9-0.5c0.6-0.3,1.3-0.6,2-0.8c0.7-0.3,1.4-0.5,2-0.7
		c1.4-0.4,2.8-0.7,4.2-0.8c1.4-0.2,2.9-0.2,4.3,0c1.4,0.1,2.9,0.4,4.3,0.8c0.7,0.2,1.4,0.4,2.1,0.6c0.7,0.2,1.4,0.5,2.1,0.8
		c-1.3-0.8-2.6-1.4-4-1.9c-1.4-0.5-2.8-0.9-4.3-1.2c-0.7-0.1-1.5-0.2-2.2-0.3c-0.8-0.1-1.5-0.1-2.3,0c-1.5,0.1-3,0.3-4.5,0.6
		c-1.5,0.4-2.9,0.8-4.3,1.4c-0.4,0.1-0.7,0.3-1,0.5c-0.2,0.1-0.3,0.2-0.5,0.2c-0.2,0.1-0.3,0.1-0.5,0.2c-0.6,0.3-1.3,0.5-2,0.8
		c-1.3,0.5-2.7,0.9-4.1,1.1c-1.4,0.3-2.8,0.4-4.2,0.4c-1.4,0-2.8-0.2-4.2-0.4c-1.4-0.3-2.8-0.6-4.1-1.1c-0.7-0.2-1.3-0.5-2-0.8
		c-0.2-0.1-0.3-0.1-0.5-0.2l-0.2-0.1l-0.2-0.1c-0.4-0.2-0.7-0.3-1-0.5c-1.4-0.6-2.8-1.1-4.3-1.4c-1.5-0.3-3-0.6-4.5-0.6
		c-1.5-0.1-3,0-4.5,0.3c-1.5,0.3-2.9,0.7-4.3,1.2C15,146,13.6,146.6,12.3,147.4z"/>
	<path class="st3" d="M51.5,151.9c-1.8,0.7-3.7,1.3-5.6,1.6c-1.9,0.4-3.8,0.5-5.7,0.5c-1.9-0.1-3.8-0.4-5.6-0.9
		c-0.9-0.3-1.8-0.6-2.7-0.9c-0.4-0.2-0.9-0.4-1.3-0.5c-0.2-0.1-0.4-0.2-0.6-0.3l-0.3-0.2c-0.1,0-0.2-0.1-0.3-0.2
		c-0.9-0.5-1.9-0.8-2.8-1.2c-1-0.3-1.9-0.6-2.9-0.8c-1-0.2-2-0.4-3-0.5c-0.5-0.1-1-0.1-1.5-0.1c-0.5,0-1,0-1.5,0c-2,0.1-4,0.5-6,1.1
		c-1,0.3-1.9,0.7-2.8,1.1c-0.5,0.2-0.9,0.4-1.3,0.7c-0.4,0.2-0.9,0.5-1.3,0.8c1.8-0.7,3.7-1.2,5.6-1.6c1.9-0.4,3.8-0.6,5.7-0.5
		c1.9,0.1,3.8,0.4,5.6,0.9c0.9,0.2,1.8,0.5,2.7,0.9c0.9,0.3,1.8,0.7,2.6,1.1c0.1,0.1,0.2,0.1,0.3,0.2c0.1,0.1,0.2,0.1,0.4,0.2
		c0.2,0.1,0.5,0.2,0.7,0.3c0.5,0.2,0.9,0.4,1.4,0.6c1,0.4,1.9,0.7,2.9,0.9c2,0.5,4,0.7,6.1,0.7c2-0.1,4.1-0.4,6-1.1
		c1-0.3,1.9-0.7,2.8-1.1c0.5-0.2,0.9-0.4,1.3-0.7C50.6,152.5,51.1,152.2,51.5,151.9z"/>
</g>
<g>
	<path class="st3" d="M182.2,148l0.1,0c-0.1,0.4-0.1,0.7-0.1,1.1c0,0.4,0.1,0.7,0.2,1.1c0.2,0.7,0.5,1.3,1,1.8
		c0.4,0.5,1,0.9,1.6,1.2c0.3,0.2,0.6,0.3,0.9,0.4c0.3,0.1,0.6,0.2,1,0.3c1.3,0.3,2.7,0.2,4.1,0c0.7-0.1,1.4-0.3,2.1-0.5
		c0.7-0.2,1.4-0.4,2-0.7c2.7-1.1,5.2-2.6,7.5-4.3c0.6-0.4,1.2-0.9,1.7-1.4c0.3-0.2,0.6-0.5,0.8-0.7l0.4-0.4l0.4-0.4
		c0.2-0.2,0.4-0.3,0.6-0.5l14.2-22.6c-0.8-0.6-1.5-1.3-2.3-1.9c-1.6-1.3-3.3-2.4-5-3.4c-0.9-0.5-1.8-0.9-2.7-1.3l-0.3-0.1l-0.2-0.1
		l-0.2-0.1c-0.2-0.1-0.5-0.2-0.7-0.2c-0.5-0.2-1-0.3-1.4-0.4c-1.9-0.5-4-0.6-6-0.5c-1,0.1-2,0.2-3,0.4c-1,0.2-2,0.5-3,0.8l-0.1-0.1
		c0.4-0.3,0.9-0.6,1.4-0.8c0.5-0.2,1-0.5,1.5-0.7c1-0.4,2-0.7,3.1-0.9c2.1-0.4,4.3-0.5,6.5-0.2c0.5,0.1,1.1,0.2,1.6,0.3
		c0.3,0.1,0.5,0.1,0.8,0.2l0.2,0.1l0.2,0.1l0.4,0.1c1.1,0.3,2.1,0.7,3.1,1.2c2,1,3.8,2.2,5.5,3.4c0.9,0.6,1.7,1.3,2.5,2
		c0.8,0.7,1.6,1.4,2.4,2.1l1.2,1l1.2,1c0.4,0.3,0.8,0.7,1.2,1c0.4,0.3,0.8,0.7,1.2,1c0.2,0.2,0.4,0.3,0.6,0.5
		c0.2,0.2,0.4,0.3,0.6,0.4l0.1,0.1l0.2,0.1c0.1,0.1,0.2,0.1,0.3,0.2c0.2,0.1,0.4,0.2,0.6,0.3c0.8,0.4,1.6,0.7,2.5,0.6
		c0.4,0,0.9-0.1,1.3-0.3c0.4-0.2,0.9-0.4,1.3-0.7c0.8-0.6,1.5-1.3,2.2-2.2l0.1,0.1c-0.2,0.5-0.4,1-0.6,1.5c-0.3,0.5-0.6,0.9-1,1.4
		c-0.4,0.4-0.8,0.8-1.3,1.1c-0.5,0.3-1.1,0.6-1.7,0.7c-0.6,0.2-1.2,0.2-1.8,0.1c-0.6-0.1-1.2-0.2-1.8-0.4c-0.3-0.1-0.6-0.2-0.8-0.3
		c-0.1-0.1-0.3-0.1-0.4-0.2l-0.2-0.1l-0.2-0.1c-0.2-0.1-0.5-0.3-0.7-0.4c-0.2-0.1-0.5-0.3-0.7-0.4c-1.7-1.2-3.3-2.5-4.9-3.8
		l-11.4,16.9c0.8-0.3,1.5-0.6,2.3-0.9c1.5-0.5,3.1-0.9,4.8-1c1.6-0.2,3.3-0.2,4.9,0.1c0.4,0.1,0.8,0.1,1.2,0.2
		c0.4,0.1,0.8,0.2,1.3,0.4c0.2,0.1,0.4,0.2,0.7,0.3c0.1,0.1,0.2,0.1,0.4,0.2c0.1,0,0.1,0.1,0.2,0.2l0.1,0.1l0,0l0.1,0l0,0
		c0.2,0.2,0.4,0.5,0.5,0.7c0.1,0.3,0.3,0.5,0.3,0.8c0.1,0.6,0.1,1.1,0.1,1.5c-0.1,0.5-0.2,0.9-0.3,1.3c-0.3,0.8-0.6,1.6-1,2.3
		c-0.4,0.7-0.8,1.4-1.2,2c-0.2,0.3-0.4,0.7-0.6,1l-0.3,0.5c-0.1,0.2-0.2,0.3-0.3,0.5c-1,1.3-2.1,2.4-3.4,3.3c-0.6,0.5-1.3,0.9-2,1.2
		c-0.7,0.4-1.4,0.7-2.1,1l-0.1-0.1c0.6-0.4,1.3-0.8,1.9-1.3c0.6-0.5,1.2-1,1.7-1.5c1.1-1,2-2.2,2.7-3.4c0.1-0.2,0.2-0.3,0.3-0.5
		l0.3-0.5l0.5-1c0.3-0.7,0.6-1.3,0.9-2c0.3-0.7,0.5-1.3,0.7-2c0.1-0.3,0.1-0.6,0.1-0.9c0-0.3,0-0.5-0.1-0.7
		c-0.1-0.2-0.2-0.3-0.3-0.4l0,0c0,0,0,0,0,0l0,0l0,0l0,0c0,0,0,0,0,0c0,0-0.1,0-0.1-0.1c-0.1-0.1-0.2-0.1-0.4-0.1
		c-0.3-0.1-0.6-0.2-0.9-0.2c-0.3-0.1-0.7-0.1-1-0.1c-1.4-0.1-2.8-0.1-4.2,0.2c-2.8,0.4-5.5,1.4-7.9,2.9c-0.6,0.4-1.2,0.8-1.8,1.2
		c-0.6,0.4-1.1,0.9-1.6,1.3l-0.4,0.4l-0.4,0.4c-0.3,0.3-0.6,0.5-0.9,0.8c-0.6,0.5-1.2,1-1.9,1.5c-2.6,1.9-5.4,3.4-8.5,4.4
		c-0.8,0.2-1.6,0.5-2.4,0.6c-0.8,0.2-1.6,0.3-2.4,0.3c-0.8,0-1.7,0-2.5-0.1c-0.8-0.1-1.7-0.3-2.5-0.6c-0.4-0.1-0.8-0.3-1.2-0.5
		c-0.4-0.2-0.7-0.4-1.1-0.7c-0.7-0.5-1.3-1.1-1.7-1.9c-0.4-0.7-0.7-1.6-0.7-2.4C181.7,149.5,181.8,148.7,182.2,148z"/>
	<path class="st3" d="M228.1,119.3c-0.5,1.1-1.8,1.7-2.9,1.2l-0.3-0.1c-1.1-0.5-1.7-1.8-1.2-2.9l1.8-4.4c0.5-1.1,1.8-1.7,2.9-1.2
		l0.3,0.1c1.1,0.5,1.7,1.8,1.2,2.9L228.1,119.3z"/>
</g>
<g>
	<path class="st3" d="M141.5,117.1c-0.9,1-0.8,2.4,0.1,3.3l0.3,0.3c1,0.9,2.4,0.8,3.3-0.1l3.4-3.7c0.9-1,0.8-2.4-0.1-3.3l-0.3-0.3
		c-1-0.9-2.4-0.8-3.3,0.1L141.5,117.1z"/>
	<path class="st3" d="M154.6,128.6l-5.3,1.5c-0.9,0.2-1.8,0.5-2.7,0.7c-0.5,0.1-0.9,0.2-1.4,0.3c-0.5,0.1-1,0.1-1.7-0.1
		c-0.3-0.1-0.7-0.3-0.9-0.6c-0.1-0.1-0.2-0.3-0.3-0.4l-0.2-0.3c-0.2-0.4-0.5-0.8-0.7-1.2c-0.5-0.8-0.9-1.6-1.3-2.5
		c-0.4-0.8-0.8-1.7-1.1-2.5c-0.2-0.4-0.4-0.8-0.5-1.2c-0.1-0.2-0.2-0.4-0.3-0.5c-0.1-0.1-0.2-0.2,0-0.1l0.3,0.1
		c-0.2,0-0.5-0.1-0.7-0.1c-0.3,0-0.6,0-0.9,0c-0.6,0-1.2,0-1.9,0.1c-1.3,0.1-2.5,0.2-3.8,0.3c-2.5,0.2-5,0.6-7.5,0.9
		c-1.2,0.2-2.5,0.4-3.6,0.6c-0.6,0.1-1.2,0.3-1.7,0.4c-0.2,0.1-0.5,0.2-0.6,0.2c-0.1,0-0.1,0.1-0.1,0c0,0,0.2-0.1,0.3-0.6
		c0-0.1,0-0.3,0-0.4l0,0.1l0,0l0,0c0,0,0-0.1,0-0.1l0,0c0,0,0,0.1,0.1,0.2c0.1,0.2,0.2,0.4,0.4,0.7c0.3,0.5,0.7,1,1,1.5l2.3,3.1
		c1.5,2.1,3.1,4.2,4.2,6.8c0.3,0.7,0.5,1.3,0.7,2.1c0.1,0.8,0.2,1.6-0.1,2.5l-0.1,0.2l0,0.1l-0.1,0.1l-0.1,0.2
		c-0.1,0.3-0.3,0.4-0.4,0.6c-0.3,0.3-0.6,0.6-0.9,0.9c-0.6,0.5-1.3,0.8-1.9,1.1c-1.3,0.5-2.6,0.8-3.9,1.1c-1.3,0.2-2.6,0.4-3.9,0.5
		c-2.6,0.2-5.2,0.2-7.8,0.1l0-0.1c2.5-0.3,5.1-0.7,7.6-1.3c2.5-0.5,5-1.2,7.1-2.3c1-0.5,1.9-1.3,2-1.9c0.2-0.7-0.2-1.8-0.7-2.8
		c-1-2.1-2.6-4.1-4.2-6l-2.4-3c-0.4-0.5-0.8-1-1.2-1.6c-0.2-0.3-0.4-0.6-0.6-1c-0.1-0.2-0.2-0.4-0.3-0.7l-0.1-0.2
		c0-0.1-0.1-0.2-0.1-0.3l0-0.2c0-0.2,0-0.4,0-0.6c0.2-0.8,0.6-1.2,0.8-1.4c0.3-0.2,0.5-0.4,0.7-0.5c0.4-0.2,0.8-0.4,1.1-0.5
		c0.7-0.2,1.4-0.4,2.1-0.6c1.3-0.3,2.6-0.5,3.9-0.6c2.6-0.3,5.2-0.4,7.8-0.5c1.3,0,2.6,0,3.9,0c0.7,0,1.3,0,2,0.1
		c0.3,0,0.7,0.1,1,0.1c0.4,0,0.7,0.1,1.2,0.2l0.2,0.1l0.1,0.1c0.6,0.4,0.7,0.7,0.9,1c0.1,0.3,0.3,0.5,0.3,0.7
		c0.2,0.5,0.3,0.9,0.5,1.3c0.3,0.9,0.6,1.7,0.9,2.6c0.3,0.8,0.6,1.7,1,2.5c0.2,0.4,0.4,0.8,0.6,1.2c0.3,0.5,0.2,0.6,0.5,0.7
		c0.2,0.1,0.6,0.1,1,0.1c0.4,0,0.9-0.1,1.3-0.1c0.9-0.1,1.8-0.3,2.7-0.4c1.8-0.3,3.6-0.6,5.4-0.8L154.6,128.6z"/>
	<path class="st3" d="M145.2,136.6c-1.8,2.1-3.3,4.5-4.2,7c-0.5,1.3-0.8,2.6-0.9,3.9c-0.1,1.3,0,2.6,0.5,3.7c0.2,0.6,0.5,1.1,1,1.5
		c0.1,0.1,0.2,0.2,0.3,0.3l0.1,0.1c0,0,0.1,0,0,0l0.1,0l0.2,0.2c0.1,0.1,0.2,0.1,0.3,0.2c0.1,0.1,0.2,0.1,0.4,0.2
		c1,0.5,2.3,0.6,3.5,0.4c2.5-0.4,4.9-1.7,6.9-3.3c1-0.8,1.9-1.8,2.8-2.8c0.8-1,1.6-2.1,2.2-3.3c1.3-2.3,2.1-4.9,1.8-7.4
		c-0.1-1.2-0.6-2.4-1.5-3.2c-0.8-0.9-2-1.4-3.3-1.5c-1.3-0.1-2.6,0.1-3.9,0.4c-1.3,0.4-2.6,1-3.8,1.6c2.1-1.8,4.8-3.1,7.8-3.2
		c1.5,0,3.1,0.5,4.3,1.5c1.2,1,1.9,2.6,2.2,4.1c0.3,1.5,0.2,3-0.1,4.5c-0.3,1.5-0.8,2.8-1.5,4.1c-0.7,1.3-1.5,2.5-2.4,3.7
		c-0.9,1.1-1.9,2.2-3.1,3.1c-2.3,1.8-5,3.3-8,3.7c-1.5,0.2-3.2,0-4.6-0.7c-0.2-0.1-0.4-0.2-0.5-0.3c-0.2-0.1-0.4-0.3-0.5-0.4
		l-0.2-0.2l-0.1,0l-0.1-0.1l-0.1-0.1c-0.2-0.1-0.3-0.3-0.4-0.4c-0.5-0.6-0.9-1.3-1.2-2.1c-0.5-1.5-0.6-3-0.3-4.5
		c0.2-1.5,0.7-2.8,1.3-4.1C141.2,140.6,143.1,138.3,145.2,136.6z"/>
	<path class="st3" d="M117.7,142.3c0.3-1.3,0.4-2.7,0.3-4c-0.1-1.3-0.5-2.6-1.3-3.6c-1.6-2.1-4.3-2.3-6.7-1.6
		c-2.4,0.7-4.7,2.2-6.6,4c-1.9,1.8-3.5,3.9-4.5,6.3c-1.1,2.3-1.6,5-1,7.2c0.3,1.1,0.9,2.1,1.9,2.7c0.9,0.6,2.1,0.9,3.3,0.9
		c1.2,0,2.5-0.3,3.7-0.8c1.2-0.5,2.4-1.1,3.5-1.9c2.2-1.5,4.1-3.4,5.8-5.7c-1.2,2.5-2.9,4.7-5.1,6.6c-2.2,1.8-4.8,3.3-7.8,3.5
		c-1.5,0.1-3.1-0.1-4.5-1c-0.7-0.4-1.3-1-1.8-1.6c-0.5-0.7-0.8-1.4-1.1-2.1c-0.5-1.5-0.5-3.1-0.2-4.5c0.2-1.5,0.7-2.9,1.3-4.2
		c1.2-2.6,3-5,5.1-6.9c2.2-1.9,4.7-3.5,7.6-4.1c1.4-0.3,3-0.4,4.5,0c0.7,0.2,1.4,0.5,2.1,1c0.6,0.4,1.2,1,1.5,1.6
		c0.8,1.3,1.1,2.8,1,4.2C118.6,139.7,118.3,141.1,117.7,142.3z"/>
</g>
<rect y="21.5" class="st3" width="256" height="75.5"/>
<g>
	<path class="st4" d="M66,41H48.6v45.8H37.5V41H20.1v-9.7H66V41z"/>
	<path class="st4" d="M110.5,86.7H72.9V31.2h36.9l-5.7,9.7H84v12.6h18.2v9.7H84V77h20.8L110.5,86.7z"/>
	<path class="st4" d="M180.3,86.7h-11.7l-5.7-31.1l-14.7,32.2h-3.4L130,55.7l-6.4,31.1h-10.8l12-56h4.7l17.3,36.3l17-36.3h4.7
		L180.3,86.7z"/>
	<path class="st4" d="M235.9,86.7h-11.1V41h-26v45.8h-11.2V31.2h48.3V86.7z"/>
</g>
</svg>
