<?xml version="1.0" encoding="utf-8"?>
<!-- Generator: Adobe Illustrator 19.0.1, SVG Export Plug-In . SVG Version: 6.00 Build 0)  -->
<svg version="1.1" id="Слой_1" xmlns="http://www.w3.org/2000/svg" xmlns:xlink="http://www.w3.org/1999/xlink" x="0px" y="0px"
	 viewBox="0 0 192.7 543.6" style="enable-background:new 0 0 192.7 543.6;" xml:space="preserve">
<style type="text/css">
	.st0{fill-rule:evenodd;clip-rule:evenodd;fill:#5B3864;}
	.st1{fill-rule:evenodd;clip-rule:evenodd;fill:#FFFFFF;}
	.st2{fill-rule:evenodd;clip-rule:evenodd;fill:#19B5FE;}
	.st3{fill-rule:evenodd;clip-rule:evenodd;fill:#2ECC71;}
	.st4{fill-rule:evenodd;clip-rule:evenodd;fill:#DAD442;}
	.st5{fill-rule:evenodd;clip-rule:evenodd;fill:#F2784B;}
	.st6{fill-rule:evenodd;clip-rule:evenodd;fill:#FFDE97;}
	.st7{fill-rule:evenodd;clip-rule:evenodd;fill:#FFE900;}
	.st8{fill-rule:evenodd;clip-rule:evenodd;fill:#FFBA68;}
	.st9{fill-rule:evenodd;clip-rule:evenodd;fill:#8699DF;}
	.st10{fill-rule:evenodd;clip-rule:evenodd;fill:#363636;}
</style>
<path class="st0" d="M158.1,169.9c0-0.2-0.2-0.4-0.4-0.5c-0.1-0.3-0.2-0.7-0.5-0.9c0-0.4-0.1-0.7-0.5-0.9c0-0.4-0.1-0.7-0.5-0.9
	c-0.1-0.3-0.1-0.6-0.2-0.8c0-0.5,0-0.9,0.1-1.4c0.2-1.4,0.1-1.9-0.6-3.3c-0.8-1.5-0.6-2.9,0.1-4.4c1.3-2.4,2.8-4.7,4.6-6.8
	c1.3-1.6,2.4-3.3,3.6-5c0.6-0.8,1-1.7,1.8-2.3c0.3-0.2,0.5-0.6,0.6-1c0.6-2,2.2-2.7,3.9-3.1c1-0.2,1.6-0.6,2.3-1.3
	c0.8-0.9,1.7-1.6,2.7-2c0.6-0.3,1.3-0.4,2-0.3c0.6,0.1,1.1,0.3,1.3,0.8c0.3,0.9,0.7,1,1.5,0.7c0.4-0.1,0.9-0.1,1.4-0.1
	c1.9,0.1,2.8,1.5,2.2,3.3c-0.1,0.2-0.2,0.4-0.3,0.6c-1.8-0.2-3.6-0.5-5.4-0.5c-1.7,0.3-4,3.2-3.8,4.9c0.1,1.1,0.3,2.1,0.9,3.1
	c1.3,2,2.1,4.2,2.6,6.6c0.7,3,1,3.1,4,3.4c1.3,0.4,2.7,0.5,3.8,1.5c0.2,0.2,0.3,0.3,0.4,0.5c0.6,1,0.3,1.9-0.7,2.2
	c-0.8,0.3-1.6,0.4-2.4,0.6c-0.9,0.2-1.7,0.4-2.4,1.2c-1,1-2.3,1.1-3.6,1.1c-1,0-1.5,0.3-2,1.2c-0.4,0.8-1,1.5-1.5,2.3
	c-0.5,0.8-1.1,1.4-2,1.8c-0.4,0.2-0.7,0.5-1.1,0.8c-2,2.2-4,2.6-6.8,1.5c-0.2-0.1-0.4-0.2-0.6-0.3c-0.6-1.1-1.5-1.4-2.7-1.3
	c-0.2,0-0.3-0.1-0.5-0.1c-0.2-0.3-0.5-0.4-0.9-0.5C158.5,170.1,158.4,170,158.1,169.9z"/>
<path class="st1" d="M189,155.2c-0.1-2.3-0.1-4.5-0.7-6.7c-0.6-2.2-1.8-4.3-3.1-6.2c-1.1-1.4-1.9-2.6-3.6-3.3
	c-0.1-0.1-0.2-0.2-0.3-0.3c-1.8-1.6-4-0.8-5.2,1c-1.4,1.9-1.6,4.6-1.6,6.9c0,3.1,0.9,5.9,2.3,8.3c0.8,2.4,2.4,4.8,4.7,5.1
	c1.8,1.3,3.4,1.8,5.6,0.5C189,159.5,189.1,157.1,189,155.2z"/>
<path class="st2" d="M58.7,235.2c0.1-0.1,0-0.2-0.1-0.3c-0.3-1.2-0.4-2.5,0.1-3.7l0,0c0.3-0.3,0.2-0.7,0.5-0.9l0,0
	c0.1-0.2,0.3-0.3,0.4-0.5l0,0c0.3-0.2,0.2-0.7,0.5-0.9l0,0c0.2-0.3,0.1-0.7,0.5-0.9l-0.1,0.1c0.1-0.3,0.2-0.4,0.5-0.5l0,0
	c0.1-0.2,0.3-0.4,0.5-0.5l0,0c0.1-0.3,0.2-0.4,0.5-0.5l0,0c0.1-0.3,0.2-0.4,0.5-0.5l0,0c0.1-0.2,0.3-0.4,0.5-0.5l0,0
	c0.1-0.2,0.3-0.4,0.5-0.5l0,0c0.1-0.3,0.2-0.4,0.5-0.5l0,0c0.1-0.2,0.3-0.4,0.5-0.5l0,0c0.1-0.2,0.3-0.4,0.5-0.5l0,0
	c0.1-0.2,0.3-0.4,0.5-0.5l0,0c0.1-0.3,0.2-0.4,0.5-0.5l0,0c0.1-0.7,0.5-1.1,1.1-1.4c0.1-0.1,0.2-0.1,0.4-0.2c-0.3,0-0.5,0.3-0.8,0.4
	c-0.4,0.5-1.2,0.3-1.7,0.7l0,0c-0.3,0.3-0.7,0.2-1,0.4l0,0c-0.2,0.3-0.7,0.2-0.9,0.5l0,0c-0.3,0.2-0.7,0.2-0.9,0.4l0,0
	c-0.3,0.4-1,0-1.3,0.5l0,0c-0.2,0.2-0.4,0.3-0.6,0.4l-0.2,0l-0.1,0.1c-0.5,0.3-1.1,0.1-1.5,0.4c-0.2,0-0.4,0-0.6,0
	c-0.5-0.3-1.1,0-1.5-0.4l-0.1-0.1l-0.2,0c-0.3,0-0.5-0.2-0.6-0.4l0,0c-0.2-0.3-0.7-0.2-0.8-0.6l0,0c-0.3-0.1-0.4-0.2-0.5-0.5l0.1,0
	c-0.4-0.1-0.3-0.6-0.6-0.9l0,0c-0.3-0.3-0.2-0.7-0.4-0.9l0,0c-0.4-1.2-0.5-2.4,0-3.7l0,0c0.3-0.4,0-1,0.4-1.4l0,0
	c0.4-0.4,0-1.1,0.6-1.4l-0.1,0.1c0.1-0.2,0.2-0.4,0.4-0.5l0,0c0.1-0.2,0.3-0.3,0.4-0.5l0,0c0.3-0.2,0.2-0.7,0.5-0.9l0,0
	c0.3-0.3,0.2-0.7,0.5-0.9l0,0c0.1-0.2,0.3-0.4,0.5-0.5l0,0c0.1-0.2,0.3-0.3,0.4-0.5l0,0c0.3-0.2,0.2-0.7,0.5-0.9l0,0
	c0.1-0.2,0.3-0.4,0.4-0.5l0,0c0.2-0.2,0.3-0.3,0.5-0.5l0,0c0.2-0.2,0.3-0.3,0.4-0.5l0,0c0.3-0.2,0.2-0.7,0.6-0.9l0,0
	c0.1-0.3,0.3-0.4,0.5-0.5l0,0c0.1-0.2,0.3-0.4,0.5-0.5l0,0c0.3-0.5,0.5-1,1-1.4l0,0c0.1-0.2,0.3-0.4,0.5-0.5l0,0
	c0.1-0.3,0.2-0.4,0.5-0.5l0,0c0.1-0.2,0.3-0.4,0.4-0.5l0,0c0.2-0.2,0.2-0.5,0.4-0.7c0.2-0.4,0.6-0.6,0.8-0.9
	c-0.1-0.1-0.1,0.1-0.1,0.1c-0.3,0.3-0.6,0.7-1.1,0.8c-0.5,0.1-1-0.1-1.4,0.2l0,0c-0.2,0.3-0.7,0.2-0.9,0.5l0,0
	c-0.3,0.3-0.7,0.2-1,0.4l-0.2,0l-0.2,0.1c-0.6,0.3-1.2,0.3-1.8,0l-0.2-0.1l-0.2,0c-0.9-0.5-2,0.2-2.9-0.5l0,0
	c-0.3-0.2-0.7-0.1-0.9-0.5l0,0c-0.2-0.1-0.4-0.3-0.5-0.4l0,0c-0.2-0.1-0.3-0.3-0.5-0.5l0,0c-0.2-0.1-0.4-0.3-0.4-0.5l0,0
	c-0.4-0.2-0.3-0.7-0.5-0.9l0,0c-0.4-0.4-0.1-1.1-0.4-1.5c0-0.4,0-0.7,0-1.1c0.3-0.5,0-1.1,0.4-1.5l0,0c0.3-0.3,0.2-0.7,0.5-0.9l0,0
	c0.1-0.2,0.3-0.3,0.4-0.5l0,0c0.2-0.1,0.3-0.3,0.5-0.5l0,0c0.3-0.2,0.2-0.7,0.6-0.9l-0.1,0c0.1-0.2,0.3-0.4,0.5-0.5l0,0
	c0.1-0.2,0.3-0.4,0.5-0.5l0,0c0.1-0.2,0.3-0.3,0.5-0.5l0,0c0.3-0.2,0.2-0.7,0.6-0.9l-0.1,0.1c0.1-0.3,0.2-0.4,0.5-0.5l0,0.1
	c0.3-0.4,0.6-0.7,1-1l-0.1,0c0.1-0.3,0.2-0.4,0.5-0.5l0,0c0.1-0.2,0.3-0.4,0.5-0.5l0,0c0.1-0.2,0.3-0.4,0.5-0.5l0,0
	c0.1-0.2,0.3-0.4,0.4-0.5l0,0c0.2-0.4,0.5-0.7,0.9-0.9l0,0c0.2-0.1,0.3-0.3,0.5-0.4l0,0c0.3-0.6,0.8-1,1.3-1.4l0,0
	c0.2-0.1,0.3-0.3,0.4-0.4l0,0c0.3-0.3,0.6-0.6,0.9-0.9l0,0c0.2-0.1,0.3-0.3,0.5-0.4l0,0c0.1-0.2,0.3-0.3,0.4-0.5l0,0
	c0.2-0.1,0.3-0.3,0.4-0.4l0,0c0.2-0.1,0.3-0.3,0.5-0.4l0,0c0.2-0.2,0.3-0.3,0.4-0.5l0,0c0.2-0.1,0.3-0.3,0.4-0.4l0,0
	c0.2-0.1,0.3-0.3,0.5-0.4l0,0c0.1-0.2,0.3-0.3,0.5-0.5l0,0c0.2-0.2,0.3-0.3,0.5-0.5l0,0c0.1-0.2,0.3-0.3,0.5-0.4l0,0
	c0.1-0.2,0.3-0.4,0.5-0.5l0,0c0.1-0.2,0.3-0.4,0.5-0.5l0,0c0.1-0.2,0.3-0.4,0.5-0.5l0,0c0.1-0.2,0.3-0.4,0.5-0.5l0,0
	c0.1-0.2,0.3-0.4,0.5-0.5l0,0c0.2-0.4,0.6-0.2,0.8-0.6l0,0c0.2-0.1,0.3-0.3,0.5-0.4l0,0c0.2-0.2,0.3-0.3,0.5-0.4l0,0
	c0.2-0.3,0.3-0.7,0-1l0,0c-0.3-0.2-0.7-0.1-0.9-0.5l0,0c-0.8-0.4-1.4-1-1.9-1.8l0,0c-0.3-0.2-0.2-0.7-0.5-1l0,0
	c-0.3-0.3-0.7-0.2-1,0l0,0c-0.6,0.5-1.2,1-1.8,1.4l0,0c-0.2,0.2-0.3,0.4-0.5,0.4l0,0c-0.1,0.3-0.2,0.4-0.5,0.5l0,0
	c-0.1,0.3-0.2,0.4-0.5,0.5l0-0.1c-0.1,0.4-0.6,0.3-0.9,0.6l0,0c-0.3,0.3-0.7,0.2-1,0.4l0,0c-0.9,0.5-1.8,0.4-2.7,0l0,0
	c-0.3-0.4-1.1,0-1.3-0.5l0,0c-0.2-0.1-0.4-0.3-0.5-0.4l0,0c-0.2-0.1-0.3-0.3-0.5-0.5l0,0c-0.2-0.2-0.3-0.3-0.4-0.5l0,0
	c-0.3-0.2-0.2-0.7-0.5-0.9l0,0c-0.4-0.4-0.1-1-0.4-1.5c0-0.4,0-0.8,0-1.1c0.4-0.6-0.1-1.4,0.5-2l0,0c0.2-0.3,0.2-0.7,0.4-1l0,0
	c0.3-0.2,0.2-0.7,0.6-0.9l-0.1,0.1c0.1-0.3,0.2-0.4,0.5-0.5l0,0c0.1-0.2,0.3-0.4,0.4-0.5l0,0c0.3-0.4,0.5-1,1-1.4l0,0
	c0.1-0.2,0.3-0.4,0.4-0.5l0,0c0.3-0.3,0.1-0.7,0.6-0.9l-0.1,0.1c0.1-0.3,0.2-0.4,0.5-0.5l0,0c0.3-0.3,0.6-0.7,1-1l0,0
	c0.1-0.2,0.3-0.4,0.4-0.5l0,0c0.1-0.2,0.3-0.3,0.5-0.5l0,0c0.1-0.2,0.3-0.3,0.5-0.5l0,0c0.3-0.5,0.5-1,1-1.3l0,0.1
	c0.3-0.4,0.6-0.7,0.9-1l0,0c0.1-0.2,0.3-0.4,0.4-0.5l0,0c0.1-0.2,0.3-0.3,0.5-0.5l0,0c0.1-0.2,0.3-0.4,0.5-0.5l0,0
	c0.1-0.2,0.3-0.4,0.5-0.5l0,0c0.1-0.2,0.3-0.3,0.4-0.5l0,0c0.2-0.1,0.3-0.3,0.4-0.4l0,0c0.2-0.1,0.3-0.3,0.4-0.4l0,0
	c0.2-1,0.9-1.8,1.7-2.4c1-1.1,2.3-2,3.3-3.2c0.1-0.1,0.3-0.3,0.4-0.4c-0.3,0.1-0.5,0.4-0.7,0.6c-0.9,1.1-2,1.9-3.1,2.9
	c-0.6,0.7-1.3,1.3-2.1,1.6l0,0c-0.2,0.1-0.3,0.3-0.5,0.4l0,0c-0.1,0.2-0.3,0.4-0.5,0.5l0,0c-0.1,0.2-0.3,0.4-0.5,0.5l0,0
	c-0.1,0.2-0.3,0.4-0.5,0.5l0,0c-0.2,0.4-0.6,0.2-0.8,0.6l-0.1,0.1c-0.2,0.1-0.3,0.2-0.4,0.4l-0.1,0c-0.2,0.1-0.3,0.3-0.5,0.4l0,0
	c-0.2,0.2-0.4,0.4-0.6,0.4l-0.2,0l-0.1,0.1c-0.3,0.2-0.7,0.2-1,0.4l-0.2,0l-0.2,0.1c-0.5,0.4-1.1,0.1-1.6,0.4l-0.1,0l-0.1,0.1
	c-0.6,0.4-1.2,0.4-1.9,0l-0.1-0.1l-0.1,0c-0.4-0.1-0.8-0.1-1.1-0.4l0,0c-0.2-0.3-0.7-0.2-0.9-0.5l0,0c-0.2-0.1-0.4-0.2-0.5-0.5l0,0
	c-0.2-0.1-0.4-0.3-0.5-0.5l0,0c-0.4-0.2-0.3-0.6-0.6-0.9l0,0c-0.3-0.3-0.3-0.7-0.4-1.1c0.1-0.1,0-0.2-0.1-0.3
	c-0.3-0.6-0.3-1.2,0-1.8c0.1-0.1,0.1-0.2,0.1-0.3c0.2-0.3,0.1-0.8,0.4-1.1l0,0c0.3-0.2,0.2-0.7,0.4-0.9c0.1-0.1,0.1-0.2,0.1-0.3
	c0.1-0.3,0.2-0.7,0.2-1c0.1-0.3,0.1-0.4-0.3-0.3c-0.3,0-0.7,0-0.9,0.2l0,0c-0.4,0.5-1.1,0.1-1.5,0.5c-0.4,0-0.7,0-1.1,0
	c-0.4-0.3-1.1,0-1.5-0.4l0,0c-0.2-0.3-0.6-0.2-0.9-0.5l0,0c-0.2-0.3-0.7-0.2-0.8-0.6l0.1,0.1c-0.5-0.3-0.7-0.9-1-1.4l0,0
	c-0.3-0.3-0.3-0.7-0.5-1c0.1-0.1,0-0.2-0.1-0.3c-0.3-0.9-0.3-1.8,0-2.8c0.2-0.6,0.2-1.1,0.1-1.7c0.3-0.5,0-1.1,0.5-1.5l0,0
	c0.2-0.5,0.5-1,1-1.4l0,0c0.1-0.2,0.3-0.4,0.4-0.5l0,0c0.3-0.3,0.2-0.7,0.5-0.9l0,0c0.1-0.2,0.3-0.3,0.4-0.5l0,0
	c0.2-0.1,0.3-0.3,0.4-0.5l0,0c0.3-0.2,0.2-0.7,0.5-0.9l0,0c0.1-0.3,0.2-0.7,0.5-1c0,0,0-0.2,0-0.2s-0.1,0.1-0.1,0.2
	c-0.4,0.3-0.9,0.2-1.3,0.4l0,0c-1.2,0.5-2.4,0.4-3.7,0.1l0,0c-0.3-0.3-0.7-0.2-0.9-0.4l0,0c-0.2-0.3-0.7-0.2-0.8-0.5l0,0
	c-0.2-0.1-0.4-0.3-0.5-0.4l0,0c-0.2-0.1-0.3-0.3-0.5-0.4l0,0c-0.1-0.2-0.3-0.3-0.4-0.4l0,0c-0.1-0.2-0.3-0.3-0.4-0.5l0,0
	c-0.3-0.2-0.2-0.7-0.5-0.9l0,0c-0.4-0.4-0.1-1-0.4-1.5c0-0.4,0-0.8,0-1.2c0.3-0.4,0-1.1,0.4-1.5l0,0c0.3-0.2,0.2-0.7,0.5-0.9l0,0
	c0.4-0.7,0.9-1.2,1.4-1.8l0,0c0.1-0.2,0.3-0.3,0.4-0.5l0,0c0.2-0.1,0.3-0.3,0.4-0.4l0,0c0.2-0.1,0.3-0.3,0.5-0.4l0,0
	c0.2-0.2,0.3-0.3,0.5-0.4l0,0c0.1-0.2,0.3-0.3,0.4-0.5l0,0c0.2-0.2,0.3-0.3,0.4-0.5l0,0c0.2-0.1,0.3-0.3,0.4-0.4
	c0.1-0.1,0.2-0.1,0.1-0.3c0-0.3,0.2-0.5,0.4-0.7l0,0c0.1-0.2,0.3-0.3,0.4-0.5l0,0c0.2-0.1,0.3-0.3,0.4-0.4l0,0
	c0.2-0.8-0.4-0.6-0.8-0.7c-0.7-0.1-1.4,0.2-2-0.3l0,0c-0.3-0.2-0.7-0.2-0.9-0.5l0,0c-0.8-0.4-1.4-1.1-1.8-1.8l0,0
	c-0.3-0.2-0.2-0.7-0.5-1l0,0c-0.4-1.2-0.4-2.4,0-3.7l0,0c0.2-0.3,0.2-0.7,0.4-1v0c0.4-0.3,0-1.1,0.6-1.4l0,0
	c0.2-0.3,0.1-0.8,0.5-0.9l-0.1,0.1c0.1-0.3,0.2-0.4,0.5-0.5l0,0c0.1-0.2,0.3-0.4,0.5-0.5l0,0c0.3-0.3,0.2-0.7,0.5-0.9l0,0
	c0.1-0.2,0.3-0.4,0.4-0.5l0,0c0.2-0.1,0.3-0.3,0.4-0.5l0,0c0.3-0.2,0.2-0.7,0.5-0.9l0,0c0.1-0.2,0.3-0.3,0.4-0.5l0,0
	c0.4-0.4,0.6-1,1-1.3l0,0c0.2-0.3,0.1-0.7,0.5-0.9l-0.1,0.1c0.1-0.3,0.2-0.4,0.5-0.5l0,0c0.1-0.2,0.3-0.4,0.5-0.5l0,0
	c0.1-0.3,0.2-0.4,0.5-0.5l0,0c0.1-0.2,0.3-0.3,0.4-0.5l0,0c0.3-0.3,0.6-0.6,0.9-0.9l0,0c0.2-0.1,0.3-0.3,0.5-0.4l0,0
	c0.1-0.2,0.3-0.4,0.5-0.5l0,0c0.1-0.2,0.3-0.4,0.5-0.5l0,0c0.1-0.2,0.3-0.4,0.5-0.5l0,0c0.3-0.3,0.6-0.7,1-1L51.7,96
	c0.1-0.4,0.6-0.3,0.9-0.6l0,0c0.4-0.4,0.9-0.6,1.3-0.9l0,0c0.3-0.2,0.7-0.2,0.9-0.4l0,0c0.3-0.3,0.7-0.2,0.9-0.4l0,0
	c1.1-0.4,2.1-0.5,3.2,0.1l-0.1,0c0.3,0.1,0.4,0.2,0.5,0.4l0,0c0.2,0.1,0.4,0.3,0.5,0.5l0,0c0.5,0.5,0.8,1.6,1.9,0.9l0,0
	c0.3-0.2,0.7-0.2,1-0.4c0.1,0.1,0.3,0,0.4-0.1c0.6-0.3,1.2-0.3,1.8,0c0.1,0.1,0.2,0.1,0.3,0.1c0.3,0.2,0.8,0.1,1,0.5l0,0
	c0.2,0.1,0.4,0.3,0.5,0.4l0,0c0.1,0.2,0.3,0.3,0.5,0.4l0,0c0.1,0.2,0.3,0.3,0.4,0.5l0,0c0.2,0.1,0.4,0.3,0.5,0.5l0,0
	c0.4,0.2,0.3,0.7,0.6,0.9l0,0c0.3,0.3,0.2,0.7,0.4,1l0,0c0.4,0.9,0.4,1.8,0,2.7l0,0c-0.2,0.3-0.2,0.7-0.4,1l0,0
	c-0.3,0.3-0.2,0.7-0.5,0.9c-0.1,0.1-0.1,0.2-0.1,0.3c0,0.3-0.2,0.5-0.3,0.8c0,0.2-0.4,0.3-0.2,0.6c0.1-0.1,0.2-0.1,0.4-0.1
	c0.2,0.1,0.4,0,0.6-0.1l0-0.1c0.5-0.3,0.9-0.6,1.4-0.9l0,0c0.2-0.3,0.7-0.2,0.9-0.5l0,0c1.5-0.4,3.1-0.4,4.6,0l0,0
	c0.2,0.3,0.7,0.2,0.9,0.4l0,0c0.2,0.3,0.7,0.2,0.8,0.6l-0.1,0c0.5,0.4,0.7,0.9,1,1.4l0,0c0.5,0.4,0.1,1,0.5,1.5c0,0.4,0,0.8,0,1.2
	c-0.3,0.4,0,1.1-0.4,1.5c-0.1,0.1-0.1,0.2,0,0.3c-0.3,0.5,0,1.1-0.4,1.5c-0.1,0.1-0.1,0.1-0.1,0.3c0,0.3-0.2,0.5-0.4,0.7l0,0
	c-0.3,0.5-0.6,1-0.9,1.4l0,0c-0.2,0.3-0.2,0.7-0.5,0.9l0,0c-0.1,0.2-0.3,0.4-0.4,0.5l0,0c-0.1,0.2-0.3,0.3-0.4,0.5l0,0
	c-0.3,0.3-0.4,0.7-0.3,1c0.1,0.3,0.5,0,0.7-0.1l0,0c0.2-0.1,0.3-0.3,0.5-0.4l0,0c0.1-0.2,0.3-0.3,0.5-0.5l0,0
	c0.1-0.2,0.3-0.4,0.5-0.4l0,0c0.1-0.4,0.6-0.3,0.8-0.6l0,0c0.2-0.1,0.3-0.3,0.5-0.4l0,0c0.2-0.1,0.3-0.3,0.5-0.4l0,0
	c0.2-0.3,0.7-0.2,0.9-0.5l0,0c0.2-0.1,0.3-0.3,0.5-0.4l0,0c0.2-0.2,0.3-0.3,0.5-0.4l0,0c0.2-0.4,0.7-0.2,0.9-0.5l0,0
	c0.2-0.1,0.3-0.3,0.5-0.4l0,0c0.2-0.3,0.7-0.2,0.9-0.5l0,0c0.3-0.2,0.7-0.2,1-0.4l0,0c0.2-0.3,0.7-0.3,0.9-0.5l0,0
	c1.1-0.4,2.1-0.4,3.2,0l0,0c0.3,0.2,0.7,0.1,0.9,0.5l0,0c0.2,0.1,0.4,0.3,0.5,0.5l0,0c0.2,0.1,0.4,0.3,0.5,0.5l0,0
	c0.3,0.2,0.2,0.7,0.5,0.9l0,0c0.3,0.3,0.2,0.7,0.4,1.1c0,0.5,0,1,0,1.5c-0.4,0.8,0.1,1.7-0.4,2.5c-0.1,0.1-0.1,0.2-0.1,0.3
	c-0.2,0.6-0.5,1.1-0.9,1.5l0,0c-0.2,0.3-0.1,0.6-0.2,0.9c0,0,0,0.2,0,0.2s0.1-0.2,0.1-0.2c0.3-0.3,0.7-0.2,1-0.4l0,0
	c0.2-0.2,0.3-0.4,0.5-0.4l0,0c0.3-0.5,0.9-0.7,1.4-1l0,0c0.1-0.2,0.3-0.4,0.5-0.5l0,0c0.1-0.2,0.3-0.4,0.5-0.5l0,0
	c0.2-0.4,0.7-0.2,0.8-0.6l0,0c0.2-0.1,0.3-0.3,0.5-0.4l0,0c0.2-0.2,0.3-0.3,0.5-0.4l0,0c0.2-0.4,0.6-0.3,0.9-0.6l0,0
	c0.2-0.1,0.3-0.3,0.5-0.4l0,0c0.2-0.3,0.7-0.2,0.9-0.5l0,0c0.2-0.1,0.3-0.3,0.5-0.4l0,0c0.2-0.1,0.3-0.3,0.5-0.4l0,0
	c0.2-0.4,0.7-0.3,0.9-0.5l0,0c0.2-0.2,0.3-0.3,0.5-0.4l0,0c0.2-0.4,0.7-0.3,0.9-0.5l0,0c0.2-0.3,0.7-0.2,0.9-0.5l0,0
	c0.2-0.3,0.7-0.2,0.9-0.5l0,0c0.2-0.3,0.7-0.2,0.9-0.5l0,0c0.3-0.2,0.7-0.2,0.9-0.4l0,0c0.2-0.3,0.7-0.2,1-0.5l0,0
	c0.4-0.5,1-0.1,1.4-0.5c0.1,0.1,0.3,0,0.4-0.1c0.2-0.1,0.3-0.1,0.5,0c0.3,0,0.6,0,0.9,0c0.2-0.1,0.3-0.1,0.5,0
	c0.2,0,0.5,0.1,0.7,0.1c0.4,0.2,0.8,0.1,1.1,0.5l-0.1,0c0.2,0.1,0.4,0.3,0.5,0.5l0,0c0.2,0.1,0.4,0.3,0.5,0.5l-0.1-0.1
	c0.6,0.3,0.1,1,0.5,1.4c-0.1,0.1-0.1,0.3,0,0.4c0.1,0.1,0.1,0.2,0.1,0.3c0,0.1-0.1,0.2-0.1,0.2c-0.1,0.1-0.1,0.2,0,0.4
	c-0.4,0.4,0.1,1.1-0.5,1.4l0.1-0.1c0,0.3-0.2,0.4-0.4,0.6l0,0c-0.3,0.3-0.2,0.7-0.5,0.9l0,0c-0.1,0.2-0.3,0.3-0.4,0.5l0,0
	c-0.2,0.1-0.3,0.2-0.4,0.4c-0.1,0-0.2,0.1-0.2,0.3c0,0.3-0.2,0.5-0.4,0.7l0,0c-0.1,0.2-0.3,0.3-0.4,0.5l0,0
	c-0.3,0.2-0.2,0.7-0.6,0.9l0,0c-0.1,0.2-0.2,0.4-0.5,0.5l0,0c-0.1,0.2-0.3,0.4-0.5,0.5l0,0c-0.1,0.3-0.2,0.4-0.5,0.5l0,0
	c-0.1,0.2-0.3,0.4-0.5,0.5l0,0c-0.1,0.2-0.3,0.4-0.5,0.5l0,0c-0.1,0.2-0.3,0.3-0.4,0.5l0,0c-0.2,0.1-0.3,0.3-0.4,0.4l0,0.1
	c-0.3,0.2-0.2,0.7-0.6,0.8l0,0c-0.1,0.2-0.3,0.4-0.5,0.5l0,0c-0.1,0.2-0.3,0.3-0.4,0.5l0,0c-0.3,0.2-0.2,0.7-0.6,0.9l0.1-0.1
	c-0.1,0.3-0.2,0.4-0.5,0.5l0,0c-0.1,0.3-0.2,0.4-0.5,0.5l0,0c-0.1,0.2-0.3,0.4-0.4,0.5l0,0c-0.1,0.2-0.3,0.3-0.4,0.5l0,0
	c-0.4,0.7-0.5,1.6-1.2,2.1c-0.2,0.2-0.5,0.4-0.6,0.5c0-0.2,0.5-0.2,0.7-0.5c0.5-0.7,1.3-0.8,2-1.2l0,0c0.2-0.1,0.3-0.3,0.5-0.4l0,0
	c0.2-0.2,0.3-0.4,0.5-0.4l0,0c0.1-0.3,0.2-0.4,0.5-0.5l0,0.1c0.2-0.4,0.6-0.3,0.9-0.6l0,0c0.7-0.4,1.2-1,1.9-1.3l0,0
	c0.1-0.2,0.3-0.4,0.5-0.5l0,0c0.2-0.3,0.7-0.2,0.9-0.5l0,0c0.2-0.1,0.3-0.3,0.5-0.4l0,0c0.2-0.2,0.3-0.3,0.5-0.4l0,0
	c0.6-0.5,1.2-1,1.8-1.5l0,0c0.3-0.2,0.2-0.7,0.6-0.8l-0.1,0.1c0.1-0.3,0.2-0.4,0.5-0.5l0,0.1c0.1-0.4,0.6-0.3,0.8-0.6l0,0
	c0.5-0.7,1.1-1.4,1.9-1.8l0,0c0.1-0.2,0.3-0.3,0.5-0.5l0,0c0.1-0.2,0.3-0.3,0.5-0.5l0,0c0.1-0.2,0.3-0.4,0.5-0.4l0,0.1
	c0.3-0.5,0.9-0.6,1.3-1l0,0c0.2-0.1,0.3-0.3,0.5-0.4l0,0c0.2-0.2,0.3-0.3,0.5-0.5l0,0c0.1-0.2,0.3-0.3,0.4-0.5l0,0
	c0.3-0.2,0.2-0.7,0.6-0.8l0,0c0.1-0.2,0.3-0.4,0.4-0.5l0,0c0.3-0.2,0.2-0.7,0.5-0.9l0,0c0.1-0.2,0.3-0.3,0.4-0.5l0,0
	c0.3-0.2,0.2-0.7,0.5-0.9l0,0c0.1-0.2,0.3-0.3,0.4-0.5l0,0c0.3-0.2,0.2-0.7,0.5-0.8l0,0c0.2-0.3,0.1-0.7,0.5-0.9l0,0
	c0.2-0.5,0.5-1,0.9-1.4l0,0c0.1-0.2,0.3-0.4,0.4-0.5l0,0c0.3-0.2,0.2-0.7,0.6-0.9l0,0c0.1-0.2,0.3-0.4,0.4-0.5v0
	c0.3-0.2,0.2-0.7,0.6-0.9l-0.1,0c0.1-0.2,0.2-0.4,0.4-0.5l0,0c0.2-0.3,0.1-0.7,0.5-0.9l-0.1,0.1c0.2-0.4,0.6-0.3,0.8-0.6l0,0
	c0.8-0.3,1.5-0.3,2.3,0l0,0c0.2,0.3,0.7,0.2,0.8,0.6l-0.1-0.1c0.4,0.2,0.3,0.6,0.5,0.9l0,0c0.5,0.4,0.3,0.9,0.1,1.4
	c-0.1,0.1-0.1,0.2-0.1,0.3c-0.2,0.3-0.1,0.8-0.5,1l0,0c-0.2,0.5-0.5,1-0.9,1.4l0,0c-0.2,0.3-0.1,0.7-0.6,0.9l0.1,0
	c-0.1,0.3-0.2,0.4-0.4,0.5l0,0c-0.3,0.5-0.6,1-0.9,1.4l0,0c-0.3,0.3-0.2,0.7-0.5,0.9l0,0c-0.2,0.3-0.2,0.7-0.5,0.9l0,0
	c-0.1,0.2-0.3,0.4-0.4,0.5l0,0c-0.3,0.2-0.2,0.7-0.5,0.9l0,0c-0.2,0.3-0.3,0.7-0.2,1c0.1,0.3,0.5,0.1,0.7,0l0,0
	c0.1-0.2,0.3-0.4,0.5-0.5l0,0c0.1-0.2,0.3-0.4,0.5-0.5l0,0c0.1-0.2,0.3-0.4,0.5-0.5l0,0c0.1-0.2,0.3-0.4,0.5-0.5l0,0
	c0.1-0.2,0.3-0.4,0.5-0.5l0,0c0.1-0.2,0.3-0.4,0.5-0.5l0,0c0.1-0.2,0.3-0.4,0.5-0.5l0,0c0.1-0.2,0.3-0.4,0.5-0.5l0,0
	c0.3-0.5,0.6-1,0.9-1.4l0,0c0.3-0.3,0.2-0.7,0.5-0.9l0,0c0.1-0.2,0.3-0.4,0.5-0.5l0,0c0.2-0.3,0.1-0.7,0.5-0.9l-0.1,0
	c0.1-0.2,0.3-0.4,0.4-0.6l0,0c0.5-0.3,0-1,0.5-1.3l0,0c0.1-0.2,0.3-0.4,0.4-0.5v0c0.2-0.2,0.3-0.3,0.4-0.5l0,0
	c0.2-0.1,0.3-0.3,0.5-0.4l0,0c0.3-0.4,0.7-0.3,1.1-0.5c0.1,0.1,0.2,0.1,0.3,0c0.5-0.4,0.9-0.3,1.4,0c0.1,0.1,0.2,0.1,0.4,0.1
	c0.3,0.2,0.7,0.2,1,0.4l0,0c0.2,0.3,0.7,0.2,0.9,0.6l-0.1,0c0.5,0.4,0.7,0.9,1,1.4l0,0c0.5,1.1,0.4,2.1,0.1,3.2
	c-0.2,0.4-0.2,0.8-0.1,1.3c-0.2,0.3-0.2,0.7-0.4,1c-0.1,0.1-0.1,0.1-0.1,0.3c0,0.3-0.2,0.5-0.5,0.6l0,0c-0.1,0.2-0.3,0.3-0.4,0.5
	c-0.1,0.1-0.1,0.1-0.1,0.3c0,0.3-0.2,0.5-0.4,0.7l0,0c-0.3,0.2-0.2,0.7-0.6,0.9l0,0c-0.2,0.3-0.1,0.7-0.5,1l0,0
	c-0.1,0.2-0.3,0.4-0.4,0.5l0,0c-0.4,0.4-0.6,0.9-0.9,1.4l0,0c-0.3,0.3-0.2,0.7-0.5,0.9l0,0c-0.2,0.3-0.2,0.6-0.3,1
	c-0.2,0.2-0.1-0.1-0.1,0.2c0,0.3,0.1,0.3,0.2,0.1c0.2,0,0.5,0,0.7-0.2c0.2,0.1,0.3,0,0.4-0.1c0.6-0.3,1.2-0.3,1.8,0
	c0.1,0.1,0.2,0.1,0.3,0.1c1,0.3,1.5,1,2,1.8l0,0c0.5,1.5,0.4,3.1,0.1,4.6c-0.1,0.1-0.1,0.2-0.1,0.3c-0.3,0.5,0,1.1-0.4,1.5l0,0
	c-0.4,0.4,0,1-0.5,1.4l0,0c-0.3,0.3-0.2,0.7-0.5,0.9l0,0c-0.2,0.3-0.2,0.7-0.5,0.9l0,0c-0.3,0.3-0.2,0.7-0.5,0.9l0,0
	c-0.3,0.3-0.2,0.7-0.4,0.9c-0.1,0.1-0.1,0.1-0.1,0.3c0,0.3-0.2,0.5-0.4,0.7l0,0c-0.5,0.3,0,1.1-0.6,1.3l0-0.1
	c-0.1,0.2-0.2,0.4-0.4,0.6l0,0c-0.3,0.3-0.2,0.7-0.4,0.9l0,0c-0.3,0.2-0.2,0.7-0.5,0.9l0,0c-0.2,0.3-0.1,0.7-0.5,0.9l0,0
	c-0.1,0.2-0.3,0.4-0.4,0.5l0,0c-0.3,0.3-0.2,0.7-0.5,0.9l0,0c-0.2,0.3-0.1,0.7-0.5,0.9l0,0c-0.1,0.2-0.2,0.4-0.4,0.6l0,0
	c-0.3,0.2-0.2,0.7-0.5,0.9l0,0c-0.2,0.3-0.3,0.6,0,0.9l0,0c0.2,0.3,0.7,0.2,0.8,0.6l-0.1-0.1c0.4,0.2,0.3,0.7,0.6,0.9l0,0
	c0.2,0.3,0.2,0.7,0.4,1.1c0,0.2,0,0.4,0,0.6c-0.3,0.4,0,1.1-0.5,1.5l0,0c-0.4,0.4,0,1-0.4,1.4l0,0c-0.3,0.3-0.2,0.7-0.4,0.9
	c-0.1,0.1-0.1,0.2-0.1,0.3c-0.1,0.6-0.1,1.2-0.6,1.7c-0.2,0.2,0-0.1-0.1,0.2c0.1,0.1,0.1-0.1,0.2-0.1c0.8-0.8,1.6-1.4,2.4-2.1l0,0
	c0.2-0.1,0.3-0.3,0.5-0.4l0,0c0.2-0.1,0.3-0.3,0.5-0.4l0,0c0.3-0.4,0.7-0.3,1.1-0.5c0.5,0,1,0,1.6,0c0.3,0.2,0.7,0.2,1,0.4l0,0
	c0.2,0.3,0.7,0.2,0.9,0.6l-0.1,0c0.5,0.4,0.8,0.9,1,1.5c-0.1,0.1,0,0.2,0.1,0.3c0.5,0.6,0,1.4,0.4,1.9c-0.1,0.1-0.1,0.2,0,0.3
	c-0.3,0.4-0.1,1-0.4,1.5c-0.1,0.1-0.1,0.2-0.1,0.3c-0.3,0.5,0,1.1-0.4,1.6l0,0c-0.3,0.3-0.2,0.7-0.5,0.9l0,0
	c-0.2,0.3-0.2,0.7-0.5,0.9l0,0c-0.3,0.4-0.1,1-0.6,1.2c-4,0.1-7.9,0.3-11.9-0.4c-4.2-0.7-7.8,0.9-11.2,3.2c-1.3,0.9-2.3,2.3-4,2.6
	c-2.7,0-4.4-1.5-5.4-4.1c-1.1,0.5-1.9,1.3-2.7,2.1c-1.3,1.3-3,2.1-4.8,2.5c-4.5,1-7.7-1.5-7.7-6.1c-2.9,2.7-5.9,5.3-8.8,8
	c-0.9,0.8-1.4,1.4-0.4,2.6c1.4,1.7,1,3.4-1,4.6c-1.5,0.9-2.6,2.1-3.7,3.3c-0.1,0.1-0.2,0.2-0.4,0.2c0.3,0.3,0.3-0.2,0.4-0.2
	c2-1.3,4.1-1.6,6-0.3c2.1,1.4,3.2,3.5,2.7,6.2c-0.3,1.7-0.7,3.4-1.6,4.8c-2.1,3.5-3.8,7.2-6.3,10.4c-0.1,0.2-0.4,0.3-0.4,0.6
	c0.1-0.2,0.3-0.3,0.4-0.5c3.7-3.6,7.8-6.8,12.6-8.6c1.3-0.5,2.7-0.7,4.1-0.7c3.2,0.1,4.9,2.2,4.3,5.3c-0.2,1.1-0.5,2.1-1.1,3
	c-0.1,0.3-0.5,0.5-0.5,0.9c0.1-0.1,0.2-0.2,0.3-0.3c3.7-2.4,7.2-5.3,11.3-7c1.7,1.1,2.2,3,3.3,4.5c3.5,5,8,8.3,14.1,9.2
	c1.6,0.2,3.2-0.1,4.8,0.4c0.6,0.2,0.8,0.8,1.1,1.3l0,0c0.4,0.2,0.3,0.7,0.5,0.9l0,0c0.5,1.4,0.4,2.7,0,4.1l0,0
	c-0.3,0.3-0.2,0.7-0.5,0.9l0,0c-0.1,0.2-0.3,0.3-0.4,0.5l0,0c-0.2,0.1-0.3,0.3-0.4,0.4l0,0c-0.2,0.1-0.3,0.3-0.5,0.4l0,0
	c-0.1,0.2-0.3,0.4-0.5,0.4l0,0c-0.1,0.2-0.3,0.4-0.5,0.5l0,0c-0.1,0.2-0.3,0.4-0.5,0.5l0,0c-0.2,0.4-0.6,0.2-0.8,0.6l0,0
	c0.1,1.3,1.4,0.2,1.8,0.9c0.1,0.1,0.2,0.1,0.3,0.1c0.3,0.2,0.8,0.1,1,0.5l0,0c0.5,0.3,1,0.5,1.4,1l-0.1-0.1c0.4,0.1,0.3,0.6,0.6,0.8
	l0,0c0.1,0.2,0.3,0.3,0.4,0.5l0-0.1c0.5,0.4,0.2,1.1,0.5,1.5c0,0.5,0,1,0,1.6c-0.3,0.4,0,1.1-0.5,1.5l0,0c-0.2,0.3-0.1,0.7-0.5,0.9
	l0,0c-0.1,0.2-0.3,0.4-0.4,0.5l0,0c-0.4,0.3,0,1-0.5,1.4l0,0c-0.3,0.5-0.5,1-1,1.4l0,0c-0.1,0.3-0.2,0.4-0.5,0.5l0,0
	c-0.1,0.2-0.2,0.4-0.4,0.5v0c-0.3,0.2-0.2,0.7-0.6,0.9l0,0c-0.1,0.3-0.2,0.4-0.5,0.5l0,0c-0.1,0.2-0.3,0.4-0.5,0.5l0,0
	c-0.2,0.3-0.1,0.8-0.5,0.9l0.1,0c-0.1,0.3-0.2,0.4-0.5,0.5l0,0c-0.1,0.2-0.3,0.4-0.5,0.5l0,0c-0.3,0.3-0.2,0.7-0.5,0.9l0,0
	c-0.1,0.2-0.2,0.3-0.4,0.5c-0.1,0.1-0.2,0.2-0.1,0.3c-0.2,0.5-0.1,0.9,0.6,0.7l0,0c0.2-0.4,0.6-0.3,0.9-0.5l0,0
	c0.9-0.4,1.8-0.4,2.7,0l0,0c0.3,0.2,0.7,0.1,0.9,0.5l0-0.1c0.3,0.1,0.4,0.2,0.5,0.5l0,0c0.4,0.2,0.3,0.6,0.6,0.9l0,0
	c0.3,0.3,0.3,0.7,0.4,1.1c0,0.3,0,0.7,0,1c-0.1,0.4-0.1,0.8-0.4,1.1l0,0c-0.3,0.2-0.2,0.7-0.6,0.9l0.1-0.1c-0.3,0.5-0.9,0.7-1.4,1
	l0,0c-0.2,0.4-0.7,0.3-0.9,0.5l0,0c-0.2,0.3-0.7,0.2-0.9,0.5l0,0c-0.2,0.2-0.3,0.4-0.5,0.4l0,0c-0.5,0.6-1.2,1-1.8,1.5l0,0
	c-0.2,0.3-0.7,0.2-0.9,0.5l0,0c-0.2,0.3-0.4,0.6-0.8,0.6c-3-1.2-5.6,0.2-8.4,1c-1.7-0.3-2.3-2-3.3-3.1c-0.8-0.9-1.5-1.2-2.8-0.6
	c-3.3,1.5-5.4,1-8-1.8c-0.9-1-1.7-1.8-3.1-1c-3-1.3-5.5,0.5-8.1,1.4c-2.1-0.5-3.1-2.2-3.9-3.9c-0.6-1.2-1.1-1.4-2.2-0.5
	c-0.6,0.6-1.4,0.9-2.3,1c-0.7,0.1-1.3,0.1-1.9,0c-0.2,0-0.4-0.1-0.6-0.2c-0.4-0.1-0.9-0.3-1.3-0.5c-4.1-3.2-4.4-6.8-0.8-11.1
	c0.1-0.1,0.2-0.2,0.3-0.3c-0.3-0.2-0.2,0.3-0.4,0.3c-3,3.2-6.8,5.5-10.1,8.2c-3.5-1.8-6.4,0.2-9.4,1.4c-0.4-0.1-0.5-0.3-0.6-0.7l0,0
	c-0.4-0.1-0.3-0.6-0.6-0.9l0,0C58.9,235.7,58.7,235.5,58.7,235.2z"/>
<path class="st3" d="M92.6,242.7c0.8-0.4,1.6-0.6,2.3-1.1c1.7-1.2,3.5-1.4,5.4-0.5c0.2,0.1,0.4,0.2,0.6,0.3c2.6,1,2.8,3.3,2.8,5.7
	c1.6-0.6,2.8-1.9,4.6-2c1.9-0.1,3.8,0.1,5,1.7c1.4,1.7,2.8,2,4.7,1c1.2-0.6,2.4-1.2,3.7-1.5c1.8-0.5,3.4-0.4,5,0.6
	c0.2-0.2,0.4-0.1,0.5,0.1l0,0c0.2,0.1,0.4,0.3,0.5,0.5l0,0c0.2,0.1,0.4,0.3,0.5,0.5l0,0c0.4,0.2,0.2,0.7,0.5,0.9l0,0
	c0.2,0.3,0.2,0.7,0.4,0.9l0,0c0.8,1.4,2.3,0.2,3.2,0.9l0,0c0.2,0.3,0.7,0.2,0.9,0.5l0,0c0.2,0.1,0.3,0.3,0.5,0.4l0,0
	c0.1,0.2,0.3,0.3,0.4,0.4l0,0c0.1,0.2,0.3,0.3,0.4,0.4l0,0c0.1,0.2,0.3,0.3,0.4,0.5l0,0c0.4,0.3,0.3,0.7,0.5,1.1
	c-0.1,0.1,0,0.2,0.1,0.3c0.5,0.9-0.1,1.9,0.4,2.8l0,0c0.4,0.4,1,0.1,1.4,0.4c0.1,0.1,0.2,0.1,0.4,0.1c0.3,0.2,0.7,0.1,1,0.4l0,0
	c0.3,0.2,0.7,0.1,0.9,0.5l0,0c0.3,0.1,0.4,0.2,0.5,0.5l0,0c0.2,0.1,0.4,0.3,0.5,0.5l-0.1-0.1c0.4,0.2,0.3,0.6,0.6,0.9l0,0
	c0.3,0.3,0.2,0.7,0.5,0.9l0,0c0.4,1.2,0.5,2.4,0,3.7l0,0c-0.4,0.6,0,1.3-0.4,1.9c-0.1,0.1-0.1,0.2-0.1,0.3c-0.2,0.3-0.1,0.8-0.4,1
	l0,0c-0.4,0.4,0,1-0.5,1.4l0,0c-0.4,0.4,0,1.1-0.5,1.4l0-0.1c-0.1,0.2-0.3,0.4-0.4,0.6l0,0c-0.5,0.3-0.1,1-0.5,1.3
	c-0.1,0.1-0.1,0.1-0.1,0.2c0,0.3-0.2,0.5-0.4,0.7l0,0c-0.3,0.2-0.2,0.7-0.5,0.9l0,0c-0.2,0.3-0.2,0.7-0.4,1c-0.1,0-0.1,0.1-0.1,0.2
	c0,0.3-0.2,0.5-0.4,0.7l0,0c-0.3,0.2-0.2,0.7-0.4,0.9c0,0.2,0,0.3-0.1,0.5c0.2,0.4,0.7,0.1,0.9,0.5l0,0c0.3,0.2,0.7,0.1,0.9,0.5l0,0
	c0.2,0.1,0.4,0.2,0.5,0.4l0,0c0.2,0.1,0.3,0.3,0.5,0.5l0,0c0.2,0.1,0.4,0.3,0.5,0.5l0,0c0.2,0.1,0.4,0.3,0.5,0.5l0,0
	c0.3,0.1,0.4,0.2,0.5,0.5l-0.1-0.1c0.4,0.1,0.3,0.6,0.6,0.9l0,0c0.3,0.2,0.2,0.7,0.5,1l0,0c0.5,1.2,0.4,2.4,0,3.7l0,0
	c-0.3,0.3-0.2,0.7-0.4,0.9c-0.1,0.1-0.2,0.2-0.1,0.3c-0.3,0.5,0,1.1-0.4,1.6c-0.1,0.1-0.1,0.2-0.1,0.3c-0.2,0.4-0.1,0.8-0.5,1l0-0.1
	c-0.1,0.2-0.2,0.4-0.4,0.5l0,0c-0.2,0.3-0.2,0.7-0.5,0.9l0,0c-0.2,0.3-0.2,0.7-0.4,0.9l0,0c-0.3,0.2-0.2,0.7-0.6,0.9l0,0
	c-0.2,0.7-0.3,1.4,0,2c-0.1,0.1-0.1,0.2,0,0.3c-0.3,0.4,0,1.1-0.5,1.5l0,0c-0.1,0.2-0.3,0.3-0.4,0.5l0,0c-0.2,0.1-0.3,0.3-0.4,0.4
	l0,0c-0.2,0.1-0.3,0.3-0.5,0.4l0,0c-0.1,0.2-0.3,0.3-0.5,0.5l0,0c-0.1,0.2-0.3,0.3-0.5,0.5l0,0c-0.1,0.2-0.3,0.3-0.5,0.5l0,0
	c-0.1,0.2-0.3,0.3-0.4,0.5l0,0c-0.4,0.4-0.1,1-0.4,1.4c-0.1,0.1-0.1,0.2-0.1,0.3c0,0.3-0.2,0.5-0.4,0.6l0,0
	c-0.6,0.5,0.1,1.3-0.5,1.8l0,0c-0.2,0.3-0.1,0.7-0.5,1l0,0c-0.1,0.2-0.3,0.3-0.4,0.5l0,0c-0.4,0.5-0.8,1-1.4,1.3l0,0
	c-0.2,0.1-0.3,0.3-0.5,0.4l0,0c-0.2,0.3-0.6,0.3-1,0.5l0,0c-1.4,0.5-2.7,0.4-4.1,0.1l0,0c-0.4-0.4-1,0-1.4-0.5l0,0
	c-0.3-0.2-0.7-0.1-0.9-0.5l0,0c-0.3-0.1-0.4-0.2-0.5-0.5l0,0c-0.2-0.1-0.4-0.3-0.5-0.5l0,0c-0.2-0.1-0.4-0.3-0.5-0.5l0,0
	c-0.4-0.2-0.3-0.6-0.5-0.9l0,0c-0.3-0.6-1-0.6-1.4-0.9l0,0c-0.4-0.4-1,0-1.4-0.5l0,0c-0.3-0.2-0.7-0.1-0.9-0.5l0,0
	c-0.3-0.1-0.4-0.2-0.5-0.4l0,0c-0.2-0.1-0.4-0.3-0.5-0.5l0,0c-0.2-0.1-0.4-0.3-0.5-0.5l0,0c-0.4-0.2-0.3-0.7-0.5-0.9l0,0
	c-0.3-0.3-0.2-0.7-0.4-1l0,0c-0.6-1.1-0.3-2.2-0.2-3.3c0.1-1.6-0.4-2.2-2-2c-0.5,0.1-1.1,0.2-1.5-0.3l0,0c-0.3-0.2-0.7-0.1-1-0.4
	l0,0c-0.2-0.3-0.7-0.2-0.9-0.5l0,0c-0.2-0.1-0.3-0.3-0.5-0.4l0,0c-0.1-0.2-0.3-0.3-0.4-0.4l0,0c-0.1-0.2-0.3-0.3-0.4-0.5l0,0
	c-0.2-0.2-0.4-0.4-0.4-0.7c0.1-0.1,0-0.2-0.1-0.2c-0.2-0.3-0.2-0.7-0.4-1l0,0c-0.4-0.5-0.7-1-1.4-0.4l0,0c-0.3,0.2-0.2,0.7-0.6,0.8
	l0.1,0c0,0.3-0.2,0.4-0.5,0.5l0,0c-0.1,0.2-0.3,0.4-0.5,0.5l0,0c-0.1,0.2-0.3,0.4-0.5,0.5l0,0c-0.2,0.4-0.6,0.3-0.9,0.5l0,0
	c-0.3,0.5-1,0.1-1.4,0.5l0,0c-0.7,0.5-1.5,0.4-2.3,0l0,0c-0.4-0.4-1,0-1.4-0.4l0,0c-0.2-0.3-0.7-0.2-0.9-0.5l0,0
	c-0.2-0.1-0.3-0.3-0.5-0.4l0,0c-0.1-0.2-0.3-0.3-0.4-0.4l0,0c-0.1-0.2-0.2-0.3-0.4-0.4l0,0c-0.1-0.2-0.3-0.3-0.4-0.5l0,0
	c-0.4-0.2-0.3-0.7-0.5-1l0,0c-0.7-1.1-0.2-2.2-0.3-3.3c-0.1-0.5,0.2-1.2-0.8-0.9l0,0c-0.1,0.3-0.2,0.4-0.4,0.5l0,0
	c-0.1,0.2-0.3,0.3-0.5,0.5l0,0c-0.1,0.2-0.3,0.4-0.5,0.4l0,0c-0.2,0.4-0.6,0.2-0.9,0.5l0,0c-0.2,0.1-0.3,0.4-0.5,0.4l0,0
	c-0.1,0.4-0.6,0.3-0.8,0.6l0,0c-0.2,0.2-0.3,0.3-0.5,0.4l0,0c-0.3,0.6-1,0.1-1.3,0.5h0c-1.1,0.4-2.1,0.4-3.2,0l0,0
	c-0.3-0.2-0.7-0.1-0.9-0.4l0,0c-0.3-0.2-0.7-0.1-0.9-0.5l0,0c-0.2-0.1-0.4-0.3-0.5-0.4l0,0c-0.2-0.1-0.4-0.3-0.5-0.5l0,0
	c-0.2-0.1-0.4-0.3-0.4-0.5l0.1,0.1c-0.4-0.2-0.3-0.6-0.5-0.9l0,0c-0.6-0.5,0-1.4-0.5-1.9c0-0.4,0-0.8,0-1.2c0.3-0.4,0-1.1,0.4-1.5
	l0,0c0.3-0.2,0.2-0.6,0.5-0.9l0,0c0.3-0.2,0.2-0.7,0.6-0.9l0,0c0.2-0.3,0.1-0.8,0.5-1l0,0c0.2-0.5,0.1-1.2,0.6-1.6
	c0.1-0.1,0.2-0.2,0.2-0.3c-0.1,0-0.2,0.1-0.3,0.2c-0.4,0.5-1.1,0.3-1.6,0.6l0,0c-0.1,0.2-0.3,0.4-0.5,0.5l0,0
	c-0.1,0.2-0.3,0.4-0.5,0.5l0,0c-0.2,0.4-0.6,0.3-0.9,0.5l0,0c-0.2,0.3-0.7,0.2-0.9,0.5h0c-0.2,0.3-0.7,0.2-0.9,0.4l0,0
	c-1.2,0.5-2.4,0.4-3.7,0l-0.1-0.1l-0.1,0c-0.4-0.1-0.8-0.1-1.1-0.5l0,0c-0.2-0.1-0.4-0.2-0.5-0.4l0,0c-0.2-0.1-0.3-0.3-0.5-0.4l0,0
	c-0.1-0.2-0.3-0.3-0.4-0.4l0,0c-0.1-0.2-0.3-0.3-0.4-0.5l0,0c-0.3-0.2-0.2-0.7-0.5-0.9l0,0c-0.4-0.4-0.1-1-0.5-1.4l0,0
	c-0.6-0.3,0.3-1.7-1-1.5l0,0c-0.1,0.2-0.3,0.4-0.5,0.5l0,0c-0.1,0.2-0.3,0.4-0.5,0.5l0,0c-0.2,0.4-0.6,0.3-0.8,0.6l0,0
	c-0.2,0.1-0.3,0.3-0.5,0.4l0,0c-0.3,0.2-0.2,0.7-0.6,0.9l0.1,0c0,0.3-0.2,0.4-0.5,0.5l0,0c-0.1,0.2-0.3,0.4-0.5,0.5l0,0
	c-0.3,0.4-0.6,0.7-1,1l0,0c-0.1,0.3-0.2,0.4-0.5,0.5l0,0c-0.1,0.4-0.6,0.3-0.8,0.6l0,0c-0.2,0.1-0.3,0.3-0.5,0.4l0,0
	c-0.4,0.6-1,0.2-1.5,0.5l-0.2,0l-0.1,0.1c-0.6,0.3-1.2,0.4-1.8,0l0,0c-0.4-0.4-1,0-1.4-0.5v0c-0.3-0.2-0.7-0.2-0.9-0.5l0,0
	c-0.2-0.1-0.4-0.3-0.5-0.4l0,0c-0.2-0.1-0.3-0.3-0.5-0.4l0,0c-0.2-0.2-0.3-0.3-0.4-0.5l0,0c-0.2-0.2-0.4-0.4-0.4-0.7
	c0.1-0.1,0-0.2-0.1-0.2c-0.2-0.3-0.2-0.7-0.4-0.9l0,0c-0.6-0.2,0.3-1.5-0.9-1.4l0,0c-0.2,0.1-0.3,0.3-0.4,0.4l0,0
	c-0.2,0.1-0.3,0.3-0.5,0.4l0,0c-0.1,0.2-0.3,0.4-0.5,0.4l0,0c-0.1,0.3-0.2,0.4-0.5,0.5l0,0c-0.1,0.2-0.3,0.4-0.5,0.5l0,0
	c-0.1,0.2-0.3,0.4-0.5,0.5l0,0c-0.3,0.4-0.6,0.7-0.9,1l0,0c-0.1,0.2-0.2,0.4-0.4,0.5l0,0c-0.2,0.3-0.1,0.7-0.6,0.9l0.1-0.1
	c0,0.3-0.2,0.4-0.5,0.5l0,0c-0.1,0.2-0.3,0.4-0.5,0.5l0,0c-0.4,0.4-0.9,0.7-1.4,0.9l0,0c-0.4,0.5-1.1,0.2-1.5,0.5l-0.1-0.1l-0.1,0.1
	c-0.5,0.4-0.9,0.4-1.4,0l-0.1-0.1l-0.1,0.1c-0.5-0.3-1.1,0-1.5-0.5l0,0c-0.5-0.2-1-0.5-1.4-0.9l0,0c-0.2-0.1-0.4-0.3-0.5-0.5l0,0
	c-0.2-0.1-0.4-0.3-0.5-0.5l0.1,0.1c-0.4-0.2-0.3-0.6-0.5-0.9l0,0c-0.5-0.4-0.1-1-0.5-1.5c0.1-0.1,0.1-0.2,0-0.3
	c-0.5-0.6-1.1-0.2-1.6-0.1l-0.1,0l-0.1,0.1c-1.1,0.4-2.2,0.4-3.2,0l-0.1-0.1l-0.1,0c-0.6-0.1-1.1-0.5-1.6-0.9l0,0
	c-0.2-0.1-0.4-0.3-0.5-0.5l0,0c-0.2-0.1-0.4-0.3-0.5-0.5l0.1,0c-0.4-0.2-0.3-0.6-0.5-0.9l0,0c-0.5-0.4-0.2-1.1-0.5-1.5
	c0-0.4,0-0.8,0-1.1c0.5-0.6-0.1-1.4,0.5-1.9l0,0.1c0.1-0.2,0.3-0.4,0.4-0.6l0,0c0.3-0.2,0.2-0.7,0.6-0.8l-0.1,0.1
	c0.3-0.4,0.6-0.7,0.9-1l0,0c0.1-0.2,0.3-0.4,0.4-0.5l0,0c0.3-0.2,0.2-0.7,0.6-0.8l0,0c0.1-0.2,0.3-0.4,0.5-0.5l0,0
	c0.1-0.2,0.3-0.4,0.4-0.5l0,0c0.2-0.3,0.2-0.7,0.5-0.9l0,0c0.5-0.7-0.2-1.7,0.5-2.3l0,0.1c0.2-0.3,0.1-0.8,0.5-0.9l-0.1,0.1
	c0.1-0.3,0.2-0.4,0.5-0.5l0,0c0.1-0.2,0.3-0.4,0.5-0.5l0,0c0.1-0.2,0.3-0.4,0.5-0.5l0,0c0.1-0.2,0.3-0.3,0.5-0.5l0,0
	c0.1-0.1,0.3-0.3,0.4-0.5l0,0c0.5-0.3,0.5-1,1.1-1.3l0,0c0-0.2,0.2-0.4,0.4-0.6l0,0c0.3-0.2,0.2-0.7,0.6-0.8l-0.1,0.1
	c0.1-0.3,0.2-0.4,0.5-0.5l0,0c0-0.3,0.2-0.4,0.5-0.5l0,0c0.1-0.2,0.3-0.4,0.4-0.5l0,0c0.2-0.1,0.3-0.3,0.4-0.5l0,0
	c0.2-0.1,0.3-0.3,0.4-0.4l0,0c0.2-0.1,0.3-0.3,0.4-0.4l0,0c0.5-0.7,1.1-1.3,1.8-1.8l0,0c0.3-0.2,0.2-0.7,0.6-0.8l0,0
	c0.1-0.2,0.3-0.4,0.5-0.5l0,0c0.3-0.3,0.6-0.7,0.9-1l0,0c0.1-0.2,0.3-0.4,0.5-0.5l0,0c0.1-0.2,0.3-0.4,0.5-0.5l0,0
	c0.1-0.2,0.3-0.4,0.5-0.5l0,0c0.4-0.7,0.9-1.3,1.5-1.8l0,0c0.1-0.2,0.2-0.4,0.4-0.5l0,0c0.3-0.3,0.1-0.7,0.5-0.9l0,0
	c0.1-0.2,0.3-0.4,0.5-0.5l0,0c0.1-0.2,0.3-0.4,0.5-0.5l0,0c0.1-0.2,0.3-0.4,0.5-0.5l0,0c0.1-0.2,0.3-0.4,0.4-0.5l0,0
	c0.2-0.1,0.3-0.3,0.4-0.5l0,0c0.2-0.1,0.3-0.3,0.5-0.4l0,0c0.2-0.2,0.3-0.3,0.5-0.4l0,0c0.1-0.2,0.3-0.3,0.4-0.5l0,0
	c0.2-0.1,0.3-0.3,0.4-0.4l0,0c0.2-0.1,0.3-0.3,0.5-0.4l0,0c0.2-0.3,0.7-0.2,0.9-0.5l0,0c0.3-0.3,0.7-0.2,0.9-0.4l0,0
	c0.5-0.5,1.3,0.1,1.8-0.5l0.1,0c0.2-0.1,0.3-0.2,0.4-0.4l0,0c0.2-0.1,0.3-0.3,0.5-0.4l0,0c0.3-0.3,0.7-0.5,1.1-0.5
	c1.6-1.6,3.8-2,5.8-2.6c0.4-0.1,0.9,0,1.3,0.1c0.8,0.2,1.6,0.6,2.2,1.1c2.1,0.5,3.6,2.2,3.9,4.4c0.1,1,0,1.9-0.1,3.1
	c2.1-1.3,4-2.6,6.1-3.5c0.8-0.4,1.6-0.9,2.6-0.5c0.8,0,1.5,0.2,2.3,0.3c1.3-0.1,2.5,0.4,3.3,1.4C88.9,242.7,90.5,243.3,92.6,242.7z"
	/>
<path class="st4" d="M162.7,172.3c-0.2,0.2-0.4,0.3-0.5,0.5c-0.1,0.2-0.3,0.2-0.4,0l0,0c-0.2-0.1-0.3-0.3-0.5-0.5l0,0
	c-0.2-0.1-0.3-0.2-0.5-0.4c-0.1-0.1-0.2-0.1-0.3-0.1c-0.3,0-0.5-0.2-0.6-0.5l0,0c-0.2-0.2-0.2-0.4,0-0.6
	C161.4,170.3,162.5,170.5,162.7,172.3z"/>
<path class="st5" d="M181.6,153.1c-0.4-0.5-0.7-0.9-1.1-1.4c-0.8-1-1-2.2-0.6-3.4c0.1-0.1,0.1-0.3,0.2-0.4c1-2.8,2.1-3.5,5.1-3.3
	c2.1,0.8,3,2.4,2.8,4.6c0,0.1,0,0.2,0,0.2c0.3,1.8-0.2,3.4-1,5c-1.2,0.8-2.4,0.8-3.6-0.1C182.6,154.2,182,153.7,181.6,153.1z"/>
<path class="st6" d="M135.5,179.3c0.2-0.2,0.3-0.4,0.5-0.5c0.4,0.2,0.4,0.5,0.4,0.9C136.1,179.7,135.8,179.5,135.5,179.3z"/>
<path class="st7" d="M177.9,139.8c-0.4,0.4-0.8,0.7-1.1,1.1c-0.5,0.5-0.7,1.2-0.5,1.9c0.3,0.9,0.2,1.8,0.1,2.7c0,1.6,0,3.2,0.9,4.6
	c0.3,0.4,0.5,1,0.5,1.5c-0.1,1.5,1,2.7,1.1,4.2c0,0.5,0.4,0.8,0.8,1.1c0.6,0.5,1.3,1,1.9,1.6c-4-0.2-3.8-0.4-4.6-3.8
	c-0.5-2.3-1.2-4.4-2.5-6.3c-0.8-1.2-0.9-2.6-1.1-3.9c0-0.3,0-0.8,0.2-1.1c1.2-1.5,2-3.2,3.5-4.4
	C177.6,139.1,177.7,139.5,177.9,139.8z"/>
<path class="st8" d="M181.6,153.1c0.7,0.3,1.3,0.5,1.8,1.2c-0.1,0.2-0.3,0.4-0.4,0.5c-0.3,0.3-0.7,0.4-0.9,0
	C181.8,154.2,181.6,153.7,181.6,153.1z"/>
<path class="st1" d="M140.5,179.7c-1.2-2.7-5-4.4-7.8-4c-0.9,0.1-1.6,0.5-2.3,1c-1,0.5-1.9,1.2-2.7,2.3c-1.9,2.7-1.8,6,0.5,8.5
	c2.5,2.8,6.8,3.4,9.8,1.1C140.9,186.4,141.9,183.1,140.5,179.7z M135.3,185.1c-0.3,0.2-0.5,0.3-0.8,0.4c-0.1-0.2-0.3-0.3-0.6-0.3
	c-1.7-0.1-2.4-2.5-1.8-4.1c0.7-0.6,1.7-0.5,2.5,0c1,0.6,1.1,2,1.9,2.8C136.1,184.3,135.7,184.7,135.3,185.1z"/>
<path class="st0" d="M131.9,186.2c-0.2,0.7-0.7,0.9-1.4,1c-0.8,0.2-1,0.6-0.4,1.1c1.4,1.3,1.9,2.9,2.4,4.6c0.4,1.5,0,2.8-1,3.8
	c-1.2,1.1-2.5,2-4.3,1.8c-0.5,0-1.1,0-1.6,0c-2,0.2-3.5-0.8-5-1.9c-0.4-0.3-0.8-0.6-0.9-1c-0.4-1.3-1.1-2.5-1.5-3.8
	c-0.2-0.7-0.2-1.4,0.1-2c0.5-1,1-2.1,1.7-3c1.5-1.9,3.1-3.6,4.3-5.7c0.2-0.4,0.6-0.7,0.9-1c0.5-0.3,0.8-0.8,0.9-1.3
	c0.4-1.7,1.6-3,2.5-4.3c0.8-1.2,2.2-1.9,3.8-1.8c1.4,0,2.8,0.1,3.8,1.2c0.8,0.8,0.9,1.8,0,2.6c-0.5,0.4-1,0.7-1.5,1
	c-1.4,0.7-2.9,0.6-4.4,1c-1.5,0.5-2,1.3-1.4,2.9C129.5,183.3,130.7,184.7,131.9,186.2z"/>
<path class="st5" d="M136.4,179.6c0.4,0.4,0.8,0.7,1.1,1.1c0.9,1.2,0.9,2.5,0.1,3.8c-0.8,1.3-2.1,1.9-3.7,1.6
	c-0.4-0.1-0.7-0.2-1.1-0.4c-1.9-0.7-2.9-2.6-2.5-4.5c0.5-2,2-2.8,4.7-2.6C135.7,178.9,136,179.3,136.4,179.6z"/>
<path class="st9" d="M118,517.6c0.1,0.1,0.3,0.1,0.4,0c0.3,0.2,0.7,0.1,1,0.5l0,0c0.2,0.1,0.4,0.3,0.5,0.5l0,0
	c0.3,0.2,0.2,0.7,0.5,0.9l0,0c0.3,0.2,0.2,0.7,0.5,1l0,0c0.5,1.1,0.4,2.1,0,3.2c-0.1,0.1-0.1,0.2,0,0.3c-0.2,0.3-0.1,0.8-0.5,1l0,0
	c-0.2,0.3-0.2,0.7-0.4,1l0,0c-0.4,0.4,0,1-0.5,1.4l0,0c-0.3,0.3-0.2,0.7-0.5,0.9l0,0c-0.3,0.3-0.2,0.7-0.4,0.9l0,0
	c-0.3,0.2-0.2,0.6-0.4,0.9c-0.1,0.1-0.1,0.3-0.1,0.4c-0.4,0.4,0,1.1-0.5,1.4l0,0c-0.1,0.2-0.3,0.4-0.5,0.5l0,0
	c-0.1,0.2-0.3,0.4-0.5,0.5l0,0c-0.1,0.2-0.3,0.4-0.4,0.5l0,0c-0.1,0.2-0.3,0.3-0.4,0.5l0,0c-0.3,0.3-0.6,0.6-0.9,0.9l0,0
	c-0.2,0.1-0.3,0.3-0.5,0.4l0,0c-0.1,0.2-0.3,0.3-0.5,0.5l0,0c-0.1,0.2-0.3,0.3-0.5,0.5l0,0c-0.2,0.2-0.3,0.4-0.6,0.4
	c-0.1,0-0.2,0-0.3,0.1c-0.4,0.4-1,0-1.4,0.4l0,0c-0.3,0.3-0.6,0.3-0.9,0l0,0c-0.4-0.4-1-0.1-1.4-0.4c-0.1-0.1-0.2-0.1-0.3-0.1
	c-0.3-0.1-0.4-0.2-0.6-0.4l0,0c-0.2-0.1-0.3-0.3-0.5-0.5l0,0c-0.2-0.1-0.3-0.2-0.5,0l0,0c-0.1,0.2-0.3,0.4-0.5,0.5l0,0
	c-0.1,0.2-0.3,0.4-0.5,0.5l0,0c-0.2,0.3-0.7,0.2-0.9,0.5l0,0c-0.3,0.3-0.7,0.2-0.9,0.4l0,0c-1.4,0.4-2.7,0.3-4.1,0.1l-0.2-0.1
	l-0.2,0c-0.3-0.2-0.7-0.1-1-0.5l0,0c-0.2-0.1-0.3-0.3-0.5-0.4l0,0c-0.1-0.2-0.3-0.3-0.5-0.4l0,0c-0.1-0.2-0.3-0.3-0.4-0.5l0,0
	c-0.1-0.2-0.3-0.3-0.4-0.5l0,0c-0.2-0.1-0.4-0.1-0.5,0l0,0c-0.2,0.3-0.1,0.7-0.5,0.9l0,0c-0.1,0.2-0.3,0.4-0.5,0.5l0,0
	c-0.1,0.2-0.3,0.3-0.5,0.5l0,0c-0.1,0.2-0.3,0.3-0.5,0.5l0,0c-0.2,0.3-0.7,0.2-0.9,0.5l0,0c-0.9,0.4-1.8,0.4-2.7,0l0,0
	c-0.3-0.3-0.7-0.2-0.9-0.4c-0.1-0.1-0.2-0.1-0.3-0.1c-0.2-0.1-0.4-0.2-0.6-0.4l0,0c-0.1-0.1-0.3-0.3-0.5-0.4l0,0
	c-0.1-0.2-0.3-0.3-0.4-0.5l0,0c-0.2-0.2-0.3-0.3-0.4-0.5l0,0c-0.3-0.3-0.3-0.7-0.5-1c0-0.1,0-0.2,0-0.3c-0.3-0.8-0.4-1.5,0-2.3l0,0
	c0.2-0.3,0.2-0.7,0.4-0.9l0,0c0.3-0.2,0.2-0.7,0.5-0.9l0,0c0.3-0.5,0.3-1,0-1.4l0,0c-0.4-1.1-0.4-2.1,0-3.2c0-0.2,0-0.3,0.1-0.4
	c-0.9-0.7-2,0.1-2.8-0.5h0c-0.2-0.3-0.7-0.2-0.9-0.5l0,0c-0.2-0.1-0.3-0.3-0.5-0.5l0,0c-0.2-0.1-0.3-0.3-0.5-0.5l0,0
	c-0.2-0.1-0.3-0.3-0.5-0.5l0,0c-0.5-0.4-0.1-1-0.5-1.4c0-0.6,0-1.1,0-1.7c0.4-0.4,0-1.1,0.5-1.4l0,0c0.2-0.3,0.2-0.7,0.4-1
	c0.1-0.1,0.1-0.2,0-0.3c0.2-0.3,0.1-0.8,0.5-1l0,0c0.1-0.2,0.3-0.3,0.4-0.5l0,0c0.3-0.2,0.2-0.7,0.5-0.9l0,0
	c0.3-0.2,0.2-0.7,0.5-0.9l0,0c0.2-0.3,0.2-0.7,0.4-1l0,0c0.3-0.2,0.2-0.7,0.5-0.9c0.1-0.1,0.1-0.2,0.1-0.3c0.2-0.3,0.1-0.8,0.4-1
	l0,0c0.4-0.4,0-1,0.5-1.4l0,0c0.1-0.2,0.3-0.3,0.4-0.5l0,0c0.5-0.3,0-1,0.5-1.3l0,0c0.1-0.2,0.3-0.4,0.5-0.5l0,0
	c0.3-0.3,0.2-0.7,0.5-0.9l0,0c0.1-0.2,0.3-0.4,0.4-0.5l0,0c0.1-0.2,0.3-0.3,0.4-0.5l0,0c0.3-0.2,0.2-0.7,0.5-0.9l0,0
	c0.1-0.2,0.3-0.4,0.5-0.5l0,0c0.3-0.3,0.2-0.7,0.5-0.9l0,0c0.1-0.2,0.3-0.4,0.5-0.5l0,0c0.1-0.2,0.3-0.4,0.5-0.5l0,0
	c0.1-0.2,0.3-0.3,0.4-0.5l0,0c0.3-0.2,0.2-0.6,0.5-0.9l0,0c0.1-0.2,0.3-0.3,0.5-0.5l0,0c0.1-0.2,0.3-0.3,0.4-0.5l0,0
	c0.4-0.5,0.8-1.1,1.4-1.3l0,0c0.9-0.4,1.8-0.4,2.7,0l0,0c0.7,0.2,1,1.2,1.9,0.9v0c0.2-0.2,0.3-0.3,0.5-0.4l0,0
	c0.2-0.3,0.7-0.2,0.9-0.5l0,0c0.5-0.3,0.9-0.3,1.4,0l0,0c1.3,0.7,2.8-0.2,4.1,0.5l0,0c0.2,0.1,0.4,0.3,0.5,0.5l0,0
	c0.2,0.1,0.4,0.3,0.5,0.5l0,0c0.3,0.2,0.2,0.7,0.5,0.9l0,0c0.3,0.3,0.2,0.7,0.4,1c-0.1,0.1,0,0.2,0,0.2c-0.5,0.7,0.1,1.7-0.4,2.4
	c-0.1,0.1-0.1,0.2,0,0.4c-0.3,0.4,0,1-0.4,1.5c-0.1,0.1-0.1,0.3,0,0.4c-0.2,0.3-0.2,0.7-0.4,1c-0.1,0.1-0.1,0.3-0.1,0.4
	c-0.2,0.3-0.2,0.7-0.4,1c-0.1,0.1-0.1,0.3-0.1,0.4c-0.2,0.5-0.1,0.8,0.6,0.6l0,0c0.2-0.3,0.7-0.2,0.9-0.5l0,0
	c0.2-0.1,0.3-0.3,0.5-0.4l0,0c0.2-0.2,0.4-0.4,0.6-0.4c0.1,0,0.2,0,0.3-0.1c0.2-0.1,0.3-0.3,0.5-0.4l0,0c0.1-0.2,0.3-0.3,0.5-0.5
	l0,0c0.4-0.5,1-0.1,1.5-0.5c0.3,0,0.5,0,0.8,0c0.6,0.5,1.3,0,1.9,0.4l0,0c0.2,0.3,0.7,0.2,0.9,0.5l0,0c0.2,0.1,0.3,0.3,0.5,0.5l0,0
	c0.2,0.2,0.3,0.3,0.4,0.5l0,0c0.3,0.2,0.2,0.7,0.5,0.9l0,0c0.4,0.6,0.3,1.2,0.1,1.8c0,0.2,0,0.3,0,0.5c0.3,0.3,0.3,0.6,0,0.9
	c-0.1,0.1-0.1,0.2,0,0.4c-0.3,0.4,0,1.1-0.4,1.5c-0.1,0.1-0.1,0.2,0,0.4c-0.2,0.3-0.1,0.7-0.4,1c-0.1,0.1-0.1,0.2-0.1,0.4
	c-0.2,0.3-0.2,0.7-0.4,1l0,0c-0.1,0.1-0.2,0.2-0.1,0.3c0,0.1,0.1,0.1,0.1,0.1c0.5,0.1,0.9,0.1,1.4,0
	C117.4,517.4,117.7,517.4,118,517.6z"/>
<path class="st10" d="M14.8,169.6c-1,1.7-2.1,3.4-3,5.2c-0.8,1.5-1.9,2.8-2.3,4.5c-0.1,0.5-0.9,0.7-1.4,0.5
	c-0.4-0.1-0.8-0.6-0.7-1.1c0.2-0.7,0.4-1.3,0.7-1.9c2-3.7,4-7.4,6.2-11c1.3-2.2,2.9-4.2,4.3-6.2c2.5-3.5,4.8-7.1,7.6-10.4
	c0.5-0.6,0.8-1.3,1.1-2c1.5-3.1,2.9-6.2,4.4-9.4c0.1-0.1,0.1-0.3,0.2-0.4c0.3-0.2,0.6-0.5,0.9-0.5c0.4-0.1,0.5,0.5,0.3,1.1
	c-0.3,0.9-0.6,1.7-0.9,2.7c0.8,0,1.4-0.1,2-0.1c1-2.4,2.6-4.6,3.4-7.6c-0.7,0.6-1.1,1.1-1.5,1.4c-0.4,0.3-0.9,0.4-1.3,0
	c-0.3-0.3-0.5-0.8-0.6-1.2c-0.1-0.3,0.1-0.6,0.2-0.9c1.9-4.6,3.6-9.3,6-13.7c0.3-0.5,0.6-1.1,0.9-1.6c0.4-0.6,0.9-1.1,1.1-1.7
	c0.2-0.9,0.2-1.8,0.3-3c-0.4,0.3-0.7,0.4-0.8,0.6c-0.7,1.3-1.5,2.5-2,3.9c-1.4,3.9-3.4,7.5-5.3,11.2c-1.3,2.5-2.4,5.1-3.7,7.7
	c-0.5,1-0.9,2.1-1.7,2.9c-0.6,0-0.7-0.4-0.7-0.8c0.1-0.5,0.2-1,0.3-1.5c-0.8-0.1-0.9,0.5-1.2,0.9c-2,2.8-4,5.6-6,8.5
	c-1.4,2-2.8,4-4.1,6.1c-1.2,1.9-2.4,3.9-3.5,6c-1.5,2.7-2.9,5.4-4.4,8.1c-0.4,0.8-0.9,1.6-1,2.5c-0.1,0.7-0.9,0.9-1.4,0.3
	c-0.4-0.4-0.6-0.9-0.6-1.4c0.1-1.2,0.4-2.2,1-3.3c1.4-2.6,2.8-5.3,4.3-7.9c2.9-5.5,6.6-10.5,10.1-15.6c2-2.9,4.1-5.8,6.4-8.4
	c1-1.1,2-2.2,2.9-3.3c0.5-0.6,1.1-1.3,1.5-2c1.8-3.4,3.6-6.8,5-10.3c1.1-2.7,2.6-5.4,4.2-7.9c0.6-1,0.9-1.9,0.9-3
	c0.1-2.8,0.6-5.5,1.6-8.1c0.3-0.8,0.6-1.5,1-2.3c-0.9-0.2-1.4,0.3-2,0.5c-0.9,0.4-1.8,0.8-2.8,1.1c-0.1,0-0.5-0.1-0.5-0.3
	c-0.1-0.2,0-0.5,0.1-0.6c0.3-0.3,0.6-0.4,1-0.6c3-1.4,5.9-2.9,8.9-4.3c1.1-0.5,2.3-0.9,3.4-1.4c3.8-1.4,7.6-2.9,11.4-4.3
	c1.1-0.4,2.3-0.9,3.4-1.4c0.9-0.4,1.8-0.8,2.8-0.1c0.3,0.2,0.7,0.1,1.1,0.1c0.9,0,1.6-0.4,1.9-1.3c0.8-2.3,1.6-4.6,2.4-7
	c0.7-2.2,1.2-4.4,1.9-6.8c-0.3-0.1-0.7-0.2-1.2-0.4c0-1.2-0.6-2.2-1.4-3.2c-1.5-1.9-2-4.3-2.6-6.6c-0.2-0.7-0.3-1.3-0.4-2
	c-0.1-0.6-0.2-1.1-0.8-1.5c-0.4-0.2-0.6-0.9-0.8-1.3c-1.2-2.2-2.4-4.4-3.7-6.6c-0.9-1.5-1.5-3-1.5-4.7c0-1.1,0-2.1,0-3.2
	c0-0.8,0.3-1.5,0.7-2.1c0.6-0.8,1.4-1.2,2.4-1c0.5,0.1,1,0.2,1.5,0.4c0.7-0.7,0.6-1.6,0.6-2.4c0.1-2.3,0.1-4.6,0.2-6.9
	c0-0.9,0.2-1.8,0.4-2.7c0.1-0.4,0.4-0.8,1-0.9c0.5-0.1,1.1,0.3,1.2,0.9c0.2,0.7,0.4,1.4,0.6,2.2c0.4-0.2,0.7-0.4,0.9-0.5
	c0-1,0-2-0.1-3c0-0.3-0.2-0.7-0.4-1c-0.2-0.5-0.6-0.9-0.7-1.4c-0.2-0.8,0.5-1.5,1.3-1.4c0.4,0.1,0.8,0.3,1.4,0.5
	c0.7-0.9,1.4-1.7,2-2.5c1.9-2.9,4.3-5.2,7.2-7c1.5-1,2.8-2.2,4-3.5c1.3-1.4,2.8-2.7,4.1-4c0.1-0.1,0.2-0.3,0.4-0.3
	c0.3,0,0.6-0.1,0.8,0c0.2,0.1,0.2,0.6,0.1,0.8C95.8,4,95.4,4.4,95,4.9C94.7,5.1,94.5,5.4,94,6c0.6-0.1,1-0.2,1.4-0.2
	c0.6-0.2,1.2-0.4,1.7-0.5c1.2,0.8,2-0.2,2.9-0.6c0.7-0.3,1.4-0.6,2.1-0.8c0.6-0.2,0.9,0.1,1.2,1c0,0.1,0.1,0.3,0.1,0.5
	c0.9,0,1.8,0,2.7,0.2c1.2,0.2,1.7,1.1,1.2,2.2c-0.2,0.6-0.6,1.2-1.1,2c1.2-0.4,2.1-0.7,3.1-0.9c1-0.3,2.1-0.5,3.1-0.7
	c0.6-0.1,1.1,0,1.4,0.6c0.2,0.4,0.2,0.7,0,1.1c-0.4,0.5-0.9,1.1-1.5,0.8c-1.7-0.7-3,0.1-4.3,0.8c-1.4,0.7-2.8,1.2-4.3,1.5
	c-0.7,0.1-1.4,0.1-1.8-0.6c-0.5-0.7-0.5-1.3,0.1-1.9c0.1-0.1,0.1-0.3,0.2-0.5c-0.9-0.4-1.7,0.2-2.6,0.3c-0.6,0.1-1.2,0.4-1.8,0.4
	c-1.4,0.1-2.1-0.6-2-2.1c0-0.3,0.1-0.6,0.1-0.9c-1.9,0.6-3.7,1.8-4.7,3c-0.3,0.3-0.6,0.6-1,0.9c-0.5,0.3-1.1,0.5-1.7,0.8
	c-0.5,0.2-1,0.5-1.4,0.7c-0.2,0.1-0.3,0.3-0.6,0.6c1.9,0.6,3.6,1.3,5.5,1.5c1,0.1,2,0.2,2.7,1c0.1,0.1,0.2,0.5,0.1,0.6
	c-0.2,0.2-0.5,0.5-0.7,0.5c-2.7-0.7-5.6-0.9-8.2-1.8c-0.9-0.3-1.6-0.2-2.3,0.5c-1.1,1.1-2.5,2-3.2,3.5c0.3,0.5,0.8,0.4,1.2,0.5
	c0.4,0.1,0.9,0.1,1.4,0.2c1.8,0.4,3.6,0.7,5.4,1.1c0.2,0.1,0.3,0.6,0.5,1c-2,0.5-3.9,0.9-5.8,0.6c-1.6-0.2-3.2-0.2-4.7-0.3
	c-0.9,1.8-1,2.3-1,3.7c0,0.3-0.1,0.7-0.3,1c-0.3,0.5-0.7,0.8-0.9,1.3c-0.2,0.3-0.3,0.7,0.1,1c0.6,0.5,0.5,1.1,0.3,1.7
	c-0.2,0.6-0.5,1.1-0.7,1.7c-0.2,0.7-0.2,0.7,0.2,2.1c0.9-0.3,1.2-1.1,1.8-1.6c0.6-0.6,1.3-1.1,1.8-1.6c0.9,0.3,0.9,0.8,0.6,1.3
	c-0.4,0.6-1,1.2-1.4,1.8c-0.3,0.4-0.6,0.7-0.9,1.1c-1.1,1.6-1.8,3.2-1.6,5.3c0.5,4,0.5,8.1,0.8,12.2c0.2,2.7,0.3,5.5,0.9,8.2
	c0.1,0.4,0.2,0.9,0.3,1.3c2.5,1,4.5,2.5,6.4,4.1c2.2,1.9,4.3,4,6.7,5.6c0.5,0.3,1,0.8,1.3,1.3c0.5,0.9,1.2,1.3,2.1,1.7
	c1.1,0.5,2.2,1,3.3,1.6c0.4,0.2,0.6,0.5,0.5,0.9c-0.1,0.4-0.5,0.6-0.9,0.5c-1-0.2-2.2-0.3-3.1-0.7c-2.3-1-4.6-2.2-6.8-3.3
	c-0.3-0.2-0.7-0.4-0.9-0.7c-0.6-1.4-1.9-2.2-2.9-3.2c-0.6-0.6-1.4-1.2-2.3-1.9c-0.4,1.3-0.7,2.4-1,3.5c-0.8,3.1-1.5,6.2-2.8,9.2
	c-0.4,0.8-0.8,1.7-1.1,2.5c-0.4,0.9-0.8,1.8-1.2,2.7c-0.3,0.8-0.7,1.2-1.3,1c-0.8-0.1-1-0.7-0.9-1.4c0-0.2-0.1-0.4-0.1-0.5
	c-1.1-0.1-2.2-0.3-3.4-0.4c-1,0.6-2.2,1.3-3.5,2c0.5,0.8,0.8,1.5,1.2,2.1c1,1.6,2.1,3.2,3.1,4.8c0.7,1.2,1.5,2.2,2.6,3.2
	c2.3,2.1,4.5,4.4,6.8,6.6c1.4,1.3,2.7,2.7,4.4,3.7c1.1,0.7,2.2,1,3.5,0.9c3.5-0.1,6.9-0.1,10.4-0.1c2.7,0,5.4,0.1,8,0.2
	c1.2,0,2.2-0.2,3.3-0.6c1.7-0.7,3.5-1.2,5.2-1.6c1.4-0.3,2.3-1,3-2.2c2.2-3.9,4.5-7.7,6.8-11.5c0.8-1.4,1.8-2.6,2.8-4
	c-0.2-0.1-0.5-0.3-0.8-0.4c-0.7-0.1-1.4-0.1-2-0.1c-0.6-0.1-1.2-0.3-1.8-0.3c-0.9,0-1.8,0.2-2.7,0.2c-0.9,1.2-1.8,2.4-2.6,3.6
	c-0.3,0.4-0.7,0.9-0.6,1.2c0.2,1.2-0.6,1.6-1.3,2.2c-0.5,0.4-0.9,1.1-1.4,1.5c-0.4,0.4-0.8,0.4-1.3,0.1c-0.4-0.3-0.7-0.7-0.5-1.2
	c0.3-0.8,0.6-1.5,1-2.3c1.7-1.4,2.9-3.3,4.3-5.2c-1-0.1-1.7-0.3-2.4,0.1c0.2,0.7,0,1.3-0.4,1.9c-0.6,1-1.2,1.9-1.7,2.9
	c-1.6,2.4-3.2,4.8-4.8,7.3c-0.2,0.3-0.3,0.5-0.4,0.8c-0.2,0.4-0.5,0.8-1.1,0.6c-0.5-0.1-0.6-0.6-0.3-1.3c0.3-0.7,0.5-1.4,0.9-2.1
	c1.6-2.5,3.2-5,4.8-7.5c0.6-1,1.4-1.8,2-2.7c-0.1-0.1-0.1-0.3-0.2-0.4c-1.2-1-1.2-1.3,0-1.9c0.3-0.1,0.5-0.2,1-0.5
	c-0.7-0.5-1.1-1-1.7-1.2c-0.1,0.1-0.3,0.2-0.3,0.3c-0.4,1.3-0.8,2.6-1.2,3.9c-0.4,1.4-0.4,1.4-2.1,1.4c-1.6,2.8-3.1,5.6-4.7,8.3
	c-1.2,2.1-2.4,4.1-3.6,6.1c-0.1,0.2-0.2,0.5-0.4,0.5c-0.3,0.1-0.8,0.3-1,0.2c-0.3-0.1-0.5-0.6-0.6-0.9c0-0.4,0.1-0.9,0.3-1.3
	c0.3-0.6,0.6-1.2,1-1.8c2.9-5,5.7-10,8.6-14.9c0.4-0.7,0.7-1.4,0.7-2.2c0-0.4,0.1-0.8,0.1-1.1c-0.1-2.7,0.2-5.3,0.8-8
	c0-0.1-0.1-0.3-0.1-0.6c-1.6,0.7-3.1,1.6-4.1,3.3c-1.5-0.3-2.8,0.3-3.8,1.3c-0.4,2-0.7,3.9-1.2,6.3c0.5-0.6,0.7-0.8,0.9-1.1
	c0.9-1.7,2.2-2.9,3.4-4.3c0.9-1.1,1.9-1.5,2.3-1c0.6,0.9-0.1,1.6-0.5,2.3c-0.2,0.3-0.4,0.6-0.6,1c-1.1,1.6-2.2,3.3-3.3,4.9
	c0,0.1,0,0.2,0,0.3c0-0.1,0-0.2,0-0.3c0.2,0,0.5,0,0.7,0.1c0.7,0.2,1,0.5,0.7,1.1c-0.3,0.6-0.7,1.2-0.9,1.8c-1,2.2-1.9,4.3-2.9,6.5
	c-0.1,0.2-0.2,0.4-0.3,0.6c-0.2,0.4-0.4,0.9-0.9,0.9c-0.3,0-0.6-0.3-1.1-0.6c-0.1,1.1-0.2,2.1-0.2,3.2c-0.5,0.6-1,1.3-1.6,1.9
	c-0.3,0.4-0.8,0.5-1.2,0.4c-0.5-0.2-0.7-0.6-0.7-1.1c0-0.2,0-0.5,0.1-0.7c0.1-0.4,0.2-0.8,0.3-1.1c1.4-3.6,1.8-7.4,2.6-11.2
	c0.5-2.5,1.1-4.9,1.7-7.4c0.1-0.6,0.4-1.2,0.5-1.8c0.1-0.5,0-1-0.1-1.5c1-1.2,2.2-2,3.5-2.7c0.7-0.4,1.4-0.7,2.1-1
	c1.2-0.6,2.1-1.4,2.9-2.5c2.1-3.1,4.2-6.1,6.3-9.1c0.2-0.3,0.5-0.6,0.8-1c0.5,0.3,0.9,0.6,1.3,1c0.6-0.6,1.3-1.3,2-2
	c0.3-2.6,0.4-5.2,0.8-7.8c0.6-4.2,1.3-8.3,2.1-12.5c0.5-2.6,0.7-5.3,0.8-8c0.1-1.8,0.1-3.5,0.3-5.3c0.1-0.8,0.2-1.5,0.3-2.3
	c0.3-1.1,0.7-1.2,2.1-0.8c0.1,2,0.2,3.9,0.3,5.9c0.1,2,0.1,4,0.1,5.9c2.6,1.4,2.8,1.7,2.8,4.8c0,1.9-0.1,3.8-0.9,5.6
	c-0.4,0.8-0.7,1.7-1.2,2.5c-0.7,1.3-1.5,2.5-2.1,3.8c-0.8,1.8-1.6,3.6-1.7,5.7c-0.1,2.1-1,4-2.2,5.7c-0.6,0.8-1,0.8-1.6-0.2
	c-0.1-0.1-0.2-0.2-0.4-0.4c-2,2.5-4,5-6,7.6c0.8,1.6,0.9,3.4,0.6,5.3c-0.2,1.4-0.2,2.7-0.3,3.9c0.2,0.3,0.3,0.5,0.4,0.5
	c1.8,1.6,4.1,2.3,6.4,2.9c2.3,0.6,4.5,1.5,6.6,2.6c1.3,0.7,2.7,0.9,4.1,1.3c0.2,0.1,0.5,0,0.7-0.1c2-0.6,4.1-0.2,6.2-0.2
	c0.2,0,0.3,0,0.5,0.1c0.5,0.2,0.8,0.5,0.8,1c0,0.5-0.4,0.8-0.8,1c-0.1,0-0.3,0.1-0.5,0.1c-2.1,0-4.3,0.4-6.4-0.3
	c-0.5-0.2-1.1-0.1-1.7-0.1c-0.6,0.9-1.4,1.8-1.7,2.9c-0.6,1.7-1.4,3.2-2.2,4.8c-2,4.1-4.5,7.8-7.2,11.4c-0.6,0.7-1.1,1.5-1.6,2.3
	c-0.3,0.4-0.6,0.7-0.9,1c-0.4,0.4-1.1,0.4-1.5,0c-0.4-0.4-0.5-0.8-0.2-1.2c0.2-0.4,0.5-0.8,0.8-1.1c0.1-0.2,0.2-0.5,0.4-0.8
	c-0.9-0.1-1.6,0.3-2.3,0.6c-1.2,0.5-2.4,1.1-3.6,0.4c-0.6,0.7-1,1.1-1.8,1.1c-1.8,0-3.5,0.1-5.3,0.1c-4.6,0-9.2,0-13.8,0
	c-1.8,0-3.4-0.5-5.1-1c-1.9-0.6-3.3-1.8-4.7-3.1c-0.9-0.8-1.7-1.7-2.9-2.1c-0.7-0.2-1.4-1-1.9-1.6c-1.6-2-3.4-4-4.5-6.3
	c-0.2-0.4-0.5-0.8-0.7-1.2c-1.3-2.2-2.5-4.4-3.9-6.6c0.1,0,0,0-0.1,0c-0.1,0-0.2,0-0.2,0c-5.3,1.9-10.7,3.7-16.1,5.6
	c-0.5,2.2-0.9,4.4-1.4,6.7c-0.1,0.6-0.1,1.2-0.2,1.8c-0.4,8.3-0.9,16.7-1,25c0,3.3-0.4,6.6-0.7,9.9c0,0.3,0,0.5,0,1.2
	c0.4-0.7,0.6-0.9,0.8-1.3c0.9-1.8,1.7-3.6,2.6-5.4c0.4-0.8,0.8-1.5,1.3-2.2c0.1-0.2,0.6-0.3,0.8-0.2c0.2,0.1,0.4,0.5,0.4,0.7
	c-0.1,0.5-0.3,1-0.4,1.5c-1.3,3.6-2.6,7.2-3.9,10.8c-0.2,0.6-0.3,1.2-0.5,1.8c0,0.1,0.2,0.2,0.3,0.3c0.5-0.1,0.5-0.5,0.6-0.9
	c1.1-3,2.3-6,3.4-9c0.5-1.4,1.5-2.5,2.4-3.7c0.1-0.2,0.6-0.3,0.8-0.2c0.4,0.1,0.6,0.5,0.6,0.9c-0.1,0.7-0.3,1.5-0.5,2.2
	c-2,5.2-3.9,10.5-5.3,15.9c-0.2,0.8-0.2,0.9,1,1.6c0.4-0.8,0.7-1.6,1.1-2.5c0.3-0.8,0.7-1.5,1-2.3c1-2.3,2-4.6,3.1-6.9
	c0.2-0.4,0.5-0.8,0.8-1.1c0.1-0.1,0.5-0.3,0.6-0.2c0.2,0.1,0.5,0.4,0.6,0.6c0.2,0.8,0,1.7-0.3,2.5c-1.1,2.6-2.2,5.2-3.2,7.9
	c-0.8,2-1.6,4-2.3,6c-0.2,0.4-0.2,0.9-0.1,1.3c0.5,1.7,0.5,3.5,0.5,5.2c0,0.1,0.1,0.2,0.2,0.4c1-1.6,1.3-3.3,1.9-4.9
	c1.1-2.8,2.1-5.6,3.1-8.4c0.3-0.7,0.7-1,1.1-0.9c0.6,0.1,0.9,0.7,0.7,1.5c-0.1,0.4-0.3,0.9-0.4,1.3c-1.4,4.5-2.8,8.9-4.2,13.4
	c-0.5,1.5-0.8,2.9-0.7,4.5c0.1,1.6-0.2,3.2-0.3,5c0.3-0.4,0.5-0.7,0.6-0.9c1.3-3.2,2.6-6.4,3.9-9.6c0.3-0.6,0.5-1.3,0.8-1.9
	c0.1-0.3,0.2-0.6,0.4-0.8c0.2-0.2,0.6-0.2,0.8-0.2c0.2,0,0.4,0.3,0.4,0.5c0,0.6-0.1,1.2-0.3,1.8c-0.8,2.3-1.6,4.6-2.5,6.9
	c-1,2.7-1.8,5.5-2.5,8.4c-0.6,2.5-1.4,5-2.2,7.5c-0.2,0.8-0.3,1.5-0.2,2.3c0.5,3.7,1,7.4,1.5,11.5c0.4-0.4,0.7-0.7,0.8-1
	c0.5-1.6,1-3.2,1.5-4.8c0.1-0.3,0.3-0.7,0.6-1c0.1-0.1,0.3-0.1,0.4-0.1c0.1,0,0.3,0.2,0.3,0.3c0,0.4,0,0.9,0,1.4
	c-0.2,1.2-0.5,2.4-0.5,3.6c0.2-0.3,0.5-0.6,0.7-0.9c0.3-0.5,0.7-0.9,1.3-0.6c0.6,0.3,0.4,0.9,0.3,1.4c0,0.2-0.1,0.4-0.2,0.7
	c-0.9,3.5-2,6.9-3.3,10.3c-0.3,0.6-0.7,1.2-0.4,2c-0.1,0-0.2,0.1-0.3,0.1c0.1,0.1,0.1,0.1,0.2,0.2c0-0.1,0.1-0.2,0.1-0.3
	c0.3-0.2,0.5-0.4,0.8-0.5c0.3,0,0.7,0.1,1.2,0.2c-0.6,1.4-1,2.6-1.5,3.8c-0.2,0.5-0.4,0.9-0.2,1.5c0.1,0.3,0,0.8-0.1,1.1
	c-1.1,2.8-2.3,5.5-3.5,8.2c-0.3,0.7-0.7,1.3-1.2,2.2c0.3,0.4,0.6,0.9,1,1.5c0.2-0.2,0.4-0.3,0.4-0.4c-0.2-1.9,0.6-3.4,1.4-5
	c0.1-0.2,0.5-0.6,0.7-0.5c0.3,0.1,0.7,0.4,0.8,0.7c0.3,0.5,0.4,1.2,0.5,1.8c0.8,0,1.7-0.2,2.2,0.6c0.1,0.2,0.5,0.3,0.8,0.4
	c2,0.7,4.1,1.2,6.1,2c3.7,1.4,7.5,2.3,11.3,3c3.4,0.7,6.8,1.2,10.2,1.8c0.4,0.1,0.8,0.1,1.1,0.3c0.2,0.1,0.4,0.5,0.4,0.7
	c0,0.2-0.3,0.6-0.5,0.7c-0.3,0.1-0.8,0.1-1.1,0c-4.4-0.5-8.8-1.2-13.2-1.6c-4.1-0.4-7.9-1.6-11.7-3.1c-0.6-0.2-1.1-0.5-1.7-0.6
	c-2.5-0.8-2.5-0.8-4.3-2.3c-0.2,1.3-0.2,2.5,0,3.8c0.5,0.2,1,0.4,1.5,0.6c4.1,1.2,8.2,2.5,12.3,3.7c5,1.4,10.1,2.6,15.2,3.6
	c4.7,0.9,9.5,1.6,14.3,2.3c1.7,0.2,3.5,0.7,5.2,1c2.7,0.5,5.5,0.8,8.2,1.3c2.8,0.5,5.6,1,8.4,1.5c0.9,0.2,1.8,0.4,2.7,0.5
	c1.4,0.1,2.7,0,3.9-1c0.8-0.7,1.9-1,2.9-1.5c-0.7-1-1.8-1.1-2.6-1.7c-0.4,0.4-0.7,0.8-1.1,1.1c-1,0.8-2.1,0.6-2.7-0.5
	c-0.3-0.5-0.3-1-0.5-1.6c-0.9-0.3-1.8-0.2-2.7-0.2c-3.3,0-6.6-0.1-9.9-0.7c-1.3-0.2-2.6,0-3.5,1.1c-0.2,0.2-0.3,0.3-0.5,0.4
	c-0.4,0.2-1,0.3-1.3-0.1c-0.3-0.3-0.5-0.8-0.5-1.2c0-0.3,0.3-0.7,0.4-1.1c0.1-0.3,0.3-0.7,0.4-1.1c-0.9,0-1.7-0.1-2.4,0
	c-1.8,0.2-3.7,0.4-5.5,0.7c-4.1,0.6-8.1,0.2-12.2,0.1c-0.2,0-0.3,0-0.5-0.1c-0.5-0.1-0.8-0.5-0.8-1c-0.1-0.4,0.3-1,0.7-1
	c0.5-0.1,1.1-0.1,1.6-0.2c2.8-0.1,5.5-0.2,8.3-0.4c1.3-0.1,2.6-0.3,4-0.5c0.1-2.1,1.6-3.3,2.8-4.7c1.4-1.7,3.1-3.2,4.6-4.8
	c0.2-0.2,0.3-0.3,0.6-0.4c0.3-0.1,0.6-0.1,0.8,0.1c0.2,0.2,0.3,0.6,0.2,0.8c-0.2,0.6-0.5,1.1-0.9,1.6c-1.6,2.1-3.2,4.1-4.8,6.2
	c-0.2,0.2-0.3,0.5-0.6,1c2.2-0.1,4-0.2,5.9-0.5c0.4-0.1,0.9-0.4,1.1-0.7c0.6-0.6,1-1.4,1.5-2c1.4-1.6,2.8-3.3,4.2-4.9
	c0.6-0.6,1.3-1.2,2.2-0.7c1.2-1.7,2.3-3.3,3.3-4.9c0.4-0.6,0.9-0.9,1.7-1c1.2-4,3.4-7.5,5.4-11.1c0.9-1.7,1.9-3.3,2.9-4.9
	c0.8-1.3,0.8-1.3,2.3-0.5c1.2-1.2,1.2-1.4-0.3-2.9c-0.3,0.2-0.6,0.4-0.8,0.7c-2.1,2.4-3.7,5.1-5.4,7.7c-0.7,1-1.3,2.1-2,3.1
	c-0.5,0.8-1.2,1.6-1.3,2.7c0,0.3-0.3,0.6-0.4,0.8c-1,1.4-2.1,2.8-3.1,4.3c-0.5,0.6-0.9,1.2-1.3,1.9c-0.3,0.4-0.5,0.8-0.8,1.1
	c-0.6,0.6-1.7,0.4-2.1-0.4c-0.3-0.5-0.4-1-0.2-1.5c0.2-0.6,0.5-1.1,0.8-1.6c3.2-4.8,6.4-9.5,9.6-14.3c0.9-1.3,1.8-2.5,2.7-3.7
	c0.2-0.2,0.3-0.5,0.4-0.9c-1.7-0.6-3.1,0.6-4.6,0.2c-2.5,3.5-5,6.8-6.9,10.6c-0.7,1.4-1.9,2.6-2.9,3.9c-0.3,0.4-0.8,0.7-1.4,0.4
	c-0.5-0.2-0.9-0.9-0.8-1.5c0.1-0.5,0.3-1,0.6-1.5c0.4-0.7,0.9-1.4,1.4-2.1c2.2-3.2,4.4-6.5,6.6-9.7c0.1-0.2,0.2-0.4,0.4-0.7
	c-0.3-0.4-0.6-0.9-1-1.5c-1-0.1-2-0.2-3.1-0.3c-1.2,0.6-2,1.8-2.9,2.8c-1.5,1.9-2.9,3.9-4.4,5.9c-0.9,1.2-1.6,2.5-2.5,3.5
	c-1,1-2.2,1.9-3.4,2.7c-0.5,0.3-1.4-0.2-1.3-0.8c0-0.6,0.2-1.2,0.4-1.8c0.4-1.5,1.3-2.6,2.7-3.2c1.8-0.7,2.5-2.4,3-4.1
	c0.2-0.7,0.4-1.3,0.8-1.8c1.3-1.8,2.9-3.4,4.5-4.9c0.8-0.8,1.5-1.5,2.3-2.3c0.1-0.1,0.1-0.3,0.1-0.6c-1.4,0.2-2.9,0.2-4.3,0.5
	c-0.7,0.1-1,0.8-1.3,1.6c0.6-0.1,1-0.1,1.4-0.1c0.3,0,0.6,0.7,0.3,0.9c-0.2,0.2-0.5,0.4-0.7,0.5c-0.8,0.4-1.7,0.8-2.6,1.2
	c-0.8-0.6-1.6-1.2-2.5-1.9c0.7-1,1.9-1.2,2.7-2c-3.6-1.1-7.2-0.3-10.9-0.6c-0.2-0.6-0.3-1.1-0.5-1.6c-0.4-1.1-1.2-1.8-2.4-1.9
	c-1.3-0.1-2.6-0.3-3.9-0.4c-1.1-0.1-2.2,0-3.2,0c-1.4-0.1-2.7-0.6-3.7-1.6c-0.8-0.8-1.6-1.6-2.4-2.4c-0.5-0.5-0.7-1-0.7-1.6
	c0-0.8,0.2-1.5,0.3-2.3c0.1-0.4,0.2-0.9,0.3-1.5c-0.7-0.1-1.3-0.2-1.9-0.3c-1.7-0.2-3.3-0.4-5-0.6c-0.5-0.1-0.9-0.2-1.3-0.3
	c-0.4-0.1-0.7-0.3-0.7-0.8c0-0.4,0.4-0.7,1-0.7c1.4,0.1,2.8,0.1,4.1,0.3c1.4,0.1,2.9,0.2,4.5,0c-0.4-1.1-0.1-2,0.4-2.9
	c1-1.9,1.8-3.9,2.6-5.9c0.9-2.2,2.1-4.3,3.7-6.1c0.4-0.5,0.8-1,1.1-1.4c0.6-0.7,1.2-1.4,1.8-2.1c1.7-1.7,3.7-3,6.2-2.7
	c1.3-1.6,2.1-2,4-1.9c0.7,0,1.4,0.1,1.9,0.7c0.4,0.4,0.8,0.7,1.3,1c0.3,0.2,0.7,0.4,1.1,0.7c0.9-0.7,1.8-1.6,3.2-1.3
	c1.4,0.3,1.9,1.4,2.5,2.7c0.4-0.4,0.6-0.6,0.8-0.9c2.3-2.8,4.5-5.6,6.8-8.4c0.4-0.5,0.9-1,1.4-1.6c0.5-0.5,0.9-0.6,1.2-0.3
	c0.4,0.4,0.2,0.9-0.1,1.2c-0.7,0.9-1.3,1.7-2,2.5c-2.5,2.9-4.7,6-7,9.1c0.4,1.8,1.4,3,2.8,4.1c3,2.1,5.9,4.4,8.8,6.6
	c0.4,0.3,0.8,0.5,1.2,0.7c1.2-0.9,2.1-2.1,3.1-3.1c0.9-0.9,1.8-1.9,2.7-2.8c0.3-0.3,0.6-0.4,1-0.2c0.3,0.2,0.3,0.8,0,1.2
	c-0.2,0.3-0.5,0.6-0.8,0.9c-0.6,0.7-1.1,1.4-1.7,2.1c0.3,0.6,0.7,0.4,1,0.3c1-0.2,1.9-0.5,2.9-0.8c0.9-0.3,1.8-0.6,2.9-0.3
	c0.7,0.2,1.6-0.1,2.6-0.2c0.2-0.2,0.5-0.7,0.7-1.1c3.1-5.5,5.9-11.1,8.2-17c0.1-0.3,0.2-0.6,0.4-0.8c1.5-2.5,1.7-5.3,1.7-8.2
	c-0.1-3.8-0.8-7.6-1.4-11.4c-0.5-3.2-1-6.5-1.6-9.8c-0.3-2-0.7-4.1-1.1-6.1c-0.8-4.6-1.6-9.2-2.4-13.8c-0.4-2.2-0.7-4.4-1.1-6.6
	c-0.1-0.6-0.3-1.2-0.8-1.6c-0.4-0.4-0.6-0.8-0.9-1.1c0.1-0.8,0.7-0.9,1.1-1.1c0.4-0.3,0.7-0.8,0.9-1.1c0.6,0,1,0.3,1,0.8
	c0,1,0.7,1.5,1.4,2c2.2,1.5,4.5,3,6.7,4.5c0.6,0.4,1,0.9,1.5,1.3l0.1,0c-0.8-0.3-1.6-0.5-2.4-0.8c-0.6-0.2-1.2-0.4-1.7-0.6
	c-1.1-0.3-2-0.1-2.6,0.9c-0.3,0.5-0.7,1-1,1.4c0.6,3.7,1.2,7.3,1.8,10.9c0.7,4.2,1.5,8.4,2.3,12.7c0.7,3.9,1.3,7.9,1.3,11.9
	c0,1.2,0.2,2.4,0.4,3.9c0.5-0.6,0.6-1.1,0.8-1.5c0.2-0.5,0.4-1,0.7-1.4c0.1-0.2,0.5-0.4,0.7-0.3c0.2,0.1,0.5,0.4,0.5,0.7
	c0,0.6,0,1.2-0.1,1.8c-0.2,2.2-0.9,4.3-0.7,6.6c0,0.3-0.1,0.6-0.2,0.9c-1,2-1.1,4.3-1.6,6.4c-0.1,0.2,0,0.5,0,0.7
	c0,0.4,0.2,0.5,0.7,0.4c0.1-0.8,0.2-1.6,0.4-2.4c0.8-3.7,1.6-7.5,2.5-11.2c0.3-1.3,0.9-2.6,1.4-3.9c0.1-0.3,0.4-0.5,0.6-0.7
	c0.1-0.1,0.3-0.1,0.4,0c0.2,0.1,0.4,0.3,0.4,0.5c0,0.4-0.2,0.7-0.3,1.1c-0.3,1.3-0.8,2.5-0.9,3.8c-0.3,2.7-0.7,5.3-1.4,7.9
	c-0.3,1.2-0.6,2.5-0.7,3.8c0.9-0.1,0.4-0.7,0.6-1c1-1.3,2-2.7,3.2-3.9c1-1,2.2-1.9,3.4-2.7c0.9-0.6,1.5-1.3,1.9-2.1
	c1.1,0.1,2.1-0.1,2.5-0.7c0.4-1,0.5-1.9,1-2.4c0.5-0.5,1.3-0.6,2.1-0.9c-0.7-0.8-0.1-1.5,0.4-2c0.6-0.6,1.4-1.2,2.2-1.6
	c1.6-0.9,3.3-1.8,5.2-1.9c0.1-0.3,0.1-0.5,0.1-0.6c-1-3.9-2-7.9-3.1-11.8c-0.9-3-1.9-6-2.9-8.9c-0.3-0.9-0.7-1.5-1.6-2.1
	c-1.2-0.8-2.5-1.6-3.8-2c-2.5-0.9-4.3-2.6-6.3-4.1c-1.2-1-2.4-1.9-3.6-2.8c-0.6-0.5-1.2-0.9-1.7-1.4l0,0.1c2.1,0.4,4.1,1.2,6.1,2.1
	c2.3,1,4.6,2.1,6.9,3.1c1.2,0.6,2.2,1.4,2.7,2.7c0.3,0.9,0.8,1.6,1.9,1.7c0.9,0.1,1.2,0.9,1.5,1.6c0.6,1.4,1.2,2.8,1.8,4.2
	c2.2,4.9,3.5,10.1,4.8,15.3c0.3,1,0.5,2.1,0.8,3.1c0.8,0.1,1.4,0.2,2.1,0.3c0.8,0.1,1.5,0.4,2.2,1c1.1,0.9,1.6,2,1.6,3.4
	c0,1.8,0.6,3.5,0.9,5.2c0,0.2,0,0.5,0.2,0.7c1,0.8,0.8,1.9,0.7,3c-0.1,0.5,0.1,1.1,0.1,1.6c0.2,1.4,0.5,2.7,0.8,4.1
	c0.2,1.3,0.3,2.6,0.4,3.9c0.1,1.1,0.2,2.3,0.4,3.4c0.5,2.1,0.5,4.3,0.4,6.4c0,0.6-0.2,1.2-0.5,1.7c-0.4,0.5-0.5,1.1-0.7,1.7
	c-0.5,1.5-0.3,2.8,0.1,4.3c1.2,4.5,1.8,9,2.4,13.6c0.2,1.9,0.1,3.8,0.1,5.7c0,1.4,0,2.8-0.1,4.1c-0.1,0.9,0.6,1.1,1.2,1.6
	c0.1,2.4,0.3,4.8,0.4,7.3c0,0.7-0.1,1.3-0.6,1.9c-1.4,1.4-2.7,2.9-4,4.4c-0.3,0.3-0.7,0.5-0.8,0.8c-0.4,1.6-1.7,2.1-2.9,2.7
	c-0.1,0.1-0.2,0.2-0.4,0.3c-0.2,2.4-0.5,2.6-2.7,2.6c-1.5,0-3-0.2-4.5-0.8c-1.8-0.8-3.8-1.2-5.7-1.8c-0.4-0.1-0.8-0.2-1.1-0.2
	c-1.2,0.1-2.4-0.3-3.6-0.4c-1.9-0.2-3.7-0.8-5.4-1.8c-0.5-0.3-1.1-0.4-1.7-0.5c-0.5-0.1-0.8-0.2-1.2-0.6c-0.4-0.4-0.9-0.6-1.4-0.8
	c-4.5-1.3-8.9-2.9-13.3-4.5c-0.2-0.1-0.4,0-0.8-0.1c-0.1,0.9-0.2,1.8-0.2,2.7c0,0.9-0.1,1.8,0,2.8c0.2,3.4,0.4,6.9,0.6,10.3
	c0.3,4.4,0.6,8.7,0.9,13.1c0,0.4,0.2,0.9,0.3,1.4c0.7,0,1.3-0.1,2.1-0.1c-0.3,0.5-0.6,0.8-0.7,1.1c0.3,1.4,0.5,2.8,0.9,4.1
	c1.2,4.1,1.3,8.3,1.1,12.5c0,0.4-0.1,0.9-0.3,1.1c-1.3,1-0.9,2.3-0.6,3.4c0.7,3.2,0.3,6.4-0.3,9.6c-0.2,1-0.3,2-0.4,3
	c-0.3,2.4-0.8,4.7-0.8,7.1c0.1,3.5-0.5,7-0.9,10.5c-0.4,3.2-1.1,6.3-1.8,9.5c-0.6,2.9-1.5,5.8-2.2,8.7c-0.5,2.1-1,4.2-2.5,5.8
	c-0.1,0.9-1,0.9-1.6,1.3c-1,3.8-2.1,7.6-2.5,11.6c-0.5,5-1.3,9.9-1.9,14.8c-0.2,1.5-0.4,3-0.7,4.6c-0.3,2.1-0.8,4.2-1.6,6.2
	c-0.8,2.1-1.4,4.2-2,6.4c-1.1,3.9-2.1,7.8-3.2,11.7c0,0.1,0,0.3,0,0.6c0.5,0,1-0.1,1.5-0.1c0,0.4,0.1,0.8,0,1.1
	c-0.2,0.6-0.5,1.3-0.8,1.9c-0.6,1.2-1.1,2.4-1.7,3.5c-0.2,0.4-0.3,0.9-0.5,1.3c-1.7,2.2-1.9,4.9-2.7,7.5c-0.9,3-1.7,6-2.9,8.9
	c-0.9,2-2.1,2.8-4.3,2.6c-0.4,0-0.8-0.1-1.1-0.1c-1.5,0-3-0.1-4.7,0.1c-0.1,0.8-0.2,1.5-0.2,2.1c-0.1,2.4,0,2.4-1.5,4.4
	c-0.2,0.3-0.4,0.6-0.4,1c0,1.2-0.1,2.5-0.2,3.7c0,0.4-0.1,0.8,0.1,1.1c0.8,1.5,0.3,3,0.4,4.5c0,0.3,0,0.7-0.2,0.9
	c-0.9,0.9-0.7,2-0.7,3c-0.2,9.4-0.4,18.9-0.3,28.3c0,4.1,0,8.1-0.1,12.2c-0.1,2.9,0.3,5.7,0.7,8.5c0.8,5.3,1.1,10.7,1.6,16
	c0.2,1.8,0.2,3.7,0.7,5.5c0.2,0.7,0,1.5-0.1,2.4c0.3,0.2,0.7,0.6,1.1,0.9c1.1,0.8,2.1,1.8,2.9,2.9c1.3,1.7,2.6,3.4,3.9,5.1
	c0.6,0.9,1.2,1.8,1.7,2.7c1.1,1.9,2.2,3.9,3.2,5.8c0.8,1.4,1.6,2.8,2.9,3.8c0.6,0.5,0.9,1.2,0.9,2c0,0.8,0.1,1.5,0.2,2.3
	c0,0.7,0.2,1.3,0.8,1.8c0.5,0.4,0.7,1,0.7,1.6c0,0.6,0.1,1.2,0.1,1.8c0,3.1,0,6.1,0,9.2c0,1.2-0.3,2.4-0.5,3.6
	c-0.1,0.9-0.6,1.3-1.4,1.6c-2.5,0.7-4.9,1.6-7.3,2.7c-2.4,1-4.8,2-7.5,1.9c-1.1,0-1.7,0.7-2,1.6c-0.2,0.6,0,1.3-0.8,1.5
	c-0.9,0.3-1.8,0.5-2.7-0.1c-1.2-0.7-2.3-1.5-3.2-2.6c-0.7-1-1.4-2-2.5-2.9c-0.3,0.5-0.6,0.9-0.8,1.2c-0.4,0.5-0.9,0.9-1.6,0.6
	c-0.7-0.2-1.2-0.7-1.2-1.5c0-1,0.2-2,0.3-3c0.1-0.4,0.2-0.9,0.3-1.2c-0.3-0.7-0.8-0.7-1.3-0.6c-2.9,0.1-5.1-1.3-7.2-3
	c-0.3-0.2-0.4-0.7-0.4-1c0-0.4,0-0.8,0.2-1.1c1-2.8,2-5.6,3.6-8.2c1-1.7,1.6-3.4,1.4-5.4c-0.1-1.1-0.1-2.3-0.1-3.4
	c0-0.5-0.2-1-0.5-2c-0.4,1.1-0.6,1.9-0.9,2.6c-0.2,0.6-0.7,1-1.4,1c-0.7,0-1.2-0.3-1.4-1c-0.2-0.7-0.3-1.5-0.4-2.3
	c-0.2-3.3-0.1-6.6,0.6-9.8c0.6-2.4,0.1-4.6-0.9-6.7c-0.7-1.6-1.3-3.2-1.6-4.9c-1.9-0.7-2.3-1.2-1.9-3c0.4-2,0.2-3.7-0.8-5.5
	c-0.8-1.4-1.3-2.9-2-4.4c-0.2-0.6-0.5-1.1-1.2-1.3c-0.6-0.1-1-0.6-0.9-1.2c0.1-2-0.9-3.7-1.7-5.4c-0.5-1.1-1-2.2-1.5-3.3
	c-0.2-0.3-0.3-0.8-0.6-1c-1.2-0.6-1.2-1.8-1.5-2.9c-1.4-4.9-2.8-9.7-4.2-14.6c-0.8-2.9-1.4-5.8-2.2-8.7c-0.3-1.3-0.6-2.5-1.1-3.7
	c-1.2-3.1-1.7-6.4-2.1-9.6c-0.7-5.2-0.9-10.5-0.9-15.8c0-11.4,0-22.7,0.1-34.1c0-1.4-0.1-2.9,0.8-4.2c0.2-0.3,0.2-0.9,0.2-1.3
	c0-0.9,0-1.8,0-2.8c0-1.5-0.2-2.9-0.9-4.2c-0.8-1.7-1.4-3.4-2.4-4.9c-0.6-1-0.9-2.3-1.5-3.3c-1.6-2.8-3.2-5.6-4.9-8.3
	c-1-1.7-2-3.4-2.1-5.5c0-0.2-0.2-0.4-0.4-0.7c-0.3,0.1-0.7,0.2-1,0.4c-1,0.6-1.9,0.4-2.8,0c-3.2-1.3-4.9-3.9-4.9-7.3
	c0-1.5,0.1-3.1,0.1-4.6c0-1.8,0.3-3.5,0.8-5.2c0.3-0.9,0.5-1.8,0.8-2.6c0.4-1.1,0.4-2.2-0.1-3.3c-1.1-2.3-1.7-4.8-2.4-7.2
	c-1.1-4.2-2.1-8.5-3.1-12.7c-0.2-0.8-0.5-1.6-0.7-2.5c-1.3,0.8-2.5,1.4-3.3,2.7c-0.3,0.5-0.7,0.5-1.2,0.4c-0.5-0.1-0.8-0.7-0.7-1.3
	c0.1-0.9,0.6-1.6,1.3-2.1c0.6-0.5,1.3-1,1.9-1.6c-0.3-0.6-0.5-1.1-0.7-1.7c-0.2-0.6-1-1-0.9-1.8c0.1-0.6,0-1.2,0-2
	c-0.6,0.1-1.1,0.2-1.6,0.1c-0.5-0.1-1-0.4-1.5-0.6c-0.8-0.5-1.2-1.2-1-2.1c0.2-1.3,0.5-2.6,0.8-3.8c0.4-1.5,0.9-2.9,1.4-4.4
	c0.2-0.7,0.2-1.3-0.1-2c-1.1-2.3-1.4-4.8-1.7-7.4c-0.3-2.3-0.5-4.6-0.7-6.8c-0.9-0.7-1.8-1.6-2.8-2c-1-0.4-2.3-0.3-3.4-0.4
	c-2.1-0.2-4-0.9-5.7-2.1c-1-0.7-1.5-1.5-1.5-2.7c0.1-2,0.1-4,0.8-5.9c0.7-2,1.2-4.1,1.8-6.1c0.1-0.3,0.2-0.6,0.2-0.9
	c0.2-4.8,0.8-9.6,0.6-14.5c-2.6-2.6-4.3-5.8-6-9.1c-1.1-2.1-2.4-3.9-3.8-5.7c-0.7-0.8-1.3-1.7-2-2.5c-0.7-0.9-1-1.9-0.3-3
	c-1.3-2.6-2.1-5.5-2.8-8.3c-0.4-1.8-0.3-3.7-0.1-5.5c0.1-0.9,0.5-1.6,1.5-1.9c0.8,0.2,1.2,0.9,1.4,1.6c0.1,0.4,0.1,0.9,0.1,1.4
	c-0.2,3.7,1.1,7,2.5,10.2c2.1,4.7,4.5,9.2,6.8,13.8c0.4,0.8,0.9,1.6,1.4,2.4c0.7-0.2,1.2-0.3,1.9-0.5c0.2,1.2-0.4,2.4,0.2,3.5
	c0.3,0,0.5,0,0.8,0c0.1-0.2,0.2-0.4,0.1-0.5c-0.7-3,0-5.8,1-8.6c0.7-2,1.7-4,2.5-5.9c0.3-0.6,0.6-1.3,1.3-1.5
	c0.2-0.1,0.4-0.4,0.6-0.6c0.5-0.9,1-1.9,1.5-2.9c0.4-0.7,0.6-1.4,0.6-2.2c0-0.9,0.2-1.8,0.7-2.6c1.7-3.4,3.4-6.9,5.2-10.3
	c0.5-1,0.9-1.2,1.3-1c0.6,0.4,0.4,0.9,0.4,1.4c-0.1,0.8-0.2,1.5-0.4,2.2c-0.8,2.3-1.7,4.6-2.6,6.9c-0.4,1-1,1.9-1.4,2.9
	c-1.8,4-3.5,8-5.2,12c-0.3,0.8-0.7,1.5-1,2.2c-0.6,0.2-1.1,0.3-1.6,0.5c-0.2,0.2-0.3,0.3-0.3,0.5c-0.7,2-0.7,4.1-0.8,6.1
	c0,0.2,0,0.5,0.1,0.6c1.1,0.8,0.5,2,0.8,3c0.8-0.2,1.5-0.4,2.2-0.5c-0.3,0.9-0.7,1.8-1,2.6c0.3,0.6,0.8,0.8,1.4,0.7
	c-0.1,0.9-0.3,1.8,0.2,2.6c0.1,0,0.2,0,0.2,0c1.8-3.5,3.6-7.1,5.4-10.6c-0.5-0.6-0.5-1.3-0.1-1.9c1-1.6,0.9-3.3,0.6-5.4
	c-0.6,0.8-0.8,1.4-1.1,2c-0.3,0.5-0.4,1.3-0.9,1.6c-1.1,0.6-1.1,1.6-1.4,2.5c-0.7,2.5-1.4,5-2.1,7.5c-0.2,0.6-0.2,1.4-0.8,1.8
	c0.2-0.6,0.4-1.3,0.5-1.9c0.1-0.3,0-0.7-0.2-1c-0.1-0.2-0.5-0.3-0.7-0.4c0.2-1.8,0.9-3.4,1.5-5c1.2-3,2.7-6,4-9
	c0.2-0.4,0.4-1,0.8-1.1c1.1-0.3,1.3-1.2,1.7-2c0.6-1.4,1.2-2.8,1.8-4.2c0.2-0.6,0.4-1.3,0.4-2c0.2-3.9,0.3-7.8,0.4-11.7
	c0-0.6,0-1.2,0-1.8c0-1.6-0.8-4.4-1.7-6.1c-0.8,0.8-0.8,0.8-1.6,3.1c0.1,0.1,0.3,0.3,0.4,0.5c0.3,0.5,0.2,1-0.3,1.1
	c-0.4,0.1-0.9,0.1-1.3,0.3c-1.2,0.6-2.4,1.3-3,2.7c-1.7,3.5-3.4,7-5.2,10.5c-0.7,1.5-1.5,3-2.3,4.5c-1.1,2.1-2.4,4.1-2.7,6.5
	c0,0.1-0.1,0.1-0.1,0.2c-0.2,0.3-0.4,0.4-0.8,0.3c-0.2-0.1-0.4-0.3-0.4-0.5c-0.1-0.8,0-1.7,0.4-2.5c0.8-1.6,1.5-3.2,2.3-4.7
	c1.2-2.4,2.4-4.8,3.6-7.2c1.4-2.9,2.9-5.7,4.3-8.6c0.2-0.3,0.6-0.8,0.5-1c-0.5-1.6,0.4-2.6,1.2-3.7c-1-1.9-0.9-2.4,0.9-3.6
	c0.7-0.5,1.4-0.9,2.1-1.4c-0.1-0.6-0.2-1-0.3-1.4c-0.1-0.5-0.2-1-0.2-1.6c0-0.5,0.3-0.9,0.8-0.9c0.3,0,0.8,0.3,0.9,0.5
	c0.5,1.7,1.6,3.2,2.4,4.7c1.1,2,1.7,4.3,2.2,6.5c0.4,1.5,0.2,3.1,0.2,4.6c0.1,2.5,0.3,5,0.3,7.6c0,1.7-0.3,3.5-0.6,5.2
	c-0.2,1.6-0.5,3.2-0.8,4.8c-0.3,1.5-0.6,3-0.9,4.4c0.6,0.7,1.2,1.3,1.5,2c0.3,0.7,0.2,1.6,0.3,2.5c0.5,0.4,1,0.9,1.6,1.4
	c0.2-0.2,0.5-0.4,0.7-0.5c0.9-0.7,1.8-0.8,2.8-0.4c0.8,0.4,1.6,0.8,2.5,1.2c0,0,0.1,0,0.2-0.1c1.3-1.2,1.4-1.2,1.9,0.5
	c0,0.1,0.1,0.3,0.3,0.6c0.2-0.2,0.5-0.3,0.6-0.6c0.6-1.6,1.2-3.3,1.8-5c0.2-0.7,0.5-1.4,0.2-2.2c-0.2-0.4,0-0.9,0.1-1.3
	c0.1-0.7,0.2-1.4,0.2-2c-0.4-3.8-0.9-7.6-1.4-11.4c-0.3-0.1-0.5-0.2-0.8-0.2c-1.1-0.2-1.3-0.5-1.2-1.5c0-0.1,0-0.2,0-0.2
	c1.4-3.9,0.4-7.7-0.2-11.5c-0.6-3.6-1.3-7.2-2.2-10.8c-1.2-4.4-2.1-8.8-3.7-13c-0.2-0.6-0.3-1.3-0.4-2.1c-0.2,0.2-0.5,0.2-0.5,0.4
	c-0.8,1.9-2,3.6-3.1,5.4c-1.3,2.1-2.6,4.2-3.9,6.2c-0.6,0.9-1.2,1.8-1.8,2.7c-0.5,0.8-1,1.6-1.3,2.4c-0.3,0.6-0.6,1.1-1.2,1.5
	c-0.8,0.5-1.3,1.5-1.8,2.3c-3.3,5.9-6.7,11.9-9.9,17.9c-1.6,2.9-3,5.8-4.6,8.8c-0.1,0.1-0.2,0.3-0.2,0.4c-0.3,0.4-0.9,0.3-1.2,0
	c-0.4-0.5-0.5-1.1-0.2-1.7c0.5-1.3,1-2.6,1.7-3.8c3.5-6.3,7-12.6,10.5-18.9c0.7-1.2,1.4-2.3,2.2-3.6c-0.3-0.2-0.5-0.4-0.7-0.3
	c-1.4,0.2-2.8-0.1-4.1-0.5c-1-0.3-1.9-0.4-2.9,0c-1,0.5-1.9,0.3-2.6-0.8c-0.1-0.3-0.4-0.4-0.6-0.7c-0.5-0.5-0.7-1.2-0.4-1.9
	C14.8,170.9,14.9,170.2,14.8,169.6c1.1-0.8,2.1-0.3,2.8,0.2c1.8-0.4,3.3-0.8,4.9-1.2c0.8-0.2,1.6-0.4,2.4-0.7c1-0.4,1.9-0.6,2.9-0.3
	c0.1,0,0.4-0.2,0.7-0.3c-0.5-1.5,0.1-2.8,0.6-4.2c0.7-1.5,1.5-3,2.2-4.6c0.3-0.6,0.8-1.2,0.8-1.9c0-1,0.5-1.7,0.9-2.6
	c0.2-0.4,0.1-0.8,0.3-1.6c-0.5,0.5-0.7,0.7-0.9,0.9c-0.7,1.3-1.5,2.5-2.1,3.8c-1.2,2.4-2.3,4.8-3.5,7.2c-0.3,0.5-0.7,1-1.1,1.4
	c-0.2,0.2-0.7,0.3-1,0.2c-0.4-0.1-0.5-0.6-0.4-1c0.4-1,0.7-2,1.2-3c0.9-1.9,1.9-3.7,2.9-5.5c1-1.7,2-3.4,3.1-5.1
	c0.5-0.8,0.9-1.6,1.5-2.4c-0.6-1.3-0.5-2.9-1.6-4.1c-1.1,1.2-2,2.4-2.6,3.8c-1.1,2.5-2.2,5.1-3.3,7.6c-1,2.2-2,4.5-3,6.7
	c-0.2,0.3-0.3,0.7-0.6,1c-0.2,0.2-0.6,0.3-0.8,0.2c-0.2-0.1-0.5-0.4-0.5-0.7c0-0.5,0.2-1,0.3-1.6c0.2-0.7,0.4-1.4,0.7-2.6
	c-0.5,0.5-0.8,0.7-0.9,0.9c-1.4,2-2.8,4.1-4.1,6.1C15.8,167.5,15.3,168.6,14.8,169.6z M111.5,521.1c0.1,0,0.1,0,0.2,0
	C111.6,521.1,111.5,521.2,111.5,521.1c0,0.1,0,0.2,0,0.3c0,0.1,0,0.1,0,0.2C111.4,521.4,111.4,521.3,111.5,521.1z M144,165.3
	c-0.1,0-0.3,0-0.4,0c0,0-0.1,0.1-0.1,0.1C143.7,165.3,143.8,165.3,144,165.3c0-0.6,0.4-1.1-0.1-1.6c0.6,0.4,1.1,0.4,1.6-0.1
	c0.4-1.4,0.4-1.4,0.2-2.5c-0.6,0.9-1.2,1.8-1.7,2.7C144,164.3,144,164.8,144,165.3z M48.7,246.1c0.4-0.2,0.6-0.5,0.4-1
	c1,0.1,1.3-0.3,1-1.4c-0.4,0.5-0.7,0.9-1,1.4C49.2,245.6,49.2,246,48.7,246.1c0,0.1,0,0.2,0,0.4c0,0.1,0,0.1,0.1,0.1
	c0-0.1-0.1-0.1-0.1-0.2C48.7,246.4,48.7,246.3,48.7,246.1z M130.7,173.4c0.7,0,1.3-0.1,1.9-0.6c0.1,0.2,0.1,0.5,0.2,0.5
	c0.9,0.5,1.9,0.9,3.5,0.9c-1.2-0.7-2-0.8-2.8-1c-0.4-0.1-0.8,0-0.9-0.4c-0.4,0-0.8-0.1-1.3-0.1C131,172.8,130.7,172.9,130.7,173.4
	c-0.3,0-0.6-0.1-0.9-0.1c0,0,0,0.1,0,0.1C130.1,173.4,130.4,173.4,130.7,173.4z M116.6,385.1c-0.3,0.8-1.1,1.4-0.7,2.4
	c-0.7,0-0.5,0.5-0.5,0.9c-0.2,0.2-0.5,0.3-0.6,0.5c-0.7,1.4-1.3,2.7-2,4.1c-0.1,0.2,0,0.4-0.1,0.8c0.4-0.2,0.8-0.3,0.8-0.5
	c0.7-1.4,1.3-2.9,2-4.4c0.1-0.2-0.1-0.4-0.2-0.6c0.2-0.3,0.3-0.6,0.5-0.9C116.2,386.6,116.6,385.9,116.6,385.1
	c0.6-0.2,0.5-0.6,0.4-1.1c0.7-0.6,0.7-0.6,0.8-1.6c-0.7,0.3-0.7,1-0.7,1.7C116.9,384.4,116.7,384.7,116.6,385.1z M45.4,284
	c0.8-0.3,0.7,0.6,1.1,0.8c0.6-0.1,1.2-0.2,1.5-0.8C46.6,283.7,46.6,283.7,45.4,284c-0.7-0.8-1.5-0.7-2.4-0.6c-0.1,0-0.3,0.2-0.2,0.3
	c0.1,0.2,0.2,0.5,0.3,0.5c0.6-0.1,1.2-0.3,1.7-0.4C45,283.8,45.2,283.9,45.4,284z M136,286.7c-2.2,2.7-4.1,6.2-4.8,8.8
	c1-0.7,1.9-1.5,2.4-2.5C134.5,290.9,135.2,288.7,136,286.7c0-0.1,0-0.2,0-0.2c0,0,0-0.1,0-0.2C136.1,286.4,136,286.6,136,286.7z
	 M21.3,252.9c0.1,0.1,0.3,0.2,0.4,0.3c0-0.1,0.1-0.1,0.1-0.2c-0.1-0.1-0.2-0.1-0.4-0.2C21.4,252.8,21.3,252.9,21.3,252.9
	c-0.2-1.4-1-2.4-2.1-3.1c-0.2-1.5,0.9-3-0.4-4.3c-0.7,2-0.6,4.1-0.5,6.1C19.2,252.4,20,253.2,21.3,252.9z M145,168
	c-0.3-0.1-0.6-0.3-0.8,0c-1.6,2.3-2.7,4.9-3.5,7.6c1.3,0.4,1.3,0.4,2.6,0.1c0.1-0.6,0.3-1.3,0.4-1.9
	C144.2,171.8,144.6,169.9,145,168c-0.1-0.1-0.1-0.2-0.1-0.2c0,0-0.1-0.1-0.1-0.1C144.9,167.8,144.9,167.9,145,168z M112.9,301.7
	c-0.3-0.6-0.8-0.5-1.2-0.1c0.1-0.3,0.3-0.6,0.2-0.8c-0.8-1.5,0-2.5,0.9-3.5c0.6-0.6,1.2-1.2,1.7-1.9c3.2-4.1,6.9-7.8,9.8-12.2
	c0.1-0.1,0.2-0.2,0.3-0.3c4.7-5,9.1-10.4,14.2-15.1c1-0.9,1.8-1.8,3.1-2.2c0.2-2.7,0.5-5.3,0.7-7.9c0.2-2.7,0.3-5.3-0.1-8
	c-0.4-2.5,0-5.1-0.8-7.6c-0.7,0.2-0.6,0.5-0.4,0.9c0.4,0.6,0.1,1-0.4,1.3c-0.3,0.2-0.7,0.3-1,0.5c-1,0.6-2.1,0.8-2.9,1.7
	c-0.8,0.2-1.5,0.5-2.3,0.7c-1.8,0.4-3.1,1.5-4.2,2.9c-0.1,0.1-0.3,0.1-0.4,0.2c-3.5,3.2-7.4,5.9-11.2,8.8c-0.7,0.5-1.4,1-2.2,1.2
	c-0.7,0.2-1.5,0-2.4,0c-0.3,0.4-0.8,0.9-1.1,1.2c0.2,1.5,0.4,2.7,0.6,4.3c0.5-0.5,0.9-0.7,1.2-1c1.2-1.3,2.3-2.7,3.5-4
	c0.7-0.7,1.4-0.7,2.2,0c0.2,0.2,0.4,0.4,0.6,0.7c1.7-0.9,3.4-1.8,5-2.9c0.6-0.4,1.3-0.9,1.6-1.6c0.6-1.3,1.7-2.1,2.7-3
	c-0.6-1.9-0.6-1.9,0.1-3.8c0.3-0.2,0.7-0.4,1-0.6c1.6-1.2,1.6-1.2,2.7,0.5c1.3-1,2.5-2,2.7-3.8c0.4,0.1,0.7,0.1,1.1,0.2
	c0.5,0.5,0.4,1.2,0.5,1.8c0,0.4,0,1,0.2,1.3c0.7,0.9,0.5,1.8-0.1,2.5c-0.7,1-1.4,2-2.3,2.8c-1.5,1.4-3.1,2.8-4.6,4.1
	c-0.4,0.4-0.8,0.8-1.2,1c-2.1,1.2-4.1,2.3-6.3,3.4c-1.5,0.7-2.7,1.8-3.3,3.3c-1.1,2.6-2.4,5-4,7.3c-0.5,0.7-1,1.3-1,2.5
	c0.4-0.2,0.6-0.3,0.8-0.5c3.3-3.6,6.5-7.3,9.9-10.9c2.5-2.6,5.2-5,7.8-7.5c1.2-1.2,2.5-2.3,3.7-3.4c0.3-0.3,0.7-0.7,1.1-0.9
	c1.1-0.6,2.4,0.3,2.4,1.5c0,0.7-0.4,1.1-0.9,1.5c-1.2,1-2.4,2-3.5,3c-4.9,4.5-9.7,9.1-14,14.2c-0.1,1-0.3,2-0.5,3.4
	c1.8-1.6,3.1-3.1,4.4-4.6c1.9-2.2,3.9-4.3,6.1-6.2c1.7-1.5,3.4-3.1,5.1-4.7c0.3-0.3,0.5-0.5,0.8-0.8c0.6-0.5,1.2-0.4,1.6,0.1
	c0.5,0.5,0.5,1.1,0.1,1.7c-0.3,0.4-0.7,0.8-1.1,1.2c-2.1,2-4.1,3.9-6.2,5.8c-2.2,2.1-4.1,4.3-5.8,6.7c0.5,0.2,0.8,0.4,1.2,0.6
	c-0.1,0.3,0,0.4-0.1,0.5c-0.5,0.5-1,1-1.5,1.4c-3.9,3.4-7.7,7.1-11.2,10.9c-2.5,2.8-5,5.6-7.6,8.4c-0.1,0.1-0.1,0.3-0.1,0.6
	c0.8,0.7,1.7,1.4,2.6,2.1c0.3,0.2,0.5,0.5,0.7,0.8C112.1,301.6,112.6,301.6,112.9,301.7c0.7,1.2,1.5,2,2.9,1.7c2.5-3.6,4.9-7,7.9-10
	c1.4-1.4,2.8-2.8,4.1-4.3c0.3-0.3,0.8-0.5,0.5-1.2c-1.2,0.8-2.2,1.7-3.1,2.7c-2.8,3.1-5.7,6.2-8.5,9.3
	C115.7,301.1,114.5,301.9,112.9,301.7z M178.8,155.7c-0.5,0.1-0.9,0.5-0.8,1c0.2,1.2,0.5,2.4,0.7,3.4c0.8,0.4,1.5,0.4,2.1,0.1
	c0.4-3.7,1.5-7.2,3.2-10.3c1.5-2.8,1.2-2.1,0.7-4.9c-0.2-1.1-0.4-2.1-0.6-3.1c0-0.2-0.2-0.4-0.4-0.6c-0.6,0.1-1.2,0.2-1.7,0.4
	c-0.6,0.2-1.2,0.5-1.9,0.7c-0.7-0.7-1.6-0.6-2.5-0.6c-0.6,0-1,0.4-1.2,0.9c-0.2,0.5-0.3,1-0.3,1.5c0.1,1.4,0.3,2.9,0.5,4.6
	c0.5-0.5,0.8-0.9,1.1-1.2c0.2-0.2,0.7,0,0.7,0.3c0,0.3,0,0.6-0.1,0.9c-0.3,0.9-0.6,1.9-0.9,2.8c-0.1,0.4-0.1,0.6,0.5,1.4
	c0.5-1.2,0.9-2.4,1.3-3.5c0.6-1.6,1.2-3.3,1.9-4.9c0.4-0.9,0.8-1.8,1.7-2.4c0.5-0.3,0.9-0.1,1,0.5c-0.6,1.1-1.2,2.1-1.7,3.2
	c-1.2,2.9-2.2,5.9-3.3,8.8C178.8,155,178.8,155.4,178.8,155.7L178.8,155.7z M67,413.3c-0.9-0.2-0.4-1.5-1.4-1.6
	c0,0.3-0.1,0.6-0.1,0.9c0.2,3.5,0.3,7,0.6,10.6c0.3,4,0.9,7.9,1.2,11.9c0.2,2,0.8,3.7,1.7,5.6c0.2-0.3,0.5-0.6,0.5-0.8
	c0.7-2.3,1.4-4.5,2.1-6.8c0.3-1.1,0.3-2.1,0.1-3.1c-0.8-3.3-1.6-6.5-2.4-9.8c-0.7-3.1-1.4-6.1-2.1-9.2c-0.1-0.4-0.3-0.7-0.4-1
	c-0.1,0-0.1,0-0.2,0C66.7,411,66.9,412.2,67,413.3L67,413.3z M71,265.3c0.3-0.1,0.7-0.2,1-0.4c1-0.6,1.9-1.3,2.9-1.9
	c3.8-2.5,7.6-4.9,11.3-7.4c4.1-2.8,8.3-5.5,12.6-7.9c1.1-0.6,2.1-1.2,3.1-2c-1.9-0.7-6.8-1.5-9-1.5c-3.1,4.1-6.8,7.7-10.8,11.1
	c-3.4,2.8-6.7,5.8-10.1,8.7C71.7,264.3,71.1,264.6,71,265.3c-0.1,0.1-0.3,0.1-0.5,0.2c0.1,0.1,0.1,0.2,0.2,0.2
	C70.8,265.6,70.9,265.4,71,265.3z M137.9,205.3c-0.3,0.7-0.6,1.4-1,2.1c-1.7,3-3.5,6-5.1,9c-3.7,7-7,14.1-10.3,21.3
	c-0.1,0.1,0,0.3,0,0.5c0.2,0.1,0.4,0.2,0.7,0.3c0.1-0.3,0.3-0.5,0.3-0.7c0.7-1.9,1.3-3.9,2.2-5.8c1.6-3.5,3.4-6.8,5.2-10.2
	c2.3-4.3,4.4-8.6,6.9-12.7c0.4-0.7,0.8-1.5,1.2-2.2C138.3,206.3,138.2,205.8,137.9,205.3c-0.2-0.3-0.2-0.8-0.4-0.9
	c-0.7-0.4-1.5-0.7-2.3-1.1c-0.7-0.3-1.5-0.6-2.5-1.1c0.5,1.5-0.1,2.3-1,2.9c-0.4,0.3-0.9,0.6-1.4,0.7c-1,0.2-1.6,0.9-2,1.7
	c-0.3,0.6-0.7,1.2-1,1.8c-1.1,2.4-2.2,4.7-3.2,7.1c-0.9,2.1-1.6,4.3-2.4,6.5c-0.1,0.3-0.3,0.6-0.3,0.9c0.1,2.2-1.6,3.6-2.5,5.3
	c-0.3,0.5-0.9,0.6-1.4,0.4c-0.6-0.3-1.1-0.8-1-1.4c0.1-0.4,0.3-0.9,0.4-1.3c0.5-1.1,1-2.1,1.4-3.1c0.1-0.3,0.5-0.6-0.1-1
	c-0.4,0.4-0.7,0.8-1,1.2c-0.3,0.4-0.5,0.8-0.6,1.2c-0.4,2.2-1.6,3.9-2.8,5.7c-0.4,0.6-0.8,1.3-1.1,2c-0.1,0.2-0.1,0.5-0.2,1
	c0.5-0.1,0.9-0.1,1.3-0.1c0.7-0.1,1.4-0.2,2.1-0.2c0.8-0.1,1.3,0.3,1.4,0.9c0.1,0.6-0.3,1-1.1,1.3c-0.6,0.2-1.2,0.3-2.2,0.6
	c2,0.1,3.5,0.1,4.9,0c2.1-3.7,4.1-7.2,6.1-10.7c3.1-5.6,5.8-11.5,9.1-17c0.7-1.2,1.4-2.3,2.2-3.5
	C136.9,205.1,137.4,205.2,137.9,205.3z M40.3,223.5L40.3,223.5c-0.5-0.9-1-1.8-1.5-2.7c-0.2-0.4-0.6-0.7-1.2-0.4
	c-0.1,0.6-0.1,1.4-0.4,1.7c-0.7,0.6-0.7,1.3-0.8,2.1c0,0.3-0.1,0.6-0.2,0.9c-0.3,0.8-1.2,1-1.9,0.4c-0.3-0.3-0.5-0.6-1-1.1
	c-1.2,2.4-2.3,4.7-3.4,7c-1.4,3-2.7,6-4.1,9c-0.6,1.3-0.6,1.3-2.1,1.8c-0.5,1.4-1.1,2.8-1.6,4.3c-0.2,0.5,0.2,0.8,0.7,0.8
	c0.7,0,1.2-0.6,1.9-0.3c0.1,0.7-0.3,1.1-0.8,1.3c-0.4,0.2-0.9-0.2-1.2,0.4c0.2,1.5,0.5,3,0.7,4.6c1.8,0.2,3.6,0.4,5.4-0.1
	c0.1-0.9,0.2-1.6,0.2-2.4c0-0.5,0.1-0.9,0.6-1.1c0.3-0.2,0.8-0.2,0.6-0.9c-1-0.7-2.1-1.5-3.4-1.6c-0.3,0-0.6-0.2-0.8-0.3
	c-0.4-0.2-0.7-0.6-0.7-1.1c0-0.5,0.3-0.8,0.8-1c1.2-0.5,2.4-0.5,3.6,0c1,0.5,2,1.1,3,1.7c1.9,1,3.8,1.9,6,2.4c0.4-1.1,1.4-1.7,1.5-3
	c-1.2-0.5-2.3-1-3.4-1.5c-2.3-1-3.9-3-5.3-5c0-0.1-0.1-0.1-0.1-0.2c0.1-0.3,0.1-0.6,0.3-0.8c0.1-0.1,0.5-0.2,0.6-0.1
	c1,0.5,2.1,1,2.9,1.7c0.9,0.8,1.9,1.5,3,2.1c1.1,0.6,2,1.3,3.1,2c0.3-0.4,0.6-0.8,0.9-1.1c0.2-0.2,0.3-0.5,0.6-0.7
	c0.2-0.1,0.6-0.1,0.8,0c0.1,0,0.3,0.4,0.3,0.6c0,0.2-0.1,0.5-0.2,0.7c-0.6,1.3-1.3,2.6-2,3.9c-0.4,0.7-0.8,1.4-1.3,2.1
	c0.2,0.3,0.3,0.5,0.5,0.6c0.2,0.2,0.5,0.3,0.7,0.4c0.2-0.1,0.4-0.2,0.5-0.3c1-1,1.5-2.5,3-3.1c0.2-0.1,0.2-0.4,0.3-0.6
	c0.3-0.7,0.6-1.4,0.9-2c-0.3-0.5-0.7-0.8-0.9-1.2c-0.6-1.4-1.2-2.8-1.6-4.3c-0.4-1.9-1.2-3.4-2.5-4.8c-0.4-0.4-0.7-0.8-1-1.2
	c-0.2-0.2-0.3-0.5-0.4-0.8c-0.1-0.4,0.3-1,0.8-0.9c0.3,0,0.6,0.1,0.9,0.2c1.8,0.7,3.4,1.7,4.8,3.1c0.4,0.4,0.8,0.9,1.3,1.3
	c0.5,0.4,1,0.7,1.7,0.3c1.2-2.4,1-3.2-0.8-5.1c-1.6-1.7-3.4-3.1-4.6-5.1c-0.5-0.9-1.4-1.4-2.3-1.8C41.4,223.9,40.8,223.7,40.3,223.5
	z M116.1,172.2c0.4,0,0.9-0.1,1.4-0.1c-0.7-0.9-2.6-2.5-3.3-2.8c-0.2-0.1-0.4-0.2-0.6-0.2c-0.7,0-1.1-0.4-1.4-1
	c-0.3-0.5-0.5-1-1.1-1c-0.6,0.3-0.8,0.9-0.8,1.5c-2.6,2.6-4.6,5.6-6.2,9c-0.2,0.3-0.3,0.7-0.6,0.9c-0.7,0.6-1.4,0.7-1.8,0.3
	c-0.6-0.6-0.3-1.2,0.1-1.7c1.7-2.6,3.4-5.3,5.2-7.9c0.8-1.2,1.7-2.3,2.4-3.6c-0.2-0.5-0.6-0.8-0.9-0.4c-0.8,0.9-1.5,0.6-2.2-0.1
	c0.2-0.4,0.4-0.9,0.7-1.5c-0.4-0.2-0.7-0.5-1.2-0.8c-1.1,1.4-2.2,2.7-3.1,4.1c-1.4,2-2.7,4.1-4.1,6.1c-1.6,2.2-3.2,4.5-4.4,7
	c-0.1,0.3-0.3,0.6-0.5,0.7c-0.2,0.1-0.6,0.2-0.8,0.1c-0.2-0.1-0.4-0.5-0.3-0.7c0.2-0.7,0.7-1.3,0.6-1.9c-0.2-1.3,0.6-2.1,1.2-3.1
	c0.6-0.9,1.3-1.7,1.9-2.6c1.5-2.2,3-4.4,4.5-6.7c0.6-0.9,1.2-1.8,2.2-2.2c0.8-0.4,1.2-1.1,1.5-1.9c-1.1-0.9-2-1.9-3.4-2.6
	c-3,5.2-6.8,9.7-10.7,14.1c1.3,1.1,1.4,1.1,0.6,2.4c-0.6,1-1.2,1.9-1.8,3c-1.3,0.3-1.7-1.1-2.6-1.5c-0.1,0-0.1-0.3-0.2-0.4l1.3-1.2
	c-0.3-0.2-0.6-0.3-0.7-0.5c-0.1-0.2-0.2-0.6-0.1-0.9c0.1-0.5,0.3-1,0.6-1.5c0.6-0.9,1.2-1.8,1.9-2.6c2.1-2.3,4.2-4.7,6.3-7
	c0.6-0.7,1.3-1.3,1.5-2.2c-1.9,0.3-3,0.9-4.3,2.3c-0.8,0.9-1.5,1.8-2.2,2.7c-2,2.7-4.3,5.3-4.4,8.9c0,0.1,0,0.1-0.1,0.2
	c-0.8,2-1.4,4.1-2.7,5.8c-1.1,1.5-1,3.2-0.7,4.8c0.2,0.8,0.7,1.3,1.6,1.4c0.5,0,1.1,0.1,1.6,0.2c0.1-0.3,0.1-0.7,0.2-0.8
	c0.4-0.3,0.9-0.5,1.4-0.7c0.5-0.2,0.8-1,1.6-0.8c0.1,0.4,0.1,0.8,0.3,1.1c0.1,0.4,0.3,0.8,0.6,1.3c1.2,0,2.3,0,3.5,0
	c1.8,0.1,3.5,0.2,5.3,0.4c0.3,0,0.7,0,0.9,0.1c0.3,0.2,0.6,0.6,0.6,0.8c0,0.3-0.3,0.7-0.6,0.8c-0.5,0.2-1.1,0.2-1.6,0.2
	c3.1,0.9,6.2,1.8,9.5,1.6c0.9,0,1.8,0,2.5,0.8c0.5,0.6,1.4,0.4,2.5-0.2c-0.1-0.2-0.2-0.4-0.3-0.5c-0.3-0.3-0.7-0.4-0.9-0.7
	c-0.2-0.2-0.3-0.6-0.2-0.8c0.1-0.2,0.4-0.5,0.7-0.5c0.4-0.1,0.9,0,1.4,0c0.5,0,1,0.1,1.6,0.1c1.6-3.9,3.5-7.6,6.1-10.8
	c-0.3-0.5-0.5-1-0.8-1.4c0.3-0.5,0.6-0.9,0.8-1.2C119.2,174.9,117.5,173.7,116.1,172.2z M156.3,207.7c-0.1,0-0.2-0.1-0.3-0.1
	C156.1,207.6,156.3,207.7,156.3,207.7c0.8,1.1,2.1,1.1,3.3,1.4c0.6,0.1,1.2,0,1.7-0.5c1-0.9,1.9-1.7,2.9-2.6c0.3-0.3,0.6-0.7,1-1
	c0.2-0.2,0.5-0.4,0.7-0.6c0.3-0.2,0.9-0.2,1,0.1c0.1,0.3,0,0.6-0.1,0.8c-1.2,1.3-2.5,2.5-3.7,3.8c-0.1,0.1,0,0.3,0,0.5
	c0.6,0.2,1.2,0.5,1.7,0.7c0.3-0.2,0.4-0.2,0.5-0.3c2.2-2.2,4.4-4.4,6.7-6.7c0.3-0.3,0.7-0.7,1.1-0.9c0.2-0.1,0.6,0,0.8,0.1
	c0.2,0.2,0.3,0.6,0.2,0.8c-0.3,0.5-0.6,0.9-1,1.2c-1.8,1.9-3.7,3.7-5.5,5.5c-0.2,0.2-0.3,0.6-0.5,1c1.3,0.2,2.4,0.5,3.6,0.6
	c1.9,0.1,3.8-0.1,5.6,0.5c0.7-0.8,1.5-1.5,2.1-2.3c1.1-1.5,2.5-2.7,4.1-3.6c0.8-0.4,1.5-1,2-1.8c0.1-0.2,0.3-0.4,0.5-0.5
	c0.3-0.1,0.6-0.2,0.9,0c0.2,0.1,0.4,0.5,0.4,0.7c0,0.3-0.2,0.6-0.3,0.9c-0.6,1.1-1.6,1.8-2.6,2.5c-1.2,0.8-2.3,1.8-3.4,2.7
	c-0.4,0.3-0.3,0.8-0.3,1.2c-0.1-0.1-0.2-0.2-0.4-0.2c-0.1,0-0.2,0.1-0.3,0.2c0.1,0,0.1,0,0.2,0c0.1,0,0.3,0,0.4,0
	c0.5-0.6,1.1-0.4,1.7-0.4c1.4,0.2,2.3-0.5,3.2-1.4c0.2-0.2,0.4-0.5,0.6-0.7c1.2-1.3,2.3-2.7,3.7-3.7c1.1-0.8,1.8-2,2.4-3.2
	c-1.2-1.3-1.2-1.3-1.3-3.1c0-0.9-0.1-1.7-0.6-2.4c-0.6-0.8-0.6-1.7-0.6-2.6c-0.1-2-0.1-4-0.4-6c-0.8-5-1.3-10-2.6-14.9
	c-0.4-1.4-0.5-2.8-1.1-4.1c-1.4-0.4-2.7-0.1-3.9,0.4c-1.8,0.7-3.6,1.3-5.4,2c-0.2,0.1-0.4,0.3-0.6,0.6c1,0.5,1.6-0.3,2.3-0.3
	c0.3,0,0.6,0.1,0.8,0.4c0.2,0.3,0.1,0.8-0.2,1c-0.5,0.3-0.9,0.5-1.5,0.7c-1.1,0.4-2.1,0.9-3,1.6c-0.7,0.6-1.5,1.1-2.3,1.6
	c-1,0.6-1.4,1.4-1.2,2.5c0,0.1,0.2,0.2,0.3,0.3c0.5-0.2,0.9-0.3,1.3-0.5c0.8,0.5,0.5,1.4,1.3,1.7c1.8,0.7,3.6,1.6,5.3,2.5
	c0.1,0.7,0,1-0.6,1.1c-1.5,0.3-2.9,0.1-4.3-0.3c-3-0.8-6-1.6-9.2-2.1c-6.4-0.9-12.9-2.1-19.3-3c-1.1-0.2-2.4-0.5-3.6,0.2
	c0.1,1.3,0.1,2.6,0.2,3.9c0.1,1-0.2,1.7-0.8,2.5c-1,1.2-2,2.3-3.1,3.1c-0.8,2.7-1.1,5.4-1.2,8.2c1.1,0.6,2.3,1.2,3.5,1.7
	c3.1,1.4,6.3,2.8,9.5,4.2c2.5,1,4.9,2.1,7.6,2.6c0.4,0.1,0.8,0.1,1.1,0.3c0.2,0.1,0.5,0.5,0.4,0.7c0,0.2-0.4,0.5-0.6,0.5
	C157,207.8,156.7,207.7,156.3,207.7z M98.1,389c-0.7-0.1-1.3-0.1-1.8-0.3c-0.6-0.2-0.9-0.9-0.6-1.5c0.2-0.4,0.5-0.8,0.7-1.2
	c1.2-3.5,3.3-6.5,5.4-9.6c0.5-0.8,1.2-1.5,1.9-2c0.9-0.7,1.3-1.5,1.2-2.5c0-0.5,0-1.1-0.1-1.6c-0.1-3.2-0.3-6.4-0.3-9.7
	c-0.1-7.9-0.2-15.8-0.3-23.7c0-0.7,0-1.4-0.1-2.1c0-0.4,0-0.9-0.3-1.1c-1-0.7-0.8-1.7-0.9-2.6c-0.1-1-0.1-2,0.5-2.8
	c0.5-0.6,0.4-1.3,0.3-2c-0.1-1.4-0.3-2.9-0.4-4.3c-0.3-0.1-0.5-0.2-0.8-0.4c-0.1-0.8-0.1-1.7-0.3-2.5c-0.2-1-0.1-1.9,0.4-2.9
	c0.3-0.5,0.3-1.2,0.3-1.8c-0.1-3.1-0.3-6.1-0.5-9.2c0-0.6-0.1-1.3-0.3-1.8c-0.5-1.1-0.6-2.2-0.7-3.3c0-0.8-0.1-1.7-0.3-2.5
	c-0.1-0.5-0.4-1-0.4-1.5c0-0.5,0.1-1,0.2-1.6c-1.2-0.2-2.2-1-3.4-0.4c-0.2,0.1-0.7-0.1-1-0.3c-0.9-0.5-1.9-1-3-0.9
	c-0.8,0.1-1.5-0.3-2-0.9c-0.5-0.6-1.2-1-1.9-1.2c-2.3-0.6-4.6-1.2-7-1.1c-0.8,0-1.7,0-2.5,0c-0.8,0-1.6,0-2.6,0.1
	c0.4,0.2,0.5,0.3,0.6,0.4c2.8,0.6,5.5,1.2,8.3,1.8c0.4,0.1,0.7,0.2,1,0.4c0.1,0.1,0.2,0.4,0.2,0.6c0,0.2-0.3,0.4-0.4,0.5
	c-0.6,0-1.2,0-1.8-0.1c-3-0.5-6-1.1-9.1-1.5c-3.6-0.5-7.2-0.9-10.7-1.1c-3.7-0.2-7.5-0.1-11.3-0.1c-3.2,0-6.4,0.2-9.6,0.5
	c-0.4,0-0.7,0.2-1,0.3c-0.1,0.2-0.1,0.3-0.1,0.3c0.4,3.3,0.8,6.5,1.3,9.8c0.5,3.1,1.1,6.2,1.8,9.3c0.7,3.3,1.1,6.6,2.3,9.8
	c1.2,3.2,2.1,6.4,3.3,9.6c1.2,3.4,2.3,6.8,3.9,10c0.2,0.4,0.2,1.1,1.1,1.1c0-1.5-0.1-2.9-0.3-4.3c-0.2-1-0.4-2-0.5-2.9
	c-0.1-0.5,0.4-1,0.9-1.1c0.5-0.1,1.1,0.3,1.2,0.8c0.1,0.3,0.1,0.6,0.1,0.9c0.3,2.7,0.5,5.5,0.8,8.2c0.2,1.7,0.3,3.5,0.8,5.2
	c1,3.4,2.2,6.7,3.4,10c0.2,0.4,0.4,0.8,0.8,1.6c0.4-1.8,0.7-3.2,1-4.6c0.1-0.6,0.4-1.2,0.6-1.7c0.1-0.2,0.4-0.3,0.6-0.3
	c0.2,0.1,0.5,0.3,0.6,0.5c0.1,0.3,0.1,0.6,0.1,0.9c-0.2,3.1-0.4,6.1-0.6,9.2c-0.1,1.1-0.2,2.3-0.2,3.4c0,0.2,0.2,0.5,0.4,0.8
	c0.2-0.2,0.3-0.3,0.4-0.4c0.5-2,1-4,1.5-6c0.1-0.4,0.2-0.9,0.3-1.3c0.1-0.2,0.4-0.3,0.5-0.3c0.2,0,0.5,0.1,0.6,0.3
	c0.2,0.2,0.3,0.6,0.3,0.9c0,1.1,0.1,2.3-0.2,3.4c-0.8,3.9-1.7,7.8-2.6,11.7c-0.3,1.2-0.3,1.2-1.7,1.7c0,1.6,0,3.2,0,4.8
	c0,2.7-0.1,5.4-0.1,8.1c0,1,0,2,0.2,3c0.5,2.7,1.1,5.4,1.7,8.1c0.3,1.3,0.6,2.5,0.9,3.8c1.4,6.4,2.8,12.7,4.3,19.1
	c0.1,0.4,0.3,0.8,0.6,1.3c0.2-0.9,0.3-1.5,0.5-2c0.1-0.4,0.5-0.6,0.9-0.5c0.5,0.1,0.7,0.4,0.7,0.8c0,0.4,0.1,0.9,0,1.4
	c-0.2,1.4-0.5,2.9-0.8,4.3c-0.2,0.9-0.3,1.8-0.1,2.7c0.5,1.9,0.8,3.9,1.3,5.8c0.1,0.6,0.2,1.1,0.8,1.7c0.2-0.9,0.4-1.7,0.6-2.4
	c0.2-0.7,0.4-1.5,0.7-2.2c0.1-0.2,0.6-0.3,0.9-0.5c0.5,1,0.3,2,0.1,2.8c-0.3,1.7-0.7,3.5-1,5.2c-0.2,0.8-0.2,1.6,0.1,2.5
	c0.7,1.9,1.2,3.8,1.8,5.7c0.1,0.3,0.2,0.5,0.3,0.7c0.2-0.1,0.3-0.1,0.3-0.2c0.7-2.5,1.5-5,2.2-7.5c0.2-0.7,0.3-1.5,1.3-1.9
	c0.2,0.3,0.5,0.5,0.6,0.8c0.4,1,0.4,2,0.1,2.9c-0.2,0.9-0.4,1.8-0.6,2.7c-0.7,3.5-1.3,6.9-1.9,10.4c-0.5,2.9-0.9,5.7-1.5,8.6
	c-0.2,0.8,0.1,1.5,0.3,2.2c0.6,1.5,1.1,3,1.7,4.5c0.2,0.5,0.4,1,0.7,1.9c0.3-1,0.4-1.5,0.6-2.1c0.3-1.3,0.4-2.6,0.7-3.8
	c1.2-5.4,2.5-10.9,3.8-16.3c0.2-0.7,0.2-1.4,0.3-2c0.1-0.5,0.5-0.8,1-0.8c0.5-0.1,1.1,0.4,1.1,0.9c0.1,0.7,0.2,1.4,0.1,2.1
	c-0.3,2.7-0.6,5.5-1.1,8.2c-0.8,4.7-2.1,9.2-2.9,13.9c-0.3,2.1-0.8,4.2-1.2,6.3c-0.1,0.8-0.3,1.6,0.1,2.2c0.8,1.3,0.9,2.7,1.4,4.1
	c0.2,0.5,0.4,0.9,0.7,1.3c0.2-0.2,0.4-0.3,0.4-0.5c0.3-1.5,0.6-3,0.7-4.5c0.4-4.7,2-9.1,3.3-13.6c0.1-0.4,0.3-0.7,0.5-1
	c0.2-0.2,0.5-0.4,0.8-0.3c0.2,0,0.6,0.3,0.7,0.5c0.1,0.3,0.2,0.7,0.1,1.1c-0.1,0.6-0.2,1.2-0.3,1.8c-1.2,5.4-1.9,10.9-2.5,16.3
	c0,0.4,0,0.7,0,1.1c1.3-0.2,2.5-0.4,3.8-0.6c0.2-0.8,0.4-1.5,0.6-2.3c0.1-0.2,0.4-0.5,0.7-0.5c0.2,0,0.5,0.3,0.7,0.5
	c0.2,0.4,0.3,0.8,0.5,1.3c1.9-0.4,3.6-0.9,5.1-2.2c-0.1-1.1-0.1-2.1-0.2-3.4c-1,0.6-1.1-0.2-1.2-0.8c-0.6-2.9-1.2-5.8-1.9-8.8
	c-0.6-2.4-0.6-4.9-0.5-7.3c0.2-3.1,0.4-6.1,0.5-9.2c0.2-4.8-0.8-9.6-1.2-14.4c-0.4-3.7-0.6-7.5,0.1-11.2c0.1-0.4,0.1-0.9,0.4-1.3
	c0.2-0.4,0.6-0.6,0.9-0.9c0-2.8,0-5.5,0-8.1c0.1-4.8,0.2-9.5,0.2-14.3c0.1-3.4,0.2-6.7,0.8-10.1c0.4-2.1,0.6-4.2,1-6.4
	c0-0.3,0-0.6,0-0.9c-0.9,0.1-1.3,0.8-1.8,1.3c-1.3,1.1-2.8,1.6-4.4,1.5c-0.6,0-1-0.4-1.1-0.9c-0.1-0.5,0.2-1.1,0.7-1.3
	c0.3-0.1,0.6-0.2,0.9-0.3C96.8,390.5,97.4,389.8,98.1,389z M129.5,320.4c-1,1.1-1.6,2-2.2,3c-2.1,3.9-4.2,7.7-6.1,11.6
	c-1.7,3.4-3.2,6.8-4.7,10.2c-0.8,1.9-2,3.6-2.4,5.7c-0.1,0.3-0.4,0.6-0.7,0.9c-0.4,0.4-0.9,0.7-1.4,0.3c-0.6-0.3-0.9-0.9-0.8-1.5
	c0-0.3,0.1-0.6,0.3-0.9c2-4.1,4-8.3,6-12.4c2.1-4.3,4.5-8.5,6.8-12.8c1.8-3.3,3.8-6.5,6.2-9.4c0.5-0.5,0.8-1.1,1-1.8
	c0.2-1.3,0.6-2.5,1.2-3.7c0.1-0.1-0.1-0.3-0.1-0.4c-0.1,0-0.1-0.1-0.2-0.1c-0.7,0.3-1.4,0.7-2,1.1c-0.6,0.3-1.2,0.6-2,0.4
	c-0.8-0.3-1.2-1.1-0.7-1.8c0.3-0.4,0.7-0.6,1-1c0.2-0.3,0.8-0.4,0.7-1c-0.2,0-0.4,0-0.5,0c-2.9,0.8-5.9,1.7-8.8,2.5
	c-1,0.3-1.7,0.9-2.3,1.8c-2.1,3.4-4.2,6.8-6.3,10.1c-1.2,1.9-2.5,3.7-3.7,5.5c-0.3,0.4-0.5,1-0.5,1.5c0,3.1,0.1,6.1,0.1,9.2
	c0,0.3,0,0.6,0.5,0.7c0.2-0.3,0.4-0.6,0.6-0.9c1.2-2,2.4-4.1,3.6-6.1c0.8-1.4,1.6-2.8,2.4-4.2c1.2-1.9,2.4-3.7,3.5-5.6
	c2.2-3.7,4.4-7.4,6.5-11.1c0.1-0.2,0.2-0.4,0.4-0.5c0.2-0.1,0.4-0.1,0.6-0.1c0.1,0,0.2,0.2,0.2,0.4c0.2,0.7-0.2,1.3-0.6,1.9
	c-2.9,4.8-5.4,9.8-8.4,14.5c-1.9,2.9-3.3,6-4.9,9.1c-1.2,2.2-2.3,4.5-3.5,6.8c-0.7,1.4-1,2.9-1.2,4.4c-0.2,2.1-0.1,4.1-0.2,6.2
	c-0.1,5.8-0.3,11.7-0.4,17.5c0,0.6,0,1.1,0.7,1.3c0.8,0.3,0.8,0.8,0.6,1.5c-0.2,0.8-0.5,1.6-0.7,2.4c-0.8,2.9-1.6,5.7-2.4,8.6
	c-0.1,0.3-0.1,0.7-0.1,1.1c1.5-1,0.8-2.5,1.4-3.7c0.9-0.4,1.5-1.3,2-2.3c0.9-1.9,1.9-3.7,2.8-5.5c0.6-1.2,1-2.6,1.5-3.9
	c0.2-0.6,0-1.5,0.9-1.7c0.5-0.1,0.8,0.6,0.7,1.9c0,0.6-0.2,1.2-0.4,1.8c-0.4,1.1-0.8,2.2-1.2,3.2c-0.5,1.3-1.1,2.5-1.6,3.8
	c-0.1,0.3-0.1,0.7-0.1,0.9c0.6,0,1-0.1,1.4,0c0.2,0.1,0.2,0.7,0.2,1c0,0.5-0.1,1.1,0,1.6c0.1,0.5,0.2,1.2,1,1.3
	c0.2-0.3,0.5-0.5,0.5-0.8c-0.1-1.5,0.8-2.5,1.7-3.6c1.2-1.5,2.5-3,3.3-4.7c1.3-2.7,2.5-5.6,3.3-8.6c0.5-1.9,0.9-3.7,1.4-5.6
	c0.3-1.1,0.5-2.2,0-3.2c-0.3-0.7-0.3-1.3,0-1.9c0.9-2.7,2-5.3,2.7-8.1c1.3-4.7,2.4-9.5,3.3-14.3c0-0.2,0-0.5,0-0.8
	c-0.8,1.8-1.4,3.6-1.9,5.4c-0.5,1.8-0.9,3.7-1.5,5.5c-0.6,1.8-0.7,3.7-1.5,5.4c-0.9-0.8-1.7-1.6-2.7-2.4c0.1-0.5,0.2-1.2,0.4-1.9
	c1.5-5.1,3.1-10.1,4.7-15.2c0.8-2.6,1.7-5.1,2.5-7.7C129.4,321.3,129.4,321,129.5,320.4z M42.8,277.9c4,0.4,7.5,0.2,11,0.4
	c3.5,0.1,7,0.2,10.6,0.4c3.5,0.2,7,0.4,10.7,0.6c0.2,0.7,0.4,1.3,0.6,2.1c-1.9,0.1-3.5-0.1-5.2-0.2c-1.8-0.1-3.5-0.1-5.3,0
	c-1.7,0.1-3.3,0.2-5,0.4c2.7,0.7,5.4,1,8.1,1.4c2.7,0.3,5.3,0.9,7.9,1.4c2.7,0.6,5.3,1.3,8,1.8c0.3-0.3,0-0.9,0.6-1
	c1.4-0.1,2.4-0.8,3.3-1.8c0.5-0.6,1.3-1,2-1.5c0.4-0.3,0.9-0.6,1.3-1c0.5-0.5,0.5-1,0-1.7c-0.7,0.4-1.3,0.9-2,1.2
	c-0.6,0.3-1.2,0.6-1.9,0.8c-0.3,0.1-0.8,0-1.1-0.1c-0.9-0.4-1.1-1.3-0.7-2.1c0.5-0.9,1.3-1.6,1.6-2.9c-0.5,0-1-0.2-1.4,0
	c-0.6,0.2-1.1,0.6-1.6,0.9c-1,0.6-2,1.2-3,1.7c-0.8,0.4-1.3,0.2-1.8-0.4c-0.5-0.6-0.6-1.2-0.1-1.9c0.5-0.7,1.1-1.3,1.7-2
	c-0.4-0.3-0.8-0.6-1.2-0.7c-1.7-0.3-3.3-0.5-5-0.7c-0.3-0.1-0.8,0.1-1-0.6c2.4-2.2,4.7-4.7,7.2-7c2.5-2.2,4.9-4.4,7.2-6.7
	c2.3-2.3,5.1-4.2,7.5-6.8c-0.4,0-0.5,0-0.7,0c-3,1.5-5.9,3.3-8.6,5.3c-2.8,2-5.6,3.7-8.3,5.8c-3.2,2.6-6.4,5.2-9.8,7.6
	c-1.8,1.2-3.5,2.4-5.8,2.4c-1.4,0-2.5,0.7-2.7,2.3c0,0.1-0.2,0.2-0.3,0.4c-0.9,0.3-1.6,0.1-2.2-0.7c-0.5-0.9-0.2-1.6,0.3-2.3
	c0.7-0.9,1.5-1.7,2.3-2.5c1-1,2.1-1.8,3.1-2.8c4.2-4.2,8.7-8,13.2-11.8c1.6-1.4,3.3-2.8,4.9-4.2c0.2-0.2,0.5-0.4,0.7-0.6
	c0.1-0.2,0.6-0.3,0.2-0.8c-3.1,1.9-6.4,3.5-9.4,5.7c-2.3,1.7-4.6,3.3-7,4.9c-2.3,1.5-4.7,2.9-6.9,4.6c-3.3,2.5-6.5,5.1-9.7,7.7
	C47.2,274.2,45.2,275.9,42.8,277.9z M109.6,498.4c-1.8,0.5-3.4,1-5,1.4c-0.8,0.2-1.3,0.6-1.7,1.3c-1.9,3.2-4,6.4-5.9,9.6
	c-1,1.7-2.1,3.4-2.5,5.4c-0.4,1.9-0.6,3.8-0.9,5.7c-0.1,0.7,0.3,1.5,0.2,2.2c-0.3,1.3,0.2,2.4,0.8,3.5c0.1,0.1,0.2,0.2,0.4,0.3
	c0.5-0.1,1.1-0.3,1.8-0.5c0-0.4,0.1-0.9,0-1.1c-0.5-1-0.7-1.7,0.6-2.2c0.2-0.1,0.5-0.4,0.6-0.7c0.9-2.1,1.9-4.2,2.7-6.3
	c1.2-3,2.2-6,3.3-9c0.3-0.7,0.6-1.4,1-2.1c0.2-0.3,0.7-0.5,0.9-0.4c0.3,0.1,0.6,0.5,0.7,0.8c0.1,0.7,0,1.4-0.1,2
	c-0.2,0.8-0.5,1.6-0.8,2.4c-0.9,2.6-1.8,5.2-2.7,7.8c-0.1,0.3-0.1,0.7-0.1,1.2c0.7-0.3,1.2-0.5,1.6-0.8c1-0.5,2-1.1,3.1-1.5
	c0.9-0.3,1.4-0.8,1.8-1.6c1.7-3.6,3.5-7.1,5.4-10.8C113,502.8,111.3,500.6,109.6,498.4z M91.7,270.2c1.1-0.4,1.6-0.9,2.2-1.4
	c3.7-2.8,7.3-5.5,11-8.3c0.4-0.3,0.8-0.7,1.2-1c2.7-2.2,5.4-4.5,8.4-6.4c1.5-0.9,3-1.9,4-3.4c0.2-0.2,0.4-0.5,0.6-0.6
	c1.3-1.1,2.9-0.5,3.3,1.2c0.1,0.4-0.3,0.9,0.5,1.2c2-1.3,4.2-2.6,5.8-4.7c-0.3-0.3-0.5-0.5-0.8-0.8c-0.5,1.3-1.8,1.6-2.7,2.4
	c-0.4,0.4-1,0.7-1.7,0.5c-0.7-0.3-0.8-0.9-1-1.5c0-0.1-0.2-0.2-0.4-0.4c-1.7,0-3.6,0-5.4-0.1c-1.9-0.1-3.8-0.4-5.7-0.4
	c-1.8,0-3.6-0.7-5.4-0.4c-0.5,1.8-1.2,2.9-2.4,4.2c-0.5,0.5-1.1,1.1-1.7,1.5c-6.7,5.2-12.9,11-19.3,16.6c-0.4,0.4-0.7,0.8-1.3,1.4
	c1,0.1,1.5-0.5,2.1-0.8c1.3-0.9,2.5-1.8,3.8-2.7c0.3-0.2,0.6-0.5,1-0.6c0.3-0.1,0.8,0,1,0.2c0.3,0.3,0.1,0.7-0.2,1
	c-0.8,0.7-1.7,1.3-2.6,1.9c-1.2,0.9-2.4,1.6-3.6,2.7c0.5,0.3,0.9,0.6,1.3,0.8c0.4-0.3,0.7-0.5,1-0.7c2.3-2,4.6-4.1,6.9-6.1
	c2.1-1.8,4.1-3.7,6.1-5.6c3-2.7,6-5.4,9-8.2c1-0.9,2.1-1.3,3.3-1.5c0.7-0.1,1.3,0.7,0.9,1.4c-0.3,0.5-0.6,1.1-1.1,1.5
	c-2.5,2.4-5,4.8-7.5,7.1c-2.7,2.4-5.4,4.8-8.1,7.2C93.3,268.1,92.5,268.9,91.7,270.2z M165.8,144.4c-1.5,1.1-2.7,1.8-3.9,2.7
	c-0.8,0.6-2,0.9-1.8,2.3c0,0.2-0.3,0.5-0.6,0.7c-1.8,0.9-2.6,2.6-3.7,4c-0.6,0.8-1.2,1.8-1.1,3c0.1,1.1,0.3,2.1,0.4,3.2
	c0,0.3,0.2,0.5,0.5,1c0.3-0.5,0.5-0.8,0.7-1.1c1.2-1.9,2.5-3.9,3.7-5.8c0.3-0.5,0.8-0.9,1.3-1.3c0.4-0.3,1.1-0.2,1.5,0.2
	c0.4,0.4,0.5,1,0.2,1.5c-0.1,0.2-0.3,0.4-0.5,0.5c-2,1.6-2.8,4-3.8,6.2c-0.2,0.3-0.3,0.8-0.3,1.1c0.1,0.7-0.1,1.3-0.4,2
	c-0.1,0.3-0.2,0.7,0.4,1c0.2-0.2,0.4-0.4,0.5-0.6c0.9-1.4,1.8-2.9,2.6-4.3c1.2-2,2.3-3.9,2.7-6.3c0-0.1,0.1-0.3,0.2-0.4
	c0.2-0.1,0.4-0.4,0.5-0.3c0.2,0.1,0.5,0.3,0.6,0.6c0.1,0.4,0,0.8,0,1.1c-0.2,1.5-0.8,2.9-1.4,4.3c-0.6,1.3-1.2,2.6-1.8,4
	c-0.2,0.4-0.4,1-0.2,1.3c0.5,0.9,0,1.4-0.5,2c-0.4,0.5-0.7,1-1.1,1.4c0.3,0.5,0.1,1.2,0.9,1.4c1.2-2.1,2.4-4.2,3.7-6.3
	c0.4-0.7,0.9-1.4,1.5-2c0.4-0.4,0.8-0.4,1.3,0.3c-1.1,2.6-2.4,5.3-3.5,8.1c0.8,0.2,1.3,0.7,1.6,1.4c0.6-0.4,1.2-1,1.8-1.1
	c1.1-0.1,1.6-0.7,2.3-1.4c0.7-0.7,1.3-1.4,2.1-2.2c-0.6-1.5-1.1-3-1.8-4.6c-0.9-2-1.5-4-1.9-6.1c-0.3-1.6-0.7-3.1-1.1-4.7
	c-0.4-1.5-0.7-3-1-4.5C166.2,146.1,166,145.4,165.8,144.4z M39.3,277.1c-0.3-1.8,0.3-3.1,1.6-4.2c1.1-0.9,2.2-2,3.2-3
	c5.6-5.4,11.2-10.7,16.8-16.1c0.3-0.3,0.6-0.6,0.9-1c-0.9,0.3-1.6,0.8-2.3,1.3c-6.1,4.7-12.4,9-18.1,14.2c-0.9,0.8-2,0.8-2.7,0.2
	c-0.7-0.6-1-1.8-0.6-2.7c0.2-0.5,0.6-0.9,0.9-1.3c1.5-1.5,3-3.1,4.5-4.6c2-2,4.1-3.9,6.1-5.9c0.1-0.1,0.6-0.4,0-0.7
	c-1.9,1.3-3.7,2.7-5.3,4.3c-0.7,0.7-1.2,1.6-2,2.2c-0.9,0.6-1.8,1.1-2.6,1.8c-1.1,0.9-2.3,1.8-3.5,2.6c-0.8,0.5-1.6,0.2-2.3-0.4
	c-0.7-0.6-1-1.5-0.6-2.3c0.2-0.4,0.5-0.7,0.8-1.1c0.4-0.5,1-0.8,1.3-1.7c-1.1,0.2-2.1,0.4-3.1,0.7c-0.1,1.9,0.5,3.7,0.6,5.5
	c0.1,1.8,0.2,3.7,1,5.3c0.3,0.1,0.4,0.1,0.6,0.2c0.1,0,0.2,0,0.2,0c1.4,0.3,1.7,0.7,1.3,2c-0.1,0.3-0.3,0.6-0.2,0.8
	c0.7,1.1,0.5,2.4,0.4,3.6c0.6,0.4,1.2,0.7,1.7,1C38.3,277.6,38.7,277.4,39.3,277.1z M69,239.2c-1.4,3.1-4.2,5.2-6.3,7.9
	c0.6,0.3,0.8-0.1,1.1-0.2c2.1-1.1,4.1-2.3,6.2-3.5c0.6-0.3,1.2-0.6,1.9-0.8c1.5-0.4,2.6,0.5,2.5,2c0,0.6-0.2,1.2-0.5,1.7
	c-0.5,0.7-1,1.3-1.6,1.9c-4,3.8-8,7.6-12,11.3c-0.4,0.3-0.7,0.7-1.1,1.1c0.4,0.3,0.7,0,0.9-0.1c2.8-1.9,5.6-3.7,8.4-5.7
	c3.1-2.2,6.2-4.2,9.5-6.1c2.6-1.5,5.1-3.3,7.7-5c0.3-0.2,0.7-0.3,0.5-0.9C80.5,241.8,74.8,240.5,69,239.2z M152.3,160.9
	c-0.7,1.2-1.4,2.1-1.6,3.3c-0.1,0.3-0.3,0.8-0.6,0.9c-0.3,0.1-0.8-0.2-1.3-0.3c-0.8,3.8-1.5,7.6-2.3,11.6c1.9,0.3,3.6,0.7,5.3,0.9
	c1.7,0.3,3.5,0.4,5.2,0.7c1.7,0.2,3.3,0.8,5.2,0.7c-0.5-1.5-1-2.7-2.3-3.5c-1-0.6-1.6-1.6-1.5-2.9c0-0.3,0-0.6-0.1-0.9
	c-0.8-0.4-1.5-0.8-1.3-1.9c0.2-0.9-0.4-1.4-1-2.1c-0.2,0-0.5,0-0.8,0c-1.1-0.2-1.5-0.6-1.3-1.7c0.2-0.8,0-1.3-0.3-1.9
	C153.2,162.9,152.9,162,152.3,160.9z M174.8,139.2c1-0.1,1.9-0.2,2.8-0.4c1.6-0.4,3.2-0.9,4.9-1.4c0.1-0.5,0.1-1.1-0.4-1.6
	c-1.8,0-3.5,0-5.3,0c-0.5,0-1,0-1.4,0.1c-2,0.8-4,1.7-5.3,3.8c-0.9,1.3-1.1,2.5-0.8,3.9c0.2,0.9,0.5,1.8,0.9,2.6
	c0.8,1.5,1.2,3.2,1.1,4.9c-0.1,2,0.4,3.9,0.9,5.9c0.3,1.1,1.2,2,0.8,3.3c0.7,1.9,1.4,3.7,2.1,5.6c0.1,0.2,0.4,0.2,0.7,0.4
	c0.5-1.2-0.3-2.4,0.3-3.5c1.5,1,2.2,2.5,2.7,4.1c0.4-0.1,0.6-0.1,0.8-0.3c1.5-1.7,3.4-1.9,5.5-1.8c0.6,0,1.2,0,1.9-0.1
	c0-0.9,0-1.6,0-2.5c-0.5,0.1-0.8,0.2-1.2,0.2c-0.9,0.2-1.8,0.5-2.7,0.5c-1.8,0.1-3.6,0-5.5,0c-0.4-1.4-0.9-2.6-1-4
	c0-1.1-0.3-2.3-0.7-3.4c-0.5-1.5-1-3.1-1.6-4.6c-0.9-2.2-1.3-4.5-1.3-6.9c0-0.7-0.1-1.3-0.4-2c-0.5-1.1-0.5-2.2,0-3.3
	c0.3-0.7,0.8-1.3,1.8-1.2C174.6,138,174.7,138.5,174.8,139.2z M106.4,309.5c0.2-0.2,0.4-0.4,0.5-0.7c0.4-0.6,0.7-1.2,1.1-1.8
	c0.2-0.4,0.6-0.5,1-0.3c0.4,0.2,0.4,0.6,0.3,1c-0.2,0.4-0.4,0.8-0.6,1.2c-0.7,1.4-1.4,2.7-2.1,4.1c-0.4,0.7-0.5,1.4-0.4,2.2
	c0.2,2.2,0.3,4.4,0.5,6.6c0,0.3,0.2,0.5,0.3,0.9c1.5-1.5,9.4-13.4,10.3-15.4c-0.3-0.1-0.7-0.4-1-0.4c-1.4-0.2-2.9-0.4-4.3-0.6
	c-1-0.1-1.9-0.4-2.4-1.3c0.2-0.5,0.4-0.9,0.5-1.4c-1.3-0.6-2.2-1.7-3.4-2.3c-0.2,0.3-0.3,0.4-0.3,0.5c0,2.4-0.1,4.7-0.1,7.1
	C106.1,309.1,106.2,309.2,106.4,309.5z M65.9,238.3c-0.1,0-12.3-5-12.3-5c-0.1,0-0.2,0.1-0.2,0.1c-0.2,2-0.8,3.9-1.6,5.7
	c-0.3,0.6-0.3,1.2,0.1,1.7c1.1,1.6,1,3.1,0,4.7c-0.1,0.2-0.1,0.5-0.3,1.1c0.6-0.3,1.1-0.5,1.4-0.7c0.9-0.6,1.8-1.2,2.6-1.8
	c0.6-0.4,1.2-0.7,1.9-0.3c0.6,0.4,1-0.1,1.4-0.4c2-1.4,4-2.8,6-4.3C65.4,238.9,65.6,238.6,65.9,238.3z M139.1,209.9
	c-0.2,0.3-0.5,0.5-0.6,0.7c-3.9,7.7-7.8,15.4-10.9,23.5c-0.1,0.3-0.2,0.7-0.3,1.3c1-0.5,1.5-1.2,2-1.8c1.5-1.9,2.9-3.9,4.4-5.9
	c1.7-2.2,3.6-4.4,5.6-6.4c0.6-0.6,1-1.3,0.9-2.2c-0.2-2.8-0.4-5.6-0.6-8.5C139.5,210.4,139.3,210.2,139.1,209.9z M109.2,536.3
	c2.3-0.6,4.1-1,5.7-1.9c0-0.7-0.3-1.2,0.1-1.9c1.7-3.2,3.3-6.4,4.9-9.6c0.5-1,1-2.1,1.4-3.1c0.2-0.5,0.4-1-0.1-1.5
	c-1.6-0.1-3.3-0.2-4.8,0C113.9,524.3,111.7,530.1,109.2,536.3z M120.6,185.8c-0.8,1.3-1.4,2.5-1.9,3.8c-0.5,1.3-0.8,2.7-1.2,4.2
	c0.6,0.7,1.2,1.3,2.1,1.6c3.3,1.3,6.8,1.5,10.2,2.4c0.8-1.1,1.1-2.4,2.3-3.2c0.3-0.2,0.1-0.9-0.2-1c-0.3-0.1-0.6-0.3-0.9-0.3
	c-1.2,0.1-2.2-0.1-3.1-1c-0.5-0.5-1.3-0.5-1.8-1.3c-0.4-0.6-1.5-0.8-1.6-1.8c0-0.1-0.2-0.3-0.3-0.3
	C122.6,188.5,121.6,187.3,120.6,185.8z M45.3,287.9c0.4,0,0.9,0,1.3,0c4.2-0.4,8.4-0.4,12.6-0.3c2.6,0.1,5.2,0.3,7.8,0.5
	c2.3,0.2,2.7,0.2,4.9-1.4c-7.2-1.1-14.3-2.1-21.5-2.4c-0.3,0.9-0.9,1.4-1.7,1.7c-0.9,0.3-1.8,0.8-2.7,1.2
	C45.7,287.2,45.3,287.3,45.3,287.9z M132.4,186c2.4-1.8,2.9-2.3,3.2-3.6c0.4-1.6,0.4-3.2-0.8-4.6c-1.3,0-2.7,0-4.1,0
	c-0.7,0.8-1.3,1.5-1.9,2.3c-1,1.3-1.1,2.8-0.4,4.3c0.3,0.7,0.7,1.3,1,1.9c3.1,0.8,4.9,1,6.1,0.6C134.7,186,133.5,186.5,132.4,186z
	 M135.6,295.3c-1.3,1.1-5.4,6.2-6.6,8.3c1.9,0.1,3.5-1.3,5.3-1.3c0.4,0.3,0.7,0.7,1.1,0.9c1.1,0.7,2.1,0.4,2.7-0.7
	c0.3-0.6,0.4-1.3,0.6-2c0.2-1,0.3-2,0.6-2.9c0.5-1.9,0.9-3.8,1.1-5.8c-0.4,0.6-0.6,1.1-0.8,1.7c-0.5,1.3-1,2.7-1.6,4
	c-0.2,0.5-0.9,0.8-1.3,0.7c-0.5-0.1-0.8-0.5-0.9-1C135.7,296.6,135.7,296,135.6,295.3z M131.3,239.2c0.3-1.4,0.8-2.6,1.5-3.7
	c2.2-3.7,4.4-7.4,6.5-11.1c0.2-0.4,0.7-0.8,0.5-1.6c-4.3,3.8-7,8.6-10.3,13c-0.8,1.1-1.8,2.2-2.3,3.7c0.9,0.2,1.6,0.4,2.3,0.4
	c0.9,0,1.6,0.3,2.4,0.8c0.1,0,0.2-0.1,0.5-0.1C132,240.1,131.7,239.7,131.3,239.2z M106.7,494.5c-0.6-2.1-2.7-1.4-3.5-2.7
	c-1.1,0.3-2,0.6-3,1c-1,0.3-2,0.7-2.9,1.4c-0.1,1.4-0.7,2.6-0.3,4.2c3.1-1.3,6.3-1.2,9.2-2.4C106.5,495.4,106.6,494.9,106.7,494.5z
	 M140.2,228.9c-1,1.9-1.9,3.8-3,5.6c-1,1.8-2.2,3.6-3.3,5.5c2.8,0.1,5.1-1.2,7.6-2.2C141.2,234.8,140.9,231.9,140.2,228.9z
	 M77.9,463.3c0.1,0,0.3,0,0.4,0c0.4-2.2,0.8-4.3,1.2-6.5c0.1-0.4,0-0.8-0.1-1.1c-0.6-2.1-1.3-4.2-1.9-6.3c-0.1-0.3-0.3-0.5-0.8-0.2
	c-0.5,2.5-1.1,5-1.6,7.6c-0.1,0.4,0,0.8,0.1,1.1C76.2,459.6,77,461.4,77.9,463.3z M73.2,452.4c0.7-2.7,1.4-5,2-7.4
	c0.1-0.6,0.2-1.2,0-1.8c-0.6-2.2-1.4-4.3-2.1-6.6c-0.2,0.8-0.5,1.4-0.5,2.1c0,0.4,0.2,0.8,0.3,1.3c0,0.3,0,0.6-0.1,0.9
	c-0.2,0.7-0.4,1.5-0.8,2.1c-0.4,0.7-1,1.3-1.4,2C71,447.8,71.9,450.5,73.2,452.4z M99.6,534.9c2.4-4.6,4.6-8.8,6.8-13.1
	c0-0.1,0-0.2,0-0.2c0-0.1-0.1-0.1-0.2-0.3c-0.3,0.1-0.7,0.2-1,0.4c-1.4,1-2.8,1.9-4.1,2.9c-0.4,0.4-0.7,1-0.9,1.5
	c-0.7,2.2-1.3,4.4-2,6.7C98.6,533.4,99,534,99.6,534.9z M134.3,282.8c2.6-4.3,4.8-8.5,7.4-12.5c-0.6,0.3-1.1,0.8-1.5,1.2
	c-2.7,2.9-5.3,5.9-8,8.8c-1.4,1.6-2.9,3.2-4.3,4.8c-0.3,0.3-0.8,0.6-0.4,1.2c1.5-1.2,3-2.4,4.4-3.6
	C132.6,282.1,133.3,282.2,134.3,282.8z M45.7,323.1c-0.2,0.6-0.4,1-0.4,1.4c0,2.2,0.2,4.4,0.2,6.6c0,2.1,1.1,3.2,3.1,3.7
	c0.1-1,1.1-0.8,1.6-1.1c0-1.1-0.6-1.9-1-2.8c-0.3-0.1-0.6-0.1-0.9-0.2c-0.9-1.4-1.1-3.2-2.1-4.5c-0.2-0.2-0.1-0.8,0.1-1.1
	C46.9,324.4,46.4,323.9,45.7,323.1z M182.5,160.1c1.6,0.5,2.8-0.3,4.3-0.6c-0.6-2.9-0.1-5.9-1.3-8.8c-0.2,0.1-0.3,0.3-0.4,0.5
	C184.1,154.1,183.2,157,182.5,160.1z M108.1,260.9c-0.1-0.1-0.1-0.1-0.2-0.2c-0.3,0.1-0.5,0.2-0.8,0.4c-1.8,1.5-3.6,3.1-5.3,4.7
	c-0.8,0.8-1.9,1.3-2.1,2.6c-0.1,0.4-0.6,0.7-0.9,1c-1.4,1.6-2.9,3.2-4.3,4.8c0.3,0.5,0.5,0.8,0.8,1.3
	C99.7,270.6,103.9,265.7,108.1,260.9z M108,393.9c0.4-1,0.7-1.7,1-2.5c0.6-1.4,1.3-2.8,1.9-4.2c0.1-0.3,0.2-0.7,0.3-1.1
	c-1,0.3-1.7,0.5-2.5,0.7c-0.2-0.4-0.4-0.8-0.6-1.3c-0.6,1.2-1.1,2.3-1.6,3.3c-0.4,0.8-0.8,1.6,0,2.5c0.2,0.2,0,0.7,0,1.1
	c0,0.5,0.1,1,0.2,1.6C107.1,393.9,107.5,393.9,108,393.9z M93.8,499.6c0.2-1.1,0.4-1.9,0.5-2.7c0.1-0.9,0.5-1.7,0.4-2.6
	c-1.3-0.3-2.5-0.5-3.7-0.8c-0.9,2.3-0.9,4.4,0.5,6.6C92.3,499.9,93,499.8,93.8,499.6z M33.6,216.5c-0.2,0.4-0.4,0.7-0.5,1
	c-0.8,1.9-1.6,3.8-2.5,5.7c-1.3,2.8-2.7,5.7-4,8.5c-0.3,0.6-0.2,1,0.5,1.3c0.2-0.4,0.5-0.8,0.7-1.2c1.8-3.6,3.5-7.3,5.6-10.8
	c0.7-1.1,0.7-2.3,0.7-3.5C34,217.1,33.8,216.9,33.6,216.5z M128,175.2c-0.6,1-1.1,1.9-1.6,2.9c-0.5,1-1,2.1-1.4,3.2
	c-0.4,1-0.7,2-0.8,3.1c-0.2,1.4,1,2.3,2.8,2c-0.2-0.6-0.5-1.3-0.7-1.9c-0.5-1.8-0.5-3.5,0.8-5c0.7-0.8,1.5-1.7,1.7-2.9
	c0-0.2,0.4-0.4,0.6-0.6c0.1-0.1,0-0.2,0-0.4C128.9,175.4,128.4,175.3,128,175.2z M39.1,130.2c1.1-1.4,2.4-2.7,2.9-4.5
	c0.1-0.4,0.5-0.8,0.6-1.2c0.1-0.4,0-0.9,0-1.4c0-0.5,0-0.9,0-1.4c0-0.4,0.2-0.9-0.3-1.2c-0.1,0.1-0.3,0.2-0.3,0.3
	c-1.2,2.6-2.3,5.3-3.4,8C38.3,129.4,38.5,129.9,39.1,130.2z M117.4,514.9c1.4,0.4,2.6,0.3,4.1,0.4c-0.5-1.6-1.8-2.6-2.5-3.9
	c-0.8-1.3-1.5-2.6-2.6-3.8c-0.2,0.5-0.5,1-0.6,1.4c-0.1,0.5-0.6,0.9-0.2,1.5c2-0.4,2.5,0,2.3,1.9c0,0.5-0.2,0.9-0.3,1.3
	C117.5,514.1,117.4,514.4,117.4,514.9z M121.2,532.2c0.1-1.8,0.1-3.4,0-5.1c0-0.1-0.2-0.2-0.4-0.4c-1.1,1.7-2.2,3.4-3.3,5.1
	c-0.3,0.4-0.5,0.9-0.8,1.4c0.3,0.1,0.4,0.2,0.5,0.1C118.5,533,119.8,532.6,121.2,532.2z M110.6,523.3c-2.9,4.3-5.2,8.8-7.6,13.3
	c0.5,0.4,0.9,0.4,1.1,0c0.6-1,1.3-1.9,1.8-2.9c1.5-3,2.9-6.1,4.3-9.2C110.3,524.2,110.4,523.7,110.6,523.3z M128.3,298.8
	c-0.9-0.5-1.5-0.5-2.1,0.1c-1.4,1.4-2.8,2.8-4.2,4.2c-0.2,0.2-0.2,0.5-0.3,0.9c0.8,0,1.5,0,2.2,0
	C125.3,302.3,126.8,300.6,128.3,298.8z M100.1,502.2c-0.1-0.1-0.2-0.2-0.3-0.3c-1.2,0.6-2.4,1.2-3.7,1.8c-0.3,1.7-0.7,3.4-0.6,5.2
	c0.2,0,0.3,0,0.3,0c1.3-2,2.6-3.9,3.9-5.9C99.8,502.7,99.9,502.5,100.1,502.2z M70.6,40.6c-0.5,2.1-0.5,4.1,0.6,5.9
	c0.3,0.4,0.3,1,0.5,1.5c0.1,0.3,0.3,0.7,0.5,1c0.1-2.4,0-4.6-0.2-6.9C71.9,41.4,71.6,40.8,70.6,40.6z M92.4,287.5
	c1-1.2,1.8-2.2,2.7-3.2c0.1-0.2,0.2-0.4,0.3-0.6c-0.2-0.5-0.4-1.1-0.7-1.7c-1.6,1.1-2.8,2.5-3.9,4.2C91.3,286.6,91.8,287,92.4,287.5
	z M103.2,279.3c-1.9-0.5-3.2,0.1-4.2,1.5c0.4,0.7,0.8,1.4,1.3,2.2C101.7,282.1,102.8,281.1,103.2,279.3z M32.7,253.6
	c0.5-0.8,0.9-1.6,1.3-2.4c0.1-0.1,0-0.3-0.1-0.6c-0.7-0.3-1.4-0.6-2.2-0.9c-0.5,1.2-0.9,2.3-1.3,3.4
	C31.1,253.9,31.8,253.7,32.7,253.6z M36.7,283.7c0.6,0.1,1.1,0.3,1.7,0.4c0.4,0.1,0.9-0.2,0.8-0.6c-0.2-0.9-0.1-1.9,0-3
	C37.8,281.4,36.5,281.9,36.7,283.7z M142.9,274.4c-1.1,1.7-1.1,1.7-2.4,2.5c0.4,0.5,0.9,0.9,1.3,1.4c-0.3,0.8-0.5,1.5-0.7,2.2
	c0,0.1,0.2,0.5,0.3,0.5c0.2,0,0.5-0.2,0.5-0.3C142.2,278.8,142.5,276.7,142.9,274.4z M34.2,141.3c-0.2,0.5-0.4,0.9-0.4,1.1
	c0.4,1,0.8,2,1.3,2.9c0.2,0.4,0.6,0.4,1,0C36.1,143.8,36,142.3,34.2,141.3z M105.1,270.4c0.9-0.6,1.7-1.2,2.6-1.9
	c0.8-0.6,1.1-1.6,1.3-3C107.5,267.2,105.8,268.4,105.1,270.4z M39.8,138.1c0.5-1.1,0.9-1.8,1.1-2.6c0.3-0.8,0.3-1.7,0-2.9
	c-0.9,1.6-1.4,3-1.7,4.5C39.2,137.3,39.5,137.6,39.8,138.1z M149.8,159.1c0.2-0.3,0.4-0.6,0.7-0.8c0.8-0.8,0.8-1.7,0.7-2.7
	c0-0.2-0.3-0.5-0.5-0.6c-0.2,0-0.5,0.3-0.6,0.5C149.7,156.6,149.7,157.8,149.8,159.1z M92.6,530.5c-0.8-1.1-1.1-2.5-2.8-2.6
	c-0.3,0.4-0.5,0.7-0.8,1.1C90.7,530.2,91,530.3,92.6,530.5z M45.9,147.1c-0.2,0-0.3-0.1-0.5-0.1c-0.7,1.6-1.3,3.2-1,5.1
	c0.8-1,0.8-2.1,1.2-3C45.8,148.4,45.8,147.7,45.9,147.1z M102.7,288.4c-0.7,0-1.4,0-2.1,0c0.3,1.1,0.2,2.2,1.1,3.2
	C102.2,290.5,102.6,289.6,102.7,288.4z M180.6,168.6c-0.1,0.1-0.1,0.2-0.1,0.2c0,0,0.1,0.1,0.1,0.1c1.8,0.4,3.3,0,4.9-1.2
	c-0.4-0.1-0.6-0.3-0.8-0.2C183.3,167.9,181.9,168.3,180.6,168.6z M124.9,46.6c1.5-2.3,1.7-3.7,1-5.6C125.6,43,125.2,44.8,124.9,46.6
	z M35.8,251.4c-0.6,0.7-1.2,1.4-1.3,2.3c0.6,0.4,1.1,0.5,1.5-0.1c0.3-0.5,0.6-1,0.9-1.6C36.5,251.8,36.2,251.6,35.8,251.4z
	 M101,383.4c-0.6,1.1-1.2,2.2-1.7,3.4c-0.1,0.3-0.4,0.6-0.1,1.1C100.3,386.6,101.1,385.2,101,383.4z M45.6,219.9
	c-1.3-0.9-2.3-2.5-4.3-2.5C43,219,44.2,219.7,45.6,219.9z M40.8,292c-0.2,0.2-0.6,0.4-0.6,0.6c0.1,0.6,0.2,1.2,0.4,1.7
	c0.1,0.6,0.2,1.2,0.9,1.8C41.4,294.6,41.5,293.3,40.8,292z M136.3,243.3c0.6-0.6,1-1.1,1-1.9c-1.1,0.2-2,0.4-3,0.6
	C134.8,242.8,135.5,243,136.3,243.3z M22.4,228.9c-0.7,1.2-1.9,1.9-1.5,3.6c0.6-0.6,0.6-1.5,1.4-1.9
	C22.9,230.4,22.9,229.7,22.4,228.9z M40.1,253.3c-0.1-0.1-0.3-0.3-0.5-0.3c-0.6-0.2-1,0.1-1.3,0.9c-0.1,0.4,0.1,0.7,0.6,0.8
	C39.6,254.7,40.2,254,40.1,253.3z M96.1,288.4c0.9,0.3,1.5,0.1,2-0.5c-0.2-0.2-0.4-0.4-0.6-0.7C96.9,287.7,96.5,288.1,96.1,288.4z
	 M110,264.5c0.9-0.1,0.9-0.1,1.1-1.2C110.7,263.8,110.4,264.1,110,264.5z M106.1,292.6c0.9,0.3,1.2-0.2,1.5-0.7c0,0-0.1-0.2-0.1-0.4
	C107,292,106.6,292.3,106.1,292.6z M33.8,210.7c0.6-0.2,0.7-0.6,0.6-0.9c0-0.1-0.1-0.3-0.2-0.3c-0.1,0-0.3,0.1-0.3,0.2
	C33.8,210,33.8,210.4,33.8,210.7z M65.9,372.3c-0.1,0-0.2,0-0.3,0c0,0.5,0,1,0,1.5c0.1,0,0.1,0,0.2,0
	C65.8,373.3,65.9,372.8,65.9,372.3z M130,191.2c0.1-0.2,0.3-0.4,0.4-0.6c-0.2-0.1-0.4-0.2-0.5-0.2c-0.1,0-0.2,0.3-0.4,0.4
	C129.7,190.9,129.8,191,130,191.2z M27.1,173.3c0.2-0.2,0.4-0.3,0.6-0.6c0.1-0.1,0-0.2-0.1-0.4c0,0-0.1,0-0.2,0
	c-0.2,0.2-0.4,0.4-0.6,0.6C26.8,172.9,26.9,173.1,27.1,173.3z M36.2,147.1c-0.1,0.4-0.2,0.6-0.2,0.9c0,0,0.1,0.1,0.1,0.2
	c0.2-0.2,0.3-0.4,0.4-0.6C36.6,147.5,36.4,147.3,36.2,147.1z M38,151.9c-0.1-0.2-0.2-0.3-0.3-0.4c-0.1,0.2-0.2,0.5-0.4,0.7
	c0.1,0.1,0.3,0.2,0.3,0.1C37.8,152.2,37.9,152.1,38,151.9z M47.8,168c0.1-0.2,0.2-0.2,0.2-0.3c0-0.3-0.1-0.5-0.1-0.8
	c0,0-0.2,0-0.2,0c0,0.3-0.1,0.5-0.1,0.8C47.6,167.7,47.7,167.8,47.8,168z M100.1,285.7c-0.1,0.2-0.2,0.4-0.2,0.4
	c0.1,0.2,0.3,0.3,0.4,0.5c0.1-0.2,0.3-0.4,0.2-0.5C100.5,285.9,100.3,285.8,100.1,285.7z M66.3,368.6c-0.1,0.1-0.2,0.1-0.3,0.2
	c0,0.3-0.1,0.5-0.1,0.8c0,0,0.1,0.1,0.2,0.1c0.1-0.2,0.2-0.5,0.3-0.7C66.4,368.9,66.3,368.8,66.3,368.6z M171.1,171.7
	c0-0.1-0.1-0.2-0.1-0.2c-0.2,0.1-0.5,0.2-0.7,0.4c-0.1,0-0.1,0.1-0.1,0.2c0.1,0.1,0.3,0.2,0.3,0.1
	C170.7,172,170.9,171.9,171.1,171.7z M134.2,308.6c0.1,0,0.1-0.1,0.2-0.1c-0.1-0.1-0.1-0.2-0.2-0.3c-0.1,0-0.2,0.1-0.3,0.2
	C134,308.5,134.1,308.6,134.2,308.6z M110,277.8c-0.1,0.1-0.2,0.1-0.3,0.2c0,0.1,0.1,0.2,0.1,0.4c0.1-0.1,0.2-0.1,0.2-0.2
	C110.1,278.1,110.1,277.9,110,277.8z M48.3,248.3l-0.1-0.1l0,0.1L48.3,248.3z M134.1,304.7c0,0,0-0.1,0-0.1c0,0-0.1,0-0.2,0
	c0,0.1,0,0.2,0.1,0.2C134,304.8,134,304.8,134.1,304.7z M98.7,290.9c0,0-0.1-0.1-0.1-0.1c-0.1,0-0.1,0-0.2,0c0,0.1,0.1,0.2,0.1,0.2
	C98.6,291,98.7,291,98.7,290.9z"/>
<path class="st10" d="M11.7,143.6c1.2-1.1,1.7-2.1,2.4-3c1.9-2.5,3.8-5,5.7-7.5c2.6-3.4,5.1-6.9,7.7-10.3c1.3-1.7,2.8-3.2,4.3-4.8
	c0.5-0.5,1-0.9,1.6-1.3c0.9,0.7,1,0.9,0.6,1.4c-1,1.2-2,2.3-3,3.5c-1.1,1.4-2.2,2.9-3.3,4.4c-3.1,4.3-6.2,8.6-9.3,12.9
	c-1.4,1.9-2.8,3.8-4,5.8c0.1,0.2,0.2,0.3,0.2,0.3c0.5-0.2,1-0.4,1.4-0.6c0.5,0.2,0.6,0.6,0.3,0.9c-0.1,0.1-0.2,0.2-0.3,0.3
	c-1.5,1.3-3,2.6-4.5,3.9c-1.7-0.6-1.9-0.9-1.5-2.4c0.1-0.4,0.3-0.9,0.4-1.3c-1.3-1.8,0.1-3.7-0.4-5.6c-0.1-0.1-0.2-0.2-0.3-0.2
	c-1.9-0.3-2.3-0.9-1.4-2.5c0.4-0.8,1-1.5,1.6-2.2c0.5-0.6,0.7-1.3,0.7-2.1c0-3.5,0.3-6.9,0.8-10.3c0.7-4.1,1.5-8.1,3.5-11.8
	c0.3-0.6,0.6-1.2,0.3-1.9c-0.4-0.9,0.1-1.7,0.7-2.2c1.1-0.9,2.1-1.8,3.3-2.5c5.6-3.7,11.8-6.2,18.3-7.9c0.5-0.1,1-0.1,1.7-0.2
	c0,0.5,0,0.9,0,1.2c0,0.4,0.1,0.7,0.1,1.3c-0.4,0.2-0.9,0.5-1.4,0.6c-1.2,0.2-2.3,0.8-3.3,1.5c-2,1.3-4.1,2.3-6.7,2
	c-0.5-0.1-1.1,0.2-1.5,0.4c-2.8,1.3-5.6,2.9-8,4.9c-0.5,0.4-1,0.8-1.3,1.3c-0.7,1.4-1.6,2.6-2,4.1c-0.4,1.4-0.7,2.7-0.3,4.2
	c0.2,1-0.1,2.1-0.2,3.2c-0.5,3.2-1.1,6.3-1.7,9.8c0.5-0.3,0.8-0.5,1-0.7c2.3-2.8,4.5-5.6,6.8-8.4c0.8-1,1.3-1.2,1.6-0.9
	c0.6,0.8-0.1,1.3-0.4,1.8c-1.8,2.5-3.6,5-5.4,7.4c-1.1,1.5-2.2,2.9-3.4,4.4c-0.7,0.9-1.2,1.9-1.2,3.1
	C12.1,139.5,11.8,141.3,11.7,143.6z"/>
<path class="st10" d="M118.3,15.9c0.1,0,0.1-0.1,0.2-0.1c1.6,0.1,2.9-0.7,4.1-1.6c0.7-0.6,1.5-0.8,2.3-0.8c1.1,0,1.5,0.5,1.3,1.6
	c-0.1,0.4-0.2,0.7-0.4,1.2c0.7-0.4,1.1-0.7,1.6-0.9c0.2-0.1,0.5,0,0.6,0.1c0.1,0.1,0.3,0.4,0.2,0.6c-0.1,0.4-0.3,0.7-0.4,1
	c-0.5,1.3-1.5,2.5-1.7,4c-0.1,0.4-0.4,0.7-0.8,0.6c-0.4,0-0.8-0.4-0.8-1c0-0.5,0.2-1,0.3-1.6c0.1-0.5,0.3-1,0.6-1.9
	c-0.9,0.8-1.3,1.4-1.9,1.8c-0.8,0.7-1.7,0.5-2.3-0.5c-0.3-0.5-0.4-1-1.1-1.2c-0.9,0.6-1.6,1.5-2.3,2.4c-2.7,3.4-5.3,6.7-8,10.1
	c-0.2,0.2-0.4,0.5-0.5,0.7c-2.5,4.2-5.4,8-8.4,11.8c-3.9,5-7.6,10-11.4,15c-1.6,2.1-3.2,4.1-4.4,6.5c-0.1,0.3-0.3,0.5-0.5,0.8
	c-0.4,0.5-1,0.6-1.4,0.3c-0.4-0.3-0.5-0.8-0.3-1.2c0.9-1.8,1.7-3.8,2.9-5.5c4.5-6.1,9.2-12.1,13.8-18.1c2.3-3,4.7-5.9,6.6-9.1
	c1.6-2.6,3.6-5,5.5-7.3c2.1-2.6,4.2-5.1,6.3-7.7C118.3,16.1,118.3,15.9,118.3,15.9L118.3,15.9z"/>
<path class="st10" d="M90,68.8c1.2-2.5,2.3-4.9,3.9-7.1c1.7-2.3,3.3-4.8,5-7.2c5.5-8,10.8-16.2,16.7-23.9c1.2-1.6,2.6-3.2,3.9-4.8
	c0.3-0.3,0.7-0.4,1-0.1c0.2,0.2,0.5,0.7,0.4,1c-0.4,0.8-0.8,1.6-1.4,2.4c-1.8,2.4-3.6,4.8-5.3,7.2c-2.6,3.5-5.1,7.1-7.7,10.6
	c-4.4,6.2-8.7,12.4-13,18.6c-0.8,1.1-1.5,2.3-2.3,3.4C90.9,69.3,90.5,69.3,90,68.8z"/>
<path class="st10" d="M9.6,150.1c0,0.8,0.2,1.3,0,1.6c-1,1.6-1.3,3.4-1.8,5.2c-0.8,3.4-1.8,6.8-2.6,10.2c-0.7,2.7-1.2,5.5-1.8,8.3
	c-0.2,0.7-0.3,1.5-0.6,2.2c-0.5,1.1-0.4,2.1,0.3,3c1.1,1.4,1.5,3.2,2.3,4.7c0.1,0.2,0.1,0.5,0,0.7c-0.1,0.2-0.2,0.4-0.4,0.5
	c-0.2,0.1-0.5,0-0.6-0.1c-0.2-0.1-0.3-0.3-0.4-0.5c-1.1-1.9-2.1-3.9-3.3-5.8c-0.5-0.8-0.6-1.5-0.6-2.4c0-0.5,0.1-0.9,0.2-1.4
	c1.1-5.4,2.3-10.8,4-16c0.7-2.2,1.3-4.4,2-6.6c0.4-1.2,1.1-2.2,2.1-3C8.5,150.5,8.9,150.4,9.6,150.1z"/>
<path class="st10" d="M118.6,41.6c-0.1,0.3-0.2,0.7-0.5,1c-2.4,3.2-4.6,6.5-7.2,9.5c-2.5,2.9-4.8,6-6.6,9.4c-1.3,2.4-3,4.6-4.5,6.9
	c-0.5,0.7-1,1.3-1.2,2.2c-0.3,1-1.2,1.6-2.1,2c-0.2,0.1-0.6,0-0.8-0.2c-0.2-0.2-0.4-0.6-0.3-0.8c0.3-0.7,0.6-1.4,1-2
	c1.6-2.3,3.3-4.6,4.9-7c0.8-1.1,1.5-2.3,2.3-3.5c2.5-3.8,5.2-7.4,8.1-10.9c1.4-1.7,2.5-3.5,3.8-5.2c0.6-0.7,1.2-1.4,1.8-2.1
	c0.1-0.1,0.6-0.1,0.8,0C118.3,41,118.4,41.3,118.6,41.6z"/>
<path class="st10" d="M78.5,10.9c0.1,0.3,0.1,0.6,0.2,0.9c0.1,0.6-0.2,1-0.8,1.2c-0.9,0.3-1.7,0.6-2.6,0.9c-1.1,0.3-1.8,0.1-2.2-0.6
	c-0.4-0.8-0.3-1.9,0.3-2.6c0.2-0.2,0.3-0.3,0.5-0.5c3.6-3.1,7.3-6.1,11.5-8.2c1.7-0.8,3.5-1.4,5.3-2.1C90.8,0,91,0,91.1,0
	c0.3,0.1,0.6,0.2,0.7,0.4c0.1,0.2,0,0.6-0.2,0.8c-0.2,0.2-0.5,0.3-0.8,0.4c-2.9,0.9-5.1,3-7.5,4.8C81.7,7.9,80.1,9.4,78.5,10.9z"/>
<path class="st10" d="M77.5,93.1c3.8,0.1,7.6,0.6,11.3,1.3c0.4,0.1,0.9,0.2,1.3,0.4c0.3,0.2,0.5,0.6,0.5,0.9c0,0.5-0.4,0.8-0.9,0.9
	c-0.4,0-0.8-0.1-1.1-0.1c-4.2-0.8-8.5-1.1-12.7-1.4c-0.9-0.1-1.8-0.2-2.7-0.3c-0.2,0-0.6-0.4-0.6-0.6c0.1-0.3,0.3-0.7,0.6-0.8
	c0.3-0.2,0.7-0.2,1.1-0.2C75.4,93.1,76.5,93.1,77.5,93.1z"/>
<path class="st10" d="M77,15.1c-0.2,0.4-0.2,0.8-0.4,1.1c-0.3,0.6-0.6,1.3-1.1,1.7c-1.7,1.7-2.8,3.8-4.1,5.8c-0.6,1-1.4,2-2.2,2.9
	c-0.3,0.3-0.7,0.4-1,0.1c-0.2-0.2-0.3-0.5-0.3-0.8c0.1-0.6,0.1-1.2,0.4-1.8c1-2.3,2.2-4.6,4.1-6.3c1.1-1,2-2.1,3-3.1
	c0.1-0.1,0.2-0.2,0.4-0.3c0.2-0.1,0.5-0.1,0.6,0C76.6,14.6,76.8,14.9,77,15.1z"/>
<path class="st10" d="M118.3,15.8c-1.3,0.7-2.2,0.1-2.8-1.1c-0.5,0.2-0.9,0.3-1.4,0.4c-0.8,0.2-1.5-0.1-2.1-0.6
	c-0.6-0.5-0.7-1.4-0.2-2.1c0.8-1.1,1.9-1.7,3.2-1.9c0.2,0,0.5-0.1,0.7,0.1c0.9,0.8,2,0.6,3,0.9c1,0.4,1.3,0.9,1.1,1.9
	C119.7,14.5,118.9,15.1,118.3,15.8C118.3,15.9,118.3,15.8,118.3,15.8z"/>
<path class="st10" d="M17.6,179.9c-0.2,0.5-0.4,1-0.6,1.5c-1.2,2.5-2.4,4.9-3.6,7.4c-0.5,1.2-1,2.4-1.4,3.6
	c-0.1,0.4-0.3,0.7-0.4,1.1c-0.2,0.4-0.4,0.6-0.9,0.6c-0.4,0-0.7-0.5-0.6-1.1c0.4-1.8,0.8-3.6,1.5-5.3c1.1-2.7,2.6-5.2,4.2-7.6
	c0.2-0.3,0.5-0.6,0.8-0.8c0.1-0.1,0.5,0,0.6,0C17.3,179.4,17.4,179.6,17.6,179.9z"/>
<path class="st10" d="M83.1,51.9c-0.6-0.1-0.9-0.5-0.7-1c0.2-0.7,0.5-1.5,0.9-2.1c1.1-1.6,2.3-3,3.4-4.5c0.1-0.1,0.2-0.3,0.3-0.3
	c0.3,0,0.6-0.1,0.9,0c0.2,0.1,0.3,0.5,0.3,0.8c0,0.3-0.2,0.6-0.4,0.8c-0.4,0.6-0.9,1.1-1.3,1.6C85.4,48.8,84.3,50.3,83.1,51.9z"/>
<path class="st10" d="M104,72.4c-0.3,0.6,0,0.9,0.5,1.3c0.5,0.5,0.2,1.2-0.5,1.3c-0.4,0-0.8,0-1.1,0c-0.8-0.1-1.2-0.7-0.9-1.4
	c0.2-0.6,0.5-1.1,0.7-1.7c0.2-0.4,0.5-0.6,0.9-0.4C104.1,71.6,104.1,72,104,72.4z"/>
<path class="st10" d="M152.4,98.2c0.3,0.2,0.7,0.3,1,0.5l0-0.1C153.2,98.5,152.8,98.3,152.4,98.2L152.4,98.2z"/>
<path class="st10" d="M93.1,387.7c-0.2,0.3-0.3,0.7-0.6,0.8c-0.3,0.1-0.9,0.3-1,0.1c-1.3-1.5-3.2-2-4.7-3.1
	c-1.9-1.5-3.7-3.2-4.5-5.7c-0.4-1.3,0.4-2.4,1.7-2.2c0.4,0.1,0.9,0.3,1.1,0.7c1.9,3.1,4.7,5.4,7,8.1
	C92.5,386.8,92.8,387.2,93.1,387.7z"/>
<path class="st10" d="M111.5,169.5c1,0.4,2,0.7,2.8,1.5c-0.5-0.1-1.1-0.1-1.3,0.6c-0.7,2.2-2,4.1-3.2,6c-1.1,1.7-2.1,3.5-3.2,5.3
	c-0.2,0.4-0.5,0.8-1,0.7c-0.5-0.1-0.7-0.7-0.4-1.3c0.6-1.3,1.2-2.6,1.9-3.9c1.1-1.8,2.3-3.4,3.4-5.1c0.5-0.8,0.9-1.7,1.3-2.7
	C111.9,170.3,111.7,169.9,111.5,169.5z"/>
<path class="st10" d="M114.8,171.4c0.3,0.1,0.6,0.3,0.9,0.4C115.4,171.7,115.1,171.5,114.8,171.4z"/>
<path class="st10" d="M110.1,168.6c0.3,0.2,0.6,0.3,1,0.5C110.8,168.9,110.4,168.8,110.1,168.6z"/>
<path class="st10" d="M39.5,230.8c-0.3,0.6-0.4,1.2-0.7,1.6c-0.2,0.3-1.1,0.3-1.2,0c-0.4-0.9-0.7-1.8-1-2.8c-0.1-0.3,0-0.3,1-1
	C38.2,229.3,38.8,230,39.5,230.8z"/>
<path class="st10" d="M40.3,223.5c-0.2,0.2-0.3,0.5-0.6,0.8c-0.6-0.5-1-0.9-1.7-1.4C39.2,222.3,39.6,223.5,40.3,223.5
	C40.3,223.6,40.3,223.5,40.3,223.5z"/>
<polygon class="st10" points="37.7,247.4 37.7,247.6 37.6,247.5 "/>
<path class="st10" d="M67,413.4C67,413.4,67,413.4,67,413.4C67,413.3,67,413.4,67,413.4z"/>
<path class="st10" d="M178.7,155.8c0.4,0,0.7,0,1.1,0c0.5,0.9,0.4,1.8,0.2,2.7c0,0.2-0.4,0.5-0.6,0.5c-0.2,0-0.6-0.3-0.6-0.5
	C178.8,157.5,178.8,156.6,178.7,155.8L178.7,155.8z"/>
</svg>
