<?xml version="1.0" encoding="iso-8859-1"?>
<!-- Generator: Adobe Illustrator 19.0.0, SVG Export Plug-In . SVG Version: 6.00 Build 0)  -->
<svg xmlns="http://www.w3.org/2000/svg" xmlns:xlink="http://www.w3.org/1999/xlink" version="1.1" id="Layer_1" x="0px" y="0px" viewBox="0 0 514.133 514.133" style="enable-background:new 0 0 514.133 514.133;" xml:space="preserve">
<g>
	<circle style="fill:#ACB3BA;" cx="413.867" cy="313.6" r="100.267"/>
	<circle style="fill:#ACB3BA;" cx="100.267" cy="313.6" r="100.267"/>
</g>
<g>
	<circle style="fill:#F2F2F2;" cx="100.267" cy="313.6" r="77.867"/>
	<circle style="fill:#F2F2F2;" cx="413.867" cy="313.6" r="77.867"/>
</g>
<path style="fill:#CDD6E0;" d="M421.333,309.333l-55.467-153.6l-3.2-16H387.2v-16h-44.8l5.333,26.667h-160L176,122.667L161.067,128  l10.667,24.533L93.867,304h-2.133v17.067H240l4.267,10.667l119.467-131.2l42.667,115.2L421.333,309.333z M113.067,304L179.2,172.8  L233.6,304H113.067L113.067,304z M249.6,301.867L194.133,166.4H352l6.4,17.067L249.6,301.867z"/>
<path style="fill:#FF7058;" d="M387.2,182.4L387.2,182.4c-1.067-4.267,2.133-8.533,7.467-9.6h2.133  c8.533-1.067,14.933-8.533,13.867-17.067c0-8.533-8.533-16-17.067-16h-13.867v-16H393.6c18.133,0,33.067,13.867,34.133,32  C427.733,172.8,416,186.667,400,188.8h-3.2C391.467,189.867,387.2,186.667,387.2,182.4z"/>
<circle style="fill:#40596B;" cx="247.467" cy="316.8" r="37.333"/>
<circle style="fill:#CDD6E0;" cx="247.467" cy="316.8" r="22.4"/>
<g>
	<circle style="fill:#40596B;" cx="99.2" cy="312.533" r="18.133"/>
	<circle style="fill:#40596B;" cx="413.867" cy="312.533" r="18.133"/>
	<path style="fill:#40596B;" d="M205.867,100.267h-53.333c-9.6,0-17.067,7.467-17.067,17.067s7.467,17.067,17.067,17.067h72.533   c3.2,0,6.4-3.2,6.4-6.4C232.533,112,220.8,100.267,205.867,100.267z"/>
</g>
<polygon style="opacity:0.1;fill:#231F20;enable-background:new    ;" points="163.2,133.333 167.467,144 185.6,144   181.333,133.333 "/>
<g>
</g>
<g>
</g>
<g>
</g>
<g>
</g>
<g>
</g>
<g>
</g>
<g>
</g>
<g>
</g>
<g>
</g>
<g>
</g>
<g>
</g>
<g>
</g>
<g>
</g>
<g>
</g>
<g>
</g>
</svg>
