<?xml version="1.0" encoding="iso-8859-1"?>
<!-- Generator: Adobe Illustrator 19.0.0, SVG Export Plug-In . SVG Version: 6.00 Build 0)  -->
<svg xmlns="http://www.w3.org/2000/svg" xmlns:xlink="http://www.w3.org/1999/xlink" version="1.1" id="Layer_1" x="0px" y="0px" viewBox="0 0 490.667 490.667" style="enable-background:new 0 0 490.667 490.667;" xml:space="preserve">
<path style="fill:#CDD6E0;" d="M490.667,156.8H0V21.333C0,9.6,9.6,0,21.333,0h448c11.733,0,21.333,9.6,21.333,21.333V156.8z"/>
<path style="fill:#F2F2F2;" d="M469.333,490.667h-448C9.6,490.667,0,481.067,0,469.333V156.8h490.667v312.533  C490.667,481.067,481.067,490.667,469.333,490.667z"/>
<circle style="fill:#ACB3BA;" cx="112" cy="77.867" r="29.867"/>
<circle style="fill:#FFFFFF;" cx="112" cy="77.867" r="18.133"/>
<circle style="fill:#ACB3BA;" cx="378.667" cy="77.867" r="29.867"/>
<circle style="fill:#FFFFFF;" cx="378.667" cy="77.867" r="18.133"/>
<path style="fill:#40596B;" d="M107.733,77.867L107.733,77.867c0-7.467,6.4-13.867,13.867-13.867H368  c7.467,0,13.867,6.4,13.867,13.867l0,0c0,7.467-6.4,13.867-13.867,13.867H122.667C114.133,91.733,107.733,85.333,107.733,77.867z"/>
<g>
	<rect x="153.6" y="197.333" style="fill:#84DBFF;" width="71.467" height="70.4"/>
	<rect x="265.6" y="197.333" style="fill:#84DBFF;" width="71.467" height="70.4"/>
	<rect x="378.667" y="197.333" style="fill:#84DBFF;" width="71.467" height="70.4"/>
	<rect x="40.533" y="288" style="fill:#84DBFF;" width="71.467" height="70.4"/>
	<rect x="153.6" y="288" style="fill:#84DBFF;" width="71.467" height="70.4"/>
	<rect x="265.6" y="288" style="fill:#84DBFF;" width="71.467" height="70.4"/>
	<rect x="378.667" y="288" style="fill:#84DBFF;" width="71.467" height="70.4"/>
	<rect x="40.533" y="379.733" style="fill:#84DBFF;" width="71.467" height="70.4"/>
	<rect x="153.6" y="379.733" style="fill:#84DBFF;" width="71.467" height="70.4"/>
	<rect x="265.6" y="379.733" style="fill:#84DBFF;" width="71.467" height="70.4"/>
</g>
<g>
</g>
<g>
</g>
<g>
</g>
<g>
</g>
<g>
</g>
<g>
</g>
<g>
</g>
<g>
</g>
<g>
</g>
<g>
</g>
<g>
</g>
<g>
</g>
<g>
</g>
<g>
</g>
<g>
</g>
</svg>
