<?xml version="1.0" encoding="iso-8859-1"?>
<!-- Generator: Adobe Illustrator 19.0.0, SVG Export Plug-In . SVG Version: 6.00 Build 0)  -->
<svg xmlns="http://www.w3.org/2000/svg" xmlns:xlink="http://www.w3.org/1999/xlink" version="1.1" id="Layer_1" x="0px" y="0px" viewBox="0 0 512 512" style="enable-background:new 0 0 512 512;" xml:space="preserve">
<polygon style="fill:#FFD15C;" points="338.133,23.467 174.933,23.467 106.667,52.267 106.667,187.733 106.667,488.533   405.333,488.533 405.333,187.733 405.333,52.267 "/>
<rect x="106.667" y="438.4" style="fill:#F2F2F2;" width="299.733" height="16"/>
<rect x="106.667" y="453.333" style="fill:#FF7058;" width="299.733" height="34.133"/>
<path style="fill:#F2F2F2;" d="M338.133,23.467h-163.2l-9.6,4.267c0,25.6,4.267,41.6,11.733,51.2  c13.867,18.133,42.667,27.733,78.933,27.733S321.067,96,334.933,78.933c8.533-9.6,11.733-25.6,11.733-51.2L338.133,23.467z"/>
<path style="fill:#F8B64C;" d="M184.533,72.533C196.267,88.533,224,97.067,256,97.067s59.733-9.6,71.467-24.533  c7.467-8.533,9.6-24.533,9.6-49.067h-163.2C173.867,49.067,177.067,64,184.533,72.533z"/>
<path style="fill:#FFD15C;" d="M106.667,52.267L106.667,52.267c-42.667,17.067-76.8,51.2-90.667,96C9.6,167.467,4.267,192,0,220.8  l89.6,13.867c0,0,7.467-33.067,16-48v-134.4H106.667z"/>
<path style="fill:#FF7058;" d="M94.933,214.4c-1.067,0-1.067,0-2.133,0L3.2,199.467l0,0c-1.067,6.4-2.133,13.867-3.2,21.333  l89.6,13.867C89.6,234.667,91.733,226.133,94.933,214.4z"/>
<path style="fill:#FFD15C;" d="M405.333,52.267L405.333,52.267c42.667,17.067,76.8,51.2,90.667,96c6.4,19.2,11.733,43.733,16,72.533  l-89.6,13.867c0,0-7.467-33.067-16-48v-134.4H405.333z"/>
<path style="fill:#FF7058;" d="M417.067,214.4c3.2,10.667,5.333,20.267,5.333,20.267l89.6-14.933  c-1.067-7.467-2.133-13.867-3.2-21.333l0,0l-89.6,14.933C418.133,214.4,417.067,214.4,417.067,214.4z"/>
<polygon style="fill:#40596B;" points="315.733,144 315.733,176 344.533,197.333 372.267,176 372.267,144 "/>
<g>
</g>
<g>
</g>
<g>
</g>
<g>
</g>
<g>
</g>
<g>
</g>
<g>
</g>
<g>
</g>
<g>
</g>
<g>
</g>
<g>
</g>
<g>
</g>
<g>
</g>
<g>
</g>
<g>
</g>
</svg>
