<?xml version="1.0" encoding="iso-8859-1"?>
<!-- Generator: Adobe Illustrator 19.0.0, SVG Export Plug-In . SVG Version: 6.00 Build 0)  -->
<svg xmlns="http://www.w3.org/2000/svg" xmlns:xlink="http://www.w3.org/1999/xlink" version="1.1" id="Layer_1" x="0px" y="0px" viewBox="0 0 511.434 511.434" style="enable-background:new 0 0 511.434 511.434;" xml:space="preserve">
<path style="fill:#FFD15C;" d="M100.767,469.584c35.2,17.067,72.533,23.467,72.533,23.467  c72.533,4.267,136.533-23.467,136.533-23.467c0,13.867,3.2,27.733,7.467,40.533h94.933c27.733-38.4,51.2-93.867,38.4-166.4  c-27.733,8.533-42.667-10.667-42.667-10.667c-61.867-43.733-131.2,6.4-131.2,6.4c-78.933-57.6-140.8,16-140.8,16  c6.4-9.6,10.667-55.467,10.667-55.467c6.4-57.6,30.933-108.8,30.933-108.8c4.267-24.533,32-21.333,32-21.333  c12.8,9.6,27.733,10.667,27.733,10.667c25.6,7.467,30.933,0,30.933,0c4.267,16,13.867,9.6,13.867,9.6  c19.2-9.6,5.333-25.6,5.333-25.6c-7.467-8.533,4.267-12.8,4.267-12.8c10.667-4.267,7.467-10.667,7.467-10.667l-25.6-57.6  c-25.6-5.333-83.2,19.2-83.2,19.2c-49.067,10.667-67.2,68.267-67.2,68.267S-15.499,353.317,2.634,408.784  C19.701,463.184,100.767,469.584,100.767,469.584z"/>
<g>
	<path style="fill:#F8B64C;" d="M298.101,365.05c3.2,4.267,7.467,10.667,11.733,18.133c4.267,8.533,7.467,18.133,9.6,28.8   s4.267,23.467,8.533,36.267c4.267,11.733,10.667,23.467,18.133,33.067c7.467,9.6,16,17.067,24.533,22.4   c3.2,2.133,7.467,4.267,10.667,5.333h9.6c-4.267-2.133-9.6-6.4-16-11.733c-12.8-12.8-26.667-32-34.133-54.4   c-4.267-10.667-6.4-22.4-10.667-34.133s-8.533-21.333-14.933-29.867c-5.333-7.467-11.733-12.8-17.067-16   c-4.267-3.2-7.467-4.267-7.467-4.267S294.901,360.784,298.101,365.05z"/>
	<path style="fill:#F8B64C;" d="M143.434,421.584c0,0,9.6,2.133,24.533,4.267c14.933,2.133,33.067,4.267,52.267,3.2   c4.267,0,9.6,0,13.867-1.067s9.6-1.067,12.8-2.133c4.267-1.067,8.533-2.133,11.733-3.2c3.2-1.067,7.467-2.133,10.667-4.267   c3.2-2.133,6.4-3.2,8.533-4.267c2.133-1.067,4.267-3.2,6.4-4.267c3.2-2.133,6.4-3.2,6.4-3.2s-1.067,2.133-4.267,5.333   c-3.2,3.2-7.467,8.533-13.867,12.8c-3.2,2.133-6.4,4.267-10.667,6.4c-4.267,2.133-8.533,4.267-12.8,5.333   c-9.6,3.2-19.2,4.267-29.867,5.333c-10.667,0-20.267,0-29.867-2.133c-9.6-1.067-18.133-4.267-24.533-7.467   C151.967,426.917,143.434,421.584,143.434,421.584z"/>
	<path style="fill:#F8B64C;" d="M107.167,363.984c0,0-1.067-2.133-3.2-5.333c-2.133-3.2-5.333-8.533-7.467-16   c-2.133-6.4-4.267-14.933-4.267-24.533c0-9.6,1.067-19.2,3.2-28.8c3.2-9.6,6.4-18.133,10.667-26.667   c4.267-7.467,9.6-14.933,13.867-20.267c9.6-10.667,18.133-16,18.133-16s-1.067,2.133-3.2,5.333   c-2.133,3.2-5.333,8.533-8.533,13.867c-6.4,11.733-13.867,28.8-18.133,45.867c-2.133,8.533-3.2,17.067-4.267,25.6   c-1.067,8.533-1.067,16,0,22.4s1.067,12.8,2.133,16C107.167,360.784,107.167,363.984,107.167,363.984z"/>
</g>
<path style="fill:#FF7058;" d="M413.301,510.117h98.133V331.984c-24.533-1.067-57.6,11.733-57.6,11.733c-1.067,0-1.067,0-2.133,0  C464.501,416.25,441.034,471.717,413.301,510.117z"/>
<g>
	<path style="opacity:0.1;fill:#231F20;enable-background:new    ;" d="M100.767,469.584c35.2,17.067,72.533,23.467,72.533,23.467   c72.533,4.267,136.533-23.467,136.533-23.467c0,13.867,3.2,27.733,7.467,40.533h14.933c-7.467-14.933-11.733-32-11.733-51.2   c0,0-64,27.733-136.533,23.467c0,0-38.4-6.4-72.533-23.467c0,0-81.067-6.4-99.2-61.867   c-7.467-21.333,27.733-103.467,27.733-103.467c-25.6,44.8-45.867,90.667-38.4,114.133   C19.701,463.184,100.767,469.584,100.767,469.584z"/>
	<path style="opacity:0.1;fill:#231F20;enable-background:new    ;" d="M266.101,350.117c0,0,70.4-50.133,132.267-5.333   c0,0,14.933,18.133,42.667,10.667c11.733,65.067-6.4,117.333-30.933,155.733h3.2c27.733-38.4,51.2-93.867,38.4-166.4   c-27.733,8.533-42.667-10.667-42.667-10.667c-62.933-44.8-132.267,5.333-132.267,5.333c-78.933-57.6-140.8,16-140.8,16   c6.4-9.6,10.667-55.467,10.667-55.467c6.4-57.6,30.933-108.8,30.933-108.8c0-3.2,1.067-5.333,2.133-7.467   c-5.333,3.2-11.733,8.533-12.8,18.133c0,0-23.467,51.2-30.933,108.8c0,0-4.267,45.867-10.667,55.467   C125.301,366.117,186.101,291.45,266.101,350.117z"/>
</g>
<circle style="fill:#40596B;" cx="195.701" cy="123.984" r="123.733"/>
<path style="fill:#334A5E;" d="M195.701,216.784c-51.2,0-91.733-41.6-91.733-91.733s41.6-91.733,91.733-91.733  c51.2,0,91.733,41.6,91.733,91.733S246.901,216.784,195.701,216.784z M195.701,58.917c-36.267,0-65.067,28.8-65.067,65.067  s28.8,65.067,65.067,65.067s65.067-28.8,65.067-65.067S231.967,58.917,195.701,58.917z"/>
<circle style="fill:#CDD6E0;" cx="195.701" cy="123.984" r="22.4"/>
<g>
</g>
<g>
</g>
<g>
</g>
<g>
</g>
<g>
</g>
<g>
</g>
<g>
</g>
<g>
</g>
<g>
</g>
<g>
</g>
<g>
</g>
<g>
</g>
<g>
</g>
<g>
</g>
<g>
</g>
</svg>
