<?xml version="1.0" encoding="iso-8859-1"?>
<!-- Generator: Adobe Illustrator 19.0.0, SVG Export Plug-In . SVG Version: 6.00 Build 0)  -->
<svg xmlns="http://www.w3.org/2000/svg" xmlns:xlink="http://www.w3.org/1999/xlink" version="1.1" id="Layer_1" x="0px" y="0px" viewBox="0 0 512 512" style="enable-background:new 0 0 512 512;" xml:space="preserve">
<path style="fill:#CDD6E0;" d="M336,80h-80l-3.2,12.8h-41.6L208,80H0v126.933L158.933,256c0,97.067,78.933,176,176,176  C433.067,432,512,353.067,512,256S433.067,80,336,80z"/>
<circle style="fill:#F2F2F2;" cx="336" cy="256" r="109.867"/>
<circle style="fill:#FF7058;" cx="336" cy="256" r="75.733"/>
<path style="opacity:0.1;fill:#231F20;enable-background:new    ;" d="M268.8,265.6c0-41.6,34.133-75.733,75.733-75.733  c18.133,0,35.2,6.4,49.067,18.133c-13.867-16-34.133-26.667-57.6-26.667c-41.6,0-75.733,34.133-75.733,75.733  c0,23.467,10.667,43.733,26.667,57.6C276.267,300.8,268.8,283.733,268.8,265.6z"/>
<g>
</g>
<g>
</g>
<g>
</g>
<g>
</g>
<g>
</g>
<g>
</g>
<g>
</g>
<g>
</g>
<g>
</g>
<g>
</g>
<g>
</g>
<g>
</g>
<g>
</g>
<g>
</g>
<g>
</g>
</svg>
