<?xml version="1.0" encoding="UTF-8" standalone="no"?>
<!-- Generator: Adobe Illustrator 19.0.0, SVG Export Plug-In . SVG Version: 6.00 Build 0)  -->

<svg
   xmlns:dc="http://purl.org/dc/elements/1.1/"
   xmlns:cc="http://creativecommons.org/ns#"
   xmlns:rdf="http://www.w3.org/1999/02/22-rdf-syntax-ns#"
   xmlns:svg="http://www.w3.org/2000/svg"
   xmlns="http://www.w3.org/2000/svg"
   xmlns:sodipodi="http://sodipodi.sourceforge.net/DTD/sodipodi-0.dtd"
   xmlns:inkscape="http://www.inkscape.org/namespaces/inkscape"
   version="1.1"
   id="Layer_1"
   x="0px"
   y="0px"
   viewBox="0 0 512 512"
   style="enable-background:new 0 0 512 512;"
   xml:space="preserve"
   sodipodi:docname="budget.svg"
   inkscape:version="0.92.0 r15299"><metadata
     id="metadata4857"><rdf:RDF><cc:Work
         rdf:about=""><dc:format>image/svg+xml</dc:format><dc:type
           rdf:resource="http://purl.org/dc/dcmitype/StillImage" /></cc:Work></rdf:RDF></metadata><defs
     id="defs4855" /><sodipodi:namedview
     pagecolor="#ffffff"
     bordercolor="#666666"
     borderopacity="1"
     objecttolerance="10"
     gridtolerance="10"
     guidetolerance="10"
     inkscape:pageopacity="0"
     inkscape:pageshadow="2"
     inkscape:window-width="1366"
     inkscape:window-height="705"
     id="namedview4853"
     showgrid="false"
     inkscape:zoom="0.4609375"
     inkscape:cx="256"
     inkscape:cy="256"
     inkscape:window-x="-8"
     inkscape:window-y="-8"
     inkscape:window-maximized="1"
     inkscape:current-layer="Layer_1" /><g
     id="g4670"
     style="fill:#ffffff;fill-opacity:1"><g
       id="g4668"
       style="fill:#ffffff;fill-opacity:1"><path
         d="M135.749,96.44V68.583c5.907,1.936,9.62,5.833,9.62,9.447c0,4.427,3.589,8.017,8.017,8.017s8.017-3.589,8.017-8.017    c0-12.784-10.768-23.198-25.654-25.983v-1.274c0-4.427-3.589-8.017-8.017-8.017s-8.017,3.589-8.017,8.017v1.274    c-14.885,2.786-25.654,13.2-25.654,25.983c0,17.862,14.266,25.369,25.654,29.69v27.858c-5.907-1.936-9.62-5.833-9.62-9.447    c0-4.427-3.589-8.017-8.017-8.017s-8.017,3.589-8.017,8.017c0,12.784,10.768,23.198,25.654,25.983v1.274    c0,4.427,3.589,8.017,8.017,8.017s8.017-3.589,8.017-8.017v-1.274c14.885-2.786,25.654-13.2,25.654-25.983    C161.403,108.268,147.137,100.761,135.749,96.44z M119.716,90.229c-7.992-3.917-9.62-7.338-9.62-12.199    c0-3.614,3.713-7.511,9.62-9.447V90.229z M135.749,135.577v-21.646c7.992,3.917,9.62,7.338,9.62,12.199    C145.369,129.744,141.656,133.641,135.749,135.577z"
         id="path4666"
         style="fill:#ffffff;fill-opacity:1" /></g></g><g
     id="g4676"
     style="fill:#ffffff;fill-opacity:1"><g
       id="g4674"
       style="fill:#ffffff;fill-opacity:1"><path
         d="M256,59.858h-68.409c-4.427,0-8.017,3.589-8.017,8.017c0,4.427,3.589,8.017,8.017,8.017H256    c4.427,0,8.017-3.589,8.017-8.017C264.017,63.448,260.427,59.858,256,59.858z"
         id="path4672"
         style="fill:#ffffff;fill-opacity:1" /></g></g><g
     id="g4682"
     style="fill:#ffffff;fill-opacity:1"><g
       id="g4680"
       style="fill:#ffffff;fill-opacity:1"><path
         d="M196.142,128.268h-8.551c-4.427,0-8.017,3.589-8.017,8.017s3.589,8.017,8.017,8.017h8.551    c4.427,0,8.017-3.589,8.017-8.017S200.569,128.268,196.142,128.268z"
         id="path4678"
         style="fill:#ffffff;fill-opacity:1" /></g></g><g
     id="g4688"
     style="fill:#ffffff;fill-opacity:1"><g
       id="g4686"
       style="fill:#ffffff;fill-opacity:1"><path
         d="M341.512,188.124H102.079c-4.427,0-8.017,3.589-8.017,8.017s3.589,8.017,8.017,8.017h239.433    c4.427,0,8.017-3.589,8.017-8.017S345.939,188.124,341.512,188.124z"
         id="path4684"
         style="fill:#ffffff;fill-opacity:1" /></g></g><g
     id="g4694"
     style="fill:#ffffff;fill-opacity:1"><g
       id="g4692"
       style="fill:#ffffff;fill-opacity:1"><path
         d="M179.039,239.431h-25.654c-4.427,0-8.017,3.589-8.017,8.017s3.589,8.017,8.017,8.017h25.654    c4.427,0,8.017-3.589,8.017-8.017S183.467,239.431,179.039,239.431z"
         id="path4690"
         style="fill:#ffffff;fill-opacity:1" /></g></g><g
     id="g4700"
     style="fill:#ffffff;fill-opacity:1"><g
       id="g4698"
       style="fill:#ffffff;fill-opacity:1"><path
         d="M119.181,239.431h-17.102c-4.427,0-8.017,3.589-8.017,8.017s3.589,8.017,8.017,8.017h17.102    c4.427,0,8.017-3.589,8.017-8.017S123.608,239.431,119.181,239.431z"
         id="path4696"
         style="fill:#ffffff;fill-opacity:1" /></g></g><g
     id="g4706"
     style="fill:#ffffff;fill-opacity:1"><g
       id="g4704"
       style="fill:#ffffff;fill-opacity:1"><path
         d="M179.039,273.636h-25.654c-4.427,0-8.017,3.589-8.017,8.017c0,4.427,3.589,8.017,8.017,8.017h25.654    c4.427,0,8.017-3.589,8.017-8.017C187.056,277.225,183.467,273.636,179.039,273.636z"
         id="path4702"
         style="fill:#ffffff;fill-opacity:1" /></g></g><g
     id="g4712"
     style="fill:#ffffff;fill-opacity:1"><g
       id="g4710"
       style="fill:#ffffff;fill-opacity:1"><path
         d="M119.181,273.636h-17.102c-4.427,0-8.017,3.589-8.017,8.017c0,4.427,3.589,8.017,8.017,8.017h17.102    c4.427,0,8.017-3.589,8.017-8.017C127.198,277.225,123.608,273.636,119.181,273.636z"
         id="path4708"
         style="fill:#ffffff;fill-opacity:1" /></g></g><g
     id="g4718"
     style="fill:#ffffff;fill-opacity:1"><g
       id="g4716"
       style="fill:#ffffff;fill-opacity:1"><path
         d="M179.039,307.841h-25.654c-4.427,0-8.017,3.589-8.017,8.017s3.589,8.017,8.017,8.017h25.654    c4.427,0,8.017-3.589,8.017-8.017S183.467,307.841,179.039,307.841z"
         id="path4714"
         style="fill:#ffffff;fill-opacity:1" /></g></g><g
     id="g4724"
     style="fill:#ffffff;fill-opacity:1"><g
       id="g4722"
       style="fill:#ffffff;fill-opacity:1"><path
         d="M119.181,307.841h-17.102c-4.427,0-8.017,3.589-8.017,8.017s3.589,8.017,8.017,8.017h17.102    c4.427,0,8.017-3.589,8.017-8.017S123.608,307.841,119.181,307.841z"
         id="path4720"
         style="fill:#ffffff;fill-opacity:1" /></g></g><g
     id="g4730"
     style="fill:#ffffff;fill-opacity:1"><g
       id="g4728"
       style="fill:#ffffff;fill-opacity:1"><path
         d="M179.039,342.045h-25.654c-4.427,0-8.017,3.589-8.017,8.017s3.589,8.017,8.017,8.017h25.654    c4.427,0,8.017-3.589,8.017-8.017S183.467,342.045,179.039,342.045z"
         id="path4726"
         style="fill:#ffffff;fill-opacity:1" /></g></g><g
     id="g4736"
     style="fill:#ffffff;fill-opacity:1"><g
       id="g4734"
       style="fill:#ffffff;fill-opacity:1"><path
         d="M119.181,342.045h-17.102c-4.427,0-8.017,3.589-8.017,8.017s3.589,8.017,8.017,8.017h17.102    c4.427,0,8.017-3.589,8.017-8.017S123.608,342.045,119.181,342.045z"
         id="path4732"
         style="fill:#ffffff;fill-opacity:1" /></g></g><g
     id="g4742"
     style="fill:#ffffff;fill-opacity:1"><g
       id="g4740"
       style="fill:#ffffff;fill-opacity:1"><path
         d="M179.039,376.25h-25.654c-4.427,0-8.017,3.589-8.017,8.017s3.589,8.017,8.017,8.017h25.654    c4.427,0,8.017-3.589,8.017-8.017S183.467,376.25,179.039,376.25z"
         id="path4738"
         style="fill:#ffffff;fill-opacity:1" /></g></g><g
     id="g4748"
     style="fill:#ffffff;fill-opacity:1"><g
       id="g4746"
       style="fill:#ffffff;fill-opacity:1"><path
         d="M119.181,376.25h-17.102c-4.427,0-8.017,3.589-8.017,8.017s3.589,8.017,8.017,8.017h17.102    c4.427,0,8.017-3.589,8.017-8.017S123.608,376.25,119.181,376.25z"
         id="path4744"
         style="fill:#ffffff;fill-opacity:1" /></g></g><g
     id="g4754"
     style="fill:#ffffff;fill-opacity:1"><g
       id="g4752"
       style="fill:#ffffff;fill-opacity:1"><path
         d="M281.654,128.268h-8.551c-4.427,0-8.017,3.589-8.017,8.017s3.589,8.017,8.017,8.017h8.551    c4.427,0,8.017-3.589,8.017-8.017S286.081,128.268,281.654,128.268z"
         id="path4750"
         style="fill:#ffffff;fill-opacity:1" /></g></g><g
     id="g4760"
     style="fill:#ffffff;fill-opacity:1"><g
       id="g4758"
       style="fill:#ffffff;fill-opacity:1"><path
         d="M324.409,128.268h-8.551c-4.427,0-8.017,3.589-8.017,8.017s3.589,8.017,8.017,8.017h8.551    c4.427,0,8.017-3.589,8.017-8.017S328.837,128.268,324.409,128.268z"
         id="path4756"
         style="fill:#ffffff;fill-opacity:1" /></g></g><g
     id="g4766"
     style="fill:#ffffff;fill-opacity:1"><g
       id="g4764"
       style="fill:#ffffff;fill-opacity:1"><path
         d="M238.898,128.268h-8.551c-4.427,0-8.017,3.589-8.017,8.017s3.589,8.017,8.017,8.017h8.551    c4.427,0,8.017-3.589,8.017-8.017S243.325,128.268,238.898,128.268z"
         id="path4762"
         style="fill:#ffffff;fill-opacity:1" /></g></g><g
     id="g4772"
     style="fill:#ffffff;fill-opacity:1"><g
       id="g4770"
       style="fill:#ffffff;fill-opacity:1"><path
         d="M273.102,94.063h-85.512c-4.427,0-8.017,3.589-8.017,8.017s3.589,8.017,8.017,8.017h85.512    c4.427,0,8.017-3.589,8.017-8.017S277.53,94.063,273.102,94.063z"
         id="path4768"
         style="fill:#ffffff;fill-opacity:1" /></g></g><g
     id="g4778"
     style="fill:#ffffff;fill-opacity:1"><g
       id="g4776"
       style="fill:#ffffff;fill-opacity:1"><path
         d="M427.024,222.329h-34.739v-128.8c0-2.126-0.844-4.165-2.348-5.668L304.424,2.348C302.921,0.844,300.882,0,298.756,0    H76.425C62.574,0,51.306,11.268,51.306,25.119v410.455c0,13.851,11.268,25.119,25.119,25.119h128.802v17.637    c0,18.566,15.105,33.67,33.67,33.67h188.126c18.566,0,33.67-15.105,33.67-33.67V255.999    C460.694,237.433,445.589,222.329,427.024,222.329z M306.773,27.37l58.142,58.142h-40.505c-9.725,0-17.637-7.912-17.637-17.637    V27.37z M205.227,255.999v188.66H76.425c-5.01,0-9.086-4.076-9.086-9.086V25.119c0-5.01,4.076-9.086,9.086-9.086h214.314v51.842    c0,18.566,15.105,33.67,33.67,33.67h51.842v120.783H238.898C220.332,222.329,205.227,237.433,205.227,255.999z M444.661,478.33    c0,9.725-7.912,17.637-17.637,17.637H238.898c-9.725,0-17.637-7.912-17.637-17.637V255.999c0-9.725,7.912-17.637,17.637-17.637    h188.126c9.725,0,17.637,7.912,17.637,17.637V478.33z"
         id="path4774"
         style="fill:#ffffff;fill-opacity:1" /></g></g><g
     id="g4784"
     style="fill:#ffffff;fill-opacity:1"><g
       id="g4782"
       style="fill:#ffffff;fill-opacity:1"><path
         d="M409.921,256.533H256c-9.136,0-16.568,7.432-16.568,16.568v34.205c0,9.136,7.432,16.568,16.568,16.568h153.921    c9.136,0,16.568-7.432,16.568-16.568v-34.205C426.489,263.965,419.057,256.533,409.921,256.533z M410.456,307.306    c0,0.295-0.239,0.534-0.534,0.534H256c-0.295,0-0.534-0.239-0.534-0.534v-34.205c0-0.295,0.239-0.534,0.534-0.534h153.921    c0.295,0,0.534,0.239,0.534,0.534V307.306z"
         id="path4780"
         style="fill:#ffffff;fill-opacity:1" /></g></g><g
     id="g4790"
     style="fill:#ffffff;fill-opacity:1"><g
       id="g4788"
       style="fill:#ffffff;fill-opacity:1"><path
         d="M273.102,350.596H256c-9.136,0-16.568,7.432-16.568,16.568v17.102c0,9.136,7.432,16.568,16.568,16.568h17.102    c9.136,0,16.568-7.432,16.568-16.568v-17.102C289.67,358.028,282.238,350.596,273.102,350.596z M273.637,384.267    c0,0.295-0.239,0.534-0.534,0.534H256c-0.295,0-0.534-0.239-0.534-0.534v-17.102c0-0.295,0.239-0.534,0.534-0.534h17.102    c0.295,0,0.534,0.239,0.534,0.534V384.267z"
         id="path4786"
         style="fill:#ffffff;fill-opacity:1" /></g></g><g
     id="g4796"
     style="fill:#ffffff;fill-opacity:1"><g
       id="g4794"
       style="fill:#ffffff;fill-opacity:1"><path
         d="M409.921,350.596h-17.102c-9.136,0-16.568,7.432-16.568,16.568v17.102c0,9.136,7.432,16.568,16.568,16.568h17.102    c9.136,0,16.568-7.432,16.568-16.568v-17.102C426.489,358.028,419.057,350.596,409.921,350.596z M410.456,384.267    c0,0.295-0.239,0.534-0.534,0.534h-17.102c-0.295,0-0.534-0.239-0.534-0.534v-17.102c0-0.295,0.239-0.534,0.534-0.534h17.102    c0.295,0,0.534,0.239,0.534,0.534V384.267z"
         id="path4792"
         style="fill:#ffffff;fill-opacity:1" /></g></g><g
     id="g4802"
     style="fill:#ffffff;fill-opacity:1"><g
       id="g4800"
       style="fill:#ffffff;fill-opacity:1"><path
         d="M341.512,350.596h-17.102c-9.136,0-16.568,7.432-16.568,16.568v17.102c0,9.136,7.432,16.568,16.568,16.568h17.102    c9.136,0,16.568-7.432,16.568-16.568v-17.102C358.08,358.028,350.648,350.596,341.512,350.596z M342.046,384.267    c0,0.295-0.239,0.534-0.534,0.534h-17.102c-0.295,0-0.534-0.239-0.534-0.534v-17.102c0-0.295,0.239-0.534,0.534-0.534h17.102    c0.295,0,0.534,0.239,0.534,0.534V384.267z"
         id="path4798"
         style="fill:#ffffff;fill-opacity:1" /></g></g><g
     id="g4808"
     style="fill:#ffffff;fill-opacity:1"><g
       id="g4806"
       style="fill:#ffffff;fill-opacity:1"><path
         d="M273.102,419.006H256c-9.136,0-16.568,7.432-16.568,16.568v17.102c0,9.136,7.432,16.568,16.568,16.568h17.102    c9.136,0,16.568-7.432,16.568-16.568v-17.102C289.67,426.438,282.238,419.006,273.102,419.006z M273.637,452.676    c0,0.295-0.239,0.534-0.534,0.534H256c-0.295,0-0.534-0.239-0.534-0.534v-17.102c0-0.295,0.239-0.534,0.534-0.534h17.102    c0.295,0,0.534,0.239,0.534,0.534V452.676z"
         id="path4804"
         style="fill:#ffffff;fill-opacity:1" /></g></g><g
     id="g4814"
     style="fill:#ffffff;fill-opacity:1"><g
       id="g4812"
       style="fill:#ffffff;fill-opacity:1"><path
         d="M409.921,419.006h-17.102c-9.136,0-16.568,7.432-16.568,16.568v17.102c0,9.136,7.432,16.568,16.568,16.568h17.102    c9.136,0,16.568-7.432,16.568-16.568v-17.102C426.489,426.438,419.057,419.006,409.921,419.006z M410.456,452.676    c0,0.295-0.239,0.534-0.534,0.534h-17.102c-0.295,0-0.534-0.239-0.534-0.534v-17.102c0-0.295,0.239-0.534,0.534-0.534h17.102    c0.295,0,0.534,0.239,0.534,0.534V452.676z"
         id="path4810"
         style="fill:#ffffff;fill-opacity:1" /></g></g><g
     id="g4820"
     style="fill:#ffffff;fill-opacity:1"><g
       id="g4818"
       style="fill:#ffffff;fill-opacity:1"><path
         d="M341.512,419.006h-17.102c-9.136,0-16.568,7.432-16.568,16.568v17.102c0,9.136,7.432,16.568,16.568,16.568h17.102    c9.136,0,16.568-7.432,16.568-16.568v-17.102C358.08,426.438,350.648,419.006,341.512,419.006z M342.046,452.676    c0,0.295-0.239,0.534-0.534,0.534h-17.102c-0.295,0-0.534-0.239-0.534-0.534v-17.102c0-0.295,0.239-0.534,0.534-0.534h17.102    c0.295,0,0.534,0.239,0.534,0.534V452.676z"
         id="path4816"
         style="fill:#ffffff;fill-opacity:1" /></g></g><g
     id="g4822"
     style="fill:#ffffff;fill-opacity:1" /><g
     id="g4824"
     style="fill:#ffffff;fill-opacity:1" /><g
     id="g4826"
     style="fill:#ffffff;fill-opacity:1" /><g
     id="g4828"
     style="fill:#ffffff;fill-opacity:1" /><g
     id="g4830"
     style="fill:#ffffff;fill-opacity:1" /><g
     id="g4832"
     style="fill:#ffffff;fill-opacity:1" /><g
     id="g4834"
     style="fill:#ffffff;fill-opacity:1" /><g
     id="g4836"
     style="fill:#ffffff;fill-opacity:1" /><g
     id="g4838"
     style="fill:#ffffff;fill-opacity:1" /><g
     id="g4840"
     style="fill:#ffffff;fill-opacity:1" /><g
     id="g4842"
     style="fill:#ffffff;fill-opacity:1" /><g
     id="g4844"
     style="fill:#ffffff;fill-opacity:1" /><g
     id="g4846"
     style="fill:#ffffff;fill-opacity:1" /><g
     id="g4848"
     style="fill:#ffffff;fill-opacity:1" /><g
     id="g4850"
     style="fill:#ffffff;fill-opacity:1" /></svg>
