<?xml version="1.0" encoding="iso-8859-1"?>
<!-- Generator: Adobe Illustrator 19.0.0, SVG Export Plug-In . SVG Version: 6.00 Build 0)  -->
<svg xmlns="http://www.w3.org/2000/svg" xmlns:xlink="http://www.w3.org/1999/xlink" version="1.1" id="Layer_1" x="0px" y="0px" viewBox="0 0 512 512" style="enable-background:new 0 0 512 512;" xml:space="preserve" width="512px" height="512px">
<g>
	<g>
		<path d="M461.228,119.716h-0.534V93.528c0-2.126-0.844-4.165-2.348-5.668L372.833,2.348C371.33,0.844,369.291,0,367.165,0H67.875    c-9.136,0-16.568,7.432-16.568,16.568v103.148h-0.534c-18.566,0-33.67,15.105-33.67,33.67V478.33    c0,18.566,15.105,33.67,33.67,33.67h410.455c18.566,0,33.67-15.105,33.67-33.67V153.386    C494.898,134.821,479.793,119.716,461.228,119.716z M375.182,27.37l58.141,58.141h-40.505c-9.725,0-17.637-7.912-17.637-17.637    V27.37z M67.34,16.568c0-0.295,0.239-0.534,0.534-0.534h291.273v51.841c0,18.566,15.105,33.67,33.67,33.67h51.841v137.887H236.126    c-11.641,0-22.447-5.783-28.905-15.469l-8.819-13.229c-9.437-14.157-25.229-22.609-42.244-22.609H67.34V16.568z M33.136,153.386    c0-9.725,7.912-17.637,17.637-17.637h0.534v52.376h-0.534c-6.463,0-12.504,1.834-17.637,5.004V153.386z M478.864,478.33    c0,9.725-7.912,17.637-17.637,17.637H50.772c-9.725,0-17.637-7.912-17.637-17.637V221.795c0-9.725,7.912-17.637,17.637-17.637    h105.385c11.641,0,22.447,5.783,28.905,15.469l8.819,13.229c9.438,14.157,25.23,22.609,42.245,22.609h225.1    c9.725,0,17.637,7.912,17.637,17.637V478.33z M478.864,244.436c-5.133-3.169-11.174-5.004-17.637-5.004h-0.534V135.749h0.534    c9.725,0,17.637,7.912,17.637,17.637V244.436z" fill="#FFFFFF"/>
	</g>
</g>
<g>
	<g>
		<path d="M135.749,96.44V68.582c5.907,1.936,9.62,5.834,9.62,9.447c0,4.427,3.589,8.017,8.017,8.017s8.017-3.589,8.017-8.017    c0-12.784-10.768-23.198-25.654-25.984v-1.273c0-4.427-3.589-8.017-8.017-8.017s-8.017,3.589-8.017,8.017v1.273    c-14.885,2.786-25.653,13.2-25.653,25.984c0,17.862,14.265,25.369,25.653,29.69v27.859c-5.907-1.937-9.62-5.834-9.62-9.448    c0-4.427-3.589-8.017-8.017-8.017s-8.017,3.589-8.017,8.017c0,12.784,10.768,23.198,25.653,25.984v1.273    c0,4.427,3.589,8.017,8.017,8.017s8.017-3.589,8.017-8.017v-1.273c14.885-2.786,25.654-13.2,25.654-25.984    C161.403,108.267,147.137,100.76,135.749,96.44z M119.716,90.227c-7.992-3.916-9.62-7.337-9.62-12.198    c0-3.614,3.713-7.511,9.62-9.447V90.227z M135.749,135.576v-21.645c7.992,3.916,9.62,7.337,9.62,12.198    C145.37,129.743,141.656,133.641,135.749,135.576z" fill="#FFFFFF"/>
	</g>
</g>
<g>
	<g>
		<path d="M281.653,59.858h-85.511c-4.427,0-8.017,3.589-8.017,8.017s3.589,8.017,8.017,8.017h85.511    c4.427,0,8.017-3.589,8.017-8.017S286.081,59.858,281.653,59.858z" fill="#FFFFFF"/>
	</g>
</g>
<g>
	<g>
		<path d="M213.244,128.267h-17.102c-4.427,0-8.017,3.589-8.017,8.017s3.589,8.017,8.017,8.017h17.102    c4.427,0,8.017-3.589,8.017-8.017S217.672,128.267,213.244,128.267z" fill="#FFFFFF"/>
	</g>
</g>
<g>
	<g>
		<path d="M315.858,128.267h-17.102c-4.427,0-8.017,3.589-8.017,8.017s3.589,8.017,8.017,8.017h17.102    c4.427,0,8.017-3.589,8.017-8.017S320.285,128.267,315.858,128.267z" fill="#FFFFFF"/>
	</g>
</g>
<g>
	<g>
		<path d="M264.551,128.267h-17.102c-4.427,0-8.017,3.589-8.017,8.017s3.589,8.017,8.017,8.017h17.102    c4.427,0,8.017-3.589,8.017-8.017S268.979,128.267,264.551,128.267z" fill="#FFFFFF"/>
	</g>
</g>
<g>
	<g>
		<path d="M332.96,94.063H196.142c-4.427,0-8.017,3.589-8.017,8.017s3.589,8.017,8.017,8.017H332.96    c4.427,0,8.017-3.589,8.017-8.017S337.388,94.063,332.96,94.063z" fill="#FFFFFF"/>
	</g>
</g>
<g>
	<g>
		<path d="M350.063,171.023H213.244c-4.427,0-8.017,3.589-8.017,8.017s3.589,8.017,8.017,8.017h136.818    c4.427,0,8.017-3.589,8.017-8.017S354.49,171.023,350.063,171.023z" fill="#FFFFFF"/>
	</g>
</g>
<g>
	<g>
		<path d="M401.37,171.023h-17.102c-4.427,0-8.017,3.589-8.017,8.017s3.589,8.017,8.017,8.017h17.102    c4.427,0,8.017-3.589,8.017-8.017S405.797,171.023,401.37,171.023z" fill="#FFFFFF"/>
	</g>
</g>
<g>
	<g>
		<path d="M350.063,205.228H238.898c-4.427,0-8.017,3.589-8.017,8.017s3.589,8.017,8.017,8.017h111.165    c4.427,0,8.017-3.589,8.017-8.017S354.49,205.228,350.063,205.228z" fill="#FFFFFF"/>
	</g>
</g>
<g>
	<g>
		<path d="M401.37,205.228h-17.102c-4.427,0-8.017,3.589-8.017,8.017s3.589,8.017,8.017,8.017h17.102    c4.427,0,8.017-3.589,8.017-8.017S405.797,205.228,401.37,205.228z" fill="#FFFFFF"/>
	</g>
</g>
<g>
</g>
<g>
</g>
<g>
</g>
<g>
</g>
<g>
</g>
<g>
</g>
<g>
</g>
<g>
</g>
<g>
</g>
<g>
</g>
<g>
</g>
<g>
</g>
<g>
</g>
<g>
</g>
<g>
</g>
</svg>
