<?xml version="1.0" encoding="iso-8859-1"?>
<!-- Generator: Adobe Illustrator 19.0.0, SVG Export Plug-In . SVG Version: 6.00 Build 0)  -->
<svg xmlns="http://www.w3.org/2000/svg" xmlns:xlink="http://www.w3.org/1999/xlink" version="1.1" id="Layer_1" x="0px" y="0px" viewBox="0 0 491.52 491.52" style="enable-background:new 0 0 491.52 491.52;" xml:space="preserve">
<circle style="fill:#FCD462;" cx="245.76" cy="245.76" r="151.066"/>
<circle style="fill:#F6C358;" cx="245.76" cy="245.76" r="125.86"/>
<path style="fill:#DC8744;" d="M240.568,343.708v-17.25c-21.596-2.202-40.98-10.788-58.134-25.75l17.25-20.557  c13.231,11.5,26.846,18.346,40.884,20.557v-45.846c-17.808-4.25-30.846-9.846-39.115-16.779  c-8.269-6.933-12.404-17.211-12.404-30.836c0-13.625,4.75-24.769,14.288-33.442c9.538-8.663,21.942-13.384,37.23-14.173v-11.817  h15.115v12.048c17.327,1.269,33.711,7.173,49.153,17.731l-15.365,21.74c-10.404-7.404-21.654-11.971-33.788-13.711v44.423h0.712  c18.115,4.26,31.423,10.01,39.923,17.25c8.519,7.25,12.769,17.769,12.769,31.548c0,13.788-4.885,25.019-14.654,33.673  c-9.769,8.673-22.673,13.394-38.75,14.183v17.009H240.568z M223.895,191.18c-4.019,3.538-6.019,7.952-6.019,13.231  c0,5.279,1.577,9.452,4.731,12.519c3.135,3.077,9.135,6.029,17.961,8.865v-40.884C233.472,185.546,227.914,187.632,223.895,191.18z   M273.644,294.795c4.404-3.615,6.615-8.183,6.615-13.702c0-5.51-1.731-9.885-5.192-13.115c-3.481-3.231-9.942-6.26-19.384-9.096  v42.528C263.241,300.631,269.221,298.42,273.644,294.795z"/>
<path style="fill:#44C4A1;" d="M245.76,17.873c59.843,0,116.792,23.494,159.227,64.961h-59.911v17.873h89.393V11.311h-17.873v57.878  C370.94,25.003,309.888,0,245.76,0C110.252,0,0,110.247,0,245.76h17.873C17.873,120.105,120.105,17.873,245.76,17.873z"/>
<path style="fill:#27A2DB;" d="M473.647,245.76c0,125.655-102.231,227.887-227.887,227.887c-59.84,0-116.791-23.492-159.225-64.957  h59.908v-17.873H57.05v89.393h17.873v-57.876c45.66,44.183,106.719,69.187,170.836,69.187c135.508,0,245.76-110.247,245.76-245.76  H473.647z"/>
<g>
</g>
<g>
</g>
<g>
</g>
<g>
</g>
<g>
</g>
<g>
</g>
<g>
</g>
<g>
</g>
<g>
</g>
<g>
</g>
<g>
</g>
<g>
</g>
<g>
</g>
<g>
</g>
<g>
</g>
</svg>
