<?xml version="1.0" encoding="iso-8859-1"?>
<!-- Generator: Adobe Illustrator 19.0.0, SVG Export Plug-In . SVG Version: 6.00 Build 0)  -->
<svg xmlns="http://www.w3.org/2000/svg" xmlns:xlink="http://www.w3.org/1999/xlink" version="1.1" id="Layer_1" x="0px" y="0px" viewBox="0 0 491.525 491.525" style="enable-background:new 0 0 491.525 491.525;" xml:space="preserve">
<ellipse style="fill:#FCD462;" cx="152.049" cy="118.326" rx="118.272" ry="118.323"/>
<ellipse style="fill:#F6C358;" cx="152.049" cy="118.326" rx="98.524" ry="98.591"/>
<path style="fill:#DC8744;" d="M147.982,195.065v-13.513c-16.906-1.725-32.08-8.451-45.509-20.171l13.504-16.104  c10.357,9.008,21.016,14.371,32.005,16.104v-35.913c-13.94-3.329-24.147-7.713-30.62-13.144c-6.473-5.431-9.71-13.483-9.71-24.156  s3.718-19.403,11.185-26.197c7.467-6.786,17.177-10.485,29.145-11.102v-9.257h11.833v9.438c13.564,0.994,26.39,5.619,38.478,13.889  l-12.028,17.03c-8.144-5.8-16.951-9.378-26.45-10.741v34.799h0.557c14.181,3.337,24.598,7.841,31.252,13.513  c6.669,5.679,9.996,13.919,9.996,24.713c0,10.801-3.824,19.599-11.471,26.378c-7.647,6.794-17.749,10.492-30.334,11.11v13.324  H147.982z M134.931,75.582c-3.146,2.772-4.712,6.229-4.712,10.364c0,4.135,1.234,7.404,3.703,9.807  c2.454,2.41,7.151,4.723,14.061,6.945V70.671C142.427,71.168,138.077,72.803,134.931,75.582z M173.876,156.749  c3.447-2.832,5.179-6.41,5.179-10.733c0-4.316-1.355-7.743-4.065-10.274c-2.725-2.531-7.783-4.903-15.175-7.125v33.315  C165.731,161.321,170.413,159.589,173.876,156.749z"/>
<ellipse style="fill:#2D93BA;" cx="402.893" cy="88.696" rx="88.632" ry="88.694"/>
<ellipse style="fill:#27A2DB;" cx="402.893" cy="88.696" rx="73.846" ry="73.897"/>
<path style="fill:#2D93BA;" d="M399.841,146.201v-10.128c-12.671-1.293-24.044-6.334-34.109-15.118l10.121-12.07  c7.763,6.752,15.751,10.771,23.988,12.07V94.038c-10.448-2.495-18.098-5.781-22.95-9.851s-7.278-10.105-7.278-18.105  c0-7.999,2.787-14.542,8.383-19.634c5.596-5.086,12.874-7.858,21.844-8.321v-6.938h8.868v7.074  c10.166,0.745,19.779,4.211,28.839,10.41l-9.015,12.764c-6.104-4.347-12.705-7.028-19.824-8.05v26.081h0.417  c10.629,2.501,18.436,5.877,23.424,10.128c4.998,4.257,7.492,10.433,7.492,18.522c0,8.095-2.866,14.689-8.598,19.77  c-5.732,5.092-13.303,7.864-22.735,8.327v9.987H399.841z M390.059,56.649c-2.358,2.077-3.532,4.669-3.532,7.768  c0,3.099,0.925,5.549,2.776,7.35c1.839,1.807,5.359,3.54,10.538,5.205V52.968C395.678,53.341,392.417,54.566,390.059,56.649z   M419.248,117.483c2.584-2.123,3.881-4.804,3.881-8.045c0-3.235-1.015-5.803-3.046-7.7c-2.042-1.897-5.833-3.675-11.373-5.34v24.969  C413.144,120.91,416.653,119.612,419.248,117.483z"/>
<path style="fill:#DC8744;" d="M422.7,153.179H17.4c-9.609,0-17.4,7.791-17.4,17.401v303.542c0,9.61,7.791,17.401,17.4,17.401h405.3  c9.61,0,17.401-7.791,17.401-17.401V170.58C440.101,160.97,432.31,153.179,422.7,153.179z"/>
<path style="fill:#EBF0F3;" d="M404.484,471.2h-9.859v-8.129h9.851c1.405-0.004,2.762-0.409,3.937-1.175l4.445,6.803  C410.374,470.331,407.476,471.196,404.484,471.2z M378.257,471.2H361.88v-8.129h16.376V471.2z M345.512,471.2h-16.368v-8.129h16.368  V471.2z M312.768,471.2H296.4v-8.129h16.368V471.2z M280.032,471.2h-16.376v-8.129h16.376V471.2z M247.288,471.2H230.92v-8.129  h16.368V471.2z M214.552,471.2h-16.376v-8.129h16.376V471.2z M181.807,471.2h-16.368v-8.129h16.368V471.2z M149.063,471.2h-16.368  v-8.129h16.368V471.2z M116.327,471.2H99.951v-8.129h16.376V471.2z M83.583,471.2H67.215v-8.129h16.368V471.2z M50.839,471.2H35.63  c-0.532,0-1.064-0.028-1.58-0.083l0.841-8.081l15.947,0.036V471.2z M20.325,456.03v-16.503h8.128v16.372L20.325,456.03z   M419.78,450.668h-8.128v-16.372h8.128V450.668z M28.454,423.159h-8.128v-16.372h8.128V423.159z M419.78,417.928h-8.128v-16.372  h8.128V417.928z M28.454,390.415h-8.128v-16.368h8.128V390.415z M419.78,385.184h-8.128v-16.368h8.128V385.184z M28.454,357.675  h-8.128v-16.372h8.128V357.675z M419.78,352.444h-8.128v-16.368h8.128V352.444z M28.454,324.935h-8.128v-16.372h8.128V324.935z   M419.78,319.704h-8.128v-16.372h8.128V319.704z M28.454,292.191h-8.128v-16.368h8.128V292.191z M419.78,286.963h-8.128v-16.372  h8.128V286.963z M28.454,259.45h-8.128v-16.372h8.128V259.45z M419.78,254.219h-8.128v-16.368h8.128V254.219z M28.454,226.71h-8.128  v-16.372h8.128V226.71z M419.78,221.479h-8.128v-16.372h8.128V221.479z M28.454,193.97h-8.128v-5.168  c0-5.203,2.612-10.006,6.985-12.848l4.429,6.819c-2.056,1.334-3.286,3.588-3.286,6.029V193.97z M411.652,188.763  c-0.024-3.651-2.77-6.696-6.39-7.089l0.873-8.081c7.74,0.837,13.606,7.339,13.645,15.122L411.652,188.763z M389.33,181.63h-16.368  v-8.128h16.368V181.63z M356.586,181.63h-16.368v-8.128h16.368V181.63z M323.85,181.63h-16.376v-8.128h16.376V181.63z   M291.105,181.63h-16.368v-8.128h16.368V181.63z M258.361,181.63h-16.368v-8.128h16.368V181.63z M225.625,181.63h-16.376v-8.128  h16.376V181.63z M192.881,181.63h-16.368v-8.128h16.368V181.63z M160.137,181.63h-16.368v-8.128h16.368V181.63z M127.401,181.63  h-16.376v-8.128h16.376V181.63z M94.656,181.63H78.288v-8.128h16.368V181.63z M61.912,181.63H45.544v-8.128h16.368V181.63z"/>
<path style="fill:#F6C358;" d="M443.639,290.685l-73.026,0c-17.964,0-32.434,14.958-31.634,33.098  c0.762,17.286,16.398,30.233,33.701,30.233h70.96c1.893,0,3.428-1.535,3.428-3.428v-56.475  C447.067,292.22,445.532,290.685,443.639,290.685z"/>
<circle style="fill:#64798A;" cx="370.432" cy="322.353" r="22.589"/>
<path style="fill:#3A556A;" d="M381.462,309.024c1.298,2.435,2.103,5.172,2.103,8.124c0,9.604-7.786,17.389-17.389,17.389  c-4.219,0-8.035-1.564-11.047-4.063c2.924,5.488,8.636,9.266,15.288,9.266c9.603,0,17.388-7.786,17.388-17.389  C387.804,316.966,385.306,312.214,381.462,309.024z"/>
<g>
</g>
<g>
</g>
<g>
</g>
<g>
</g>
<g>
</g>
<g>
</g>
<g>
</g>
<g>
</g>
<g>
</g>
<g>
</g>
<g>
</g>
<g>
</g>
<g>
</g>
<g>
</g>
<g>
</g>
</svg>
