<?xml version="1.0" encoding="UTF-8" standalone="no"?>
<!-- Generator: Adobe Illustrator 19.0.0, SVG Export Plug-In . SVG Version: 6.00 Build 0)  -->

<svg
   xmlns:dc="http://purl.org/dc/elements/1.1/"
   xmlns:cc="http://creativecommons.org/ns#"
   xmlns:rdf="http://www.w3.org/1999/02/22-rdf-syntax-ns#"
   xmlns:svg="http://www.w3.org/2000/svg"
   xmlns="http://www.w3.org/2000/svg"
   xmlns:sodipodi="http://sodipodi.sourceforge.net/DTD/sodipodi-0.dtd"
   xmlns:inkscape="http://www.inkscape.org/namespaces/inkscape"
   version="1.1"
   id="Layer_1"
   x="0px"
   y="0px"
   viewBox="0 0 512 512"
   style="enable-background:new 0 0 512 512;"
   xml:space="preserve"
   sodipodi:docname="wallet.svg"
   inkscape:version="0.92.0 r15299"><metadata
     id="metadata189"><rdf:RDF><cc:Work
         rdf:about=""><dc:format>image/svg+xml</dc:format><dc:type
           rdf:resource="http://purl.org/dc/dcmitype/StillImage" /></cc:Work></rdf:RDF></metadata><defs
     id="defs187" /><sodipodi:namedview
     pagecolor="#ffffff"
     bordercolor="#666666"
     borderopacity="1"
     objecttolerance="10"
     gridtolerance="10"
     guidetolerance="10"
     inkscape:pageopacity="0"
     inkscape:pageshadow="2"
     inkscape:window-width="1366"
     inkscape:window-height="705"
     id="namedview185"
     showgrid="false"
     inkscape:zoom="1.046875"
     inkscape:cx="256"
     inkscape:cy="256"
     inkscape:window-x="-8"
     inkscape:window-y="-8"
     inkscape:window-maximized="1"
     inkscape:current-layer="Layer_1" /><g
     id="g14"
     style="fill:#ffffff;fill-opacity:1"><g
       id="g12"
       style="fill:#ffffff;fill-opacity:1"><path
         d="M42.221,102.614c-4.427,0-8.017,3.589-8.017,8.017s3.589,8.017,8.017,8.017h0.086c4.427,0,7.974-3.589,7.974-8.017    S46.649,102.614,42.221,102.614z"
         id="path10"
         style="fill:#ffffff;fill-opacity:1" /></g></g><g
     id="g20"
     style="fill:#ffffff;fill-opacity:1"><g
       id="g18"
       style="fill:#ffffff;fill-opacity:1"><path
         d="M93.528,102.614c-4.427,0-8.017,3.589-8.017,8.017s3.589,8.017,8.017,8.017h0.086c4.427,0,7.974-3.589,7.974-8.017    S97.956,102.614,93.528,102.614z"
         id="path16"
         style="fill:#ffffff;fill-opacity:1" /></g></g><g
     id="g26"
     style="fill:#ffffff;fill-opacity:1"><g
       id="g24"
       style="fill:#ffffff;fill-opacity:1"><path
         d="M67.875,102.614c-4.427,0-8.017,3.589-8.017,8.017s3.589,8.017,8.017,8.017h0.086c4.427,0,7.974-3.589,7.974-8.017    S72.302,102.614,67.875,102.614z"
         id="path22"
         style="fill:#ffffff;fill-opacity:1" /></g></g><g
     id="g32"
     style="fill:#ffffff;fill-opacity:1"><g
       id="g30"
       style="fill:#ffffff;fill-opacity:1"><path
         d="M469.864,102.614H127.818c-4.427,0-8.017,3.589-8.017,8.017s3.589,8.017,8.017,8.017h342.046    c4.427,0,8.017-3.589,8.017-8.017S474.292,102.614,469.864,102.614z"
         id="path28"
         style="fill:#ffffff;fill-opacity:1" /></g></g><g
     id="g38"
     style="fill:#ffffff;fill-opacity:1"><g
       id="g36"
       style="fill:#ffffff;fill-opacity:1"><path
         d="M478.33,68.409H33.67C15.105,68.409,0,83.514,0,102.079v307.841c0,18.566,15.105,33.67,33.67,33.67h444.66    c18.566,0,33.67-15.105,33.67-33.67V102.079C512,83.514,496.895,68.409,478.33,68.409z M495.967,409.921    c0,9.725-7.912,17.637-17.637,17.637H33.67c-9.725,0-17.637-7.912-17.637-17.637V152.852h479.933V409.921z M495.967,136.818    H16.033v-34.739c0-9.725,7.912-17.637,17.637-17.637h444.66c9.725,0,17.637,7.912,17.637,17.637V136.818z"
         id="path34"
         style="fill:#ffffff;fill-opacity:1" /></g></g><g
     id="g44"
     style="fill:#ffffff;fill-opacity:1"><g
       id="g42"
       style="fill:#ffffff;fill-opacity:1"><path
         d="M238.363,223.649v-18.956c0-13.851-11.268-25.119-25.119-25.119H67.875c-13.851,0-25.119,11.268-25.119,25.119v102.614    c0,13.851,11.268,25.119,25.119,25.119h145.37c13.851,0,25.119-11.268,25.119-25.119v-18.956    c9.93-3.354,17.102-12.752,17.102-23.8v-17.102C255.466,236.401,248.293,227.003,238.363,223.649z M222.33,307.307    c0,5.01-4.076,9.086-9.086,9.086H67.875c-5.01,0-9.086-4.076-9.086-9.086V204.693c0-5.01,4.076-9.086,9.086-9.086h145.37    c5.01,0,9.086,4.076,9.086,9.086v17.637h-26.188c-13.851,0-25.119,11.268-25.119,25.119v17.102    c0,13.851,11.268,25.119,25.119,25.119h26.188V307.307z M239.432,264.551c0,5.01-4.076,9.086-9.086,9.086h-34.205    c-5.01,0-9.086-4.076-9.086-9.086v-17.102c0-5.01,4.076-9.086,9.086-9.086h34.194c0.003,0,0.006,0,0.011,0    c0.002,0,0.003,0,0.005,0c5.008,0.003,9.08,4.077,9.08,9.086V264.551z"
         id="path40"
         style="fill:#ffffff;fill-opacity:1" /></g></g><g
     id="g50"
     style="fill:#ffffff;fill-opacity:1"><g
       id="g48"
       style="fill:#ffffff;fill-opacity:1"><path
         d="M204.693,247.983h-0.086c-4.427,0-7.974,3.589-7.974,8.017s3.632,8.017,8.059,8.017s8.017-3.589,8.017-8.017    S209.12,247.983,204.693,247.983z"
         id="path46"
         style="fill:#ffffff;fill-opacity:1" /></g></g><g
     id="g56"
     style="fill:#ffffff;fill-opacity:1"><g
       id="g54"
       style="fill:#ffffff;fill-opacity:1"><path
         d="M315.324,250.361v-27.859c5.907,1.936,9.62,5.833,9.62,9.447c0,4.427,3.589,8.017,8.017,8.017s8.017-3.589,8.017-8.017    c0-12.784-10.768-23.198-25.653-25.983v-1.273c0-4.427-3.589-8.017-8.017-8.017s-8.017,3.589-8.017,8.017v1.274    c-14.885,2.786-25.653,13.2-25.653,25.983c0,17.862,14.265,25.369,25.653,29.69v27.859c-5.907-1.936-9.62-5.833-9.62-9.447    c0-4.427-3.589-8.017-8.017-8.017s-8.017,3.589-8.017,8.017c0,12.784,10.768,23.198,25.653,25.983v1.273    c0,4.427,3.589,8.017,8.017,8.017s8.017-3.589,8.017-8.017v-1.274c14.885-2.786,25.653-13.2,25.653-25.983    C340.977,262.188,326.712,254.681,315.324,250.361z M299.29,244.149c-7.992-3.917-9.62-7.338-9.62-12.199    c0-3.614,3.713-7.511,9.62-9.447V244.149z M315.324,289.497v-21.646c7.992,3.917,9.62,7.338,9.62,12.199    C324.944,283.664,321.23,287.561,315.324,289.497z"
         id="path52"
         style="fill:#ffffff;fill-opacity:1" /></g></g><g
     id="g62"
     style="fill:#ffffff;fill-opacity:1"><g
       id="g60"
       style="fill:#ffffff;fill-opacity:1"><path
         d="M427.023,213.779h-59.858c-4.427,0-8.017,3.589-8.017,8.017s3.589,8.017,8.017,8.017h59.858    c4.427,0,8.017-3.589,8.017-8.017S431.45,213.779,427.023,213.779z"
         id="path58"
         style="fill:#ffffff;fill-opacity:1" /></g></g><g
     id="g68"
     style="fill:#ffffff;fill-opacity:1"><g
       id="g66"
       style="fill:#ffffff;fill-opacity:1"><path
         d="M384.267,282.188h-17.102c-4.427,0-8.017,3.589-8.017,8.017s3.589,8.017,8.017,8.017h17.102    c4.427,0,8.017-3.589,8.017-8.017S388.695,282.188,384.267,282.188z"
         id="path64"
         style="fill:#ffffff;fill-opacity:1" /></g></g><g
     id="g74"
     style="fill:#ffffff;fill-opacity:1"><g
       id="g72"
       style="fill:#ffffff;fill-opacity:1"><path
         d="M435.574,282.188h-17.102c-4.427,0-8.017,3.589-8.017,8.017s3.589,8.017,8.017,8.017h17.102    c4.427,0,8.017-3.589,8.017-8.017S440.001,282.188,435.574,282.188z"
         id="path70"
         style="fill:#ffffff;fill-opacity:1" /></g></g><g
     id="g80"
     style="fill:#ffffff;fill-opacity:1"><g
       id="g78"
       style="fill:#ffffff;fill-opacity:1"><path
         d="M461.228,247.983h-94.063c-4.427,0-8.017,3.589-8.017,8.017s3.589,8.017,8.017,8.017h94.063    c4.427,0,8.017-3.589,8.017-8.017S465.655,247.983,461.228,247.983z"
         id="path76"
         style="fill:#ffffff;fill-opacity:1" /></g></g><g
     id="g86"
     style="fill:#ffffff;fill-opacity:1"><g
       id="g84"
       style="fill:#ffffff;fill-opacity:1"><path
         d="M67.875,350.597H50.772c-4.427,0-8.017,3.589-8.017,8.017s3.589,8.017,8.017,8.017h17.102    c4.427,0,8.017-3.589,8.017-8.017S72.302,350.597,67.875,350.597z"
         id="path82"
         style="fill:#ffffff;fill-opacity:1" /></g></g><g
     id="g92"
     style="fill:#ffffff;fill-opacity:1"><g
       id="g90"
       style="fill:#ffffff;fill-opacity:1"><path
         d="M67.875,384.802H50.772c-4.427,0-8.017,3.589-8.017,8.017c0,4.427,3.589,8.017,8.017,8.017h17.102    c4.427,0,8.017-3.589,8.017-8.017C75.891,388.391,72.302,384.802,67.875,384.802z"
         id="path88"
         style="fill:#ffffff;fill-opacity:1" /></g></g><g
     id="g98"
     style="fill:#ffffff;fill-opacity:1"><g
       id="g96"
       style="fill:#ffffff;fill-opacity:1"><path
         d="M221.795,350.597H102.079c-4.427,0-8.017,3.589-8.017,8.017s3.589,8.017,8.017,8.017h119.716    c4.427,0,8.017-3.589,8.017-8.017S226.223,350.597,221.795,350.597z"
         id="path94"
         style="fill:#ffffff;fill-opacity:1" /></g></g><g
     id="g104"
     style="fill:#ffffff;fill-opacity:1"><g
       id="g102"
       style="fill:#ffffff;fill-opacity:1"><path
         d="M221.795,384.802H102.079c-4.427,0-8.017,3.589-8.017,8.017c0,4.427,3.589,8.017,8.017,8.017h119.716    c4.427,0,8.017-3.589,8.017-8.017C229.812,388.391,226.223,384.802,221.795,384.802z"
         id="path100"
         style="fill:#ffffff;fill-opacity:1" /></g></g><g
     id="g110"
     style="fill:#ffffff;fill-opacity:1"><g
       id="g108"
       style="fill:#ffffff;fill-opacity:1"><path
         d="M358.614,350.597h-51.307c-4.427,0-8.017,3.589-8.017,8.017s3.589,8.017,8.017,8.017h51.307    c4.427,0,8.017-3.589,8.017-8.017S363.041,350.597,358.614,350.597z"
         id="path106"
         style="fill:#ffffff;fill-opacity:1" /></g></g><g
     id="g116"
     style="fill:#ffffff;fill-opacity:1"><g
       id="g114"
       style="fill:#ffffff;fill-opacity:1"><path
         d="M358.614,384.802h-51.307c-4.427,0-8.017,3.589-8.017,8.017c0,4.427,3.589,8.017,8.017,8.017h51.307    c4.427,0,8.017-3.589,8.017-8.017C366.63,388.391,363.041,384.802,358.614,384.802z"
         id="path112"
         style="fill:#ffffff;fill-opacity:1" /></g></g><g
     id="g122"
     style="fill:#ffffff;fill-opacity:1"><g
       id="g120"
       style="fill:#ffffff;fill-opacity:1"><path
         d="M409.921,350.597h-17.102c-4.427,0-8.017,3.589-8.017,8.017s3.589,8.017,8.017,8.017h17.102    c4.427,0,8.017-3.589,8.017-8.017S414.348,350.597,409.921,350.597z"
         id="path118"
         style="fill:#ffffff;fill-opacity:1" /></g></g><g
     id="g128"
     style="fill:#ffffff;fill-opacity:1"><g
       id="g126"
       style="fill:#ffffff;fill-opacity:1"><path
         d="M409.921,384.802h-17.102c-4.427,0-8.017,3.589-8.017,8.017c0,4.427,3.589,8.017,8.017,8.017h17.102    c4.427,0,8.017-3.589,8.017-8.017C417.937,388.391,414.348,384.802,409.921,384.802z"
         id="path124"
         style="fill:#ffffff;fill-opacity:1" /></g></g><g
     id="g134"
     style="fill:#ffffff;fill-opacity:1"><g
       id="g132"
       style="fill:#ffffff;fill-opacity:1"><path
         d="M461.228,350.597h-17.102c-4.427,0-8.017,3.589-8.017,8.017s3.589,8.017,8.017,8.017h17.102    c4.427,0,8.017-3.589,8.017-8.017S465.655,350.597,461.228,350.597z"
         id="path130"
         style="fill:#ffffff;fill-opacity:1" /></g></g><g
     id="g140"
     style="fill:#ffffff;fill-opacity:1"><g
       id="g138"
       style="fill:#ffffff;fill-opacity:1"><path
         d="M461.228,384.802h-17.102c-4.427,0-8.017,3.589-8.017,8.017c0,4.427,3.589,8.017,8.017,8.017h17.102    c4.427,0,8.017-3.589,8.017-8.017C469.244,388.391,465.655,384.802,461.228,384.802z"
         id="path136"
         style="fill:#ffffff;fill-opacity:1" /></g></g><g
     id="g146"
     style="fill:#ffffff;fill-opacity:1"><g
       id="g144"
       style="fill:#ffffff;fill-opacity:1"><path
         d="M273.102,350.597H256c-4.427,0-8.017,3.589-8.017,8.017s3.589,8.017,8.017,8.017h17.102c4.427,0,8.017-3.589,8.017-8.017    S277.53,350.597,273.102,350.597z"
         id="path142"
         style="fill:#ffffff;fill-opacity:1" /></g></g><g
     id="g152"
     style="fill:#ffffff;fill-opacity:1"><g
       id="g150"
       style="fill:#ffffff;fill-opacity:1"><path
         d="M273.102,384.802H256c-4.427,0-8.017,3.589-8.017,8.017c0,4.427,3.589,8.017,8.017,8.017h17.102    c4.427,0,8.017-3.589,8.017-8.017C281.119,388.391,277.53,384.802,273.102,384.802z"
         id="path148"
         style="fill:#ffffff;fill-opacity:1" /></g></g><g
     id="g154"
     style="fill:#ffffff;fill-opacity:1" /><g
     id="g156"
     style="fill:#ffffff;fill-opacity:1" /><g
     id="g158"
     style="fill:#ffffff;fill-opacity:1" /><g
     id="g160"
     style="fill:#ffffff;fill-opacity:1" /><g
     id="g162"
     style="fill:#ffffff;fill-opacity:1" /><g
     id="g164"
     style="fill:#ffffff;fill-opacity:1" /><g
     id="g166"
     style="fill:#ffffff;fill-opacity:1" /><g
     id="g168"
     style="fill:#ffffff;fill-opacity:1" /><g
     id="g170"
     style="fill:#ffffff;fill-opacity:1" /><g
     id="g172"
     style="fill:#ffffff;fill-opacity:1" /><g
     id="g174"
     style="fill:#ffffff;fill-opacity:1" /><g
     id="g176"
     style="fill:#ffffff;fill-opacity:1" /><g
     id="g178"
     style="fill:#ffffff;fill-opacity:1" /><g
     id="g180"
     style="fill:#ffffff;fill-opacity:1" /><g
     id="g182"
     style="fill:#ffffff;fill-opacity:1" /></svg>
